<svg version="1.1" id="Layer_1" xmlns="http://www.w3.org/2000/svg" x="0" y="0" viewBox="0 0 42.4 30.2" xml:space="preserve">
  <style>
    .st0{fill:#1d1d1b}
  </style>
  <g id="overlay">
    <path class="st0" d="M21.2 30.2c-.3 0-.5-.1-.7-.3L.4 11.9c-.3-.2-.4-.4-.4-.7 0-.3.1-.6.3-.8L10.4.4c.2-.3.5-.4.8-.4H31c.3 0 .6.1.8.3l10.3 10c.2.2.3.5.3.8 0 .3-.1.6-.4.8l-20.1 18c-.2.2-.5.3-.7.3zM2.7 11.1l18.5 16.6 18.5-16.6-9.1-8.9h-19l-8.9 8.9z"/>
    <path class="st0" d="M41.3 12.2H27.9c-.6 0-1.1-.5-1.1-1.1s.5-1.1 1.1-1.1h13.4c.6 0 1.1.5 1.1 1.1s-.5 1.1-1.1 1.1z"/>
    <path class="st0" d="M27.9 12.2H14.5c-.6 0-1.1-.5-1.1-1.1s.5-1.1 1.1-1.1h13.4c.6 0 1.1.5 1.1 1.1s-.5 1.1-1.1 1.1z"/>
    <path class="st0" d="M14.5 12.2H1.1c-.6 0-1.1-.5-1.1-1.1S.5 10 1.1 10h13.4c.6 0 1.1.5 1.1 1.1s-.5 1.1-1.1 1.1z"/>
    <path class="st0" d="M14.5 12.2c-.2 0-.4-.1-.6-.2-.5-.3-.6-1-.3-1.5L20.3.9c.3-.5 1-.6 1.5-.3s.6 1 .3 1.5l-6.7 9.6c-.2.3-.6.5-.9.5z"/>
    <path class="st0" d="M27.9 12.2c-.3 0-.7-.2-.9-.5l-6.7-9.6c-.3-.4-.2-1.1.3-1.4.5-.3 1.2-.2 1.5.3l6.7 9.6c.3.5.2 1.2-.3 1.5-.2 0-.4.1-.6.1zM21.2 30.2c-.4 0-.9-.3-1-.7L10.1 2c-.2-.6.1-1.2.6-1.4.6-.2 1.2.1 1.4.6l10 27.5c.2.6-.1 1.2-.6 1.4-.1.1-.2.1-.3.1z"/>
    <path class="st0" d="M21.2 30.2c-.1 0-.2 0-.4-.1-.6-.2-.8-.8-.6-1.4l10-27.5c.2-.6.8-.8 1.4-.6.6.2.8.8.6 1.4l-10 27.5c-.2.4-.6.7-1 .7z"/>
  </g>
</svg>