<?xml version="1.0" encoding="utf-8"?>
<!-- Svg Vector Icons : http://www.onlinewebfonts.com/icon -->
<!DOCTYPE svg PUBLIC "-//W3C//DTD SVG 1.1//EN" "http://www.w3.org/Graphics/SVG/1.1/DTD/svg11.dtd">
<svg version="1.1" xmlns="http://www.w3.org/2000/svg" xmlns:xlink="http://www.w3.org/1999/xlink" x="0px" y="0px" viewBox="0 0 1000 1000" enable-background="new 0 0 1000 1000" xml:space="preserve">
<metadata> Svg Vector Icons : http://www.onlinewebfonts.com/icon </metadata>
<g><path d="M147.9,928.9l715,5.3L326.4,743.9L147.9,928.9z M371.5,697.2l525.6,193.8L684.8,372.5L371.5,697.2z M897.1,152.6L729.9,325.8l209.7,528.9L897.1,152.6z M348.2,635.7l280.9-291.1l-292.5-1.2L348.2,635.7z M565.2,80.5l-204.6,212l291.9,1.2L565.2,80.5z M75.4,588.1l223.1,82.2l-11.9-301.1L75.4,588.1z M854.7,110.8L624.8,69.1l80.5,196.6L854.7,110.8z M118.2,874.1l147.3-152.6L70.6,649.6L118.2,874.1z M10,606.9L582.2,14l361.6,65.7L990,986l-901.3-8L10,606.9z"/></g>
</svg>