<svg width="216" height="70" viewBox="0 0 216 70" fill="none" xmlns="http://www.w3.org/2000/svg">
<g id="Group">
<g id="Group_2">
<g id="Group_3">
<path id="Vector" d="M13.9451 69.9963C13.3884 69.9963 12.8451 69.9892 12.2927 69.9768C11.1484 69.9618 10.0069 69.8621 8.8773 69.6783C7.82405 69.4966 6.80373 69.1587 5.85 68.6757C4.90501 68.1966 4.04311 67.5685 3.29731 66.8153C2.54072 66.071 1.91081 65.2078 1.43257 64.2598C0.949056 63.3056 0.614436 62.2828 0.440366 61.2271C0.252385 60.0928 0.150679 58.9457 0.136126 57.7959C0.124541 57.41 0.109375 56.125 0.109375 56.125V13.8517C0.109375 13.8517 0.125528 12.5864 0.136218 12.2147C0.150152 11.0667 0.251266 9.92146 0.438685 8.78885C0.613076 7.73025 0.947956 6.70455 1.43173 5.74726C1.90822 4.79991 2.53462 3.93601 3.28666 3.18905C4.03785 2.435 4.90251 1.80363 5.8491 1.31796C6.80064 0.836467 7.81903 0.500922 8.87016 0.322569C10.0034 0.136948 11.149 0.0365923 12.2972 0.022344L13.946 0H201.731L203.4 0.0232407C204.538 0.036781 205.673 0.136241 206.796 0.320775C207.857 0.501366 208.886 0.839253 209.849 1.32332C211.745 2.30208 213.288 3.85055 214.262 5.75172C214.738 6.70241 215.067 7.71974 215.24 8.7692C215.429 9.9111 215.535 11.0653 215.557 12.2227C215.562 12.741 215.562 13.2977 215.562 13.8517C215.577 14.5379 215.577 15.1911 215.577 15.8496V54.1484C215.577 54.8133 215.577 55.462 215.562 56.116C215.562 56.7111 215.562 57.2563 215.555 57.8173C215.534 58.9541 215.43 60.0877 215.243 61.2092C215.072 62.2725 214.74 63.3032 214.256 64.2652C213.775 65.203 213.148 66.0587 212.401 66.801C211.654 67.5582 210.791 68.1901 209.843 68.6722C208.884 69.1589 207.856 69.4981 206.796 69.6783C205.666 69.863 204.524 69.9628 203.38 69.9768C202.845 69.9892 202.284 69.9963 201.74 69.9963L199.759 70L13.9451 69.9963Z" fill="black"/>
</g>
<g id="&#60;Group&#62;">
<g id="&#60;Group&#62;_2">
<g id="&#60;Group&#62;_3">
<path id="&#60;Path&#62;" d="M43.7691 35.5472C43.7887 34.0198 44.1938 32.5222 44.9467 31.1937C45.6996 29.8653 46.7758 28.7491 48.0751 27.9491C47.2497 26.7685 46.1607 25.7968 44.8948 25.1114C43.6288 24.426 42.2207 24.0457 40.7822 24.0006C37.7138 23.678 34.7391 25.8394 33.1755 25.8394C31.5816 25.8394 29.1742 24.0326 26.5818 24.086C24.905 24.1403 23.2708 24.6286 21.8384 25.5035C20.4061 26.3783 19.2244 27.6098 18.4086 29.0779C14.8747 35.2055 17.5107 44.2108 20.8959 49.1638C22.5896 51.5892 24.569 54.2984 27.1591 54.2023C29.6936 54.097 30.6402 52.5837 33.6996 52.5837C36.7306 52.5837 37.6187 54.2023 40.2613 54.1412C42.981 54.097 44.6945 51.7051 46.3287 49.2568C47.5457 47.5286 48.4821 45.6186 49.1033 43.5976C47.5233 42.9283 46.1749 41.808 45.2263 40.3764C44.2777 38.9449 43.7709 37.2653 43.7691 35.5472Z" fill="white"/>
<path id="&#60;Path&#62;_2" d="M38.78 20.7427C40.2628 18.9599 40.9934 16.6685 40.8165 14.355C38.551 14.5933 36.4583 15.6776 34.9554 17.392C34.2206 18.2295 33.6578 19.2039 33.2992 20.2593C32.9406 21.3148 32.7932 22.4307 32.8655 23.5433C33.9987 23.5549 35.1197 23.309 36.1442 22.8239C37.1687 22.3388 38.0699 21.6272 38.78 20.7427Z" fill="white"/>
</g>
</g>
<g id="Group_4">
<path id="Vector_2" d="M75.8096 48.0623H67.1605L65.0834 54.2045H61.4199L69.6123 31.48H73.4185L81.6108 54.2045H77.8849L75.8096 48.0623ZM68.0562 45.228H74.9121L71.5324 35.2597H71.4378L68.0562 45.228Z" fill="white"/>
<path id="Vector_3" d="M99.3043 45.9223C99.3043 51.0708 96.5526 54.3787 92.4003 54.3787C91.3484 54.4338 90.3023 54.1912 89.3817 53.6785C88.4612 53.1659 87.7033 52.404 87.1951 51.48H87.1165V59.6863H83.7207V37.6373H87.0077V40.393H87.0701C87.6018 39.4735 88.3724 38.7156 89.3 38.1998C90.2276 37.684 91.2774 37.4297 92.3378 37.464C96.5365 37.464 99.3043 40.788 99.3043 45.9223ZM95.8139 45.9223C95.8139 42.5679 94.083 40.3626 91.442 40.3626C88.8474 40.3626 87.1023 42.6144 87.1023 45.9223C87.1023 49.2605 88.8474 51.4962 91.442 51.4962C94.083 51.4962 95.8139 49.307 95.8139 45.9223Z" fill="white"/>
<path id="Vector_4" d="M117.513 45.9222C117.513 51.0708 114.762 54.3787 110.609 54.3787C109.557 54.4338 108.511 54.1911 107.591 53.6785C106.67 53.1658 105.912 52.4039 105.404 51.48H105.325V59.6863H101.93V37.6373H105.217V40.393H105.279C105.811 39.4735 106.581 38.7156 107.509 38.1998C108.436 37.684 109.486 37.4297 110.547 37.464C114.746 37.464 117.513 40.7879 117.513 45.9222ZM114.023 45.9222C114.023 42.5679 112.292 40.3626 109.651 40.3626C107.056 40.3626 105.311 42.6143 105.311 45.9222C105.311 49.2605 107.056 51.4961 109.651 51.4961C112.292 51.4961 114.023 49.307 114.023 45.9222H114.023Z" fill="white"/>
<path id="Vector_5" d="M129.546 47.8734C129.798 50.1269 131.984 51.6065 134.971 51.6065C137.833 51.6065 139.893 50.1268 139.893 48.0949C139.893 46.3311 138.651 45.2749 135.71 44.5511L132.769 43.8417C128.603 42.8338 126.668 40.8823 126.668 37.7155C126.668 33.7947 130.08 31.1016 134.925 31.1016C139.719 31.1016 143.006 33.7947 143.117 37.7155H139.689C139.484 35.4477 137.612 34.0788 134.877 34.0788C132.141 34.0788 130.269 35.4638 130.269 37.4797C130.269 39.0862 131.465 40.0316 134.389 40.7553L136.889 41.3701C141.545 42.4727 143.479 44.3456 143.479 47.6695C143.479 51.921 140.098 54.5837 134.719 54.5837C129.687 54.5837 126.29 51.9835 126.07 47.8732L129.546 47.8734Z" fill="white"/>
<path id="Vector_6" d="M150.807 33.7163V37.6372H153.953V40.3303H150.807V49.4641C150.807 50.883 151.437 51.5442 152.82 51.5442C153.194 51.5377 153.567 51.5114 153.937 51.4655V54.1426C153.316 54.2589 152.684 54.3116 152.051 54.2998C148.702 54.2998 147.396 53.0399 147.396 49.8268V40.3303H144.99V37.6372H147.396V33.7163H150.807Z" fill="white"/>
<path id="Vector_7" d="M155.775 45.9222C155.775 40.7093 158.841 37.4336 163.622 37.4336C168.418 37.4336 171.47 40.7092 171.47 45.9222C171.47 51.1494 168.434 54.4108 163.622 54.4108C158.811 54.4108 155.775 51.1494 155.775 45.9222ZM168.009 45.9222C168.009 42.3463 166.373 40.2357 163.622 40.2357C160.87 40.2357 159.235 42.3624 159.235 45.9222C159.235 49.5125 160.87 51.6069 163.622 51.6069C166.373 51.6069 168.009 49.5125 168.009 45.9222H168.009Z" fill="white"/>
<path id="Vector_8" d="M174.268 37.6372H177.506V40.4572H177.585C177.804 39.5764 178.319 38.7981 179.044 38.253C179.769 37.7078 180.659 37.4292 181.564 37.4638C181.956 37.4624 182.346 37.505 182.728 37.5907V40.7717C182.234 40.6205 181.718 40.5511 181.202 40.5662C180.709 40.5462 180.217 40.6333 179.76 40.8215C179.304 41.0098 178.893 41.2948 178.557 41.6569C178.221 42.0191 177.967 42.4498 177.813 42.9195C177.658 43.3892 177.607 43.8867 177.663 44.378V54.2052H174.268L174.268 37.6372Z" fill="white"/>
<path id="Vector_9" d="M198.386 49.3391C197.929 52.3468 195.005 54.4108 191.263 54.4108C186.45 54.4108 183.463 51.1816 183.463 46.0009C183.463 40.804 186.466 37.4336 191.12 37.4336C195.697 37.4336 198.575 40.5824 198.575 45.6059V46.7711H186.891V46.9766C186.837 47.5863 186.913 48.2006 187.114 48.7786C187.316 49.3566 187.638 49.885 188.058 50.3289C188.479 50.7727 188.99 51.1218 189.556 51.353C190.122 51.5841 190.73 51.692 191.341 51.6695C192.144 51.7448 192.949 51.5586 193.637 51.1388C194.326 50.7189 194.86 50.0877 195.162 49.3391L198.386 49.3391ZM186.907 44.3943H195.178C195.208 43.846 195.125 43.2974 194.934 42.7828C194.743 42.2682 194.447 41.7987 194.066 41.4039C193.685 41.009 193.227 40.6973 192.72 40.4883C192.213 40.2793 191.668 40.1775 191.12 40.1893C190.567 40.186 190.019 40.2924 189.507 40.5023C188.995 40.7123 188.53 41.0217 188.139 41.4126C187.747 41.8036 187.436 42.2684 187.225 42.7801C187.014 43.2919 186.905 43.8405 186.907 44.3943V44.3943Z" fill="white"/>
</g>
</g>
</g>
<g id="&#60;Group&#62;_4">
<g id="Group_5">
<path id="Vector_10" d="M67.6316 14.3757C68.3435 14.3245 69.0579 14.4322 69.7233 14.691C70.3886 14.9499 70.9883 15.3533 71.479 15.8724C71.9698 16.3914 72.3395 17.013 72.5613 17.6924C72.7831 18.3718 72.8516 19.0921 72.7619 19.8012C72.7619 23.2896 70.8793 25.2948 67.6316 25.2948H63.6934V14.3757H67.6316ZM65.3868 23.7506H67.4425C67.9512 23.7811 68.4603 23.6975 68.9327 23.5061C69.4051 23.3146 69.829 23.0201 70.1734 22.6439C70.5178 22.2678 70.7741 21.8194 70.9237 21.3315C71.0733 20.8436 71.1124 20.3284 71.0381 19.8235C71.107 19.3206 71.064 18.8086 70.9121 18.3243C70.7602 17.8399 70.5032 17.3952 70.1596 17.0221C69.816 16.6489 69.3941 16.3564 68.9244 16.1657C68.4546 15.9749 67.9486 15.8906 67.4425 15.9187H65.3868V23.7506Z" fill="white"/>
<path id="Vector_11" d="M74.6746 21.1705C74.6229 20.629 74.6847 20.0826 74.8562 19.5665C75.0277 19.0503 75.305 18.5757 75.6703 18.1731C76.0357 17.7706 76.481 17.4489 76.9777 17.2288C77.4745 17.0087 78.0117 16.895 78.5549 16.895C79.0981 16.895 79.6353 17.0087 80.132 17.2288C80.6287 17.4489 81.0741 17.7706 81.4394 18.1731C81.8048 18.5757 82.0821 19.0503 82.2535 19.5665C82.425 20.0826 82.4869 20.629 82.4351 21.1705C82.4878 21.7126 82.4267 22.2597 82.2557 22.7767C82.0847 23.2937 81.8076 23.7692 81.4421 24.1726C81.0767 24.5759 80.631 24.8982 80.1338 25.1188C79.6365 25.3394 79.0987 25.4533 78.5549 25.4533C78.011 25.4533 77.4732 25.3394 76.976 25.1188C76.4787 24.8982 76.0331 24.5759 75.6676 24.1726C75.3022 23.7692 75.0251 23.2937 74.854 22.7767C74.683 22.2597 74.6219 21.7126 74.6746 21.1705ZM80.7649 21.1705C80.7649 19.3843 79.9637 18.3398 78.5575 18.3398C77.1461 18.3398 76.352 19.3843 76.352 21.1705C76.352 22.971 77.1461 24.0075 78.5575 24.0075C79.9637 24.0075 80.7649 22.9639 80.7649 21.1705H80.7649Z" fill="white"/>
<path id="Vector_12" d="M92.7509 25.2954H91.0664L89.3658 19.2265H89.2373L87.5439 25.2954H85.8754L83.6074 17.0552H85.2545L86.7284 23.3429H86.8498L88.5414 17.0552H90.0992L91.7909 23.3429H91.9193L93.3861 17.0552H95.01L92.7509 25.2954Z" fill="white"/>
<path id="Vector_13" d="M96.9199 17.0549H98.4831V18.3639H98.6044C98.8103 17.8937 99.1575 17.4996 99.5976 17.2365C100.038 16.9733 100.549 16.8542 101.06 16.8958C101.46 16.8657 101.862 16.9261 102.236 17.0727C102.61 17.2193 102.946 17.4482 103.22 17.7425C103.493 18.0369 103.697 18.3891 103.816 18.773C103.935 19.157 103.967 19.5629 103.908 19.9606V25.295H102.284V20.369C102.284 19.0448 101.709 18.3862 100.508 18.3862C100.237 18.3736 99.9653 18.4199 99.713 18.5221C99.4607 18.6242 99.2335 18.7798 99.0469 18.9782C98.8603 19.1765 98.7187 19.4129 98.6319 19.6712C98.545 19.9294 98.515 20.2035 98.5438 20.4744V25.2951H96.9199L96.9199 17.0549Z" fill="white"/>
<path id="Vector_14" d="M106.494 13.8379H108.118V25.2949H106.494V13.8379Z" fill="white"/>
<path id="Vector_15" d="M110.374 21.1707C110.322 20.6291 110.384 20.0827 110.555 19.5665C110.727 19.0503 111.004 18.5757 111.37 18.1731C111.735 17.7706 112.18 17.4489 112.677 17.2288C113.174 17.0087 113.711 16.895 114.254 16.895C114.798 16.895 115.335 17.0087 115.832 17.2288C116.328 17.4489 116.774 17.7706 117.139 18.1731C117.505 18.5757 117.782 19.0503 117.953 19.5665C118.125 20.0827 118.187 20.6291 118.135 21.1707C118.188 21.7128 118.127 22.2599 117.956 22.7769C117.785 23.2939 117.507 23.7694 117.142 24.1727C116.776 24.5761 116.331 24.8984 115.833 25.1189C115.336 25.3395 114.798 25.4534 114.254 25.4534C113.711 25.4534 113.173 25.3395 112.676 25.1189C112.178 24.8984 111.733 24.5761 111.367 24.1727C111.002 23.7694 110.724 23.2939 110.553 22.7769C110.382 22.2599 110.321 21.7128 110.374 21.1707ZM116.464 21.1707C116.464 19.3845 115.663 18.34 114.257 18.34C112.845 18.34 112.051 19.3845 112.051 21.1707C112.051 22.9712 112.845 24.0077 114.257 24.0077C115.663 24.0077 116.464 22.964 116.464 21.1707H116.464Z" fill="white"/>
<path id="Vector_16" d="M119.846 22.9639C119.846 21.4806 120.948 20.6255 122.906 20.504L125.135 20.3753V19.6641C125.135 18.7938 124.56 18.3023 123.45 18.3023C122.544 18.3023 121.916 18.6356 121.735 19.2182H120.163C120.329 17.8028 121.659 16.895 123.525 16.895C125.588 16.895 126.751 17.9235 126.751 19.6641V25.2943H125.188V24.1363H125.06C124.799 24.5517 124.433 24.8903 123.999 25.1176C123.564 25.3449 123.078 25.4527 122.588 25.43C122.243 25.466 121.894 25.4291 121.564 25.3217C121.233 25.2143 120.929 25.0388 120.671 24.8064C120.412 24.5741 120.205 24.2901 120.063 23.9727C119.921 23.6554 119.847 23.3117 119.846 22.9639ZM125.135 22.2598V21.5709L123.126 21.6996C121.992 21.7755 121.478 22.1615 121.478 22.888C121.478 23.6296 122.121 24.0612 123.004 24.0612C123.263 24.0874 123.524 24.0612 123.773 23.9842C124.022 23.9072 124.252 23.7809 124.451 23.6128C124.65 23.4448 124.813 23.2384 124.93 23.0059C125.048 22.7735 125.117 22.5197 125.135 22.2598Z" fill="white"/>
<path id="Vector_17" d="M128.887 21.1712C128.887 18.5674 130.223 16.9179 132.302 16.9179C132.816 16.8942 133.327 17.0176 133.774 17.2736C134.22 17.5296 134.585 17.9077 134.825 18.3636H134.947V13.8379H136.571V25.2949H135.014V23.993H134.886C134.627 24.4459 134.25 24.8192 133.794 25.0727C133.339 25.3261 132.823 25.4499 132.302 25.4307C130.209 25.4307 128.887 23.7812 128.887 21.1712ZM130.564 21.1712C130.564 22.919 131.387 23.9707 132.763 23.9707C134.131 23.9707 134.977 22.9038 134.977 21.1784C134.977 19.461 134.122 18.3789 132.763 18.3789C131.396 18.3789 130.564 19.4377 130.564 21.1712H130.564Z" fill="white"/>
<path id="Vector_18" d="M143.288 21.1705C143.236 20.629 143.298 20.0826 143.469 19.5665C143.641 19.0503 143.918 18.5757 144.284 18.1731C144.649 17.7706 145.094 17.4489 145.591 17.2288C146.088 17.0087 146.625 16.895 147.168 16.895C147.711 16.895 148.249 17.0087 148.745 17.2288C149.242 17.4489 149.687 17.7706 150.053 18.1731C150.418 18.5757 150.695 19.0503 150.867 19.5665C151.038 20.0826 151.1 20.629 151.048 21.1705C151.101 21.7126 151.04 22.2597 150.869 22.7767C150.698 23.2937 150.421 23.7692 150.055 24.1726C149.69 24.5759 149.244 24.8982 148.747 25.1188C148.25 25.3394 147.712 25.4533 147.168 25.4533C146.624 25.4533 146.086 25.3394 145.589 25.1188C145.092 24.8982 144.646 24.5759 144.281 24.1726C143.915 23.7692 143.638 23.2937 143.467 22.7767C143.296 22.2597 143.235 21.7126 143.288 21.1705ZM149.378 21.1705C149.378 19.3843 148.577 18.3398 147.171 18.3398C145.759 18.3398 144.965 19.3843 144.965 21.1705C144.965 22.971 145.759 24.0075 147.171 24.0075C148.577 24.0075 149.378 22.9639 149.378 21.1705Z" fill="white"/>
<path id="Vector_19" d="M153.227 17.0549H154.79V18.3639H154.911C155.117 17.8937 155.464 17.4996 155.904 17.2365C156.344 16.9733 156.856 16.8542 157.366 16.8958C157.767 16.8657 158.169 16.9261 158.543 17.0727C158.917 17.2193 159.253 17.4482 159.526 17.7425C159.8 18.0369 160.004 18.3891 160.123 18.773C160.242 19.157 160.273 19.5629 160.214 19.9606V25.295H158.591V20.369C158.591 19.0448 158.016 18.3862 156.815 18.3862C156.543 18.3736 156.272 18.4199 156.02 18.5221C155.767 18.6242 155.54 18.7798 155.354 18.9782C155.167 19.1765 155.025 19.4129 154.939 19.6712C154.852 19.9294 154.822 20.2035 154.85 20.4744V25.2951H153.227V17.0549Z" fill="white"/>
<path id="Vector_20" d="M169.391 15.0029V17.092H171.173V18.4618H169.391V22.699C169.391 23.5622 169.746 23.9401 170.554 23.9401C170.761 23.9395 170.968 23.9269 171.173 23.9026V25.2572C170.882 25.3094 170.586 25.3372 170.29 25.3403C168.484 25.3403 167.765 24.7041 167.765 23.1154V18.4618H166.459V17.0919H167.765V15.0029H169.391Z" fill="white"/>
<path id="Vector_21" d="M173.391 13.8379H175V18.3789H175.129C175.345 17.9043 175.701 17.508 176.15 17.2438C176.599 16.9797 177.118 16.8606 177.637 16.9027C178.036 16.881 178.434 16.9476 178.804 17.0978C179.173 17.2479 179.505 17.4779 179.776 17.7713C180.046 18.0647 180.249 18.4143 180.369 18.7952C180.49 19.1761 180.524 19.5788 180.471 19.9747V25.2949H178.846V20.3759C178.846 19.0597 178.234 18.3931 177.086 18.3931C176.807 18.3702 176.526 18.4086 176.264 18.5057C176.001 18.6028 175.763 18.7562 175.565 18.9552C175.368 19.1542 175.216 19.394 175.121 19.6577C175.026 19.9215 174.99 20.2029 175.015 20.4822V25.2948H173.391L173.391 13.8379Z" fill="white"/>
<path id="Vector_22" d="M189.94 23.0695C189.72 23.8226 189.242 24.4741 188.59 24.9099C187.938 25.3457 187.154 25.5381 186.375 25.4535C185.833 25.4678 185.294 25.3638 184.796 25.1487C184.298 24.9337 183.853 24.6127 183.491 24.208C183.13 23.8033 182.86 23.3247 182.702 22.8053C182.544 22.2859 182.5 21.7382 182.574 21.2002C182.502 20.6606 182.546 20.1117 182.704 19.5908C182.862 19.0699 183.13 18.589 183.49 18.1808C183.85 17.7726 184.293 17.4465 184.789 17.2247C185.286 17.0029 185.824 16.8905 186.368 16.8952C188.657 16.8952 190.038 18.4616 190.038 21.0492V21.6166H184.228V21.7078C184.203 22.0102 184.241 22.3145 184.34 22.6014C184.439 22.8882 184.596 23.1512 184.803 23.3735C185.009 23.5957 185.259 23.7724 185.538 23.8921C185.816 24.0117 186.117 24.0718 186.42 24.0684C186.808 24.1151 187.202 24.0451 187.55 23.8672C187.899 23.6893 188.187 23.4116 188.377 23.0695L189.94 23.0695ZM184.228 20.4139H188.384C188.405 20.1374 188.367 19.8596 188.274 19.5984C188.181 19.3372 188.034 19.0985 187.844 18.8974C187.653 18.6964 187.422 18.5375 187.167 18.4311C186.911 18.3246 186.636 18.2729 186.359 18.2793C186.078 18.2757 185.799 18.3285 185.539 18.4346C185.279 18.5406 185.043 18.6977 184.844 18.8967C184.646 19.0956 184.489 19.3323 184.383 19.5929C184.277 19.8535 184.225 20.1327 184.228 20.4139H184.228Z" fill="white"/>
</g>
</g>
</g>
</svg>
