<svg width="118" height="39" viewBox="0 0 118 39" fill="none" xmlns="http://www.w3.org/2000/svg">
<g id="Group">
<g id="Group_2">
<g id="Group_3">
<path id="Vector" d="M8.42391 38.3564C8.124 38.3564 7.83134 38.3526 7.53378 38.3459C6.91738 38.3379 6.30241 38.2841 5.69392 38.1851C5.12654 38.0873 4.57691 37.9052 4.06314 37.645C3.55408 37.3869 3.08978 37.0486 2.68802 36.6428C2.28045 36.2419 1.94113 35.7769 1.6835 35.2662C1.42303 34.7522 1.24278 34.2012 1.14901 33.6325C1.04774 33.0215 0.992953 32.4036 0.985114 31.7842C0.978873 31.5763 0.970703 30.884 0.970703 30.884V8.1117C0.970703 8.1117 0.979405 7.43011 0.985163 7.22987C0.992669 6.61146 1.04714 5.99452 1.1481 5.3844C1.24204 4.81413 1.42244 4.2616 1.68305 3.74591C1.93973 3.23558 2.27717 2.7702 2.68228 2.36782C3.08695 1.96162 3.55273 1.6215 4.06266 1.35988C4.57524 1.1005 5.12384 0.919746 5.69008 0.823668C6.30056 0.723675 6.91766 0.669614 7.53621 0.661939L8.42439 0.649902H109.583L110.482 0.662422C111.095 0.669716 111.706 0.723295 112.311 0.822702C112.883 0.919985 113.437 1.102 113.956 1.36277C114.977 1.89002 115.809 2.72417 116.333 3.74832C116.589 4.26044 116.767 4.80847 116.86 5.37381C116.962 5.98894 117.019 6.61073 117.031 7.2342C117.034 7.51338 117.034 7.81326 117.034 8.1117C117.042 8.48137 117.042 8.83323 117.042 9.18797V29.8193C117.042 30.1774 117.042 30.5269 117.034 30.8792C117.034 31.1998 117.034 31.4935 117.03 31.7957C117.018 32.4081 116.962 33.0187 116.862 33.6229C116.77 34.1957 116.591 34.7509 116.33 35.2691C116.071 35.7743 115.733 36.2353 115.33 36.6352C114.928 37.0431 114.463 37.3834 113.953 37.6431C113.436 37.9053 112.882 38.0881 112.311 38.1851C111.703 38.2846 111.088 38.3384 110.471 38.3459C110.183 38.3526 109.881 38.3564 109.588 38.3564L108.521 38.3584L8.42391 38.3564Z" fill="black"/>
</g>
<g id="&#60;Group&#62;">
<g id="&#60;Group&#62;_2">
<g id="&#60;Group&#62;_3">
<path id="&#60;Path&#62;" d="M24.4932 19.7993C24.5038 18.9765 24.7221 18.1697 25.1276 17.4541C25.5332 16.7385 26.1129 16.1372 26.8129 15.7062C26.3682 15.0702 25.7816 14.5468 25.0996 14.1776C24.4177 13.8084 23.6591 13.6035 22.8843 13.5792C21.2313 13.4054 19.6289 14.5698 18.7866 14.5698C17.928 14.5698 16.6311 13.5965 15.2346 13.6252C14.3313 13.6545 13.451 13.9175 12.6794 14.3888C11.9078 14.86 11.2712 15.5234 10.8317 16.3143C8.92804 19.6152 10.348 24.4663 12.1716 27.1345C13.084 28.441 14.1503 29.9004 15.5456 29.8486C16.9109 29.7919 17.4208 28.9767 19.0689 28.9767C20.7017 28.9767 21.1801 29.8486 22.6036 29.8157C24.0687 29.7919 24.9918 28.5034 25.8721 27.1845C26.5277 26.2536 27.0321 25.2247 27.3668 24.136C26.5156 23.7754 25.7892 23.1719 25.2782 22.4008C24.7673 21.6296 24.4942 20.7248 24.4932 19.7993Z" fill="white"/>
<path id="&#60;Path&#62;_2" d="M21.8051 11.8238C22.6039 10.8635 22.9974 9.62908 22.9021 8.38281C21.6817 8.51118 20.5544 9.09532 19.7448 10.0188C19.349 10.47 19.0458 10.9949 18.8526 11.5635C18.6594 12.132 18.5801 12.7332 18.619 13.3325C19.2294 13.3388 19.8333 13.2063 20.3852 12.9449C20.9371 12.6836 21.4226 12.3003 21.8051 11.8238Z" fill="white"/>
</g>
</g>
<g id="Group_4">
<path id="Vector_2" d="M41.7536 26.5412H37.0943L35.9754 29.85H34.002L38.4151 17.6084H40.4655L44.8787 29.85H42.8715L41.7536 26.5412ZM37.5769 25.0144H41.2701L39.4495 19.6445H39.3985L37.5769 25.0144Z" fill="white"/>
<path id="Vector_3" d="M54.4104 25.3886C54.4104 28.1621 52.9281 29.9441 50.6912 29.9441C50.1246 29.9737 49.5611 29.843 49.0652 29.5669C48.5693 29.2907 48.161 28.8803 47.8872 28.3826H47.8449V32.8032H46.0156V20.9256H47.7863V22.4101H47.8199C48.1063 21.9147 48.5215 21.5064 49.0211 21.2286C49.5208 20.9507 50.0864 20.8138 50.6576 20.8322C52.9194 20.8322 54.4104 22.6228 54.4104 25.3886ZM52.5301 25.3886C52.5301 23.5817 51.5977 22.3937 50.175 22.3937C48.7774 22.3937 47.8372 23.6067 47.8372 25.3886C47.8372 27.1869 48.7774 28.3912 50.175 28.3912C51.5977 28.3912 52.5301 27.212 52.5301 25.3886Z" fill="white"/>
<path id="Vector_4" d="M64.219 25.3886C64.219 28.1621 62.7367 29.944 60.4998 29.944C59.9332 29.9737 59.3697 29.843 58.8738 29.5669C58.3779 29.2907 57.9696 28.8803 57.6958 28.3825H57.6535V32.8032H55.8242V20.9256H57.5949V22.4101H57.6285C57.9149 21.9147 58.33 21.5064 58.8297 21.2286C59.3294 20.9507 59.8949 20.8138 60.4662 20.8322C62.728 20.8322 64.219 22.6228 64.219 25.3886ZM62.3387 25.3886C62.3387 23.5817 61.4063 22.3937 59.9836 22.3937C58.586 22.3937 57.6458 23.6067 57.6458 25.3886C57.6458 27.1869 58.586 28.3912 59.9836 28.3912C61.4063 28.3912 62.3387 27.2119 62.3387 25.3886H62.3387Z" fill="white"/>
<path id="Vector_5" d="M70.7027 26.4397C70.8382 27.6536 72.0158 28.4507 73.6249 28.4507C75.1668 28.4507 76.2761 27.6536 76.2761 26.559C76.2761 25.6088 75.607 25.0399 74.0229 24.65L72.4387 24.2678C70.1942 23.7248 69.1521 22.6736 69.1521 20.9677C69.1521 18.8556 70.9901 17.4048 73.5999 17.4048C76.1828 17.4048 77.9535 18.8556 78.0131 20.9677H76.1665C76.0559 19.746 75.0475 19.0086 73.5739 19.0086C72.1003 19.0086 71.0919 19.7547 71.0919 20.8406C71.0919 21.7061 71.736 22.2153 73.3115 22.6052L74.6582 22.9364C77.1662 23.5303 78.2082 24.5393 78.2082 26.3298C78.2082 28.6201 76.3866 30.0545 73.4893 30.0545C70.7786 30.0545 68.9483 28.6538 68.8301 26.4396L70.7027 26.4397Z" fill="white"/>
<path id="Vector_6" d="M82.1533 18.8135V20.9256H83.848V22.3764H82.1533V27.2967C82.1533 28.0611 82.4926 28.4172 83.2376 28.4172C83.4387 28.4137 83.6396 28.3996 83.8393 28.3749V29.817C83.5044 29.8796 83.1639 29.908 82.8233 29.9017C81.019 29.9017 80.3153 29.223 80.3153 27.4921V22.3764H79.0195V20.9256H80.3153V18.8135H82.1533Z" fill="white"/>
<path id="Vector_7" d="M84.8301 25.3887C84.8301 22.5805 86.4815 20.8159 89.0568 20.8159C91.6406 20.8159 93.2844 22.5805 93.2844 25.3887C93.2844 28.2045 91.6493 29.9614 89.0568 29.9614C86.4651 29.9614 84.8301 28.2045 84.8301 25.3887ZM91.4205 25.3887C91.4205 23.4623 90.539 22.3254 89.0567 22.3254C87.5745 22.3254 86.694 23.471 86.694 25.3887C86.694 27.3227 87.5745 28.451 89.0567 28.451C90.539 28.451 91.4205 27.3227 91.4205 25.3887H91.4205Z" fill="white"/>
<path id="Vector_8" d="M94.791 20.9255H96.5357V22.4446H96.578C96.6961 21.9702 96.9736 21.5509 97.364 21.2572C97.7544 20.9636 98.2338 20.8135 98.7217 20.8321C98.9325 20.8314 99.1427 20.8543 99.3484 20.9005V22.6141C99.0823 22.5326 98.8047 22.4952 98.5265 22.5033C98.2607 22.4926 97.9958 22.5395 97.7499 22.6409C97.5039 22.7423 97.2828 22.8958 97.1018 23.0909C96.9207 23.286 96.7839 23.518 96.7008 23.771C96.6177 24.0241 96.5902 24.2921 96.6203 24.5568V29.8506H94.791L94.791 20.9255Z" fill="white"/>
<path id="Vector_9" d="M107.785 27.2293C107.539 28.8495 105.964 29.9614 103.948 29.9614C101.355 29.9614 99.7461 28.2219 99.7461 25.431C99.7461 22.6315 101.364 20.8159 103.871 20.8159C106.337 20.8159 107.887 22.5122 107.887 25.2183V25.846H101.593V25.9567C101.564 26.2851 101.605 26.616 101.713 26.9274C101.822 27.2387 101.995 27.5234 102.222 27.7625C102.448 28.0016 102.723 28.1897 103.028 28.3142C103.333 28.4387 103.661 28.4968 103.99 28.4847C104.422 28.5252 104.856 28.425 105.227 28.1988C105.598 27.9726 105.886 27.6326 106.048 27.2293L107.785 27.2293ZM101.601 24.5656H106.057C106.073 24.2702 106.029 23.9747 105.925 23.6975C105.822 23.4203 105.663 23.1674 105.458 22.9547C105.253 22.742 105.006 22.5741 104.733 22.4615C104.46 22.3489 104.166 22.294 103.871 22.3004C103.573 22.2986 103.278 22.3559 103.002 22.469C102.726 22.5821 102.476 22.7488 102.265 22.9594C102.054 23.17 101.887 23.4204 101.773 23.696C101.659 23.9717 101.601 24.2673 101.601 24.5656V24.5656Z" fill="white"/>
</g>
</g>
</g>
<g id="&#60;Group&#62;_4">
<g id="Group_5">
<path id="Vector_10" d="M37.3481 8.39339C37.7316 8.36583 38.1164 8.42386 38.4748 8.56328C38.8332 8.7027 39.1563 8.92005 39.4207 9.19964C39.685 9.47924 39.8842 9.81411 40.0037 10.1801C40.1232 10.5461 40.1601 10.9341 40.1117 11.3161C40.1117 13.1953 39.0976 14.2755 37.3481 14.2755H35.2266V8.39339H37.3481ZM36.1388 13.4436H37.2462C37.5202 13.46 37.7945 13.415 38.049 13.3119C38.3034 13.2088 38.5318 13.0501 38.7173 12.8474C38.9028 12.6448 39.0409 12.4033 39.1215 12.1404C39.2021 11.8776 39.2231 11.6001 39.1831 11.3281C39.2202 11.0572 39.1971 10.7814 39.1152 10.5205C39.0334 10.2596 38.895 10.02 38.7099 9.81898C38.5248 9.61795 38.2975 9.46041 38.0445 9.35765C37.7914 9.2549 37.5188 9.20947 37.2462 9.22462H36.1388V13.4436Z" fill="white"/>
<path id="Vector_11" d="M41.1427 12.0537C41.1148 11.762 41.1482 11.4676 41.2405 11.1896C41.3329 10.9115 41.4823 10.6559 41.6791 10.439C41.8759 10.2221 42.1158 10.0489 42.3834 9.9303C42.651 9.81174 42.9404 9.75049 43.233 9.75049C43.5256 9.75049 43.815 9.81174 44.0826 9.9303C44.3502 10.0489 44.59 10.2221 44.7869 10.439C44.9837 10.6559 45.1331 10.9115 45.2254 11.1896C45.3178 11.4676 45.3511 11.762 45.3232 12.0537C45.3516 12.3457 45.3187 12.6404 45.2266 12.9189C45.1345 13.1974 44.9852 13.4536 44.7883 13.6708C44.5915 13.8881 44.3514 14.0618 44.0835 14.1806C43.8157 14.2994 43.5259 14.3608 43.233 14.3608C42.94 14.3608 42.6503 14.2994 42.3824 14.1806C42.1146 14.0618 41.8745 13.8881 41.6776 13.6708C41.4808 13.4536 41.3315 13.1974 41.2394 12.9189C41.1472 12.6404 41.1143 12.3457 41.1427 12.0537ZM44.4235 12.0537C44.4235 11.0915 43.9919 10.5288 43.2344 10.5288C42.4741 10.5288 42.0463 11.0915 42.0463 12.0537C42.0463 13.0236 42.4741 13.5819 43.2344 13.5819C43.9919 13.5819 44.4235 13.0197 44.4235 12.0537H44.4235Z" fill="white"/>
<path id="Vector_12" d="M50.8806 14.2754H49.9732L49.0571 11.0061H48.9879L48.0756 14.2754H47.1768L45.9551 9.83643H46.8423L47.6363 13.2236H47.7017L48.613 9.83643H49.4522L50.3634 13.2236H50.4326L51.2228 9.83643H52.0975L50.8806 14.2754Z" fill="white"/>
<path id="Vector_13" d="M53.125 9.83615H53.9671V10.5413H54.0324C54.1433 10.288 54.3304 10.0757 54.5675 9.93397C54.8046 9.79221 55.0799 9.72806 55.3551 9.75046C55.5708 9.73422 55.7874 9.76679 55.9887 9.84575C56.1901 9.92471 56.3712 10.048 56.5186 10.2066C56.6659 10.3652 56.7757 10.5549 56.8399 10.7617C56.9041 10.9686 56.921 11.1872 56.8893 11.4015V14.2751H56.0146V11.6215C56.0146 10.9081 55.705 10.5534 55.0581 10.5534C54.9117 10.5465 54.7655 10.5715 54.6296 10.6265C54.4937 10.6816 54.3713 10.7654 54.2708 10.8722C54.1703 10.9791 54.094 11.1064 54.0472 11.2455C54.0004 11.3847 53.9842 11.5323 53.9997 11.6782V14.2751H53.125L53.125 9.83615Z" fill="white"/>
<path id="Vector_14" d="M58.2832 8.10352H59.158V14.2753H58.2832V8.10352Z" fill="white"/>
<path id="Vector_15" d="M60.3731 12.0538C60.3453 11.762 60.3786 11.4677 60.471 11.1896C60.5634 10.9115 60.7128 10.6559 60.9097 10.439C61.1065 10.2221 61.3464 10.0489 61.614 9.9303C61.8816 9.81174 62.171 9.75049 62.4637 9.75049C62.7563 9.75049 63.0457 9.81174 63.3133 9.9303C63.5809 10.0489 63.8208 10.2221 64.0176 10.439C64.2145 10.6559 64.3639 10.9115 64.4563 11.1896C64.5487 11.4677 64.582 11.762 64.5542 12.0538C64.5825 12.3458 64.5496 12.6405 64.4574 12.919C64.3653 13.1975 64.2159 13.4537 64.0191 13.6709C63.8222 13.8882 63.5821 14.0618 63.3142 14.1807C63.0463 14.2995 62.7566 14.3608 62.4637 14.3608C62.1707 14.3608 61.881 14.2995 61.6131 14.1807C61.3452 14.0618 61.1051 13.8882 60.9082 13.6709C60.7114 13.4537 60.5621 13.1975 60.4699 12.919C60.3777 12.6405 60.3448 12.3458 60.3731 12.0538ZM63.6539 12.0538C63.6539 11.0916 63.2223 10.5289 62.4649 10.5289C61.7045 10.5289 61.2768 11.0916 61.2768 12.0538C61.2768 13.0237 61.7045 13.582 62.4649 13.582C63.2223 13.582 63.6539 13.0198 63.6539 12.0538H63.6539Z" fill="white"/>
<path id="Vector_16" d="M65.4766 13.0198C65.4766 12.2207 66.0706 11.7601 67.1251 11.6946L68.3258 11.6253V11.2422C68.3258 10.7733 68.0162 10.5086 67.4183 10.5086C66.93 10.5086 66.5916 10.6881 66.4945 11.002H65.6477C65.7371 10.2395 66.4532 9.75049 67.4587 9.75049C68.5699 9.75049 69.1967 10.3045 69.1967 11.2422V14.2751H68.3546V13.6513H68.2854C68.1449 13.8751 67.9476 14.0575 67.7137 14.1799C67.4798 14.3024 67.2177 14.3605 66.954 14.3482C66.768 14.3676 66.5799 14.3478 66.402 14.2899C66.224 14.232 66.0602 14.1375 65.921 14.0123C65.7818 13.8871 65.6703 13.7341 65.5938 13.5632C65.5172 13.3922 65.4773 13.2071 65.4766 13.0198ZM68.3258 12.6405V12.2694L67.2434 12.3387C66.633 12.3796 66.3561 12.5875 66.3561 12.9788C66.3561 13.3784 66.7022 13.6108 67.178 13.6108C67.3175 13.625 67.4583 13.6109 67.5922 13.5694C67.726 13.5279 67.8502 13.4599 67.9573 13.3693C68.0644 13.2788 68.1522 13.1676 68.2155 13.0424C68.2788 12.9172 68.3163 12.7805 68.3258 12.6405Z" fill="white"/>
<path id="Vector_17" d="M70.3457 12.0539C70.3457 10.6513 71.0657 9.76272 72.1856 9.76272C72.4626 9.74994 72.7375 9.81638 72.9782 9.95429C73.2189 10.0922 73.4154 10.2959 73.5448 10.5415H73.6102V8.10352H74.4849V14.2753H73.6467V13.574H73.5775C73.4381 13.818 73.2347 14.0191 72.9894 14.1556C72.744 14.2921 72.466 14.3588 72.1856 14.3485C71.058 14.3485 70.3457 13.4599 70.3457 12.0539ZM71.2493 12.0539C71.2493 12.9954 71.6925 13.562 72.4336 13.562C73.1709 13.562 73.6265 12.9873 73.6265 12.0578C73.6265 11.1326 73.1661 10.5497 72.4336 10.5497C71.6972 10.5497 71.2493 11.1201 71.2493 12.0539H71.2493Z" fill="white"/>
<path id="Vector_18" d="M78.1036 12.0537C78.0758 11.762 78.1091 11.4676 78.2015 11.1896C78.2938 10.9115 78.4432 10.6559 78.64 10.439C78.8368 10.2221 79.0767 10.0489 79.3443 9.9303C79.6119 9.81174 79.9013 9.75049 80.1939 9.75049C80.4865 9.75049 80.7759 9.81174 81.0435 9.9303C81.3111 10.0489 81.551 10.2221 81.7478 10.439C81.9446 10.6559 82.094 10.9115 82.1863 11.1896C82.2787 11.4676 82.312 11.762 82.2842 12.0537C82.3126 12.3457 82.2796 12.6404 82.1875 12.9189C82.0954 13.1974 81.9461 13.4536 81.7492 13.6708C81.5524 13.8881 81.3123 14.0618 81.0444 14.1806C80.7766 14.2994 80.4869 14.3608 80.1939 14.3608C79.9009 14.3608 79.6112 14.2994 79.3434 14.1806C79.0755 14.0618 78.8354 13.8881 78.6386 13.6708C78.4417 13.4536 78.2924 13.1974 78.2003 12.9189C78.1082 12.6404 78.0752 12.3457 78.1036 12.0537ZM81.3844 12.0537C81.3844 11.0915 80.9528 10.5288 80.1953 10.5288C79.435 10.5288 79.0073 11.0915 79.0073 12.0537C79.0073 13.0236 79.435 13.5819 80.1953 13.5819C80.9528 13.5819 81.3844 13.0197 81.3844 12.0537Z" fill="white"/>
<path id="Vector_19" d="M83.457 9.83615H84.2991V10.5413H84.3645C84.4754 10.288 84.6624 10.0757 84.8995 9.93397C85.1366 9.79221 85.4119 9.72806 85.6872 9.75046C85.9028 9.73422 86.1194 9.76679 86.3208 9.84575C86.5222 9.92471 86.7033 10.048 86.8506 10.2066C86.9979 10.3652 87.1078 10.5549 87.1719 10.7617C87.2361 10.9686 87.253 11.1872 87.2213 11.4015V14.2751H86.3466V11.6215C86.3466 10.9081 86.0371 10.5534 85.3901 10.5534C85.2437 10.5465 85.0975 10.5715 84.9616 10.6265C84.8257 10.6816 84.7033 10.7654 84.6028 10.8722C84.5023 10.9791 84.426 11.1064 84.3792 11.2455C84.3325 11.3847 84.3163 11.5323 84.3318 11.6782V14.2751H83.457V9.83615Z" fill="white"/>
<path id="Vector_20" d="M92.1653 8.73096V9.85634H93.1256V10.5942H92.1653V12.8768C92.1653 13.3418 92.3566 13.5454 92.792 13.5454C92.9035 13.545 93.0149 13.5382 93.1256 13.5251V14.2549C92.9685 14.283 92.8093 14.298 92.6498 14.2996C91.677 14.2996 91.2896 13.9569 91.2896 13.1011V10.5942H90.5859V9.8563H91.2896V8.73096H92.1653Z" fill="white"/>
<path id="Vector_21" d="M94.3203 8.10352H95.1874V10.5497H95.2566C95.3729 10.2941 95.565 10.0806 95.8069 9.93826C96.0487 9.79597 96.3285 9.73181 96.6081 9.75453C96.8226 9.74284 97.0371 9.77871 97.2362 9.85959C97.4353 9.94046 97.6142 10.0643 97.76 10.2224C97.9058 10.3805 98.0149 10.5688 98.0797 10.774C98.1444 10.9792 98.1632 11.1961 98.1346 11.4094V14.2753H97.2589V11.6255C97.2589 10.9165 96.9292 10.5574 96.3111 10.5574C96.1608 10.545 96.0096 10.5657 95.868 10.618C95.7265 10.6703 95.5981 10.753 95.4918 10.8602C95.3855 10.9674 95.3039 11.0965 95.2526 11.2386C95.2014 11.3807 95.1817 11.5323 95.1951 11.6828V14.2753H94.3204L94.3203 8.10352Z" fill="white"/>
<path id="Vector_22" d="M103.235 13.0766C103.116 13.4823 102.859 13.8333 102.508 14.068C102.156 14.3028 101.734 14.4065 101.314 14.3609C101.022 14.3686 100.732 14.3126 100.464 14.1967C100.196 14.0809 99.9559 13.9079 99.7611 13.6899C99.5663 13.4719 99.4212 13.2141 99.3359 12.9343C99.2505 12.6545 99.227 12.3595 99.2669 12.0697C99.2281 11.779 99.252 11.4833 99.3371 11.2027C99.4223 10.9221 99.5666 10.663 99.7604 10.4431C99.9542 10.2232 100.193 10.0476 100.46 9.92809C100.728 9.8086 101.018 9.74806 101.311 9.75056C102.544 9.75056 103.288 10.5944 103.288 11.9883V12.294H100.158V12.3431C100.144 12.506 100.165 12.67 100.218 12.8245C100.271 12.979 100.356 13.1207 100.467 13.2404C100.579 13.3601 100.713 13.4553 100.863 13.5197C101.013 13.5842 101.175 13.6166 101.338 13.6148C101.548 13.6399 101.76 13.6022 101.947 13.5064C102.135 13.4105 102.29 13.2609 102.393 13.0766L103.235 13.0766ZM100.158 11.6461H102.397C102.408 11.4971 102.388 11.3475 102.337 11.2068C102.287 11.0661 102.208 10.9375 102.106 10.8292C102.003 10.7209 101.879 10.6353 101.741 10.5779C101.603 10.5206 101.455 10.4927 101.306 10.4962C101.154 10.4943 101.004 10.5227 100.864 10.5798C100.724 10.637 100.597 10.7216 100.49 10.8288C100.383 10.9359 100.298 11.0635 100.241 11.2038C100.184 11.3442 100.156 11.4946 100.158 11.6461H100.158Z" fill="white"/>
</g>
</g>
</g>
</svg>
