<svg width="127" height="40" viewBox="0 0 127 40" fill="none" xmlns="http://www.w3.org/2000/svg">
<g id="Badge" clip-path="url(#clip0_1501_23824)">
<path id="Vector" d="M122.129 0.649902H4.69726C2.10304 0.649902 0 2.79922 0 5.45054V34.2544C0 36.9057 2.10304 39.055 4.69726 39.055H122.129C124.723 39.055 126.826 36.9057 126.826 34.2544V5.45054C126.826 2.79922 124.723 0.649902 122.129 0.649902Z" fill="black"/>
<path id="Vector_2" d="M44.5491 10.4819C44.5646 10.834 44.5101 11.1857 44.389 11.5157C44.2679 11.8457 44.0827 12.1472 43.8446 12.4022C43.5777 12.6838 43.2556 12.9046 42.8994 13.0502C42.5433 13.1958 42.161 13.2629 41.7778 13.2471C41.3923 13.2559 41.0091 13.1837 40.652 13.0351C40.2949 12.8864 39.9714 12.6645 39.7016 12.383C39.1542 11.8107 38.8477 11.0422 38.8477 10.2419C38.8477 9.44158 39.1542 8.67306 39.7016 8.10079C40.1201 7.68284 40.6502 7.40061 41.2251 7.28957C41.8001 7.17853 42.3944 7.24364 42.9333 7.47671C43.2721 7.61903 43.5742 7.83914 43.8164 8.12L43.3185 8.62886C43.1319 8.39917 42.8955 8.2171 42.6281 8.0971C42.3606 7.9771 42.0695 7.92248 41.7778 7.93757C41.4095 7.94018 41.0475 8.03492 40.7234 8.21353C40.3992 8.39213 40.1228 8.64916 39.9183 8.96215C39.7138 9.27514 39.5874 9.63456 39.5502 10.009C39.513 10.3834 39.5661 10.7615 39.7048 11.1101C39.8436 11.4587 40.0638 11.7673 40.3462 12.0088C40.6286 12.2504 40.9646 12.4176 41.3248 12.4958C41.685 12.574 42.0585 12.5609 42.4126 12.4575C42.7667 12.3542 43.0906 12.1637 43.356 11.9029C43.643 11.5814 43.8094 11.1664 43.8258 10.7315H41.7778V10.0403H44.5116C44.533 10.1865 44.5455 10.334 44.5491 10.4819Z" fill="white" stroke="white" stroke-width="0.309651" stroke-miterlimit="10"/>
<path id="Vector_3" d="M48.8513 8.0811H46.3148V9.90534H48.6259V10.5966H46.3148V12.4209H48.8513V13.1314H45.582V7.37061H48.8513V8.0811Z" fill="white" stroke="white" stroke-width="0.309651" stroke-miterlimit="10"/>
<path id="Vector_4" d="M51.9345 13.1314H51.2111V8.0811H49.6328V7.37061H53.5503V8.0811H51.9345V13.1314Z" fill="white" stroke="white" stroke-width="0.309651" stroke-miterlimit="10"/>
<path id="Vector_5" d="M56.3105 13.1314V7.37061H57.0339V13.1314H56.3105Z" fill="white" stroke="white" stroke-width="0.309651" stroke-miterlimit="10"/>
<path id="Vector_6" d="M60.2489 13.1314H59.5255V8.0811H57.9473V7.37061H61.8178V8.0811H60.2489V13.1314Z" fill="white" stroke="white" stroke-width="0.309651" stroke-miterlimit="10"/>
<path id="Vector_7" d="M69.1538 12.3828C68.8824 12.6603 68.5602 12.8805 68.2056 13.0307C67.851 13.1809 67.4708 13.2582 67.087 13.2582C66.7031 13.2582 66.3229 13.1809 65.9683 13.0307C65.6137 12.8805 65.2915 12.6603 65.0202 12.3828C64.4891 11.8058 64.1934 11.0434 64.1934 10.2513C64.1934 9.45911 64.4891 8.69679 65.0202 8.1198C65.2856 7.83445 65.6068 7.60923 65.9628 7.45873C66.3188 7.30822 66.7018 7.23578 67.087 7.24608C67.4716 7.23986 67.8533 7.31417 68.2088 7.46443C68.5642 7.61469 68.8858 7.83773 69.1538 8.1198C69.4239 8.40062 69.6362 8.73392 69.7782 9.10002C69.9202 9.46611 69.989 9.85757 69.9805 10.2513C69.9928 10.6455 69.9258 11.0381 69.7836 11.4047C69.6414 11.7714 69.427 12.1043 69.1538 12.3828ZM65.5556 11.9027C65.7558 12.11 65.9942 12.2745 66.2571 12.3869C66.5199 12.4992 66.802 12.557 67.087 12.557C67.3719 12.557 67.654 12.4992 67.9168 12.3869C68.1797 12.2745 68.4181 12.11 68.6183 11.9027C69.0236 11.4525 69.2486 10.8631 69.2486 10.2513C69.2486 9.63948 69.0236 9.05004 68.6183 8.59986C68.4181 8.39259 68.1797 8.22801 67.9168 8.11568C67.654 8.00335 67.3719 7.94551 67.087 7.94551C66.802 7.94551 66.5199 8.00335 66.2571 8.11568C65.9942 8.22801 65.7558 8.39259 65.5556 8.59986C65.1503 9.05004 64.9253 9.63948 64.9253 10.2513C64.9253 10.8631 65.1503 11.4525 65.5556 11.9027Z" fill="white" stroke="white" stroke-width="0.309651" stroke-miterlimit="10"/>
<path id="Vector_8" d="M71.0059 13.1314V7.37061H71.8796L74.6227 11.8544V10.7407V7.37061H75.3461V13.1314H74.5946L71.7292 8.43635V9.54049V13.1314H71.0059Z" fill="white" stroke="white" stroke-width="0.309651" stroke-miterlimit="10"/>
<path id="Vector_9" d="M64.0165 21.5325C63.225 21.5344 62.4518 21.7762 61.7947 22.2272C61.1376 22.6782 60.6261 23.3182 60.3249 24.0663C60.0237 24.8144 59.9463 25.637 60.1026 26.43C60.2588 27.2231 60.6417 27.9509 61.2027 28.5216C61.7637 29.0923 62.4777 29.4801 63.2544 29.6361C64.031 29.792 64.8355 29.7091 65.5661 29.3978C66.2967 29.0865 66.9205 28.5607 67.3587 27.887C67.7969 27.2134 68.0298 26.422 68.028 25.6131C68.0356 25.0734 67.937 24.5377 67.7378 24.0378C67.5387 23.538 67.2432 23.0842 66.8689 22.7034C66.4946 22.3227 66.0492 22.0228 65.5592 21.8217C65.0691 21.6205 64.5445 21.5222 64.0165 21.5325ZM64.0165 28.0902C63.5313 28.1249 63.0472 28.0096 62.627 27.7593C62.2068 27.5091 61.87 27.1354 61.6604 26.6869C61.4507 26.2384 61.3779 25.7359 61.4515 25.2445C61.525 24.7532 61.7415 24.2959 62.0727 23.9319C62.404 23.568 62.8347 23.3143 63.3089 23.2039C63.7831 23.0935 64.2788 23.1314 64.7316 23.3127C65.1844 23.494 65.5734 23.8104 65.848 24.2206C66.1225 24.6309 66.27 25.116 66.2712 25.6131C66.2863 25.928 66.2396 26.2429 66.1338 26.539C66.028 26.8352 65.8652 27.1068 65.655 27.3376C65.4449 27.5685 65.1917 27.754 64.9102 27.8833C64.6288 28.0125 64.3249 28.0829 64.0165 28.0902ZM55.2608 21.5325C54.4693 21.5344 53.6961 21.7762 53.039 22.2272C52.3819 22.6782 51.8704 23.3182 51.5692 24.0663C51.268 24.8144 51.1906 25.637 51.3469 26.43C51.5031 27.2231 51.886 27.9509 52.447 28.5216C53.008 29.0923 53.722 29.4801 54.4987 29.6361C55.2753 29.792 56.0798 29.7091 56.8104 29.3978C57.541 29.0865 58.1648 28.5607 58.603 27.887C59.0412 27.2134 59.2741 26.422 59.2723 25.6131C59.2799 25.0734 59.1813 24.5377 58.9821 24.0378C58.783 23.538 58.4875 23.0842 58.1132 22.7034C57.7389 22.3227 57.2935 22.0228 56.8035 21.8217C56.3134 21.6205 55.7888 21.5222 55.2608 21.5325ZM55.2608 28.0902C54.7756 28.1249 54.2915 28.0096 53.8713 27.7593C53.4511 27.5091 53.1143 27.1354 52.9047 26.6869C52.695 26.2384 52.6222 25.7359 52.6958 25.2445C52.7693 24.7532 52.9858 24.2959 53.317 23.9319C53.6483 23.568 54.079 23.3143 54.5532 23.2039C55.0274 23.0935 55.5231 23.1314 55.9759 23.3127C56.4287 23.494 56.8177 23.8104 57.0923 24.2206C57.3668 24.6309 57.5143 25.116 57.5155 25.6131C57.5306 25.928 57.4839 26.2429 57.3781 26.539C57.2723 26.8352 57.1095 27.1068 56.8993 27.3376C56.6892 27.5685 56.436 27.754 56.1545 27.8833C55.8731 28.0125 55.5692 28.0829 55.2608 28.0902ZM44.8517 22.7903V24.5185H48.9101C48.8465 25.3325 48.5154 26.1006 47.9706 26.698C47.5635 27.1219 47.0739 27.4538 46.5334 27.6721C45.9929 27.8904 45.4135 27.9903 44.8329 27.9654C43.6369 27.9654 42.4899 27.4798 41.6443 26.6156C40.7986 25.7513 40.3235 24.5791 40.3235 23.3568C40.3235 22.1345 40.7986 20.9623 41.6443 20.098C42.4899 19.2337 43.6369 18.7482 44.8329 18.7482C45.9794 18.7307 47.0865 19.1757 47.9143 19.9867L49.1074 18.7674C48.5475 18.2014 47.8826 17.7553 47.1519 17.4552C46.4211 17.1552 45.6391 17.0072 44.8517 17.0199C44.0165 16.9867 43.1833 17.1262 42.4022 17.4299C41.621 17.7336 40.9078 18.1954 40.3054 18.7875C39.703 19.3797 39.2238 20.09 38.8965 20.876C38.5691 21.662 38.4004 22.5074 38.4004 23.3616C38.4004 24.2158 38.5691 25.0612 38.8965 25.8472C39.2238 26.6331 39.703 27.3435 40.3054 27.9356C40.9078 28.5278 41.621 28.9895 42.4022 29.2933C43.1833 29.597 44.0165 29.7364 44.8517 29.7032C45.6553 29.736 46.4566 29.5947 47.203 29.2886C47.9494 28.9825 48.624 28.5184 49.1825 27.927C50.1691 26.8194 50.6947 25.3627 50.6481 23.8656C50.6514 23.5053 50.6232 23.1454 50.5635 22.7903H44.8517ZM87.4183 24.1345C87.1733 23.3978 86.7151 22.7546 86.1044 22.2899C85.4938 21.8253 84.7595 21.5612 83.9987 21.5325C83.4848 21.5315 82.9761 21.6382 82.5042 21.8461C82.0323 22.0539 81.6071 22.3584 81.2549 22.7409C80.9027 23.1233 80.631 23.5755 80.4566 24.0696C80.2821 24.5636 80.2087 25.0889 80.2409 25.6131C80.2328 26.4895 80.5024 27.3451 81.0094 28.0521C81.5164 28.759 82.2336 29.2793 83.0538 29.5353C83.874 29.7914 84.7533 29.7693 85.5602 29.4725C86.3672 29.1757 87.0585 28.6201 87.531 27.8886L86.1688 26.9284C85.9657 27.2744 85.6777 27.56 85.3333 27.7571C84.9889 27.9541 84.6 28.0557 84.2053 28.0518C83.7982 28.069 83.3954 27.9599 83.05 27.7388C82.7046 27.5178 82.4327 27.1951 82.2701 26.8132L87.6156 24.5569L87.4183 24.1345ZM81.9694 25.4979C81.9504 25.1996 81.9898 24.9005 82.0853 24.618C82.1807 24.3355 82.3304 24.0753 82.5255 23.8527C82.7206 23.6301 82.9572 23.4495 83.2214 23.3214C83.4857 23.1934 83.7723 23.1206 84.0644 23.1071C84.3671 23.0883 84.6685 23.1611 84.9309 23.3165C85.1933 23.4719 85.4049 23.703 85.5394 23.9809L81.9694 25.4979ZM77.6292 29.4536H79.3859V17.452H77.6292V29.4536ZM74.7544 22.4447H74.6887C74.4262 22.1392 74.1024 21.8953 73.7392 21.7296C73.376 21.5639 72.982 21.4803 72.5843 21.4845C71.5577 21.5354 70.5895 21.988 69.8805 22.7486C69.1716 23.5092 68.7761 24.5194 68.7761 25.5699C68.7761 26.6203 69.1716 27.6306 69.8805 28.3911C70.5895 29.1517 71.5577 29.6043 72.5843 29.6552C72.9826 29.6634 73.3777 29.5816 73.7415 29.4156C74.1053 29.2496 74.4287 29.0036 74.6887 28.6951H74.7544V29.2808C74.7544 30.8458 73.9371 31.6811 72.6219 31.6811C72.1825 31.6712 71.7559 31.5281 71.3963 31.27C71.0367 31.0119 70.7602 30.6503 70.6021 30.2313L69.0801 30.8746C69.3615 31.5968 69.8507 32.2148 70.4831 32.6468C71.1155 33.0788 71.8613 33.3045 72.6219 33.2941C74.6793 33.2941 76.3797 32.0555 76.3797 29.0407V21.7726H74.7544V22.4447ZM72.7346 28.0902C72.1191 28.051 71.5413 27.7734 71.119 27.3141C70.6967 26.8548 70.4617 26.2482 70.4617 25.6179C70.4617 24.9876 70.6967 24.381 71.119 23.9217C71.5413 23.4623 72.1191 23.1848 72.7346 23.1455C73.0355 23.1588 73.3306 23.2338 73.6025 23.366C73.8745 23.4983 74.1176 23.685 74.3174 23.9153C74.5173 24.1455 74.6697 24.4144 74.7658 24.7061C74.8619 24.9978 74.8995 25.3062 74.8766 25.6131C74.9022 25.921 74.8665 26.231 74.7715 26.5244C74.6766 26.8178 74.5244 27.0884 74.3241 27.32C74.1239 27.5515 73.8798 27.7392 73.6066 27.8716C73.3334 28.004 73.0368 28.0783 72.7346 28.0902ZM95.6479 17.452H91.4391V29.4536H93.1959V24.9026H95.6479C96.1486 24.9393 96.6513 24.8703 97.1247 24.6997C97.5981 24.5292 98.0321 24.2608 98.3995 23.9112C98.767 23.5617 99.06 23.1386 99.2604 22.6682C99.4608 22.1978 99.5642 21.6903 99.5642 21.1773C99.5642 20.6643 99.4608 20.1567 99.2604 19.6864C99.06 19.216 98.767 18.7929 98.3995 18.4433C98.0321 18.0938 97.5981 17.8254 97.1247 17.6548C96.6513 17.4843 96.1486 17.4152 95.6479 17.452ZM95.6479 23.2128H93.1959V19.1226H95.6855C95.9495 19.1226 96.2109 19.1758 96.4548 19.279C96.6987 19.3823 96.9203 19.5336 97.107 19.7244C97.2937 19.9152 97.4418 20.1417 97.5428 20.391C97.6439 20.6403 97.6959 20.9075 97.6959 21.1773C97.6959 21.4471 97.6439 21.7143 97.5428 21.9636C97.4418 22.2129 97.2937 22.4394 97.107 22.6302C96.9203 22.821 96.6987 22.9723 96.4548 23.0756C96.2109 23.1788 95.9495 23.232 95.6855 23.232L95.6479 23.2128ZM106.489 21.4941C105.849 21.4538 105.212 21.606 104.656 21.932C104.1 22.2579 103.65 22.7432 103.361 23.328L104.911 23.9905C105.068 23.7019 105.303 23.4658 105.588 23.3107C105.873 23.1557 106.196 23.0883 106.517 23.1167C106.74 23.0901 106.966 23.1092 107.182 23.1727C107.398 23.2363 107.599 23.3432 107.774 23.4871C107.949 23.631 108.094 23.809 108.201 24.0108C108.308 24.2127 108.374 24.4342 108.396 24.6625V24.7778C107.831 24.4743 107.203 24.3161 106.564 24.3169C104.892 24.3169 103.182 25.277 103.182 27.0245C103.199 27.3959 103.288 27.7601 103.445 28.0955C103.602 28.4309 103.823 28.7307 104.096 28.977C104.369 29.2233 104.687 29.4111 105.032 29.5292C105.377 29.6474 105.741 29.6935 106.104 29.6648C106.545 29.6897 106.984 29.5944 107.377 29.3886C107.77 29.1827 108.102 28.8738 108.34 28.4935H108.396V29.4536H110.087V24.8354C110.087 22.7327 108.528 21.5133 106.527 21.5133L106.489 21.4941ZM106.273 28.071C105.7 28.071 104.901 27.7734 104.901 27.0533C104.901 26.0931 105.897 25.7667 106.78 25.7667C107.338 25.7526 107.89 25.8919 108.377 26.17C108.318 26.6914 108.077 27.1733 107.697 27.5263C107.317 27.8794 106.824 28.0797 106.311 28.0902L106.273 28.071ZM116.25 21.7726L114.24 26.9765H114.183L112.098 21.7726H110.219L113.347 29.0503L111.562 33.0925H113.394L118.204 21.7726H116.25ZM100.467 29.4536H102.215V17.452H100.467V29.4536Z" fill="white"/>
<path id="Vector_10" d="M9.80887 7.88948C9.49929 8.26356 9.34133 8.74443 9.36732 9.23365V30.4717C9.33536 30.9617 9.49405 31.4448 9.80887 31.8158L9.87463 31.8927L21.5144 19.9967V19.7086L9.87463 7.82227L9.80887 7.88948Z" fill="url(#paint0_linear_1501_23824)"/>
<path id="Vector_11" d="M25.3674 23.9619L21.5156 19.9965V19.7085L25.3674 15.7432L25.4519 15.8008L30.0646 18.4699C31.3799 19.2284 31.3799 20.4766 30.0646 21.2447L25.4707 23.9138L25.3674 23.9619Z" fill="url(#paint1_linear_1501_23824)"/>
<path id="Vector_12" d="M25.4787 23.9043L21.5142 19.8525L9.80859 31.8157C10.0741 32.0572 10.4139 32.1962 10.769 32.2084C11.1242 32.2207 11.4724 32.1056 11.7533 31.8829L25.4787 23.9043Z" fill="url(#paint2_linear_1501_23824)"/>
<path id="Vector_13" d="M25.4787 15.8009L11.7533 7.83183C11.4743 7.60612 11.1263 7.48816 10.7707 7.4987C10.415 7.50923 10.0743 7.64759 9.80859 7.88944L21.5142 19.8526L25.4787 15.8009Z" fill="url(#paint3_linear_1501_23824)"/>
<path id="Vector_14" opacity="0.2" d="M25.3659 23.8174L11.7533 31.7384C11.4826 31.9472 11.1528 32.0601 10.8138 32.0601C10.4748 32.0601 10.145 31.9472 9.87436 31.7384L9.80859 31.8056L9.87436 31.8824C10.145 32.0912 10.4748 32.2041 10.8138 32.2041C11.1528 32.2041 11.4826 32.0912 11.7533 31.8824L25.4787 23.9038L25.3659 23.8174Z" fill="black"/>
<path id="Vector_15" opacity="0.12" d="M9.80742 31.6809C9.50566 31.3001 9.35778 30.8158 9.39406 30.3271V30.4712C9.3621 30.9612 9.52079 31.4443 9.8356 31.8153L9.90137 31.7481L9.80742 31.6809Z" fill="black"/>
<path id="Vector_16" opacity="0.12" d="M30.0645 21.1007L25.3672 23.8179L25.4517 23.9043L30.0645 21.2351C30.3367 21.1175 30.5729 20.9269 30.7482 20.6836C30.9234 20.4403 31.0312 20.1532 31.0603 19.8525C31.0015 20.1258 30.8808 20.3811 30.7078 20.5979C30.5349 20.8147 30.3145 20.9869 30.0645 21.1007Z" fill="black"/>
<path id="Vector_17" opacity="0.25" d="M11.7534 7.96606L30.0633 18.6043C30.3134 18.7181 30.5338 18.8903 30.7067 19.1071C30.8797 19.3239 31.0004 19.5792 31.0592 19.8524C31.0301 19.5518 30.9223 19.2647 30.7471 19.0213C30.5718 18.778 30.3356 18.5875 30.0633 18.4699L11.7534 7.83164C10.4476 7.06354 9.36719 7.69723 9.36719 9.23343V9.37745C9.39537 7.84124 10.4476 7.20756 11.7534 7.96606Z" fill="white"/>
</g>
<defs>
<linearGradient id="paint0_linear_1501_23824" x1="20.481" y1="9.01282" x2="4.37393" y2="24.7731" gradientUnits="userSpaceOnUse">
<stop stop-color="#00A0FF"/>
<stop offset="0.01" stop-color="#00A1FF"/>
<stop offset="0.26" stop-color="#00BEFF"/>
<stop offset="0.51" stop-color="#00D2FF"/>
<stop offset="0.76" stop-color="#00DFFF"/>
<stop offset="1" stop-color="#00E3FF"/>
</linearGradient>
<linearGradient id="paint1_linear_1501_23824" x1="31.7838" y1="19.8525" x2="9.05849" y2="19.8525" gradientUnits="userSpaceOnUse">
<stop stop-color="#FFE000"/>
<stop offset="0.41" stop-color="#FFBD00"/>
<stop offset="0.78" stop-color="#FFA500"/>
<stop offset="1" stop-color="#FF9C00"/>
</linearGradient>
<linearGradient id="paint2_linear_1501_23824" x1="23.3273" y1="22.0608" x2="1.4802" y2="43.4281" gradientUnits="userSpaceOnUse">
<stop stop-color="#FF3A44"/>
<stop offset="1" stop-color="#C31162"/>
</linearGradient>
<linearGradient id="paint3_linear_1501_23824" x1="6.85871" y1="0.822901" x2="16.6113" y2="10.3655" gradientUnits="userSpaceOnUse">
<stop stop-color="#32A071"/>
<stop offset="0.07" stop-color="#2DA771"/>
<stop offset="0.48" stop-color="#15CF74"/>
<stop offset="0.8" stop-color="#06E775"/>
<stop offset="1" stop-color="#00F076"/>
</linearGradient>
<clipPath id="clip0_1501_23824">
<rect width="126.826" height="38.4051" fill="white" transform="translate(0 0.649902)"/>
</clipPath>
</defs>
</svg>
