<svg width="1520" height="878" viewBox="0 0 1520 878" fill="none" xmlns="http://www.w3.org/2000/svg">
<g clip-path="url(#clip0_1505_26217)">
<rect width="1520" height="877" transform="translate(0 0.813965)" fill="white"/>
<path d="M1574.29 -461.985H-71.3574V924.416H1574.29V-461.985Z" fill="#D9D9D9"/>
<path d="M163.111 -462.548V-392.413H130.422L139.218 -304.5L197.815 -265.565L297.602 -317.054L378.06 -293.202L406.979 -182.138C406.979 -182.138 447.208 -139.991 430.854 -35.7575C414.5 68.4755 384.343 84.7953 373.033 162.665C361.724 240.536 340.344 294.517 340.344 294.517L354.166 305.815H383.086C383.086 305.815 396.132 244.616 396.132 223.2C396.132 201.785 404.466 119.687 406.85 100.654C409.234 81.62 441.387 60.2048 442.57 32.8265C443.753 5.4483 468.773 -62.2865 468.773 -78.3849C468.773 -94.4832 449.721 -155.166 453.288 -173.018C456.854 -190.87 479.491 -212.285 478.29 -236.082C477.089 -259.879 436.601 -328.611 417.549 -325.768C398.498 -322.924 368.728 -345.54 341.323 -345.54C313.919 -345.54 294.867 -340.777 290.118 -340.777C285.369 -340.777 234.385 -371.072 235.346 -406.241C236.307 -441.41 235.346 -462.566 235.346 -462.566H163.093L163.111 -462.548Z" fill="#BABABA"/>
<path d="M520.756 317.54C520.756 317.54 563.425 297.011 563.425 289.128C563.425 281.245 531.825 277.294 531.825 277.294L525.505 230.679L542.1 209.412L512.866 188.107L522.346 181H546.054L554.739 161.264L619.527 188.901L625.052 169.166L568.95 150.225L542.081 124.969L604.503 109.979L640.057 61.8314L550.766 11.3026L549.177 -25.8048H572.886L547.606 -62.9122L555.516 -93.7058H585.544L600.549 -124.499L628.212 -130.019L671.675 -182.117L717.595 -128.432L711.959 -20.2849L784.656 -4.50041L816.255 -10.0203L821.78 1.81339L843.105 0.225739V-13.1957H853.379C853.379 -13.1957 869.179 28.6378 902.367 32.5885C935.556 36.5393 952.15 26.2747 952.15 26.2747L973.475 64.1575L1008.23 38.1085H1025.62V87.8435L1054.06 49.9607L1105.77 78.299V106.046L1224.64 109.369L1257.98 131.56V177.067L1281.3 178.175L1290.19 220.341L1334.63 209.246L1373.51 264.741L1360.19 283.608L1261.32 256.968L1239.11 299.134L1211.34 268.064V303.583C1211.34 303.583 1225.79 321.509 1261.32 317.54C1296.86 313.571 1316.87 318.112 1316.87 318.112L1336.87 341.318L1305.77 350.198L1390.2 416.789V426.776H1357.99L1361.31 451.201H1457.96V526.671L1429.08 508.911L1427.97 464.511L1416.86 463.404L1405.76 488.936C1405.76 488.936 1349.1 464.511 1334.65 465.637C1320.2 466.764 1294.66 532.228 1294.66 532.228H1254.67C1254.67 532.228 1251.34 554.418 1255.78 555.526C1260.21 556.634 1290.22 569.963 1290.22 569.963L1273.46 587.021L1195.61 604.375L1172.68 584.233L1160.17 615.488L1107.34 637.015L1099.69 666.885L994.726 714.109H950.93L911.995 739.106L930.068 759.247L905.731 821.056L884.886 827.997H869.586L857.075 850.908L761.15 822.441L771.573 850.908L744.464 880.077V920.36H429.581L408.034 894.662L435.845 882.163L443.292 883.123C457.891 885.006 469.902 871.806 466.613 857.462L465.578 852.957C463.453 843.708 465.43 833.997 470.974 826.299L474.854 820.908C482.412 810.422 495.403 805.29 508.098 807.801L514.825 809.13C531.844 812.49 547.902 800.029 548.882 782.73L549.14 778.004L580.425 762.035L595.726 775.918L607.534 749.537L583.197 704.399L552.614 685.642L576.951 632.861L501.871 591.193L518.557 547.44L549.14 542.584L583.899 487.034L613.096 462.037L590.847 447.453L609.622 408.555L598.498 398.143L578.337 402.315L570.687 385.644L538.718 397.441V407.853L548.457 409.238L535.946 423.822L501.889 428.678L498.415 454.376L474.078 463.404L367.731 489.785L349.659 533.538L299.618 557.852L290.267 542.991V523.772L261.421 501.36V483.748L214.152 496.56L207.74 486.148L229.379 477.342L222.172 463.736L197.336 458.124L204.543 432.499L219.77 437.299L235.791 430.099L255.028 428.493L337.555 376.45L355.184 386.863L354.389 401.281H340.77L360.007 434.105L406.482 394.875L439.338 410.881L422.503 384.463L438.525 381.269L477.793 412.487L487.402 406.081L462.566 376.469L472.175 369.103L484.186 384.463L503.423 381.269L514.64 400.487L519.444 386.069L505.012 365.263L515.434 335.651L534.671 324.445L533.876 334.857L533.082 344.457L556.329 339.657C556.329 339.657 561.946 331.645 558.731 320.439C555.516 309.232 551.524 307.626 551.524 307.626L520.83 317.54H520.756Z" fill="#BABABA"/>
<path d="M-42.4648 508.78H-26.2957L-21.1031 494.934H-8.40793L-13.6005 541.66H-4.36102L14.118 506.473L27.9773 504.737V522.626L40.6909 523.771L43.5737 505.882L27.4045 492.036V462.627L-8.98078 453.396L-13.6005 472.43L-42.4648 508.78Z" fill="#BABABA"/>
<path d="M1176.94 -359.515L1211.07 -368.395L1253.37 -303.171L1328.3 -281.682L1343.88 -288.346L1377.27 -267.596L1403.23 -232.02L1381.72 -217.196L1394.33 -176.433L1423.27 -159.375L1415.1 -133.437L1584.02 1.41312L1569.53 70.6527L1417.33 -80.8032L1356.5 -126.772L1334.23 -152.71L1341.79 -237.208L1303.08 -247.583L1288.24 -222.384L1271.16 -212.747L1252.63 -247.583L1234.82 -254.986L1228.88 -281.682L1176.94 -359.515Z" fill="#BABABA"/>
<path d="M228.391 857.551L233.361 840.456L306.834 823.343L328.362 908.32L228.391 857.551Z" fill="#BABABA"/>
<path d="M347.705 766.186L351.586 778.094L363.726 781.399L390.798 835.49L407.91 839.349L434.982 799.066L391.353 790.242L384.719 760.999L347.705 766.186Z" fill="#BABABA"/>
<path d="M254.367 794.101L271.497 785.83L287.5 804.587L278.39 816.162L254.367 794.101Z" fill="#BABABA"/>
<path d="M251.051 629.666V652.835H294.68L337.2 641.26L356.548 631.881L307.929 607.604L287.491 613.66L283.629 621.395L264.3 620.287V630.22L251.051 629.666Z" fill="#BABABA"/>
<path d="M400.188 573.93V590.49L422.824 593.241L445.48 590.49L449.342 564.552H439.954L434.984 581.666L400.188 573.93Z" fill="#BABABA"/>
<path d="M65.416 550.078L67.5411 576.127H87.1659V545.02L65.416 550.078Z" fill="#BABABA"/>
<path d="M1204.25 272.644H1200.4C1198.63 272.644 1197.19 274.084 1197.19 275.856V282.004C1197.19 283.112 1196.62 284.127 1195.69 284.718L1164.52 304.453C1162.19 305.93 1162.67 309.438 1165.29 310.231L1194.77 319.241C1194.95 319.296 1195.14 319.333 1195.34 319.351L1230.9 323.45C1233.87 323.801 1235.66 320.238 1233.61 318.059L1231.19 315.493C1230.99 315.271 1230.75 315.087 1230.49 314.939L1212.93 304.508C1211.95 303.936 1211.36 302.884 1211.36 301.739V274.527C1211.36 271.869 1208.31 270.355 1206.21 271.961C1205.65 272.386 1204.97 272.607 1204.27 272.607L1204.25 272.644Z" fill="#6D6D6D"/>
<path d="M978.068 442.823C978.068 443.34 978.124 443.875 978.253 444.374L980.083 452.146C980.582 454.232 982.023 455.967 984 456.835L1019.52 472.269C1024.01 474.226 1029.05 470.921 1029.05 466.029V464.294C1029.05 461.857 1027.76 459.604 1025.63 458.386L988.287 436.915C983.741 434.312 978.087 437.58 978.087 442.823H978.068Z" fill="#6D6D6D"/>
<path d="M243.025 420.835C243.025 420.835 263.666 440.828 270.744 456.373C277.821 471.917 283.051 463.443 287.523 479.006C291.995 494.569 321.857 492.446 322.855 504.465C323.853 516.483 332.335 544.692 318.882 553.221C305.429 561.75 275.696 539.818 267.214 546.187C258.733 552.557 261.56 568.101 261.56 568.101L258.012 584.366L265.089 597.085C265.089 597.085 286.322 606.279 303.304 605.578C320.286 604.876 321.007 580.119 341.519 580.119C362.031 580.119 397.436 596.384 397.436 596.384C397.436 596.384 418.669 602.753 438.497 599.208C458.325 595.664 463.979 594.962 463.979 594.962C463.979 594.962 468.23 608.476 478.134 605.615C488.039 602.753 495.117 590.015 495.117 590.015C495.117 590.015 510.695 608.568 527.677 606.002C544.659 603.436 575.094 628.193 575.094 628.193L566.594 684.057H575.094C575.094 684.057 580.046 662.845 591.374 664.248C602.702 665.651 591.374 678.389 622.511 678.389C653.649 678.389 652.244 654.353 663.572 654.353C674.899 654.353 689.054 657.897 689.054 655.774C689.054 653.651 701.786 638.808 701.786 638.808L717.586 637.387C717.586 637.387 725.846 604.156 735.049 604.156C744.251 604.156 750.627 620.421 757.704 619.719C764.782 619.017 795.217 593.559 795.217 593.559C795.217 593.559 834.854 594.261 843.355 585.067C851.855 575.873 878.742 535.572 878.742 535.572C878.742 535.572 951.642 555.381 957.315 548.292C962.988 541.203 980.358 514.342 978.048 503.745C975.738 493.148 940.333 486.52 935.38 476.403C930.428 466.287 905.647 480.409 905.647 458.496C905.647 436.582 919.802 427.388 919.802 427.388C919.802 427.388 885.819 376.472 902.82 376.472C919.821 376.472 953.785 427.388 953.785 427.388C953.785 427.388 972.191 389.912 983.518 392.736C994.846 395.561 1009 429.511 1018.2 421.019C1027.41 412.527 1000.5 388.49 1000.5 381.419C1000.5 374.349 1006.58 364.453 1029.01 363.733C1051.45 363.013 1093.23 355.961 1117.99 355.241C1142.75 354.521 1155.5 334.694 1143.47 324.466C1131.44 314.238 1107.36 311.395 1107.36 300.097C1107.36 288.799 1120.82 297.974 1136.38 284.534C1151.94 271.094 1169.64 258.374 1186.64 259.777C1203.64 261.18 1204.12 289.389 1211.31 303.586C1218.5 317.783 1234.08 325.518 1251.06 324.466C1268.04 323.414 1272.99 314.94 1302.73 315.642C1332.46 316.343 1334.58 324.134 1335.29 344.626C1335.99 365.118 1340.94 377.155 1352.27 377.155C1363.6 377.155 1406.76 360.189 1406.76 360.189C1406.76 360.189 1410.31 396.964 1430.12 396.964C1449.93 396.964 1470.46 377.875 1486.04 377.875C1501.62 377.875 1581.62 416.855 1581.62 416.855" stroke="#6D6D6D" stroke-width="1.61022" stroke-miterlimit="10"/>
<path d="M236.301 -462.544C236.301 -462.544 228.3 -403.467 244.302 -375.48C260.305 -347.492 270.302 -337.523 296.302 -339.517C322.302 -341.511 358.3 -344.52 358.3 -344.52C358.3 -344.52 419.299 -332.963 443.303 -292.274C467.308 -251.585 481.296 -250.607 465.312 -205.653C449.328 -160.7 458.308 -135.722 458.308 -102.75C458.308 -69.7776 441.308 -17.8272 441.308 6.15408C441.308 30.1354 424.307 63.1075 424.307 63.1075C424.307 63.1075 400.303 102.061 397.309 148.03C394.315 193.999 395.313 222.965 389.308 242.94C383.302 262.915 332.3 337.85 332.3 337.85C332.3 337.85 315.299 347.838 302.308 358.822C289.317 369.807 261.303 415.776 234.305 414.76C207.307 413.745 195.314 408.76 172.308 385.794C149.302 362.828 105.303 374.81 72.3178 360.816C39.3327 346.822 25.3256 316.859 11.3185 307.869C-2.68865 298.878 -17.9339 286.896 -44.6731 285.881C-71.4123 284.866 -82.666 293.875 -82.666 293.875V312.853C-82.666 312.853 -61.6738 302.866 -43.6752 303.862C-25.6766 304.859 -6.68013 309.862 17.3242 336.835C41.3285 363.807 71.32 380.791 109.331 382.785C147.343 384.779 152.332 384.779 164.325 394.766C176.318 404.754 195.13 428.828 212.278 428.828C229.427 428.828 258.993 427.646 264.315 418.194C269.637 408.742 287.377 381.566 303.934 370.342C320.492 359.117 347.101 352.619 348.284 342.576C349.467 332.533 392.634 264.595 392.634 264.595C392.634 264.595 405.643 238.011 405.643 223.832C405.643 209.654 407.417 157.667 409.191 134.627C410.965 111.587 445.262 47.7845 445.262 47.7845C445.262 47.7845 452.358 4.65872 454.132 -12.4734C455.906 -29.6056 475.42 -73.3222 475.42 -83.956C475.42 -94.5897 461.228 -139.488 461.228 -156.029C461.228 -172.571 481.333 -200.927 483.107 -222.786C484.881 -244.644 484.29 -267.093 466.55 -285.997C448.81 -304.902 436.392 -332.668 403.278 -341.529C370.163 -350.391 364.25 -362.206 358.928 -362.206C353.606 -362.206 298.021 -350.982 298.021 -350.982C298.021 -350.982 269.046 -354.582 263.724 -368.723C258.402 -382.864 250.123 -387 249.532 -399.406C248.941 -411.812 251.897 -466.753 251.897 -466.753L236.319 -462.599L236.301 -462.544Z" fill="#6D6D6D"/>
<path d="M1182.05 -443.418C1182.05 -443.418 1186.28 -461.972 1197.65 -374.686C1209.01 -287.401 1229.1 -280.422 1248.32 -279.555C1267.54 -278.687 1328.7 -282.176 1347.92 -268.201C1367.14 -254.226 1378.5 -142.516 1399.46 -120.694C1420.41 -98.8731 1604.96 48.9177 1604.96 48.9177" stroke="#6D6D6D" stroke-width="1.61022" stroke-miterlimit="10"/>
<path d="M-71.4414 832.429C-71.4414 832.429 34.0371 841.106 67.0776 832.429C100.118 823.752 150.529 795.949 169.655 780.331C188.781 764.712 242.666 711.728 317.432 722.141C392.198 732.553 549.51 815.057 549.51 815.057" stroke="#898989" stroke-width="1.61022" stroke-miterlimit="10"/>
<path d="M-71.4414 852.255C-71.4414 852.255 11.1785 853.566 48.3583 848.674C85.5382 843.781 126.155 822.403 155.592 805.271C178.636 791.868 224.556 740.435 224.556 740.435C224.556 740.435 196.948 767.167 174.145 784.022C143.119 806.969 93.4472 832.114 63.2894 840.532C33.1316 848.951 -71.4414 845.24 -71.4414 845.24" stroke="#898989" stroke-width="1.61022" stroke-miterlimit="10"/>
<path d="M-71.4414 857.721C-71.4414 857.721 40.6526 858.571 76.5574 848.675C112.462 838.78 136.688 824.639 154.243 813.414C171.798 802.19 233.833 735.784 233.833 735.784" stroke="#898989" stroke-width="1.61022" stroke-miterlimit="10"/>
<path d="M-79.2852 766.188C-79.2852 766.188 35.6731 717.672 73.9247 723.561C112.176 729.45 175.449 755.407 213.7 744.626C251.952 733.844 421.165 658.872 421.165 658.872C421.165 658.872 468.379 598.596 474.939 585.378C481.499 572.159 526.883 540.369 544.66 522.609C562.437 504.849 641.934 429.619 685.859 417.084C729.783 404.548 773.708 403.662 813.457 369.102C853.205 334.543 857.381 332.457 889.812 334.543C922.243 336.629 966.168 379.478 1042.5 377.373C1118.84 375.269 1174.28 334.45 1228.66 333.97C1283.05 333.49 1366.72 408.721 1411.7 408.721C1456.68 408.721 1463.99 405.582 1481.77 387.822C1499.48 351.637 1564.7 331.51 1564.7 331.51" stroke="white" stroke-width="4.83067" stroke-miterlimit="10"/>
<path d="M-79.2852 238.747C-79.2852 238.747 -1.58073 247.996 43.5636 273.712C88.7079 299.429 121.453 321.011 170.958 316.894C220.464 312.777 296.394 297.897 306.927 298.377C317.46 298.857 329.435 298.857 329.435 298.857C329.435 298.857 371.992 323.798 379.605 333.952C387.219 344.106 392.079 357.269 389.307 373.201C386.535 389.133 375.632 428.604 390.101 446.622C402.704 462.314 454.39 504.332 470.411 526.781C472.777 530.086 474.366 532.966 474.939 535.273C479.429 553.273 479.725 578.879 479.725 578.879" stroke="white" stroke-width="1.61022" stroke-miterlimit="10"/>
<path d="M507.276 547.846L470.41 526.8" stroke="white" stroke-width="1.61022" stroke-miterlimit="10"/>
<path d="M97.0039 -458.761C97.0039 -458.761 123.41 -283.452 126.589 -264.621C129.767 -245.791 183.061 -187.877 185.796 -167.699C188.531 -147.521 191.266 -34.26 191.266 -4.24177C191.266 25.7765 144.144 246.87 144.144 246.87C144.144 246.87 134.036 284.181 135.939 294.667C137.843 305.153 128.732 326.106 126.607 340.395C124.482 354.685 117.811 433.755 117.811 438.518C117.811 443.281 109.366 501.637 112.988 516.148C116.61 530.659 140.208 547.791 149.872 550.099C159.537 552.406 190.896 571.735 191.247 585.637C191.598 599.538 195.497 609.655 200.191 607.624C204.885 605.593 226.671 604.984 236.946 601.347C247.22 597.71 256.497 592.117 256.497 592.117" stroke="white" stroke-width="1.61022" stroke-miterlimit="10"/>
<path d="M-71.4629 431.503L30.3567 457.257L87.1429 506.863L96.9922 587.964C96.9922 587.964 121.606 644.234 130.402 652.837C139.198 661.44 163.073 683.372 163.073 683.372L170.705 700.541L146.128 740.861L160.856 760.984" stroke="white" stroke-width="1.61022" stroke-miterlimit="10"/>
<path d="M170.734 700.558H228.389L287.485 680.176L290.978 657.229L344.53 637.697L457.696 661.659C457.696 661.659 464.736 686.084 474.918 686.822C485.1 687.561 512.523 677.204 512.523 677.204L579.214 695.702L599.966 683.85L666.657 686.065L677.763 690.515L748.889 652.817H838.549L855.587 659.426L869.668 652.817L890.42 661.641L977.105 607.568L1044.54 575.759C1044.54 575.759 1116.4 520.984 1163.84 520.984C1211.27 520.984 1306.11 541.716 1306.11 541.716L1389.1 570.589L1402.44 716.416" stroke="white" stroke-width="1.61022" stroke-miterlimit="10"/>
<path d="M-84.9805 438.962L-53.8802 344.716L-61.3827 178.712L-30.3009 134.792L12.589 -6.58544L22.235 -142.369L-45.3059 -462.545" stroke="white" stroke-width="1.61022" stroke-miterlimit="10"/>
<path d="M-27.3242 124.968L49.641 131.042L215.195 153.528L310.621 277.773" stroke="white" stroke-width="1.61022" stroke-miterlimit="10"/>
<path d="M229.151 -462.545C229.151 -462.545 228.079 -400.182 238.797 -373.395C249.515 -346.607 270.95 -317.697 270.95 -317.697C270.95 -317.697 258.089 -267.353 270.95 -230.947C283.812 -194.541 297.745 -197.753 289.171 -157.046C280.596 -116.338 233.419 88.2139 233.419 88.2139C233.419 88.2139 218.414 128.921 213.055 136.417C207.696 143.912 186.261 179.265 189.476 217.813C192.692 256.36 218.414 360.261 218.414 360.261L203.797 448.506C203.797 448.506 161.573 518.014 156.528 521.041C151.483 524.069 130.436 537.343 130.436 537.343" stroke="white" stroke-width="1.61022" stroke-miterlimit="10"/>
<path d="M127.232 336.814L216.948 369.103" stroke="white" stroke-width="1.61022" stroke-miterlimit="10"/>
<path d="M113.927 305.817V286.709C113.927 286.709 36.9802 233.098 17.9098 230.661C-1.16062 228.224 -17.3298 205.369 -27.327 201.362C-37.3241 197.356 -56.3945 171.64 -56.3945 171.64" stroke="white" stroke-width="1.61022" stroke-miterlimit="10"/>
<path d="M-71.4629 486.905C-71.4629 486.905 -43.0791 454.783 -31.3633 453.38C-19.6476 451.976 -7.26665 430.58 -4.36543 422.014C-1.46422 413.448 28.7675 361.091 28.7675 361.091" stroke="white" stroke-width="1.61022" stroke-miterlimit="10"/>
<path d="M-79.2852 324.741C-79.2852 324.741 -54.7265 302.2 -31.3505 308.735C-7.97447 315.271 18.9495 359.652 38.5928 369.104C58.236 378.556 99.0378 389.467 113.95 388.728C128.863 387.99 147.065 392.365 156.526 398.181C165.987 403.996 203.204 436.58 211.15 438.943C219.096 441.306 256.091 432.205 265.626 423.99C275.162 415.774 386.202 346.581 391.21 333.953C396.218 321.326 424.768 285.345 424.768 285.345C424.768 285.345 430.219 210.871 437.74 171.622C445.261 132.374 489.777 26.9221 489.777 26.9221C489.777 26.9221 518.845 -154.073 532.852 -182.153C546.859 -210.233 618.262 -291.888 618.262 -291.888L665.384 -345.5" stroke="white" stroke-width="1.61022" stroke-miterlimit="10"/>
<path d="M-9.48903 439.348C-9.48903 439.348 -11.8728 461.982 -21.3341 472.228C-30.7954 482.474 -47.3711 505.347 -47.3711 505.347C-47.3711 505.347 -46.9091 553.458 -31.3498 586.19C-15.7904 618.922 7.84433 777.45 28.7811 811.363C49.7179 845.277 49.644 926.507 49.644 926.507" stroke="white" stroke-width="1.61022" stroke-miterlimit="10"/>
<path d="M-71.4629 740.878C-71.4629 740.878 29.1925 667.826 56.8187 658.355C84.4449 648.885 114.991 626.546 114.991 626.546L130.439 620.749L140.547 616.946L126.91 578.897L109.281 584.251L97.0292 587.962C97.0292 587.962 68.6823 584.99 49.6673 578.897C30.6524 572.805 11.8407 556.615 -9.46565 553.458C-30.772 550.301 -71.4259 578.897 -71.4259 578.897C-71.4259 578.897 -52.3001 626.343 -50.7294 652.835C-49.1587 679.327 -21.3107 799.216 -21.3107 799.216" stroke="white" stroke-width="1.61022" stroke-miterlimit="10"/>
<path d="M-71.4629 816.163L76.2587 766.188L40.2245 578.897L53.6403 504.553L28.7675 489.193L47.3944 372.905" stroke="white" stroke-width="1.61022" stroke-miterlimit="10"/>
<path d="M86.3691 642.277L96.9946 728.436" stroke="white" stroke-width="1.61022" stroke-miterlimit="10"/>
<path d="M-71.4629 652.837L47.8933 618.739" stroke="white" stroke-width="1.61022" stroke-miterlimit="10"/>
<path d="M-71.4629 618.737L12.7647 594.534" stroke="white" stroke-width="1.61022" stroke-miterlimit="10"/>
<path d="M7.35742 560.564L49.6375 775.197L56.5117 816.162" stroke="white" stroke-width="1.61022" stroke-miterlimit="10"/>
<path d="M110.086 728.435L152.643 673.715" stroke="white" stroke-width="1.61022" stroke-miterlimit="10"/>
<path d="M81.1449 383.538L60.4668 483.562" stroke="white" stroke-width="1.61022" stroke-miterlimit="10"/>
<path d="M-2.34375 417.452L184.258 480.11V501.618C184.258 501.618 213.436 506.805 231.583 501.618C249.729 496.43 250.376 490.024 256.862 503.925C263.348 517.827 256.862 557.962 256.862 557.962C256.862 557.962 251.078 558.608 251.06 572.214C251.041 585.82 270.093 624.534 282.603 626.546C295.114 628.558 344.564 637.697 344.564 637.697" stroke="white" stroke-width="1.61022" stroke-miterlimit="10"/>
<path d="M213.039 136.397C213.039 136.397 227.545 148.526 253.878 140.292C280.21 132.059 362.054 106.582 373.382 106.527C384.71 106.471 462.673 129.585 474.906 129.585C487.139 129.585 511.051 143.56 528.366 143.154C545.681 142.748 641.31 202.064 657.793 211.129C674.276 220.193 701.995 237.566 717.406 238.766C732.818 239.966 759.206 217.72 790.528 217.72C821.85 217.72 861.432 216.889 861.432 216.889C861.432 216.889 915.022 186.409 921.619 163.351C928.216 140.292 924.095 130.397 939.765 116.403C955.435 102.41 965.044 102.65 966.966 79.333C968.888 56.0163 889.465 -54.106 889.465 -54.106" stroke="white" stroke-width="1.61022" stroke-miterlimit="10"/>
<path d="M387.305 348.187C387.305 348.187 433.576 328.913 438.529 316.544C443.481 304.175 452.536 287.708 457.488 288.538C462.441 289.369 466.82 291.437 466.82 291.437L456.084 276.908C456.084 276.908 467.504 249.936 476.503 250.637C485.502 251.339 485.151 261.012 489.993 254.089C494.834 247.166 502.448 208.102 502.448 208.102L488.958 199.111L520.502 97.0199C520.502 97.0199 540.699 100.491 566.385 92.3307C592.071 84.1707 610.458 90.7246 628.493 77.3585C646.529 63.9925 653.884 56.0541 670.404 55.4448C686.924 54.8356 759.732 59.7279 771.983 45.6603C784.235 31.5927 790.943 32.8296 787.894 19.3713C784.845 5.91293 787.894 -10.5731 805.024 -13.0285C822.154 -15.4838 849.078 -20.3576 872.325 -41.7544C895.571 -63.1511 923.105 -62.4681 932.899 -78.4002C942.693 -94.3324 967.621 -142.295 1007.59 -142.406C1047.56 -142.517 1053.44 -174.233 1080.49 -174.233C1107.54 -174.233 1115.77 -163.655 1134.58 -174.233C1153.39 -184.812 1151.04 -215.624 1172.2 -214.313C1193.36 -213.002 1230.98 -217.876 1240.39 -216.03C1249.8 -214.184 1309.76 -109.157 1309.76 -109.157L1316.95 -85.8771C1316.95 -85.8771 1303.79 -88.3878 1303.79 -75.8526C1303.79 -63.3173 1310.68 -10.13 1316.95 19.9251C1323.21 49.9803 1341.75 83.1554 1341.75 83.1554L1347.64 198.336L1397.23 286.425" stroke="white" stroke-width="1.61022" stroke-miterlimit="10"/>
<path d="M918.34 -12.3259L967.032 36.5598C967.032 36.5598 996.95 12.4123 1008.06 -1.28602C1019.16 -14.9844 1030.27 -13.6921 1054.44 -9.11366C1078.61 -4.53524 1091.67 5.19394 1091.67 5.19394" stroke="white" stroke-width="1.61022" stroke-miterlimit="10"/>
<path d="M1063.12 54.8889C1063.12 54.8889 1063.58 18.9261 1109.3 -4.57525C1155.02 -28.0766 1209.23 -44.378 1209.23 -44.378L1225.57 -80.9316L1198.79 -135.743C1198.79 -135.743 1161.56 -146.193 1161.56 -162.494C1161.56 -178.795 1168.08 -223.841 1156.99 -234.272C1145.91 -244.703 1155.03 -264.622 1155.03 -264.622L1134.78 -328.24L1147.85 -345.483L1121.66 -410.781" stroke="white" stroke-width="1.61022" stroke-miterlimit="10"/>
<path d="M1493.84 -461.523C1508.87 -450.251 1540.54 -418.53 1546.98 -381.817C1555.03 -335.926 1546.98 -320.628 1546.98 -284.398C1546.98 -255.414 1537.32 -228.309 1532.49 -218.379L1551 -119.351V-43.6702L1579.18 6.24671" stroke="white" stroke-width="1.61022" stroke-linejoin="round"/>
<path d="M1379.75 408.556C1379.75 408.556 1364.61 390.519 1375.88 386.771C1387.16 383.024 1394.05 393.381 1394.05 369.104C1394.05 344.827 1385.9 296.624 1385.9 296.624C1385.9 296.624 1400.31 290.366 1405.32 277.849C1410.33 265.332 1424.11 232.785 1439.78 220.268C1455.45 207.751 1566.24 176.468 1566.24 176.468" stroke="white" stroke-width="1.61022" stroke-miterlimit="10"/>
<path d="M1572.68 302.199C1572.68 302.199 1458 331.054 1439.19 324.796C1420.38 318.538 1395.95 305.892 1360.23 302.199C1324.51 298.507 1266.87 304.008 1248.08 302.199C1229.29 300.39 1214.24 260.31 1194.19 257.818C1174.14 255.326 1105.22 276.353 1085.17 292.119C1065.12 307.885 976.769 333.971 976.769 333.971L941.049 318.538L909.727 331.054L889.807 334.544" stroke="white" stroke-width="1.61022" stroke-miterlimit="10"/>
<path d="M793.804 383.446C793.804 383.446 811.341 355.31 803.82 348.184C796.299 341.058 770.613 330.425 743.671 327.932C716.728 325.44 685.406 324.794 685.406 324.794L627.77 305.816L606.464 281.926L578.893 286.616C578.893 286.616 550.694 274.099 537.537 287.871C524.38 301.643 520.628 312.905 509.966 312.905C499.304 312.905 466.836 291.453 466.836 291.453" stroke="white" stroke-width="1.61022" stroke-miterlimit="10"/>
<path d="M627.76 305.816L577.645 439.348" stroke="white" stroke-width="1.61022" stroke-miterlimit="10"/>
<path d="M616.683 293.393C616.683 293.393 595.802 318.74 595.173 333.971C594.545 349.202 593.75 347.983 583.273 369.103C572.795 390.223 537.537 429.343 537.537 429.343C537.537 429.343 492.43 481.921 492.43 501.324C492.43 520.726 494.555 531.379 507.268 530.751C519.982 530.123 544.67 522.628 544.67 522.628" stroke="white" stroke-width="1.61022" stroke-miterlimit="10"/>
<path d="M412.181 667.882C412.181 667.882 384.407 721.734 386.901 751.697C389.396 781.66 392.501 790.817 391.336 830.749C390.172 870.681 351.828 923.905 351.828 923.905" stroke="white" stroke-width="1.61022" stroke-miterlimit="10"/>
<path d="M200.209 751.695C200.209 751.695 247.682 820.224 256.515 839.35C265.348 858.476 247.404 923.903 247.404 923.903" stroke="white" stroke-width="1.61022" stroke-miterlimit="10"/>
<path d="M56.7246 814.578C56.7246 814.578 99.7421 891.063 145.441 890.251C191.139 889.439 363.253 859.273 363.253 859.273C363.253 859.273 346.548 845.427 400.175 844.596C453.801 843.765 535.367 821.778 583.505 833.187C631.643 844.596 815.99 923.888 815.99 923.888" stroke="white" stroke-width="1.61022" stroke-miterlimit="10"/>
<path d="M579.225 695.723C579.225 695.723 598.184 741.914 611.23 748.449C624.277 754.984 616.94 774.904 621.024 795.895C625.108 816.886 659.368 839.353 659.368 839.353V859.531" stroke="white" stroke-width="1.61022" stroke-miterlimit="10"/>
<path d="M627.755 847.603L622.654 923.904" stroke="white" stroke-width="1.61022" stroke-miterlimit="10"/>
<path d="M140.539 829.918L163.379 873.136V923.905" stroke="white" stroke-width="1.61022" stroke-miterlimit="10"/>
<path d="M34.6289 823.346L70.7924 816.165L183.884 746.897" stroke="white" stroke-width="1.61022" stroke-miterlimit="10"/>
<path d="M236.959 601.328L251.04 629.666L254.348 691.604" stroke="white" stroke-width="1.61022" stroke-miterlimit="10"/>
<path d="M287.48 680.177L303.779 685.347L334.861 746.897L389.54 844.982" stroke="white" stroke-width="1.61022" stroke-miterlimit="10"/>
<path d="M228.393 700.558L236.967 746.896L291.813 801.006L328.364 908.323L365.322 933.319" stroke="white" stroke-width="1.61022" stroke-miterlimit="10"/>
<path d="M306.921 298.397C306.921 298.397 303.706 281.542 310.617 277.776C317.528 274.01 329.576 281.93 329.576 281.93C329.576 281.93 375.238 200.275 378.915 178.933C382.593 157.592 385.549 89.9126 385.549 89.9126L392.183 -109.138L345.062 -196.257L314.867 -218.319L290.715 -188.153" stroke="white" stroke-width="1.61022" stroke-miterlimit="10"/>
<path d="M329.426 298.877C329.426 298.877 333.38 291.511 331.477 286.711L329.574 281.911" stroke="white" stroke-width="1.61022" stroke-miterlimit="10"/>
<path d="M786.585 336.813C786.585 336.813 781.652 315.047 797.507 302.198C813.362 289.349 861.481 216.888 861.481 216.888" stroke="white" stroke-width="1.61022" stroke-miterlimit="10"/>
<path d="M924.012 153.767C924.012 153.767 957.089 132.057 981.962 139.626C1006.83 147.195 1011.16 162.518 1024.15 153.767C1037.14 145.017 1049 118.894 1105.81 106.026C1162.61 93.1587 1184.23 104.512 1204.78 92.3464C1225.33 80.1804 1252.37 74.5312 1252.37 74.5312C1252.37 74.5312 1313.7 89.891 1371.72 82.3403C1429.75 74.7896 1570.33 -19.52 1570.33 -19.52" stroke="white" stroke-width="1.61022" stroke-miterlimit="10"/>
<path d="M1123.64 36.5591H1183.12V98.4047" stroke="white" stroke-width="1.61022" stroke-miterlimit="10"/>
<path d="M1171.28 107.855C1171.28 107.855 1176.54 124.489 1198.22 124.489C1219.9 124.489 1249.11 121.24 1283.72 147.178C1318.33 173.117 1374.05 191.486 1402.43 202.285C1430.82 213.085 1439.8 220.248 1439.8 220.248" stroke="white" stroke-width="1.61022" stroke-miterlimit="10"/>
<path d="M1344.91 143.965L1413.52 174.205V206.734" stroke="white" stroke-width="1.61022" stroke-miterlimit="10"/>
<path d="M1480.45 202.949L1490.3 238.801L1439.19 324.794" stroke="white" stroke-width="1.61022" stroke-miterlimit="10"/>
<path d="M1392.84 348.186C1392.84 348.186 1466.3 334.931 1477.44 336.814C1488.58 338.697 1514.16 369.103 1514.16 369.103" stroke="white" stroke-width="1.61022" stroke-miterlimit="10"/>
<path d="M322.811 569.318C322.811 569.318 377.693 569.281 392.162 564.555C406.632 559.829 423.983 548.955 434.757 550.081C445.53 551.207 479.716 550.081 479.716 550.081" stroke="white" stroke-width="1.61022" stroke-miterlimit="10"/>
<path d="M494.998 564.554C494.998 564.554 509.135 581.834 528.316 590.492C547.497 599.15 581.979 636.092 616.683 637.698C651.386 639.304 809.696 569.317 809.696 569.317H837.526L872.784 530.769H923.491L937.091 516.351" stroke="white" stroke-width="1.61022" stroke-miterlimit="10"/>
<path d="M786.583 915.8C786.583 915.8 785.807 869.757 827.607 868.335C869.406 866.914 923.993 832.926 923.993 832.926L967.955 840.717L1016.87 708.977C1016.87 708.977 1039.75 697.955 1067.52 685.586C1102.74 669.894 1145.82 652.005 1160.08 651.599C1185.6 650.897 1273.52 634.596 1348.68 631.771C1423.83 628.946 1571.13 547.279 1571.13 547.279" stroke="white" stroke-width="1.61022" stroke-miterlimit="10"/>
<path d="M1067.52 685.568L1043.11 796.096L1255.81 856.299L1328.13 823.715L1303.11 634.799" stroke="white" stroke-width="1.61022" stroke-miterlimit="10"/>
<path d="M157.875 744.037L202.264 750.303L392.821 674.615C414.256 666.101 432.497 651.105 444.996 631.722L461.811 605.646L472.135 589.831C481.557 575.398 493.195 562.54 506.621 551.732L653.886 433.182C666.988 422.635 682.465 415.443 698.975 412.23L732.535 405.7C757.497 400.842 781.064 390.487 801.526 375.387L840.207 346.842C857.601 334.006 880.317 330.865 900.542 338.501L959.031 360.584C999.905 376.016 1044.36 379.362 1087.08 370.223L1119.3 363.333L1206.76 335.234C1224.66 329.483 1244.11 331.064 1260.84 339.629L1367.35 394.144L1390.33 355.499" stroke="#049ADB" stroke-width="10.4446" stroke-linecap="round" stroke-linejoin="round"/>
<circle cx="151.992" cy="743.383" r="25.6367" fill="#049ADB" stroke="black" stroke-width="3.01608"/>
<circle cx="1395.14" cy="348.528" r="26.3377" fill="#049ADB" stroke="black" stroke-width="1.61022"/>
<g clip-path="url(#clip1_1505_26217)">
<rect x="1060" y="147.814" width="405.033" height="128.462" rx="51.3997" fill="#049ADB"/>
<path d="M1109.6 207.045H1103.94L1103.98 202.871H1109.6C1111 202.871 1112.18 202.556 1113.15 201.925C1114.11 201.283 1114.83 200.35 1115.32 199.125C1115.82 197.9 1116.07 196.419 1116.07 194.683V193.416C1116.07 192.084 1115.93 190.913 1115.64 189.902C1115.37 188.891 1114.96 188.041 1114.41 187.351C1113.87 186.661 1113.19 186.144 1112.4 185.799C1111.6 185.442 1110.68 185.264 1109.65 185.264H1103.83V181.072H1109.65C1111.39 181.072 1112.97 181.369 1114.41 181.964C1115.86 182.547 1117.12 183.385 1118.18 184.479C1119.23 185.573 1120.05 186.881 1120.62 188.404C1121.2 189.914 1121.49 191.597 1121.49 193.452V194.683C1121.49 196.526 1121.2 198.209 1120.62 199.731C1120.05 201.253 1119.23 202.562 1118.18 203.656C1117.13 204.738 1115.88 205.576 1114.41 206.171C1112.96 206.754 1111.36 207.045 1109.6 207.045ZM1106.97 181.072V207.045H1101.62V181.072H1106.97ZM1135.2 202.425V187.744H1140.34V207.045H1135.5L1135.2 202.425ZM1135.77 198.465L1137.29 198.429C1137.29 199.713 1137.14 200.909 1136.84 202.015C1136.54 203.109 1136.1 204.06 1135.5 204.869C1134.91 205.666 1134.16 206.29 1133.26 206.742C1132.35 207.182 1131.29 207.402 1130.06 207.402C1129.12 207.402 1128.25 207.271 1127.46 207.009C1126.67 206.736 1126 206.314 1125.42 205.743C1124.87 205.16 1124.43 204.417 1124.1 203.513C1123.8 202.597 1123.64 201.497 1123.64 200.213V187.744H1128.78V200.249C1128.78 200.819 1128.84 201.301 1128.97 201.694C1129.12 202.086 1129.31 202.407 1129.56 202.657C1129.81 202.907 1130.1 203.085 1130.44 203.192C1130.78 203.299 1131.16 203.353 1131.58 203.353C1132.64 203.353 1133.47 203.138 1134.08 202.71C1134.69 202.282 1135.13 201.699 1135.38 200.962C1135.64 200.213 1135.77 199.38 1135.77 198.465ZM1138.16 181.125V184.033H1125.92V181.125H1138.16ZM1148.12 191.739V207.045H1142.97V187.744H1147.8L1148.12 191.739ZM1147.41 196.716H1145.98C1145.98 195.373 1146.14 194.136 1146.46 193.006C1146.8 191.864 1147.28 190.877 1147.91 190.045C1148.55 189.2 1149.34 188.546 1150.28 188.082C1151.22 187.619 1152.31 187.387 1153.54 187.387C1154.4 187.387 1155.19 187.518 1155.9 187.779C1156.61 188.029 1157.22 188.427 1157.74 188.974C1158.26 189.51 1158.66 190.211 1158.95 191.079C1159.23 191.936 1159.38 192.964 1159.38 194.166V207.045H1154.24V194.736C1154.24 193.856 1154.12 193.178 1153.88 192.703C1153.65 192.227 1153.31 191.894 1152.87 191.704C1152.44 191.513 1151.92 191.418 1151.31 191.418C1150.65 191.418 1150.07 191.555 1149.57 191.829C1149.08 192.102 1148.67 192.483 1148.35 192.97C1148.03 193.446 1147.79 194.005 1147.64 194.647C1147.48 195.289 1147.41 195.979 1147.41 196.716ZM1158.9 196.128L1157.06 196.36C1157.06 195.099 1157.21 193.928 1157.52 192.845C1157.84 191.763 1158.31 190.812 1158.93 189.991C1159.56 189.171 1160.34 188.534 1161.27 188.082C1162.2 187.619 1163.27 187.387 1164.48 187.387C1165.41 187.387 1166.25 187.524 1167.01 187.797C1167.77 188.059 1168.42 188.481 1168.96 189.064C1169.5 189.634 1169.92 190.384 1170.21 191.311C1170.5 192.239 1170.65 193.375 1170.65 194.719V207.045H1165.5V194.719C1165.5 193.827 1165.38 193.149 1165.14 192.685C1164.91 192.209 1164.58 191.882 1164.14 191.704C1163.71 191.513 1163.2 191.418 1162.61 191.418C1161.99 191.418 1161.45 191.543 1160.98 191.793C1160.52 192.031 1160.13 192.364 1159.82 192.792C1159.51 193.22 1159.28 193.72 1159.13 194.29C1158.97 194.849 1158.9 195.462 1158.9 196.128ZM1184.77 202.425V187.744H1189.91V207.045H1185.07L1184.77 202.425ZM1185.34 198.465L1186.85 198.429C1186.85 199.713 1186.71 200.909 1186.41 202.015C1186.11 203.109 1185.67 204.06 1185.07 204.869C1184.48 205.666 1183.73 206.29 1182.82 206.742C1181.92 207.182 1180.86 207.402 1179.63 207.402C1178.69 207.402 1177.82 207.271 1177.03 207.009C1176.24 206.736 1175.56 206.314 1174.99 205.743C1174.43 205.16 1173.99 204.417 1173.67 203.513C1173.36 202.597 1173.21 201.497 1173.21 200.213V187.744H1178.35V200.249C1178.35 200.819 1178.41 201.301 1178.54 201.694C1178.68 202.086 1178.88 202.407 1179.13 202.657C1179.38 202.907 1179.67 203.085 1180 203.192C1180.35 203.299 1180.73 203.353 1181.15 203.353C1182.21 203.353 1183.04 203.138 1183.64 202.71C1184.26 202.282 1184.7 201.699 1184.95 200.962C1185.21 200.213 1185.34 199.38 1185.34 198.465ZM1186.68 205.993L1189.35 207.045C1188.76 207.39 1188.25 207.723 1187.84 208.044C1187.43 208.365 1187.12 208.704 1186.91 209.061C1186.71 209.43 1186.61 209.834 1186.61 210.274C1186.61 210.607 1186.69 210.881 1186.85 211.095C1187.03 211.321 1187.34 211.434 1187.78 211.434C1188.12 211.434 1188.39 211.392 1188.6 211.309C1188.83 211.225 1189.03 211.142 1189.19 211.059L1189.73 213.788C1189.43 213.967 1189.04 214.139 1188.57 214.306C1188.1 214.484 1187.52 214.573 1186.8 214.573C1185.68 214.573 1184.73 214.258 1183.95 213.628C1183.16 213.009 1182.77 212.1 1182.77 210.898C1182.77 210.292 1182.89 209.697 1183.13 209.114C1183.36 208.544 1183.76 207.991 1184.32 207.455C1184.89 206.932 1185.68 206.445 1186.68 205.993ZM1107.85 240.045H1102.67V219.031C1102.67 217.568 1102.96 216.337 1103.53 215.338C1104.11 214.328 1104.93 213.566 1105.97 213.055C1107.03 212.532 1108.29 212.27 1109.74 212.27C1110.21 212.27 1110.67 212.306 1111.11 212.377C1111.55 212.437 1111.98 212.514 1112.4 212.609L1112.34 216.48C1112.12 216.421 1111.88 216.379 1111.63 216.355C1111.38 216.331 1111.09 216.32 1110.76 216.32C1110.14 216.32 1109.61 216.427 1109.17 216.641C1108.74 216.843 1108.41 217.146 1108.19 217.55C1107.96 217.955 1107.85 218.448 1107.85 219.031V240.045ZM1111.7 220.744V224.383H1099.8V220.744H1111.7ZM1123.53 235.692V227.094C1123.53 226.476 1123.43 225.947 1123.23 225.507C1123.03 225.055 1122.71 224.704 1122.28 224.454C1121.87 224.204 1121.33 224.079 1120.66 224.079C1120.09 224.079 1119.6 224.181 1119.18 224.383C1118.76 224.573 1118.44 224.852 1118.22 225.221C1117.99 225.578 1117.88 226 1117.88 226.488H1112.74C1112.74 225.667 1112.93 224.888 1113.31 224.151C1113.69 223.413 1114.25 222.765 1114.97 222.206C1115.7 221.635 1116.56 221.19 1117.56 220.868C1118.57 220.547 1119.7 220.387 1120.95 220.387C1122.45 220.387 1123.78 220.637 1124.94 221.136C1126.11 221.635 1127.02 222.385 1127.69 223.384C1128.37 224.383 1128.71 225.631 1128.71 227.13V235.389C1128.71 236.448 1128.77 237.316 1128.9 237.994C1129.03 238.66 1129.22 239.242 1129.47 239.742V240.045H1124.28C1124.03 239.522 1123.84 238.868 1123.71 238.083C1123.59 237.286 1123.53 236.489 1123.53 235.692ZM1124.21 228.289L1124.25 231.197H1121.38C1120.7 231.197 1120.11 231.274 1119.61 231.429C1119.11 231.584 1118.7 231.804 1118.38 232.089C1118.06 232.363 1117.82 232.684 1117.66 233.052C1117.52 233.421 1117.45 233.825 1117.45 234.265C1117.45 234.705 1117.55 235.104 1117.75 235.461C1117.96 235.805 1118.25 236.079 1118.63 236.281C1119.01 236.471 1119.45 236.567 1119.97 236.567C1120.74 236.567 1121.41 236.412 1121.98 236.103C1122.55 235.794 1122.99 235.413 1123.3 234.961C1123.62 234.509 1123.79 234.081 1123.8 233.677L1125.16 235.853C1124.97 236.341 1124.7 236.846 1124.37 237.369C1124.05 237.893 1123.64 238.386 1123.14 238.85C1122.64 239.302 1122.04 239.676 1121.34 239.974C1120.64 240.259 1119.81 240.402 1118.84 240.402C1117.62 240.402 1116.51 240.158 1115.51 239.671C1114.52 239.171 1113.73 238.487 1113.15 237.619C1112.58 236.739 1112.3 235.74 1112.3 234.622C1112.3 233.611 1112.49 232.713 1112.87 231.928C1113.25 231.144 1113.81 230.484 1114.54 229.948C1115.29 229.401 1116.23 228.991 1117.34 228.718C1118.46 228.432 1119.76 228.289 1121.23 228.289H1124.21ZM1131.39 212.645H1136.53V235.621L1136.01 240.045H1131.39V212.645ZM1148.75 230.198V230.573C1148.75 232.012 1148.59 233.332 1148.28 234.533C1147.98 235.734 1147.52 236.775 1146.89 237.655C1146.26 238.523 1145.48 239.201 1144.54 239.688C1143.61 240.164 1142.51 240.402 1141.25 240.402C1140.08 240.402 1139.05 240.164 1138.18 239.688C1137.33 239.213 1136.61 238.541 1136.03 237.673C1135.44 236.804 1134.97 235.788 1134.62 234.622C1134.26 233.457 1133.99 232.184 1133.81 230.805V229.984C1133.99 228.605 1134.26 227.332 1134.62 226.167C1134.97 225.001 1135.44 223.984 1136.03 223.116C1136.61 222.248 1137.33 221.576 1138.18 221.1C1139.04 220.625 1140.05 220.387 1141.22 220.387C1142.49 220.387 1143.6 220.631 1144.54 221.118C1145.49 221.594 1146.27 222.272 1146.89 223.152C1147.52 224.02 1147.98 225.055 1148.28 226.256C1148.59 227.445 1148.75 228.759 1148.75 230.198ZM1143.61 230.573V230.198C1143.61 229.413 1143.55 228.676 1143.43 227.986C1143.32 227.284 1143.13 226.672 1142.86 226.149C1142.59 225.614 1142.21 225.191 1141.73 224.882C1141.27 224.573 1140.67 224.418 1139.93 224.418C1139.23 224.418 1138.64 224.537 1138.15 224.775C1137.66 225.013 1137.26 225.346 1136.94 225.774C1136.63 226.202 1136.4 226.714 1136.24 227.308C1136.09 227.891 1135.99 228.533 1135.96 229.235V231.572C1135.99 232.511 1136.15 233.344 1136.42 234.069C1136.7 234.783 1137.13 235.348 1137.7 235.764C1138.29 236.168 1139.04 236.37 1139.97 236.37C1140.69 236.37 1141.29 236.228 1141.77 235.942C1142.25 235.657 1142.61 235.252 1142.88 234.729C1143.15 234.206 1143.34 233.593 1143.45 232.892C1143.55 232.178 1143.61 231.405 1143.61 230.573ZM1155.8 224.954V240.045H1150.66V220.744H1155.49L1155.8 224.954ZM1161.61 220.619L1161.52 225.382C1161.27 225.346 1160.97 225.316 1160.61 225.292C1160.27 225.257 1159.95 225.239 1159.67 225.239C1158.94 225.239 1158.31 225.334 1157.78 225.524C1157.25 225.703 1156.81 225.97 1156.46 226.327C1156.11 226.684 1155.85 227.118 1155.67 227.629C1155.51 228.141 1155.41 228.723 1155.39 229.378L1154.35 229.056C1154.35 227.808 1154.48 226.66 1154.73 225.614C1154.98 224.555 1155.34 223.633 1155.82 222.849C1156.3 222.064 1156.9 221.457 1157.6 221.029C1158.3 220.601 1159.1 220.387 1160.01 220.387C1160.29 220.387 1160.58 220.411 1160.88 220.458C1161.18 220.494 1161.42 220.547 1161.61 220.619ZM1168.18 220.744V240.045H1163.03V220.744H1168.18ZM1162.71 215.713C1162.71 214.964 1162.97 214.345 1163.49 213.858C1164.02 213.37 1164.72 213.126 1165.6 213.126C1166.46 213.126 1167.16 213.37 1167.68 213.858C1168.22 214.345 1168.49 214.964 1168.49 215.713C1168.49 216.462 1168.22 217.081 1167.68 217.568C1167.16 218.056 1166.46 218.3 1165.6 218.3C1164.72 218.3 1164.02 218.056 1163.49 217.568C1162.97 217.081 1162.71 216.462 1162.71 215.713ZM1176.29 212.627V240.045H1171.15V212.627H1176.29ZM1188.45 220.744L1180.07 230.305L1175.57 234.854L1173.7 231.144L1177.27 226.613L1182.28 220.744H1188.45ZM1183.12 240.045L1177.41 231.126L1180.96 228.022L1189.04 240.045H1183.12ZM1199.81 235.692V227.094C1199.81 226.476 1199.7 225.947 1199.5 225.507C1199.3 225.055 1198.98 224.704 1198.56 224.454C1198.14 224.204 1197.6 224.079 1196.93 224.079C1196.36 224.079 1195.87 224.181 1195.45 224.383C1195.04 224.573 1194.72 224.852 1194.49 225.221C1194.26 225.578 1194.15 226 1194.15 226.488H1189.01C1189.01 225.667 1189.2 224.888 1189.58 224.151C1189.96 223.413 1190.52 222.765 1191.24 222.206C1191.97 221.635 1192.83 221.19 1193.83 220.868C1194.84 220.547 1195.97 220.387 1197.22 220.387C1198.72 220.387 1200.05 220.637 1201.21 221.136C1202.38 221.635 1203.3 222.385 1203.96 223.384C1204.64 224.383 1204.98 225.631 1204.98 227.13V235.389C1204.98 236.448 1205.04 237.316 1205.17 237.994C1205.31 238.66 1205.5 239.242 1205.75 239.742V240.045H1200.55C1200.3 239.522 1200.11 238.868 1199.98 238.083C1199.86 237.286 1199.81 236.489 1199.81 235.692ZM1200.48 228.289L1200.52 231.197H1197.65C1196.97 231.197 1196.38 231.274 1195.88 231.429C1195.38 231.584 1194.97 231.804 1194.65 232.089C1194.33 232.363 1194.09 232.684 1193.94 233.052C1193.79 233.421 1193.72 233.825 1193.72 234.265C1193.72 234.705 1193.82 235.104 1194.03 235.461C1194.23 235.805 1194.52 236.079 1194.9 236.281C1195.28 236.471 1195.73 236.567 1196.24 236.567C1197.01 236.567 1197.68 236.412 1198.25 236.103C1198.82 235.794 1199.26 235.413 1199.57 234.961C1199.89 234.509 1200.06 234.081 1200.07 233.677L1201.43 235.853C1201.24 236.341 1200.98 236.846 1200.64 237.369C1200.32 237.893 1199.91 238.386 1199.41 238.85C1198.91 239.302 1198.31 239.676 1197.61 239.974C1196.91 240.259 1196.08 240.402 1195.11 240.402C1193.89 240.402 1192.78 240.158 1191.78 239.671C1190.79 239.171 1190.01 238.487 1189.42 237.619C1188.85 236.739 1188.57 235.74 1188.57 234.622C1188.57 233.611 1188.76 232.713 1189.14 231.928C1189.52 231.144 1190.08 230.484 1190.81 229.948C1191.56 229.401 1192.5 228.991 1193.62 228.718C1194.73 228.432 1196.03 228.289 1197.5 228.289H1200.48ZM1218.1 234.711C1218.1 234.343 1217.99 234.01 1217.77 233.712C1217.56 233.415 1217.16 233.142 1216.58 232.892C1216.01 232.63 1215.18 232.392 1214.1 232.178C1213.12 231.964 1212.21 231.697 1211.37 231.375C1210.54 231.043 1209.81 230.644 1209.19 230.18C1208.59 229.716 1208.11 229.169 1207.77 228.539C1207.42 227.897 1207.25 227.166 1207.25 226.345C1207.25 225.536 1207.42 224.775 1207.77 224.062C1208.12 223.348 1208.63 222.718 1209.28 222.171C1209.95 221.612 1210.76 221.178 1211.71 220.868C1212.67 220.547 1213.75 220.387 1214.96 220.387C1216.63 220.387 1218.07 220.654 1219.27 221.19C1220.49 221.725 1221.41 222.462 1222.06 223.402C1222.71 224.329 1223.04 225.388 1223.04 226.577H1217.9C1217.9 226.077 1217.79 225.631 1217.58 225.239C1217.38 224.835 1217.06 224.519 1216.62 224.293C1216.19 224.056 1215.63 223.937 1214.94 223.937C1214.37 223.937 1213.87 224.038 1213.46 224.24C1213.04 224.43 1212.72 224.692 1212.49 225.025C1212.28 225.346 1212.17 225.703 1212.17 226.095C1212.17 226.393 1212.23 226.66 1212.35 226.898C1212.48 227.124 1212.69 227.332 1212.98 227.522C1213.26 227.713 1213.63 227.891 1214.08 228.057C1214.55 228.212 1215.12 228.355 1215.79 228.486C1217.19 228.771 1218.43 229.146 1219.52 229.609C1220.62 230.061 1221.49 230.68 1222.13 231.465C1222.77 232.238 1223.09 233.255 1223.09 234.515C1223.09 235.371 1222.9 236.156 1222.52 236.87C1222.14 237.583 1221.59 238.208 1220.88 238.743C1220.17 239.266 1219.31 239.676 1218.31 239.974C1217.32 240.259 1216.21 240.402 1214.97 240.402C1213.18 240.402 1211.66 240.081 1210.41 239.439C1209.17 238.796 1208.23 237.982 1207.59 236.995C1206.96 235.996 1206.64 234.973 1206.64 233.926H1211.51C1211.54 234.628 1211.72 235.193 1212.05 235.621C1212.39 236.049 1212.83 236.358 1213.35 236.549C1213.89 236.739 1214.46 236.834 1215.08 236.834C1215.75 236.834 1216.3 236.745 1216.74 236.567C1217.18 236.376 1217.51 236.127 1217.74 235.817C1217.98 235.496 1218.1 235.128 1218.1 234.711Z" fill="black"/>
<path d="M1276.22 207.067H1272.09L1272.11 204.929H1276.22C1277.64 204.929 1278.82 204.634 1279.76 204.045C1280.71 203.446 1281.42 202.611 1281.89 201.54C1282.37 200.46 1282.61 199.198 1282.61 197.755V196.544C1282.61 195.409 1282.47 194.402 1282.2 193.522C1281.93 192.632 1281.53 191.884 1281 191.276C1280.48 190.659 1279.83 190.191 1279.07 189.874C1278.32 189.556 1277.45 189.397 1276.47 189.397H1272V187.246H1276.47C1277.77 187.246 1278.95 187.464 1280.02 187.9C1281.09 188.326 1282.01 188.948 1282.79 189.765C1283.57 190.572 1284.17 191.552 1284.58 192.705C1285 193.848 1285.21 195.137 1285.21 196.571V197.755C1285.21 199.189 1285 200.483 1284.58 201.635C1284.17 202.779 1283.56 203.754 1282.77 204.562C1281.99 205.37 1281.05 205.991 1279.94 206.427C1278.84 206.853 1277.6 207.067 1276.22 207.067ZM1273.49 187.246V207.067H1270.86V187.246H1273.49ZM1296.81 203.663V192.337H1299.34V207.067H1296.93L1296.81 203.663ZM1297.29 200.56L1298.34 200.532C1298.34 201.513 1298.23 202.42 1298.02 203.255C1297.82 204.081 1297.5 204.798 1297.04 205.406C1296.59 206.014 1295.99 206.49 1295.26 206.835C1294.52 207.171 1293.63 207.339 1292.58 207.339C1291.86 207.339 1291.2 207.235 1290.6 207.026C1290.01 206.817 1289.51 206.495 1289.08 206.059C1288.65 205.624 1288.32 205.056 1288.09 204.358C1287.86 203.659 1287.75 202.819 1287.75 201.839V192.337H1290.26V201.867C1290.26 202.529 1290.34 203.078 1290.48 203.514C1290.64 203.94 1290.84 204.281 1291.09 204.535C1291.36 204.78 1291.65 204.952 1291.97 205.052C1292.29 205.152 1292.63 205.202 1292.97 205.202C1294.04 205.202 1294.89 204.997 1295.52 204.589C1296.14 204.172 1296.59 203.614 1296.87 202.915C1297.15 202.207 1297.29 201.422 1297.29 200.56ZM1298.24 187.287V189.22H1289.11V187.287H1298.24ZM1304.71 195.264V207.067H1302.18V192.337H1304.58L1304.71 195.264ZM1304.19 199.144L1303.02 199.103C1303.03 198.096 1303.16 197.166 1303.42 196.312C1303.67 195.45 1304.05 194.702 1304.55 194.066C1305.05 193.431 1305.67 192.941 1306.41 192.596C1307.16 192.242 1308.02 192.065 1309 192.065C1309.69 192.065 1310.32 192.165 1310.91 192.365C1311.49 192.555 1311.99 192.859 1312.42 193.277C1312.84 193.694 1313.17 194.23 1313.41 194.883C1313.65 195.537 1313.76 196.326 1313.76 197.252V207.067H1311.25V197.374C1311.25 196.603 1311.11 195.986 1310.85 195.523C1310.6 195.06 1310.23 194.724 1309.76 194.516C1309.29 194.298 1308.74 194.189 1308.1 194.189C1307.36 194.189 1306.74 194.32 1306.24 194.584C1305.74 194.847 1305.34 195.21 1305.04 195.673C1304.74 196.135 1304.52 196.666 1304.38 197.265C1304.26 197.855 1304.19 198.481 1304.19 199.144ZM1313.74 197.755L1312.05 198.273C1312.06 197.465 1312.19 196.689 1312.44 195.945C1312.71 195.201 1313.08 194.538 1313.57 193.957C1314.07 193.377 1314.69 192.918 1315.41 192.582C1316.14 192.238 1316.97 192.065 1317.9 192.065C1318.69 192.065 1319.39 192.17 1320 192.378C1320.62 192.587 1321.13 192.909 1321.55 193.345C1321.98 193.771 1322.3 194.32 1322.52 194.992C1322.74 195.664 1322.84 196.462 1322.84 197.388V207.067H1320.31V197.361C1320.31 196.535 1320.18 195.895 1319.92 195.441C1319.66 194.978 1319.3 194.656 1318.83 194.475C1318.37 194.284 1317.81 194.189 1317.17 194.189C1316.61 194.189 1316.12 194.284 1315.7 194.475C1315.27 194.665 1314.91 194.928 1314.62 195.264C1314.33 195.591 1314.11 195.968 1313.95 196.394C1313.81 196.821 1313.74 197.274 1313.74 197.755ZM1334.69 203.663V192.337H1337.22V207.067H1334.81L1334.69 203.663ZM1335.17 200.56L1336.22 200.532C1336.22 201.513 1336.11 202.42 1335.9 203.255C1335.7 204.081 1335.38 204.798 1334.92 205.406C1334.47 206.014 1333.87 206.49 1333.14 206.835C1332.4 207.171 1331.51 207.339 1330.46 207.339C1329.74 207.339 1329.08 207.235 1328.48 207.026C1327.89 206.817 1327.39 206.495 1326.96 206.059C1326.53 205.624 1326.2 205.056 1325.97 204.358C1325.74 203.659 1325.63 202.819 1325.63 201.839V192.337H1328.14V201.867C1328.14 202.529 1328.22 203.078 1328.36 203.514C1328.52 203.94 1328.72 204.281 1328.97 204.535C1329.24 204.78 1329.53 204.952 1329.85 205.052C1330.17 205.152 1330.51 205.202 1330.85 205.202C1331.92 205.202 1332.77 204.997 1333.4 204.589C1334.02 204.172 1334.47 203.614 1334.75 202.915C1335.03 202.207 1335.17 201.422 1335.17 200.56ZM1336.08 206.291L1337.09 207.067C1336.7 207.357 1336.33 207.657 1335.97 207.965C1335.62 208.283 1335.33 208.614 1335.1 208.959C1334.87 209.313 1334.76 209.689 1334.76 210.089C1334.76 210.388 1334.84 210.629 1334.99 210.81C1335.15 210.992 1335.43 211.082 1335.82 211.082C1336.12 211.082 1336.39 211.037 1336.62 210.946C1336.86 210.865 1337.05 210.788 1337.18 210.715L1337.37 212.376C1337.15 212.512 1336.86 212.643 1336.5 212.77C1336.16 212.907 1335.72 212.975 1335.18 212.975C1334.45 212.975 1333.82 212.752 1333.32 212.308C1332.82 211.872 1332.57 211.228 1332.57 210.375C1332.57 209.885 1332.69 209.399 1332.92 208.918C1333.17 208.437 1333.55 207.974 1334.07 207.529C1334.58 207.085 1335.25 206.672 1336.08 206.291ZM1355.57 192.337H1357.86V206.754C1357.86 208.051 1357.59 209.159 1357.07 210.075C1356.54 210.992 1355.8 211.686 1354.86 212.158C1353.93 212.639 1352.85 212.879 1351.62 212.879C1351.11 212.879 1350.51 212.798 1349.82 212.634C1349.14 212.48 1348.47 212.212 1347.81 211.831C1347.16 211.459 1346.61 210.955 1346.16 210.32L1347.48 208.823C1348.1 209.567 1348.74 210.084 1349.42 210.375C1350.1 210.665 1350.77 210.81 1351.43 210.81C1352.23 210.81 1352.92 210.66 1353.5 210.361C1354.08 210.061 1354.53 209.617 1354.85 209.027C1355.17 208.446 1355.34 207.729 1355.34 206.876V195.577L1355.57 192.337ZM1345.43 199.865V199.58C1345.43 198.454 1345.56 197.433 1345.82 196.517C1346.09 195.591 1346.48 194.797 1346.98 194.134C1347.49 193.472 1348.1 192.964 1348.82 192.61C1349.53 192.247 1350.34 192.065 1351.24 192.065C1352.17 192.065 1352.97 192.229 1353.66 192.555C1354.36 192.873 1354.95 193.34 1355.43 193.957C1355.92 194.565 1356.31 195.301 1356.59 196.163C1356.87 197.025 1357.07 198 1357.18 199.089V200.342C1357.08 201.422 1356.88 202.393 1356.59 203.255C1356.31 204.117 1355.92 204.852 1355.43 205.46C1354.95 206.068 1354.36 206.536 1353.66 206.862C1352.96 207.18 1352.15 207.339 1351.21 207.339C1350.33 207.339 1349.53 207.153 1348.82 206.781C1348.11 206.409 1347.5 205.887 1346.99 205.215C1346.48 204.544 1346.09 203.754 1345.82 202.847C1345.56 201.93 1345.43 200.936 1345.43 199.865ZM1347.95 199.58V199.865C1347.95 200.601 1348.02 201.29 1348.16 201.935C1348.32 202.579 1348.55 203.146 1348.86 203.636C1349.18 204.126 1349.58 204.512 1350.07 204.793C1350.56 205.066 1351.14 205.202 1351.83 205.202C1352.66 205.202 1353.35 205.025 1353.89 204.671C1354.44 204.317 1354.87 203.849 1355.19 203.269C1355.51 202.688 1355.77 202.057 1355.95 201.376V198.096C1355.85 197.597 1355.7 197.116 1355.49 196.653C1355.29 196.181 1355.02 195.763 1354.7 195.4C1354.38 195.028 1353.99 194.733 1353.51 194.516C1353.04 194.298 1352.49 194.189 1351.85 194.189C1351.16 194.189 1350.57 194.334 1350.07 194.624C1349.58 194.906 1349.18 195.296 1348.86 195.795C1348.55 196.285 1348.32 196.857 1348.16 197.51C1348.02 198.155 1347.95 198.844 1347.95 199.58ZM1369.39 204.548V196.966C1369.39 196.385 1369.27 195.881 1369.04 195.455C1368.81 195.019 1368.46 194.683 1368 194.447C1367.54 194.212 1366.97 194.094 1366.29 194.094C1365.65 194.094 1365.09 194.202 1364.61 194.42C1364.14 194.638 1363.77 194.924 1363.5 195.278C1363.23 195.632 1363.1 196.013 1363.1 196.421H1360.58C1360.58 195.895 1360.72 195.373 1360.99 194.856C1361.26 194.339 1361.65 193.871 1362.16 193.454C1362.68 193.027 1363.3 192.691 1364.01 192.446C1364.74 192.192 1365.55 192.065 1366.44 192.065C1367.51 192.065 1368.45 192.247 1369.27 192.61C1370.09 192.973 1370.74 193.522 1371.2 194.257C1371.67 194.983 1371.91 195.895 1371.91 196.993V203.854C1371.91 204.344 1371.95 204.866 1372.03 205.419C1372.12 205.973 1372.25 206.45 1372.43 206.849V207.067H1369.8C1369.67 206.776 1369.57 206.391 1369.5 205.91C1369.43 205.419 1369.39 204.966 1369.39 204.548ZM1369.83 198.137L1369.85 199.906H1367.31C1366.59 199.906 1365.95 199.965 1365.39 200.083C1364.83 200.192 1364.35 200.36 1363.97 200.587C1363.59 200.814 1363.3 201.1 1363.1 201.445C1362.9 201.78 1362.8 202.175 1362.8 202.629C1362.8 203.092 1362.91 203.514 1363.11 203.895C1363.32 204.276 1363.64 204.58 1364.05 204.807C1364.48 205.025 1365 205.134 1365.62 205.134C1366.39 205.134 1367.07 204.97 1367.66 204.644C1368.25 204.317 1368.72 203.918 1369.06 203.446C1369.42 202.974 1369.61 202.515 1369.64 202.071L1370.71 203.282C1370.65 203.663 1370.47 204.085 1370.19 204.548C1369.91 205.011 1369.54 205.456 1369.06 205.882C1368.6 206.3 1368.05 206.649 1367.4 206.931C1366.77 207.203 1366.05 207.339 1365.25 207.339C1364.25 207.339 1363.38 207.144 1362.62 206.754C1361.88 206.363 1361.3 205.841 1360.88 205.188C1360.47 204.526 1360.27 203.786 1360.27 202.969C1360.27 202.18 1360.42 201.485 1360.73 200.886C1361.04 200.278 1361.49 199.775 1362.07 199.375C1362.65 198.967 1363.35 198.658 1364.16 198.45C1364.98 198.241 1365.89 198.137 1366.9 198.137H1369.83ZM1381.06 192.337V194.27H1373.1V192.337H1381.06ZM1375.79 188.757H1378.31V203.418C1378.31 203.918 1378.39 204.294 1378.54 204.548C1378.7 204.802 1378.9 204.97 1379.14 205.052C1379.39 205.134 1379.65 205.174 1379.93 205.174C1380.14 205.174 1380.36 205.156 1380.58 205.12C1380.82 205.075 1381 205.038 1381.12 205.011L1381.13 207.067C1380.93 207.13 1380.67 207.189 1380.34 207.244C1380.02 207.307 1379.64 207.339 1379.18 207.339C1378.57 207.339 1378 207.216 1377.48 206.971C1376.96 206.726 1376.55 206.318 1376.24 205.746C1375.94 205.165 1375.79 204.385 1375.79 203.405V188.757ZM1387.52 204.793L1391.55 192.337H1394.12L1388.82 207.067H1387.14L1387.52 204.793ZM1384.16 192.337L1388.31 204.861L1388.59 207.067H1386.91L1381.57 192.337H1384.16ZM1401.49 207.339C1400.46 207.339 1399.53 207.166 1398.7 206.822C1397.87 206.468 1397.16 205.973 1396.56 205.338C1395.97 204.703 1395.52 203.949 1395.2 203.078C1394.88 202.207 1394.72 201.254 1394.72 200.219V199.648C1394.72 198.45 1394.9 197.383 1395.25 196.449C1395.61 195.505 1396.09 194.706 1396.7 194.053C1397.31 193.399 1398 192.905 1398.77 192.569C1399.54 192.233 1400.34 192.065 1401.16 192.065C1402.22 192.065 1403.12 192.247 1403.89 192.61C1404.66 192.973 1405.29 193.481 1405.78 194.134C1406.27 194.779 1406.63 195.541 1406.87 196.421C1407.1 197.293 1407.22 198.245 1407.22 199.28V200.41H1396.22V198.354H1404.7V198.164C1404.67 197.51 1404.53 196.875 1404.29 196.258C1404.07 195.641 1403.7 195.133 1403.2 194.733C1402.71 194.334 1402.02 194.134 1401.16 194.134C1400.59 194.134 1400.06 194.257 1399.58 194.502C1399.1 194.738 1398.69 195.092 1398.34 195.564C1398 196.036 1397.73 196.612 1397.54 197.293C1397.35 197.973 1397.26 198.758 1397.26 199.648V200.219C1397.26 200.918 1397.35 201.576 1397.54 202.193C1397.74 202.801 1398.03 203.337 1398.4 203.8C1398.78 204.262 1399.24 204.625 1399.77 204.889C1400.32 205.152 1400.94 205.283 1401.63 205.283C1402.51 205.283 1403.27 205.102 1403.89 204.739C1404.5 204.376 1405.04 203.89 1405.5 203.282L1407.03 204.494C1406.71 204.975 1406.31 205.433 1405.82 205.869C1405.33 206.304 1404.72 206.658 1404.01 206.931C1403.3 207.203 1402.46 207.339 1401.49 207.339ZM1399.67 188.444C1399.67 188.045 1399.79 187.705 1400.03 187.423C1400.29 187.142 1400.66 187.001 1401.15 187.001C1401.63 187.001 1402 187.142 1402.25 187.423C1402.51 187.705 1402.65 188.045 1402.65 188.444C1402.65 188.843 1402.51 189.184 1402.25 189.465C1402 189.737 1401.63 189.874 1401.15 189.874C1400.66 189.874 1400.29 189.737 1400.03 189.465C1399.79 189.184 1399.67 188.843 1399.67 188.444ZM1418.04 197.633L1416.02 197.116L1417.02 187.246H1427.19V189.574H1419.15L1418.55 194.965C1418.92 194.756 1419.38 194.561 1419.93 194.379C1420.49 194.198 1421.14 194.107 1421.86 194.107C1422.78 194.107 1423.6 194.266 1424.33 194.584C1425.05 194.892 1425.67 195.337 1426.18 195.918C1426.7 196.498 1427.09 197.197 1427.36 198.014C1427.63 198.831 1427.77 199.743 1427.77 200.75C1427.77 201.703 1427.64 202.579 1427.38 203.378C1427.12 204.176 1426.74 204.875 1426.22 205.474C1425.7 206.064 1425.05 206.522 1424.26 206.849C1423.48 207.176 1422.56 207.339 1421.5 207.339C1420.7 207.339 1419.94 207.23 1419.22 207.012C1418.51 206.785 1417.88 206.445 1417.32 205.991C1416.76 205.528 1416.31 204.957 1415.95 204.276C1415.61 203.586 1415.39 202.779 1415.3 201.853H1417.7C1417.81 202.597 1418.02 203.223 1418.35 203.731C1418.68 204.24 1419.1 204.625 1419.63 204.889C1420.17 205.143 1420.79 205.27 1421.5 205.27C1422.09 205.27 1422.63 205.165 1423.09 204.957C1423.55 204.748 1423.94 204.448 1424.26 204.058C1424.58 203.668 1424.82 203.196 1424.98 202.642C1425.15 202.089 1425.24 201.467 1425.24 200.777C1425.24 200.151 1425.15 199.57 1424.98 199.035C1424.81 198.5 1424.55 198.032 1424.2 197.633C1423.87 197.234 1423.46 196.925 1422.97 196.707C1422.48 196.48 1421.91 196.367 1421.28 196.367C1420.43 196.367 1419.79 196.48 1419.36 196.707C1418.93 196.934 1418.49 197.243 1418.04 197.633ZM1432.12 204.072V206.1C1432.12 206.926 1431.91 207.797 1431.49 208.714C1431.07 209.639 1430.49 210.411 1429.74 211.028L1428.31 210.034C1428.6 209.635 1428.84 209.227 1429.04 208.809C1429.24 208.401 1429.39 207.974 1429.49 207.529C1429.6 207.094 1429.65 206.631 1429.65 206.141V204.072H1432.12ZM1278.48 220.137V240.067H1275.97V223.282L1270.89 225.133V222.86L1278.09 220.137H1278.48ZM1293.19 220.137V240.067H1290.67V223.282L1285.59 225.133V222.86L1292.8 220.137H1293.19ZM1307.9 220.137V240.067H1305.38V223.282L1300.3 225.133V222.86L1307.5 220.137H1307.9ZM1322.6 220.137V240.067H1320.08V223.282L1315.01 225.133V222.86L1322.21 220.137H1322.6ZM1331.54 237.957H1331.8C1333.25 237.957 1334.43 237.752 1335.34 237.344C1336.24 236.936 1336.94 236.387 1337.43 235.697C1337.92 235.007 1338.26 234.231 1338.44 233.369C1338.62 232.498 1338.71 231.604 1338.71 230.687V227.652C1338.71 226.753 1338.61 225.955 1338.4 225.256C1338.2 224.557 1337.92 223.972 1337.55 223.5C1337.2 223.028 1336.8 222.669 1336.34 222.424C1335.89 222.179 1335.41 222.057 1334.9 222.057C1334.32 222.057 1333.8 222.175 1333.33 222.411C1332.88 222.638 1332.5 222.96 1332.18 223.377C1331.87 223.795 1331.63 224.285 1331.47 224.847C1331.31 225.41 1331.22 226.023 1331.22 226.685C1331.22 227.275 1331.3 227.847 1331.44 228.4C1331.59 228.954 1331.81 229.453 1332.11 229.898C1332.41 230.342 1332.78 230.696 1333.23 230.96C1333.68 231.214 1334.21 231.341 1334.82 231.341C1335.38 231.341 1335.91 231.232 1336.4 231.014C1336.9 230.787 1337.34 230.483 1337.72 230.102C1338.11 229.712 1338.42 229.272 1338.64 228.782C1338.88 228.291 1339.02 227.779 1339.05 227.243H1340.25C1340.25 227.997 1340.1 228.741 1339.8 229.476C1339.51 230.202 1339.1 230.864 1338.58 231.463C1338.05 232.062 1337.43 232.543 1336.72 232.906C1336.02 233.26 1335.25 233.437 1334.41 233.437C1333.43 233.437 1332.58 233.247 1331.86 232.865C1331.15 232.484 1330.56 231.976 1330.09 231.341C1329.64 230.705 1329.3 229.998 1329.07 229.217C1328.86 228.428 1328.75 227.629 1328.75 226.821C1328.75 225.877 1328.88 224.993 1329.14 224.167C1329.41 223.341 1329.8 222.615 1330.31 221.989C1330.83 221.353 1331.47 220.859 1332.23 220.505C1333 220.151 1333.89 219.974 1334.9 219.974C1336.03 219.974 1337 220.201 1337.8 220.655C1338.6 221.108 1339.25 221.716 1339.75 222.479C1340.25 223.241 1340.63 224.099 1340.86 225.052C1341.1 226.004 1341.22 226.985 1341.22 227.992V228.904C1341.22 229.93 1341.15 230.973 1341.01 232.035C1340.89 233.088 1340.64 234.095 1340.26 235.057C1339.9 236.019 1339.37 236.881 1338.67 237.644C1337.97 238.397 1337.06 238.996 1335.93 239.44C1334.82 239.876 1333.44 240.094 1331.8 240.094H1331.54V237.957Z" fill="black"/>
<path d="M1257.98 290.634L1245.13 267.209H1278.38L1257.98 290.634Z" fill="#049ADB" stroke="#049ADB" stroke-width="15.1132" stroke-linecap="round" stroke-linejoin="round"/>
<line x1="1245.11" y1="176.531" x2="1245.11" y2="246.052" stroke="black" stroke-width="1.51132"/>
</g>
<g clip-path="url(#clip2_1505_26217)">
<rect x="27.1426" y="478.814" width="412.568" height="124.798" rx="49.9337" fill="#049ADB"/>
<path d="M58.9013 512.394H68.3116C70.241 512.394 71.8989 512.683 73.2853 513.261C74.6832 513.838 75.7577 514.693 76.5087 515.826C77.2596 516.958 77.6351 518.35 77.6351 520.002C77.6351 521.354 77.4041 522.515 76.9419 523.485C76.4913 524.444 75.8501 525.247 75.0183 525.894C74.198 526.53 73.2333 527.038 72.1242 527.419L70.4778 528.286H62.298L62.2634 524.231H68.3462C69.2589 524.231 70.0157 524.069 70.6165 523.745C71.2172 523.422 71.6678 522.971 71.9682 522.394C72.2801 521.816 72.4361 521.146 72.4361 520.383C72.4361 519.575 72.2859 518.876 71.9855 518.286C71.6851 517.697 71.2288 517.247 70.6165 516.935C70.0041 516.623 69.2358 516.467 68.3116 516.467H64.1004V537.627H58.9013V512.394ZM73.008 537.627L67.2544 526.38L72.7481 526.345L78.571 537.384V537.627H73.008ZM90.205 533.398V525.045C90.205 524.444 90.1068 523.93 89.9104 523.503C89.7139 523.064 89.4078 522.723 88.9919 522.48C88.5875 522.238 88.0618 522.116 87.4148 522.116C86.8603 522.116 86.3808 522.215 85.9764 522.411C85.5721 522.596 85.2601 522.867 85.0406 523.225C84.8211 523.572 84.7113 523.982 84.7113 524.456H79.7203C79.7203 523.659 79.9051 522.902 80.2748 522.186C80.6446 521.469 81.1818 520.84 81.8865 520.297C82.5913 519.742 83.4289 519.309 84.3994 518.997C85.3814 518.685 86.479 518.529 87.6921 518.529C89.1478 518.529 90.4418 518.772 91.574 519.257C92.7063 519.742 93.5959 520.47 94.2429 521.44C94.9014 522.411 95.2307 523.624 95.2307 525.08V533.104C95.2307 534.132 95.2942 534.975 95.4213 535.634C95.5484 536.281 95.7333 536.847 95.9759 537.332V537.627H90.9328C90.6902 537.118 90.5054 536.483 90.3783 535.72C90.2627 534.946 90.205 534.172 90.205 533.398ZM90.8635 526.206L90.8982 529.031H88.108C87.4495 529.031 86.8776 529.106 86.3924 529.256C85.9071 529.406 85.5085 529.62 85.1966 529.898C84.8846 530.163 84.6536 530.475 84.5034 530.833C84.3647 531.191 84.2954 531.584 84.2954 532.012C84.2954 532.439 84.3936 532.826 84.59 533.173C84.7864 533.508 85.0695 533.774 85.4392 533.97C85.8089 534.155 86.2422 534.247 86.739 534.247C87.4899 534.247 88.1427 534.097 88.6972 533.797C89.2518 533.496 89.6793 533.127 89.9797 532.688C90.2916 532.249 90.4534 531.833 90.4649 531.44L91.782 533.554C91.5971 534.028 91.343 534.519 91.0195 535.027C90.7075 535.536 90.3089 536.015 89.8237 536.466C89.3385 536.905 88.755 537.269 88.0734 537.557C87.3917 537.835 86.583 537.973 85.6472 537.973C84.4572 537.973 83.3769 537.736 82.4064 537.263C81.4475 536.778 80.685 536.113 80.1189 535.27C79.5643 534.415 79.287 533.444 79.287 532.358C79.287 531.376 79.4719 530.504 79.8416 529.742C80.2113 528.979 80.7543 528.338 81.4706 527.818C82.1985 527.286 83.1054 526.888 84.1914 526.622C85.2775 526.345 86.5368 526.206 87.9694 526.206H90.8635ZM103.104 518.876V537.627H98.0957V518.876H103.104ZM97.7837 513.989C97.7837 513.261 98.0379 512.66 98.5463 512.186C99.0546 511.713 99.7363 511.476 100.591 511.476C101.435 511.476 102.11 511.713 102.619 512.186C103.139 512.66 103.399 513.261 103.399 513.989C103.399 514.716 103.139 515.317 102.619 515.791C102.11 516.265 101.435 516.501 100.591 516.501C99.7363 516.501 99.0546 516.265 98.5463 515.791C98.0379 515.317 97.7837 514.716 97.7837 513.989ZM111.255 511.008V537.627H106.246V511.008H111.255ZM119.492 532.774L123.391 518.876H126.563L125.54 524.335L121.641 537.627H118.989L119.492 532.774ZM117.516 518.876L120.307 532.757L120.567 537.627H117.447L112.699 518.876H117.516ZM130.133 532.532L132.854 518.876H137.689L132.94 537.627H129.838L130.133 532.532ZM126.996 518.876L130.878 532.67L131.415 537.627H128.746L124.847 524.352L123.859 518.876H126.996ZM149.08 533.398V525.045C149.08 524.444 148.982 523.93 148.785 523.503C148.589 523.064 148.283 522.723 147.867 522.48C147.463 522.238 146.937 522.116 146.29 522.116C145.735 522.116 145.256 522.215 144.851 522.411C144.447 522.596 144.135 522.867 143.916 523.225C143.696 523.572 143.586 523.982 143.586 524.456H138.595C138.595 523.659 138.78 522.902 139.15 522.186C139.52 521.469 140.057 520.84 140.762 520.297C141.466 519.742 142.304 519.309 143.274 518.997C144.256 518.685 145.354 518.529 146.567 518.529C148.023 518.529 149.317 518.772 150.449 519.257C151.581 519.742 152.471 520.47 153.118 521.44C153.776 522.411 154.106 523.624 154.106 525.08V533.104C154.106 534.132 154.169 534.975 154.296 535.634C154.423 536.281 154.608 536.847 154.851 537.332V537.627H149.808C149.565 537.118 149.38 536.483 149.253 535.72C149.138 534.946 149.08 534.172 149.08 533.398ZM149.739 526.206L149.773 529.031H146.983C146.325 529.031 145.753 529.106 145.267 529.256C144.782 529.406 144.384 529.62 144.072 529.898C143.76 530.163 143.529 530.475 143.378 530.833C143.24 531.191 143.17 531.584 143.17 532.012C143.17 532.439 143.269 532.826 143.465 533.173C143.661 533.508 143.945 533.774 144.314 533.97C144.684 534.155 145.117 534.247 145.614 534.247C146.365 534.247 147.018 534.097 147.572 533.797C148.127 533.496 148.554 533.127 148.855 532.688C149.167 532.249 149.328 531.833 149.34 531.44L150.657 533.554C150.472 534.028 150.218 534.519 149.895 535.027C149.583 535.536 149.184 536.015 148.699 536.466C148.214 536.905 147.63 537.269 146.948 537.557C146.267 537.835 145.458 537.973 144.522 537.973C143.332 537.973 142.252 537.736 141.281 537.263C140.323 536.778 139.56 536.113 138.994 535.27C138.439 534.415 138.162 533.444 138.162 532.358C138.162 531.376 138.347 530.504 138.717 529.742C139.086 528.979 139.629 528.338 140.346 527.818C141.074 527.286 141.98 526.888 143.066 526.622C144.152 526.345 145.412 526.206 146.844 526.206H149.739ZM161.996 535.512L166.97 518.876H172.325L164.787 540.452C164.625 540.925 164.405 541.434 164.128 541.977C163.862 542.52 163.498 543.034 163.036 543.519C162.586 544.016 162.014 544.42 161.321 544.732C160.639 545.044 159.801 545.2 158.808 545.2C158.334 545.2 157.947 545.171 157.647 545.113C157.346 545.056 156.988 544.975 156.572 544.871V541.214C156.699 541.214 156.832 541.214 156.971 541.214C157.109 541.226 157.242 541.231 157.369 541.231C158.028 541.231 158.565 541.156 158.981 541.006C159.397 540.856 159.732 540.625 159.986 540.313C160.24 540.012 160.443 539.62 160.593 539.134L161.996 535.512ZM159.917 518.876L163.989 532.462L164.7 537.748L161.303 538.112L154.562 518.876H159.917ZM72.0375 563.024C72.0375 562.573 71.9682 562.169 71.8296 561.811C71.7025 561.441 71.4599 561.106 71.1017 560.806C70.7435 560.494 70.241 560.188 69.594 559.887C68.947 559.587 68.1094 559.275 67.0811 558.951C65.9373 558.582 64.8513 558.166 63.8231 557.704C62.8064 557.241 61.9052 556.704 61.1196 556.092C60.3455 555.468 59.7332 554.746 59.2826 553.926C58.8436 553.105 58.6241 552.152 58.6241 551.066C58.6241 550.015 58.8551 549.062 59.3173 548.207C59.7794 547.34 60.4264 546.601 61.2582 545.989C62.0901 545.365 63.0721 544.885 64.2043 544.55C65.3481 544.215 66.6017 544.048 67.965 544.048C69.8251 544.048 71.4483 544.383 72.8347 545.053C74.2211 545.723 75.2956 546.641 76.0581 547.808C76.8322 548.975 77.2192 550.309 77.2192 551.811H72.0549C72.0549 551.072 71.8989 550.425 71.5869 549.87C71.2866 549.304 70.8244 548.86 70.2005 548.536C69.5882 548.213 68.8141 548.051 67.8783 548.051C66.9771 548.051 66.2262 548.189 65.6254 548.467C65.0246 548.732 64.574 549.096 64.2737 549.559C63.9733 550.009 63.8231 550.517 63.8231 551.084C63.8231 551.511 63.9271 551.898 64.135 552.245C64.3545 552.591 64.678 552.915 65.1055 553.215C65.533 553.516 66.0587 553.799 66.6825 554.064C67.3064 554.33 68.0285 554.59 68.8488 554.844C70.2236 555.26 71.431 555.728 72.4708 556.248C73.5221 556.768 74.4002 557.351 75.1049 557.998C75.8097 558.645 76.3412 559.379 76.6993 560.199C77.0575 561.019 77.2365 561.949 77.2365 562.989C77.2365 564.087 77.0228 565.069 76.5953 565.935C76.1679 566.802 75.5497 567.536 74.741 568.136C73.9323 568.737 72.9676 569.193 71.8469 569.505C70.7262 569.817 69.4727 569.973 68.0863 569.973C66.8385 569.973 65.6081 569.812 64.395 569.488C63.1819 569.153 62.0785 568.65 61.0849 567.98C60.1029 567.31 59.3173 566.455 58.728 565.416C58.1388 564.376 57.8442 563.145 57.8442 561.724H63.0606C63.0606 562.51 63.1819 563.174 63.4245 563.717C63.6671 564.26 64.0079 564.699 64.447 565.034C64.8975 565.369 65.429 565.612 66.0413 565.762C66.6652 565.912 67.3469 565.987 68.0863 565.987C68.9874 565.987 69.7269 565.86 70.3045 565.606C70.8937 565.352 71.327 565 71.6043 564.549C71.8931 564.098 72.0375 563.59 72.0375 563.024ZM88.4026 550.876V554.411H77.4847V550.876H88.4026ZM80.1882 546.248H85.1792V563.977C85.1792 564.52 85.2486 564.936 85.3872 565.225C85.5374 565.514 85.7569 565.716 86.0458 565.831C86.3346 565.935 86.6985 565.987 87.1375 565.987C87.4495 565.987 87.7268 565.976 87.9694 565.953C88.2236 565.918 88.4373 565.883 88.6106 565.849L88.6279 569.523C88.2005 569.661 87.7383 569.771 87.2415 569.852C86.7447 569.933 86.1959 569.973 85.5952 569.973C84.4976 569.973 83.5387 569.794 82.7184 569.436C81.9096 569.066 81.2858 568.477 80.8467 567.668C80.4077 566.86 80.1882 565.797 80.1882 564.48V546.248ZM100.123 565.398V557.045C100.123 556.444 100.025 555.93 99.8287 555.503C99.6323 555.064 99.3261 554.723 98.9102 554.48C98.5058 554.238 97.9801 554.116 97.3332 554.116C96.7786 554.116 96.2991 554.215 95.8948 554.411C95.4904 554.596 95.1785 554.867 94.9589 555.225C94.7394 555.572 94.6297 555.982 94.6297 556.456H89.6386C89.6386 555.659 89.8235 554.902 90.1932 554.186C90.5629 553.469 91.1001 552.84 91.8049 552.297C92.5096 551.742 93.3472 551.309 94.3177 550.997C95.2998 550.685 96.3973 550.529 97.6104 550.529C99.0662 550.529 100.36 550.772 101.492 551.257C102.625 551.742 103.514 552.47 104.161 553.44C104.82 554.411 105.149 555.624 105.149 557.08V565.104C105.149 566.132 105.213 566.975 105.34 567.634C105.467 568.281 105.652 568.847 105.894 569.332V569.627H100.851C100.609 569.118 100.424 568.483 100.297 567.72C100.181 566.946 100.123 566.172 100.123 565.398ZM100.782 558.206L100.817 561.031H98.0264C97.3678 561.031 96.7959 561.106 96.3107 561.256C95.8254 561.406 95.4269 561.62 95.1149 561.898C94.803 562.163 94.5719 562.475 94.4217 562.833C94.2831 563.191 94.2138 563.584 94.2138 564.012C94.2138 564.439 94.312 564.826 94.5084 565.173C94.7048 565.508 94.9878 565.774 95.3575 565.97C95.7272 566.155 96.1605 566.247 96.6573 566.247C97.4083 566.247 98.061 566.097 98.6156 565.797C99.1701 565.496 99.5976 565.127 99.898 564.688C100.21 564.249 100.372 563.833 100.383 563.44L101.7 565.554C101.515 566.028 101.261 566.519 100.938 567.027C100.626 567.536 100.227 568.015 99.742 568.466C99.2568 568.905 98.6734 569.269 97.9917 569.557C97.3101 569.835 96.5013 569.973 95.5655 569.973C94.3755 569.973 93.2953 569.736 92.3248 569.263C91.3658 568.778 90.6033 568.113 90.0372 567.27C89.4826 566.415 89.2054 565.444 89.2054 564.358C89.2054 563.376 89.3902 562.504 89.7599 561.742C90.1296 560.979 90.6726 560.338 91.389 559.818C92.1168 559.286 93.0238 558.888 94.1098 558.622C95.1958 558.345 96.4551 558.206 97.8877 558.206H100.782ZM116.939 550.876V554.411H106.021V550.876H116.939ZM108.725 546.248H113.716V563.977C113.716 564.52 113.785 564.936 113.924 565.225C114.074 565.514 114.293 565.716 114.582 565.831C114.871 565.935 115.235 565.987 115.674 565.987C115.986 565.987 116.263 565.976 116.506 565.953C116.76 565.918 116.974 565.883 117.147 565.849L117.164 569.523C116.737 569.661 116.275 569.771 115.778 569.852C115.281 569.933 114.732 569.973 114.132 569.973C113.034 569.973 112.075 569.794 111.255 569.436C110.446 569.066 109.822 568.477 109.383 567.668C108.944 566.86 108.725 565.797 108.725 564.48V546.248ZM123.807 550.876V569.627H118.799V550.876H123.807ZM118.487 545.989C118.487 545.261 118.741 544.66 119.249 544.186C119.758 543.713 120.439 543.476 121.294 543.476C122.138 543.476 122.814 543.713 123.322 544.186C123.842 544.66 124.102 545.261 124.102 545.989C124.102 546.716 123.842 547.317 123.322 547.791C122.814 548.265 122.138 548.501 121.294 548.501C120.439 548.501 119.758 548.265 119.249 547.791C118.741 547.317 118.487 546.716 118.487 545.989ZM125.892 560.442V560.078C125.892 558.703 126.089 557.438 126.482 556.283C126.874 555.116 127.446 554.105 128.197 553.25C128.948 552.395 129.873 551.731 130.97 551.257C132.068 550.772 133.327 550.529 134.748 550.529C136.169 550.529 137.434 550.772 138.543 551.257C139.652 551.731 140.583 552.395 141.333 553.25C142.096 554.105 142.674 555.116 143.066 556.283C143.459 557.438 143.656 558.703 143.656 560.078V560.442C143.656 561.805 143.459 563.07 143.066 564.237C142.674 565.392 142.096 566.403 141.333 567.27C140.583 568.125 139.658 568.789 138.561 569.263C137.463 569.736 136.204 569.973 134.783 569.973C133.362 569.973 132.097 569.736 130.987 569.263C129.89 568.789 128.96 568.125 128.197 567.27C127.446 566.403 126.874 565.392 126.482 564.237C126.089 563.07 125.892 561.805 125.892 560.442ZM130.883 560.078V560.442C130.883 561.227 130.953 561.961 131.091 562.643C131.23 563.324 131.45 563.925 131.75 564.445C132.062 564.953 132.466 565.352 132.963 565.641C133.46 565.93 134.066 566.074 134.783 566.074C135.476 566.074 136.071 565.93 136.568 565.641C137.065 565.352 137.463 564.953 137.763 564.445C138.064 563.925 138.283 563.324 138.422 562.643C138.572 561.961 138.647 561.227 138.647 560.442V560.078C138.647 559.315 138.572 558.599 138.422 557.929C138.283 557.247 138.058 556.646 137.746 556.127C137.446 555.595 137.047 555.179 136.55 554.879C136.054 554.578 135.453 554.428 134.748 554.428C134.043 554.428 133.443 554.578 132.946 554.879C132.46 555.179 132.062 555.595 131.75 556.127C131.45 556.646 131.23 557.247 131.091 557.929C130.953 558.599 130.883 559.315 130.883 560.078ZM150.368 554.879V569.627H145.377V550.876H150.056L150.368 554.879ZM149.64 559.593H148.288C148.288 558.206 148.467 556.958 148.826 555.849C149.184 554.729 149.686 553.775 150.333 552.99C150.98 552.193 151.749 551.586 152.638 551.17C153.539 550.743 154.545 550.529 155.654 550.529C156.532 550.529 157.335 550.656 158.063 550.91C158.79 551.164 159.414 551.569 159.934 552.123C160.466 552.678 160.87 553.412 161.147 554.324C161.436 555.237 161.581 556.352 161.581 557.669V569.627H156.555V557.652C156.555 556.82 156.439 556.173 156.208 555.711C155.977 555.249 155.636 554.925 155.186 554.74C154.747 554.544 154.204 554.446 153.557 554.446C152.887 554.446 152.303 554.578 151.806 554.844C151.321 555.11 150.917 555.48 150.593 555.953C150.281 556.415 150.044 556.958 149.883 557.582C149.721 558.206 149.64 558.876 149.64 559.593Z" fill="black"/>
<path d="M222.728 528.992V536.041C222.49 536.393 222.111 536.79 221.591 537.231C221.071 537.663 220.352 538.042 219.435 538.368C218.527 538.686 217.355 538.844 215.918 538.844C214.745 538.844 213.665 538.642 212.678 538.236C211.699 537.822 210.848 537.222 210.125 536.437C209.411 535.644 208.856 534.683 208.459 533.554C208.071 532.417 207.877 531.13 207.877 529.693V528.198C207.877 526.761 208.045 525.479 208.38 524.35C208.723 523.222 209.226 522.265 209.887 521.48C210.548 520.687 211.36 520.087 212.321 519.682C213.282 519.267 214.384 519.06 215.627 519.06C217.099 519.06 218.329 519.316 219.316 519.827C220.313 520.33 221.089 521.026 221.644 521.917C222.208 522.807 222.57 523.821 222.728 524.958H220.176C220.061 524.262 219.832 523.627 219.488 523.054C219.153 522.481 218.673 522.023 218.047 521.679C217.421 521.326 216.614 521.15 215.627 521.15C214.736 521.15 213.965 521.313 213.312 521.639C212.66 521.965 212.122 522.433 211.699 523.041C211.276 523.649 210.958 524.385 210.747 525.249C210.544 526.113 210.443 527.088 210.443 528.172V529.693C210.443 530.804 210.571 531.796 210.826 532.668C211.091 533.541 211.465 534.286 211.95 534.903C212.435 535.512 213.013 535.975 213.683 536.292C214.362 536.609 215.111 536.768 215.931 536.768C216.839 536.768 217.575 536.693 218.139 536.543C218.704 536.385 219.145 536.199 219.462 535.988C219.779 535.767 220.022 535.56 220.189 535.366V531.055H215.733V528.992H222.728ZM231.58 538.844C230.584 538.844 229.68 538.677 228.869 538.342C228.067 537.998 227.374 537.517 226.793 536.9C226.22 536.283 225.779 535.551 225.47 534.705C225.162 533.859 225.007 532.933 225.007 531.928V531.372C225.007 530.209 225.179 529.173 225.523 528.265C225.867 527.348 226.334 526.572 226.925 525.937C227.516 525.302 228.186 524.822 228.935 524.496C229.684 524.169 230.46 524.006 231.263 524.006C232.285 524.006 233.167 524.183 233.907 524.535C234.657 524.888 235.27 525.382 235.746 526.016C236.222 526.642 236.574 527.383 236.804 528.238C237.033 529.085 237.148 530.01 237.148 531.015V532.113H226.462V530.116H234.701V529.931C234.666 529.296 234.533 528.679 234.304 528.079C234.084 527.48 233.731 526.986 233.246 526.598C232.761 526.21 232.1 526.016 231.263 526.016C230.707 526.016 230.196 526.135 229.728 526.373C229.261 526.603 228.86 526.947 228.525 527.405C228.19 527.863 227.93 528.423 227.745 529.085C227.56 529.746 227.467 530.508 227.467 531.372V531.928C227.467 532.607 227.56 533.246 227.745 533.845C227.939 534.436 228.216 534.956 228.578 535.406C228.948 535.856 229.393 536.208 229.914 536.464C230.443 536.72 231.042 536.847 231.712 536.847C232.576 536.847 233.308 536.671 233.907 536.318C234.507 535.966 235.032 535.494 235.481 534.903L236.962 536.08C236.654 536.548 236.261 536.993 235.785 537.416C235.309 537.839 234.723 538.183 234.026 538.448C233.339 538.712 232.523 538.844 231.58 538.844ZM241.714 518.267V538.58H239.254V518.267H241.714ZM250.632 538.844C249.636 538.844 248.732 538.677 247.921 538.342C247.119 537.998 246.426 537.517 245.845 536.9C245.272 536.283 244.831 535.551 244.522 534.705C244.214 533.859 244.059 532.933 244.059 531.928V531.372C244.059 530.209 244.231 529.173 244.575 528.265C244.919 527.348 245.386 526.572 245.977 525.937C246.568 525.302 247.238 524.822 247.987 524.496C248.736 524.169 249.512 524.006 250.315 524.006C251.337 524.006 252.219 524.183 252.959 524.535C253.709 524.888 254.322 525.382 254.798 526.016C255.274 526.642 255.626 527.383 255.856 528.238C256.085 529.085 256.2 530.01 256.2 531.015V532.113H245.514V530.116H253.753V529.931C253.718 529.296 253.585 528.679 253.356 528.079C253.136 527.48 252.783 526.986 252.298 526.598C251.813 526.21 251.152 526.016 250.315 526.016C249.759 526.016 249.248 526.135 248.78 526.373C248.313 526.603 247.912 526.947 247.577 527.405C247.242 527.863 246.982 528.423 246.797 529.085C246.612 529.746 246.519 530.508 246.519 531.372V531.928C246.519 532.607 246.612 533.246 246.797 533.845C246.991 534.436 247.268 534.956 247.63 535.406C248 535.856 248.445 536.208 248.966 536.464C249.495 536.72 250.094 536.847 250.764 536.847C251.628 536.847 252.36 536.671 252.959 536.318C253.559 535.966 254.084 535.494 254.533 534.903L256.014 536.08C255.706 536.548 255.313 536.993 254.837 537.416C254.361 537.839 253.775 538.183 253.078 538.448C252.391 538.712 251.575 538.844 250.632 538.844ZM268.767 536.57V538.58H258.359V536.57H268.767ZM268.384 526.003L258.915 538.58H257.42V536.781L266.823 524.271H268.384V526.003ZM267.299 524.271V526.294H257.526V524.271H267.299ZM261.044 518.28L263.041 520.528L265.038 518.28H267.154V518.412L263.795 522.036H262.287L258.981 518.412V518.28H261.044ZM273.255 524.271V538.58H270.795V524.271H273.255ZM270.61 520.475C270.61 520.079 270.729 519.743 270.967 519.47C271.214 519.197 271.575 519.06 272.051 519.06C272.518 519.06 272.875 519.197 273.122 519.47C273.378 519.743 273.506 520.079 273.506 520.475C273.506 520.854 273.378 521.181 273.122 521.454C272.875 521.718 272.518 521.851 272.051 521.851C271.575 521.851 271.214 521.718 270.967 521.454C270.729 521.181 270.61 520.854 270.61 520.475ZM278.681 527.326V538.58H276.234V524.271H278.549L278.681 527.326ZM278.099 530.883L277.081 530.843C277.09 529.865 277.235 528.961 277.517 528.132C277.799 527.295 278.196 526.567 278.707 525.95C279.219 525.333 279.827 524.857 280.532 524.522C281.247 524.178 282.036 524.006 282.9 524.006C283.605 524.006 284.24 524.103 284.804 524.297C285.368 524.482 285.849 524.782 286.245 525.196C286.651 525.611 286.96 526.149 287.171 526.81C287.383 527.462 287.489 528.26 287.489 529.204V538.58H285.029V529.177C285.029 528.428 284.919 527.828 284.698 527.379C284.478 526.92 284.156 526.589 283.733 526.387C283.31 526.175 282.789 526.069 282.172 526.069C281.564 526.069 281.008 526.197 280.506 526.453C280.012 526.708 279.585 527.061 279.223 527.511C278.87 527.96 278.593 528.476 278.39 529.058C278.196 529.631 278.099 530.239 278.099 530.883ZM292.717 518.267V538.58H290.257V518.267H292.717ZM301.458 524.271L295.216 530.949L291.725 534.573L291.526 531.967L294.026 528.979L298.469 524.271H301.458ZM299.223 538.58L294.118 531.756L295.388 529.574L302.106 538.58H299.223ZM308.709 538.844C307.713 538.844 306.809 538.677 305.998 538.342C305.196 537.998 304.504 537.517 303.922 536.9C303.349 536.283 302.908 535.551 302.6 534.705C302.291 533.859 302.137 532.933 302.137 531.928V531.372C302.137 530.209 302.309 529.173 302.653 528.265C302.996 527.348 303.464 526.572 304.054 525.937C304.645 525.302 305.315 524.822 306.064 524.496C306.814 524.169 307.59 524.006 308.392 524.006C309.415 524.006 310.296 524.183 311.037 524.535C311.786 524.888 312.399 525.382 312.875 526.016C313.351 526.642 313.704 527.383 313.933 528.238C314.162 529.085 314.277 530.01 314.277 531.015V532.113H303.591V530.116H311.83V529.931C311.795 529.296 311.663 528.679 311.434 528.079C311.213 527.48 310.861 526.986 310.376 526.598C309.891 526.21 309.23 526.016 308.392 526.016C307.837 526.016 307.325 526.135 306.858 526.373C306.391 526.603 305.99 526.947 305.655 527.405C305.319 527.863 305.059 528.423 304.874 529.085C304.689 529.746 304.597 530.508 304.597 531.372V531.928C304.597 532.607 304.689 533.246 304.874 533.845C305.068 534.436 305.346 534.956 305.707 535.406C306.078 535.856 306.523 536.208 307.043 536.464C307.572 536.72 308.172 536.847 308.842 536.847C309.706 536.847 310.437 536.671 311.037 536.318C311.636 535.966 312.161 535.494 312.611 534.903L314.092 536.08C313.783 536.548 313.391 536.993 312.915 537.416C312.439 537.839 311.852 538.183 311.156 538.448C310.468 538.712 309.653 538.844 308.709 538.844ZM318.844 518.267V538.58H316.384V518.267H318.844ZM324.482 524.271V538.58H322.022V524.271H324.482ZM321.837 520.475C321.837 520.079 321.956 519.743 322.194 519.47C322.441 519.197 322.802 519.06 323.278 519.06C323.746 519.06 324.103 519.197 324.349 519.47C324.605 519.743 324.733 520.079 324.733 520.475C324.733 520.854 324.605 521.181 324.349 521.454C324.103 521.718 323.746 521.851 323.278 521.851C322.802 521.851 322.441 521.718 322.194 521.454C321.956 521.181 321.837 520.854 321.837 520.475ZM326.813 531.584V531.28C326.813 530.248 326.963 529.292 327.263 528.41C327.563 527.52 327.995 526.748 328.559 526.096C329.123 525.435 329.807 524.923 330.609 524.562C331.411 524.191 332.311 524.006 333.307 524.006C334.312 524.006 335.216 524.191 336.018 524.562C336.829 524.923 337.517 525.435 338.081 526.096C338.654 526.748 339.09 527.52 339.39 528.41C339.69 529.292 339.84 530.248 339.84 531.28V531.584C339.84 532.616 339.69 533.572 339.39 534.454C339.09 535.335 338.654 536.107 338.081 536.768C337.517 537.42 336.833 537.932 336.031 538.302C335.238 538.664 334.338 538.844 333.333 538.844C332.328 538.844 331.424 538.664 330.622 538.302C329.82 537.932 329.132 537.42 328.559 536.768C327.995 536.107 327.563 535.335 327.263 534.454C326.963 533.572 326.813 532.616 326.813 531.584ZM329.26 531.28V531.584C329.26 532.298 329.344 532.973 329.511 533.607C329.679 534.233 329.93 534.789 330.265 535.274C330.609 535.759 331.037 536.142 331.548 536.424C332.059 536.698 332.654 536.834 333.333 536.834C334.003 536.834 334.59 536.698 335.092 536.424C335.603 536.142 336.027 535.759 336.362 535.274C336.697 534.789 336.948 534.233 337.115 533.607C337.292 532.973 337.38 532.298 337.38 531.584V531.28C337.38 530.574 337.292 529.909 337.115 529.283C336.948 528.648 336.692 528.088 336.348 527.603C336.013 527.11 335.59 526.722 335.079 526.44C334.576 526.157 333.986 526.016 333.307 526.016C332.637 526.016 332.046 526.157 331.535 526.44C331.032 526.722 330.609 527.11 330.265 527.603C329.93 528.088 329.679 528.648 329.511 529.283C329.344 529.909 329.26 530.574 329.26 531.28ZM357.001 524.271H359.222V538.276C359.222 539.536 358.967 540.612 358.455 541.502C357.944 542.393 357.23 543.067 356.313 543.526C355.405 543.993 354.356 544.227 353.165 544.227C352.672 544.227 352.09 544.147 351.42 543.989C350.759 543.839 350.106 543.579 349.463 543.208C348.828 542.847 348.294 542.358 347.862 541.741L349.145 540.286C349.745 541.009 350.371 541.511 351.023 541.793C351.684 542.076 352.337 542.217 352.98 542.217C353.756 542.217 354.426 542.071 354.99 541.78C355.555 541.489 355.991 541.057 356.3 540.484C356.617 539.92 356.776 539.223 356.776 538.395V527.418L357.001 524.271ZM347.148 531.584V531.306C347.148 530.213 347.276 529.221 347.532 528.331C347.796 527.431 348.171 526.66 348.656 526.016C349.15 525.373 349.745 524.879 350.441 524.535C351.138 524.183 351.922 524.006 352.795 524.006C353.694 524.006 354.479 524.165 355.149 524.482C355.828 524.791 356.401 525.245 356.868 525.844C357.344 526.435 357.719 527.149 357.992 527.987C358.266 528.824 358.455 529.772 358.561 530.83V532.047C358.464 533.096 358.275 534.039 357.992 534.877C357.719 535.714 357.344 536.429 356.868 537.019C356.401 537.61 355.828 538.064 355.149 538.381C354.47 538.69 353.677 538.844 352.769 538.844C351.914 538.844 351.138 538.664 350.441 538.302C349.754 537.941 349.163 537.434 348.669 536.781C348.175 536.129 347.796 535.362 347.532 534.48C347.276 533.59 347.148 532.624 347.148 531.584ZM349.595 531.306V531.584C349.595 532.298 349.665 532.968 349.806 533.594C349.956 534.22 350.181 534.771 350.481 535.247C350.789 535.723 351.182 536.098 351.658 536.371C352.134 536.636 352.703 536.768 353.364 536.768C354.175 536.768 354.845 536.596 355.374 536.252C355.903 535.908 356.322 535.454 356.63 534.89C356.948 534.326 357.195 533.713 357.371 533.052V529.865C357.274 529.38 357.124 528.913 356.921 528.463C356.727 528.005 356.472 527.599 356.154 527.246C355.846 526.885 355.462 526.598 355.004 526.387C354.545 526.175 354.007 526.069 353.39 526.069C352.72 526.069 352.143 526.21 351.658 526.492C351.182 526.766 350.789 527.145 350.481 527.63C350.181 528.106 349.956 528.661 349.806 529.296C349.665 529.922 349.595 530.592 349.595 531.306ZM362.03 537.284C362.03 536.869 362.158 536.521 362.414 536.239C362.678 535.948 363.057 535.803 363.551 535.803C364.045 535.803 364.42 535.948 364.675 536.239C364.94 536.521 365.072 536.869 365.072 537.284C365.072 537.689 364.94 538.033 364.675 538.315C364.42 538.597 364.045 538.739 363.551 538.739C363.057 538.739 362.678 538.597 362.414 538.315C362.158 538.033 362.03 537.689 362.03 537.284ZM381.73 519.219V538.58H379.284V522.274L374.351 524.072V521.864L381.347 519.219H381.73ZM397.366 519.298H397.578V521.375H397.366C396.07 521.375 394.986 521.586 394.113 522.009C393.24 522.424 392.548 522.984 392.037 523.689C391.525 524.385 391.155 525.17 390.926 526.043C390.705 526.916 390.595 527.802 390.595 528.701V531.531C390.595 532.386 390.696 533.144 390.899 533.806C391.102 534.458 391.38 535.009 391.732 535.459C392.085 535.908 392.482 536.248 392.923 536.477C393.372 536.706 393.839 536.821 394.324 536.821C394.889 536.821 395.391 536.715 395.832 536.504C396.273 536.283 396.643 535.979 396.943 535.591C397.251 535.194 397.485 534.727 397.644 534.189C397.802 533.651 397.882 533.061 397.882 532.417C397.882 531.844 397.811 531.293 397.67 530.764C397.529 530.226 397.313 529.75 397.022 529.336C396.731 528.913 396.365 528.582 395.925 528.344C395.493 528.097 394.977 527.974 394.377 527.974C393.698 527.974 393.064 528.141 392.473 528.476C391.891 528.802 391.411 529.234 391.031 529.772C390.661 530.301 390.45 530.879 390.397 531.505L389.101 531.491C389.224 530.504 389.453 529.662 389.788 528.965C390.132 528.26 390.555 527.687 391.058 527.246C391.569 526.797 392.138 526.47 392.764 526.268C393.399 526.056 394.069 525.95 394.774 525.95C395.735 525.95 396.564 526.131 397.26 526.492C397.957 526.854 398.53 527.339 398.979 527.947C399.429 528.547 399.76 529.226 399.971 529.984C400.192 530.733 400.302 531.505 400.302 532.298C400.302 533.206 400.174 534.057 399.918 534.85C399.663 535.644 399.279 536.34 398.768 536.94C398.265 537.539 397.644 538.007 396.903 538.342C396.163 538.677 395.303 538.844 394.324 538.844C393.284 538.844 392.376 538.633 391.6 538.21C390.824 537.778 390.181 537.204 389.669 536.49C389.158 535.776 388.774 534.983 388.519 534.11C388.263 533.237 388.135 532.351 388.135 531.452V530.301C388.135 528.943 388.272 527.612 388.545 526.307C388.818 525.003 389.29 523.821 389.96 522.763C390.639 521.705 391.578 520.863 392.777 520.237C393.976 519.611 395.506 519.298 397.366 519.298ZM404.75 535.67V537.641C404.75 538.443 404.547 539.29 404.141 540.18C403.736 541.079 403.167 541.829 402.435 542.428L401.047 541.463C401.329 541.075 401.567 540.678 401.761 540.273C401.955 539.876 402.1 539.461 402.197 539.029C402.303 538.606 402.356 538.157 402.356 537.681V535.67H404.75ZM219.951 560.418V563.354C219.951 564.932 219.81 566.264 219.528 567.348C219.246 568.432 218.84 569.305 218.311 569.966C217.782 570.628 217.143 571.108 216.394 571.408C215.653 571.699 214.816 571.844 213.881 571.844C213.141 571.844 212.457 571.752 211.831 571.567C211.205 571.381 210.641 571.086 210.139 570.681C209.645 570.266 209.222 569.728 208.869 569.067C208.516 568.406 208.247 567.604 208.062 566.66C207.877 565.717 207.785 564.615 207.785 563.354V560.418C207.785 558.84 207.926 557.518 208.208 556.451C208.499 555.384 208.909 554.529 209.438 553.885C209.967 553.233 210.601 552.766 211.342 552.483C212.091 552.201 212.929 552.06 213.855 552.06C214.604 552.06 215.292 552.153 215.918 552.338C216.552 552.514 217.117 552.801 217.61 553.198C218.104 553.585 218.523 554.106 218.867 554.758C219.219 555.402 219.488 556.191 219.673 557.125C219.859 558.06 219.951 559.157 219.951 560.418ZM217.491 563.751V560.008C217.491 559.144 217.439 558.386 217.333 557.734C217.236 557.072 217.09 556.508 216.896 556.041C216.702 555.574 216.455 555.194 216.156 554.904C215.865 554.613 215.525 554.401 215.137 554.269C214.758 554.128 214.331 554.057 213.855 554.057C213.273 554.057 212.757 554.167 212.307 554.388C211.858 554.599 211.479 554.939 211.17 555.406C210.87 555.873 210.641 556.486 210.482 557.244C210.324 558.003 210.244 558.924 210.244 560.008V563.751C210.244 564.615 210.293 565.377 210.39 566.039C210.496 566.7 210.65 567.273 210.853 567.758C211.055 568.234 211.302 568.626 211.593 568.935C211.884 569.243 212.219 569.473 212.598 569.623C212.986 569.764 213.414 569.834 213.881 569.834C214.481 569.834 215.005 569.72 215.455 569.49C215.904 569.261 216.279 568.904 216.579 568.419C216.887 567.925 217.117 567.295 217.267 566.528C217.416 565.752 217.491 564.826 217.491 563.751ZM234.767 569.57V571.58H222.164V569.821L228.472 562.799C229.248 561.935 229.848 561.203 230.271 560.603C230.703 559.995 231.002 559.453 231.17 558.977C231.346 558.492 231.434 557.998 231.434 557.496C231.434 556.861 231.302 556.288 231.038 555.776C230.782 555.256 230.403 554.842 229.9 554.533C229.398 554.225 228.79 554.07 228.075 554.07C227.22 554.07 226.506 554.238 225.933 554.573C225.369 554.899 224.946 555.358 224.663 555.948C224.381 556.539 224.24 557.218 224.24 557.985H221.794C221.794 556.9 222.032 555.909 222.508 555.009C222.984 554.11 223.689 553.396 224.624 552.867C225.558 552.329 226.709 552.06 228.075 552.06C229.292 552.06 230.332 552.276 231.196 552.708C232.06 553.131 232.722 553.731 233.18 554.507C233.647 555.274 233.881 556.173 233.881 557.205C233.881 557.769 233.784 558.342 233.59 558.924C233.405 559.497 233.145 560.07 232.81 560.643C232.484 561.216 232.1 561.78 231.659 562.336C231.227 562.891 230.764 563.438 230.271 563.976L225.113 569.57H234.767ZM244.478 552.219V571.58H242.032V555.274L237.099 557.072V554.864L244.095 552.219H244.478ZM262.812 560.418V563.354C262.812 564.932 262.671 566.264 262.389 567.348C262.107 568.432 261.701 569.305 261.172 569.966C260.643 570.628 260.004 571.108 259.254 571.408C258.514 571.699 257.676 571.844 256.742 571.844C256.001 571.844 255.318 571.752 254.692 571.567C254.066 571.381 253.502 571.086 252.999 570.681C252.505 570.266 252.082 569.728 251.73 569.067C251.377 568.406 251.108 567.604 250.923 566.66C250.738 565.717 250.645 564.615 250.645 563.354V560.418C250.645 558.84 250.786 557.518 251.068 556.451C251.359 555.384 251.769 554.529 252.298 553.885C252.827 553.233 253.462 552.766 254.203 552.483C254.952 552.201 255.79 552.06 256.715 552.06C257.465 552.06 258.152 552.153 258.778 552.338C259.413 552.514 259.977 552.801 260.471 553.198C260.965 553.585 261.384 554.106 261.727 554.758C262.08 555.402 262.349 556.191 262.534 557.125C262.719 558.06 262.812 559.157 262.812 560.418ZM260.352 563.751V560.008C260.352 559.144 260.299 558.386 260.193 557.734C260.096 557.072 259.951 556.508 259.757 556.041C259.563 555.574 259.316 555.194 259.016 554.904C258.725 554.613 258.386 554.401 257.998 554.269C257.619 554.128 257.191 554.057 256.715 554.057C256.133 554.057 255.618 554.167 255.168 554.388C254.718 554.599 254.339 554.939 254.031 555.406C253.731 555.873 253.502 556.486 253.343 557.244C253.184 558.003 253.105 558.924 253.105 560.008V563.751C253.105 564.615 253.153 565.377 253.25 566.039C253.356 566.7 253.511 567.273 253.713 567.758C253.916 568.234 254.163 568.626 254.454 568.935C254.745 569.243 255.08 569.473 255.459 569.623C255.847 569.764 256.274 569.834 256.742 569.834C257.341 569.834 257.866 569.72 258.315 569.49C258.765 569.261 259.14 568.904 259.44 568.419C259.748 567.925 259.977 567.295 260.127 566.528C260.277 565.752 260.352 564.826 260.352 563.751ZM277.099 560.418V563.354C277.099 564.932 276.958 566.264 276.676 567.348C276.393 568.432 275.988 569.305 275.459 569.966C274.93 570.628 274.291 571.108 273.541 571.408C272.801 571.699 271.963 571.844 271.029 571.844C270.288 571.844 269.605 571.752 268.979 571.567C268.353 571.381 267.789 571.086 267.286 570.681C266.792 570.266 266.369 569.728 266.016 569.067C265.664 568.406 265.395 567.604 265.21 566.66C265.025 565.717 264.932 564.615 264.932 563.354V560.418C264.932 558.84 265.073 557.518 265.355 556.451C265.646 555.384 266.056 554.529 266.585 553.885C267.114 553.233 267.749 552.766 268.489 552.483C269.239 552.201 270.076 552.06 271.002 552.06C271.752 552.06 272.439 552.153 273.065 552.338C273.7 552.514 274.264 552.801 274.758 553.198C275.252 553.585 275.67 554.106 276.014 554.758C276.367 555.402 276.636 556.191 276.821 557.125C277.006 558.06 277.099 559.157 277.099 560.418ZM274.639 563.751V560.008C274.639 559.144 274.586 558.386 274.48 557.734C274.383 557.072 274.238 556.508 274.044 556.041C273.85 555.574 273.603 555.194 273.303 554.904C273.012 554.613 272.673 554.401 272.285 554.269C271.906 554.128 271.478 554.057 271.002 554.057C270.42 554.057 269.905 554.167 269.455 554.388C269.005 554.599 268.626 554.939 268.318 555.406C268.018 555.873 267.789 556.486 267.63 557.244C267.471 558.003 267.392 558.924 267.392 560.008V563.751C267.392 564.615 267.44 565.377 267.537 566.039C267.643 566.7 267.797 567.273 268 567.758C268.203 568.234 268.45 568.626 268.741 568.935C269.032 569.243 269.367 569.473 269.746 569.623C270.134 569.764 270.561 569.834 271.029 569.834C271.628 569.834 272.153 569.72 272.602 569.49C273.052 569.261 273.427 568.904 273.726 568.419C274.035 567.925 274.264 567.295 274.414 566.528C274.564 565.752 274.639 564.826 274.639 563.751Z" fill="black"/>
<path d="M219.474 617.558L206.994 594.801H239.295L219.474 617.558Z" fill="#049ADB" stroke="#049ADB" stroke-width="14.6821" stroke-linecap="round" stroke-linejoin="round"/>
<line x1="190.84" y1="508.178" x2="190.84" y2="575.716" stroke="black" stroke-width="1.46821"/>
</g>
<path d="M1406.74 290.727L1387.84 271.836H1425.63L1406.74 290.727Z" fill="#049ADB"/>
<path d="M156.106 640.019L110.969 594.881H201.244L156.106 640.019Z" fill="#049ADB"/>
</g>
<defs>
<clipPath id="clip0_1505_26217">
<rect width="1520" height="877" fill="white" transform="translate(0 0.813965)"/>
</clipPath>
<clipPath id="clip1_1505_26217">
<rect x="1060" y="147.814" width="405.033" height="128.462" rx="51.3997" fill="white"/>
</clipPath>
<clipPath id="clip2_1505_26217">
<rect x="27.1426" y="478.814" width="412.568" height="124.798" rx="49.9337" fill="white"/>
</clipPath>
</defs>
</svg>
