<svg width="359" height="128" viewBox="0 0 359 128" fill="none" xmlns="http://www.w3.org/2000/svg">
<path d="M48.921 44.2951V34.927H0.339844V92.9591H48.921V83.5911H11.6976V68.3369H46.2681V60.7928H11.6976V44.2951H48.921Z" fill="black"/>
<path d="M93.8376 34.927V73.7256C93.8376 81.7672 88.6976 86.9072 80.7389 86.9072C72.6973 86.9072 66.7283 83.0108 66.7283 73.7256V34.927H54.3758V72.0676C54.3758 83.4253 60.5106 94.2027 80.3244 94.2027C99.5579 94.2027 106.19 82.845 106.19 72.0676V34.927H93.8376Z" fill="black"/>
<path d="M116.304 92.9591H127.661V69.995H157.092L148.885 93.1249H173.009V83.674H163.641C165.382 73.0624 167.04 65.9327 159.33 65.4353V62.6995C166.874 61.5389 172.429 57.2279 172.429 49.1034C172.429 38.1602 162.398 35.0099 150.957 35.0099H116.304V92.9591ZM127.661 44.2122H150.874C156.346 44.2122 161.154 46.948 161.154 52.7512C161.154 58.3886 156.346 61.3731 150.708 61.2902L127.661 61.1244V44.2122Z" fill="black"/>
<path d="M217.088 34.927V73.7256C217.088 81.7672 211.948 86.9072 203.989 86.9072C195.948 86.9072 189.979 83.0108 189.979 73.7256V34.927H177.626V72.0676C177.626 83.4253 183.761 94.2027 203.575 94.2027C222.808 94.2027 229.44 82.845 229.44 72.0676V34.927H217.088Z" fill="black"/>
<path d="M286.643 66.0986C285.068 63.6944 279.679 62.285 273.627 62.285C270.725 62.285 267.658 62.6166 264.756 63.3628C262.352 64.026 258.953 65.3524 256.964 65.9327L257.046 63.2798C263.596 61.9534 271.471 59.715 275.7 54.7408L296.674 34.927H282.746L254.974 60.2953H250.912V34.927H239.554V92.9591H250.912V69.995H280.342L272.135 93.1249H296.259V83.674H286.891C288.384 73.8914 290.456 68.0053 286.643 66.0986Z" fill="black"/>
<path d="M315.813 89.9209C300.158 104.102 283.093 114.015 268.177 118.59C253.222 123.178 240.61 122.357 233.627 115.373C226.643 108.39 226.404 96.3604 231.958 82.3711C237.497 68.4181 248.742 52.6861 264.397 38.5049C280.053 24.3236 297.118 14.4112 312.034 9.83538C326.989 5.2477 339.601 6.06924 346.584 13.0525C353.567 20.0357 353.806 32.0654 348.253 46.0547C342.714 60.0077 331.469 75.7397 315.813 89.9209Z" stroke="black"/>
<mask id="mask0_723_146" style="mask-type:alpha" maskUnits="userSpaceOnUse" x="227" y="6" width="126" height="116">
<ellipse cx="36.8566" cy="76.7052" rx="36.8566" ry="76.7052" transform="matrix(0.707107 0.707107 -0.74114 0.671351 320.892 -13.3446)" fill="#FF74BD"/>
</mask>
<g mask="url(#mask0_723_146)">
<path d="M330.273 33.3651C310.708 33.3651 295.288 46.7125 295.288 63.7076C295.288 81.0343 310.293 93.9672 330.273 93.9672C350.335 93.9672 365.341 81.0343 365.341 63.7076C365.258 46.298 350.335 33.3651 330.273 33.3651ZM330.273 85.1795C318.003 85.1795 308.138 77.5524 308.138 64.0392C308.138 50.6918 318.003 42.4015 330.77 42.5673C343.952 42.7332 352.739 50.526 352.739 64.0392C352.739 77.3866 342.708 85.1795 330.273 85.1795Z" fill="black"/>
</g>
<path d="M342.792 84.2162L341.53 84.5806L341.433 84.2962L342.641 83.7985C343.717 83.3541 346.134 82.8741 346.134 80.8033C346.134 79.639 345.192 78.7235 343.37 78.7235C341.344 78.7235 340.384 79.6212 340.384 81.0432H341.61C341.61 80.2256 342.17 79.7456 343.388 79.7456C344.454 79.7456 344.917 80.2078 344.917 80.8477C344.917 82.9186 340.313 82.7586 340.313 84.6695V85.2383H346.152V84.2162H342.792ZM353.329 82.1009C353.329 80.35 352.192 78.8391 350.005 78.8391C347.837 78.8391 346.69 80.35 346.69 82.1187C346.69 83.8696 347.837 85.3805 350.005 85.3805C351.854 85.3805 353.329 84.1984 353.329 82.1009ZM350.005 84.3584C348.69 84.3584 347.917 83.3985 347.917 82.1098C347.917 80.821 348.69 79.8612 350.005 79.8612C351.33 79.8612 352.103 80.821 352.103 82.1098C352.103 83.3985 351.33 84.3584 350.005 84.3584ZM342.792 92.2162L341.53 92.5806L341.433 92.2962L342.641 91.7985C343.717 91.3541 346.134 90.8741 346.134 88.8033C346.134 87.639 345.192 86.7235 343.37 86.7235C341.344 86.7235 340.384 87.6212 340.384 89.0432H341.61C341.61 88.2256 342.17 87.7456 343.388 87.7456C344.454 87.7456 344.917 88.2078 344.917 88.8477C344.917 90.9186 340.313 90.7586 340.313 92.6695V93.2383H346.152V92.2162H342.792ZM351.685 90.252V89.9498C352.556 89.932 352.992 89.4254 352.992 88.7677C352.992 87.3634 351.561 86.8213 350.21 86.8213C348.654 86.8213 347.232 87.4523 347.232 89.141H348.459C348.45 88.2433 349.392 87.8434 350.227 87.8434C350.974 87.8434 351.765 88.1011 351.765 88.821C351.765 89.4165 351.383 89.7454 350.69 89.7454H349.383V90.4564H350.69C351.454 90.4564 351.765 90.7319 351.765 91.3718C351.765 92.1095 351.001 92.3584 350.236 92.3584C349.419 92.3584 348.45 91.9407 348.459 91.0697H347.232C347.232 92.7406 348.681 93.3805 350.219 93.3805C351.57 93.3805 352.992 92.8472 352.992 91.4252C352.992 90.723 352.601 90.2698 351.685 90.252Z" fill="black"/>
</svg>
