<svg width="1920" height="325" viewBox="0 0 1920 325" fill="none" xmlns="http://www.w3.org/2000/svg">
<mask id="mask0_979_1192" style="mask-type:alpha" maskUnits="userSpaceOnUse" x="0" y="0" width="1920" height="325">
<rect width="1920" height="325" fill="#FFA8A8"/>
</mask>
<g mask="url(#mask0_979_1192)">
<path d="M1923.5 351.5C1923.5 399.693 1896.65 445.67 1847.96 487.551C1799.26 529.431 1728.77 567.169 1641.63 598.871C1467.34 662.274 1226.52 701.5 960.5 701.5C694.479 701.5 453.665 662.274 279.374 598.871C192.226 567.169 121.736 529.431 73.0426 487.551C24.3476 445.67 -2.5 399.693 -2.5 351.5C-2.5 303.307 24.3476 257.33 73.0426 215.449C121.736 173.569 192.226 135.831 279.374 104.129C453.665 40.7256 694.479 1.5 960.5 1.5C1226.52 1.5 1467.34 40.7256 1641.63 104.129C1728.77 135.831 1799.26 173.569 1847.96 215.449C1896.65 257.33 1923.5 303.307 1923.5 351.5Z" stroke="black"/>
</g>
</svg>
