<svg width="1920" height="325" viewBox="0 0 1920 325" fill="none" xmlns="http://www.w3.org/2000/svg">
<mask id="mask0_979_1192" style="mask-type:alpha" maskUnits="userSpaceOnUse" x="0" y="0" width="1920" height="325">
<rect width="1920" height="325" transform="matrix(1 0 0 -1 0 325)" fill="#FFA8A8"/>
</mask>
<g mask="url(#mask0_979_1192)">
<path d="M1923.5 -26.5C1923.5 -74.6935 1896.65 -120.67 1847.96 -162.551C1799.26 -204.431 1728.77 -242.169 1641.63 -273.871C1467.34 -337.274 1226.52 -376.5 960.5 -376.5C694.479 -376.5 453.665 -337.274 279.374 -273.871C192.226 -242.169 121.736 -204.431 73.0426 -162.551C24.3476 -120.67 -2.5 -74.6935 -2.5 -26.5C-2.5 21.6935 24.3476 67.6703 73.0426 109.551C121.736 151.431 192.226 189.169 279.374 220.871C453.665 284.274 694.479 323.5 960.5 323.5C1226.52 323.5 1467.34 284.274 1641.63 220.871C1728.77 189.169 1799.26 151.431 1847.96 109.551C1896.65 67.6703 1923.5 21.6935 1923.5 -26.5Z" stroke="black"/>
</g>
</svg>
