<svg width="1920" height="517" viewBox="0 0 1920 517" fill="none" xmlns="http://www.w3.org/2000/svg">
<mask id="mask0_979_1183" style="mask-type:alpha" maskUnits="userSpaceOnUse" x="0" y="0" width="1920" height="517">
<rect width="1920" height="517" transform="matrix(1 0 0 -1 0 517)" fill="#FFADAD"/>
</mask>
<g mask="url(#mask0_979_1183)">
<path d="M1921.5 -24.5C1921.5 -173.217 1814.01 -307.958 1639.99 -405.548C1465.99 -503.129 1225.58 -563.5 960 -563.5C694.42 -563.5 454.008 -503.129 280.008 -405.548C105.992 -307.958 -1.5 -173.217 -1.5 -24.5C-1.5 124.217 105.992 258.958 280.008 356.548C454.008 454.129 694.42 514.5 960 514.5C1225.58 514.5 1465.99 454.129 1639.99 356.548C1814.01 258.958 1921.5 124.217 1921.5 -24.5Z" stroke="black"/>
</g>
</svg>
