<svg width="1920" height="302" viewBox="0 0 1920 302" fill="none" xmlns="http://www.w3.org/2000/svg">
<mask id="mask0_979_1186" style="mask-type:alpha" maskUnits="userSpaceOnUse" x="0" y="0" width="1920" height="302">
<rect width="1920" height="302" fill="#FF6D6D"/>
</mask>
<g mask="url(#mask0_979_1186)">
<path d="M1921.5 314C1921.5 356.992 1894.72 398.033 1846.1 435.437C1797.48 472.836 1727.1 506.537 1640.08 534.849C1466.06 591.471 1225.61 626.5 960 626.5C694.389 626.5 453.943 591.471 279.918 534.849C192.902 506.537 122.521 472.836 73.9036 435.437C25.2793 398.033 -1.5 356.992 -1.5 314C-1.5 271.008 25.2793 229.967 73.9036 192.563C122.521 155.164 192.902 121.463 279.918 93.151C453.943 36.5294 694.389 1.5 960 1.5C1225.61 1.5 1466.06 36.5294 1640.08 93.151C1727.1 121.463 1797.48 155.164 1846.1 192.563C1894.72 229.967 1921.5 271.008 1921.5 314Z" stroke="black"/>
</g>
</svg>
