<svg width="1920" height="302" viewBox="0 0 1920 302" fill="none" xmlns="http://www.w3.org/2000/svg">
<mask id="mask0_979_1186" style="mask-type:alpha" maskUnits="userSpaceOnUse" x="0" y="0" width="1920" height="302">
<rect width="1920" height="302" transform="matrix(1 0 0 -1 0 302)" fill="#FF6D6D"/>
</mask>
<g mask="url(#mask0_979_1186)">
<path d="M1921.5 -12C1921.5 -54.9921 1894.72 -96.0333 1846.1 -133.437C1797.48 -170.836 1727.1 -204.537 1640.08 -232.849C1466.06 -289.471 1225.61 -324.5 960 -324.5C694.389 -324.5 453.943 -289.471 279.918 -232.849C192.902 -204.537 122.521 -170.836 73.9036 -133.437C25.2793 -96.0333 -1.5 -54.9921 -1.5 -12C-1.5 30.9921 25.2793 72.0333 73.9036 109.437C122.521 146.836 192.902 180.537 279.918 208.849C453.943 265.471 694.389 300.5 960 300.5C1225.61 300.5 1466.06 265.471 1640.08 208.849C1727.1 180.537 1797.48 146.836 1846.1 109.437C1894.72 72.0333 1921.5 30.9921 1921.5 -12Z" stroke="black"/>
</g>
</svg>
