<svg width="1920" height="339" viewBox="0 0 1920 339" fill="none" xmlns="http://www.w3.org/2000/svg">
<mask id="mask0_979_1189" style="mask-type:alpha" maskUnits="userSpaceOnUse" x="0" y="0" width="1920" height="339">
<rect width="1920" height="339" fill="#F95454"/>
</mask>
<g mask="url(#mask0_979_1189)">
<path d="M1921.5 353.5C1921.5 401.971 1894.69 448.211 1846.07 490.331C1797.46 532.45 1727.08 570.402 1640.06 602.286C1466.05 666.051 1225.61 705.5 960 705.5C694.394 705.5 453.955 666.051 279.935 602.286C192.923 570.402 122.544 532.45 73.9261 490.331C25.3072 448.211 -1.5 401.971 -1.5 353.5C-1.5 305.029 25.3072 258.789 73.9261 216.669C122.544 174.55 192.923 136.598 279.935 104.714C453.955 40.9494 694.394 1.5 960 1.5C1225.61 1.5 1466.05 40.9494 1640.06 104.714C1727.08 136.598 1797.46 174.55 1846.07 216.669C1894.69 258.789 1921.5 305.029 1921.5 353.5Z" stroke="black"/>
</g>
</svg>
