<svg width="1920" height="339" viewBox="0 0 1920 339" fill="none" xmlns="http://www.w3.org/2000/svg">
<mask id="mask0_979_1189" style="mask-type:alpha" maskUnits="userSpaceOnUse" x="0" y="0" width="1920" height="339">
<rect width="1920" height="339" transform="matrix(1 0 0 -1 0 339)" fill="#F95454"/>
</mask>
<g mask="url(#mask0_979_1189)">
<path d="M1921.5 -14.5C1921.5 -62.9711 1894.69 -109.211 1846.07 -151.331C1797.46 -193.45 1727.08 -231.402 1640.06 -263.286C1466.05 -327.051 1225.61 -366.5 960 -366.5C694.394 -366.5 453.955 -327.051 279.935 -263.286C192.923 -231.402 122.544 -193.45 73.9261 -151.331C25.3072 -109.211 -1.5 -62.9711 -1.5 -14.5C-1.5 33.9711 25.3072 80.2113 73.9261 122.331C122.544 164.45 192.923 202.402 279.935 234.286C453.955 298.051 694.394 337.5 960 337.5C1225.61 337.5 1466.05 298.051 1640.06 234.286C1727.08 202.402 1797.46 164.45 1846.07 122.331C1894.69 80.2113 1921.5 33.9711 1921.5 -14.5Z" stroke="black"/>
</g>
</svg>
