<svg width="219" height="32" viewBox="0 0 219 32" fill="none" xmlns="http://www.w3.org/2000/svg">
<g id="Layer 1">
<g id="Group">
<g id="Group_2">
<path id="Vector" d="M62.2811 1.92285C67.5547 1.92285 72.5609 4.352 74.1907 10.2286H69.8302C68.3511 7.1566 65.7712 5.90505 62.2441 5.90505C56.669 5.90505 53.3297 10.1916 53.3297 15.5022C53.3297 21.1142 56.78 25.1363 62.2441 25.1363C66.7952 25.1363 70.0947 23.3158 70.8144 18.2328H62.5456V14.4782H74.9872C75.1009 17.0211 74.9104 19.3706 74.0371 21.686C72.029 26.732 67.475 29.1583 62.2413 29.1583C54.9965 29.1583 48.8525 24.0383 48.8525 15.505C48.8525 6.97172 55.1501 1.92285 62.2811 1.92285Z" fill="#C1272D"/>
<path id="Vector_2" d="M87.0472 29.1584C82.2316 29.1584 77.4131 25.9755 77.4131 19.6011C77.4131 13.2267 82.1149 10.1946 86.8964 10.1946C91.9794 10.1946 96.7182 13.1898 96.7182 19.6011C96.7182 26.0125 91.8628 29.1584 87.0472 29.1584ZM87.124 25.5175C89.8546 25.4806 92.5853 23.5065 92.5853 19.6011C92.5853 15.6957 89.7039 13.7587 86.8964 13.8355C84.1658 13.9094 81.5091 15.7327 81.5091 19.6011C81.5091 23.4695 84.3165 25.5574 87.1211 25.5175" fill="#C1272D"/>
<path id="Vector_3" d="M115.949 21.2678L119.439 11.6337L123.271 2.26416H127.936V2.90985L116.785 29.0445H114.965L103.698 2.90985V2.26416H108.403L112.197 11.446L115.838 21.2678H115.949Z" fill="#C1272D"/>
<path id="Vector_4" d="M132.755 2.45483C134.007 2.45483 135.221 3.28825 135.221 4.88113C135.221 6.47401 134.007 7.31028 132.792 7.34441C131.54 7.38423 130.249 6.54797 130.249 4.88113C130.249 3.2143 131.501 2.45483 132.752 2.45483M134.8 28.817H130.664V10.5359H134.8V28.817Z" fill="#C1272D"/>
<path id="Vector_5" d="M143.527 1.05249V22.2179C143.527 24.758 144.095 25.8218 146.106 25.8218C146.525 25.8218 146.943 25.7848 147.472 25.708L147.623 28.8938C146.599 29.0445 145.651 29.1583 144.815 29.1583C141.134 29.1213 139.428 27.2241 139.428 22.2549V1.05249H143.524H143.527Z" fill="#C1272D"/>
<path id="Vector_6" d="M163.631 28.817V18.0821C163.671 15.2377 161.81 13.531 159.344 13.4912C156.764 13.4912 154.716 15.4652 154.716 18.4234V28.817H150.544V15.8435C150.544 13.6818 150.467 13.1897 148.609 13.3035V10.459C151.266 9.96694 154.338 9.85316 154.338 13.3404C155.362 11.0279 158.17 10.1917 160.559 10.1917C165.528 10.1917 167.804 13.568 167.804 18.0821V28.817H163.631Z" fill="#C1272D"/>
<path id="Vector_7" d="M174.44 2.45483C175.691 2.45483 176.906 3.28825 176.906 4.88113C176.906 6.47401 175.691 7.31028 174.477 7.34441C173.225 7.38423 171.937 6.54797 171.937 4.88113C171.937 3.2143 173.188 2.45483 174.44 2.45483ZM176.488 28.817H172.352V10.5359H176.488V28.817Z" fill="#C1272D"/>
<path id="Vector_8" d="M197.957 10.533V23.5832C197.957 25.7848 198.148 26.3907 199.891 26.2001L199.931 28.8938C197.579 29.309 194.242 29.804 194.242 25.8588C192.991 28.3249 190.488 29.1213 187.908 29.1213C182.862 29.1213 181.081 25.5942 181.081 21.1199V10.5358H185.254V21.1199C185.217 24.0383 186.77 25.8218 189.199 25.8218C191.816 25.8218 193.827 23.9245 193.827 21.0033V10.5358H197.96L197.957 10.533Z" fill="#C1272D"/>
<path id="Vector_9" d="M206.113 23.4297C206.226 25.3269 208.311 26.1973 210.285 26.1973C212.26 26.1973 214.532 25.6284 214.649 23.3898C214.649 21.7202 212.942 21.2281 210.553 20.9237C206.798 20.4316 202.586 20.0135 202.472 15.8805C202.472 11.9723 206.266 10.1519 210.246 10.1519C214.458 10.1519 218.136 12.0093 218.022 15.6501H214.381C214.381 13.8297 212.18 13.2608 210.246 13.2608C208.311 13.2608 206.377 14.171 206.491 15.8037C206.528 17.3198 208.007 17.6612 210.854 18.0025C214.686 18.4946 218.401 19.1403 218.401 23.4666C218.401 27.5256 214.495 29.2693 210.436 29.2693C206.377 29.2693 202.355 27.9807 202.054 23.4268H206.113V23.4297Z" fill="#C1272D"/>
</g>
<g id="Group_3">
<path id="Vector_10" d="M13.6867 5.31909L13.7009 2.84728H15.4105H17.12L17.1342 5.31909L22.5756 6.51659L23.1274 4.04194L24.5155 4.45153L26.8451 23.7567L20.209 27.7446L15.638 27.7247H15.4076H15.1772L10.6062 27.7446L3.97015 23.7567L6.30543 4.44869L7.69351 4.03909L8.24249 6.51375L13.6839 5.31624L13.6867 5.31909ZM15.4105 0H11.5306L11.4197 2.69368L9.67039 3.0919L9.09582 0.42382L3.42118 2.33812L0.400391 25.8075L9.65901 31.3513L15.1801 31.3627H15.4105H15.6409L21.1619 31.3485L30.4205 25.8047L27.3997 2.32959L21.7251 0.415287L21.1477 3.08336L19.4012 2.68514L19.2874 0H15.6409H15.4105Z" fill="url(#paint0_linear_1200_449)"/>
<g id="Clip path group">
<mask id="mask0_1200_449" style="mask-type:luminance" maskUnits="userSpaceOnUse" x="0" y="0" width="31" height="32">
<g id="clippath">
<path id="Vector_11" d="M13.6867 5.31909L13.7009 2.84728H15.4105H17.12L17.1342 5.31909L22.5756 6.51659L23.1274 4.04194L24.5155 4.45153L26.8451 23.7567L20.209 27.7446L15.638 27.7247H15.4076H15.1772L10.6062 27.7446L3.97015 23.7567L6.30543 4.44869L7.69351 4.03909L8.24249 6.51375L13.6839 5.31624L13.6867 5.31909ZM15.4105 0H11.5306L11.4197 2.69368L9.67039 3.0919L9.09582 0.42382L3.42118 2.33812L0.400391 25.8075L9.65901 31.3513L15.1801 31.3627H15.4105H15.6409L21.1619 31.3485L30.4205 25.8047L27.3997 2.32959L21.7251 0.415287L21.1477 3.08336L19.4012 2.68514L19.2874 0H15.6409H15.4105Z" fill="white"/>
</g>
</mask>
<g mask="url(#mask0_1200_449)">
<g id="Group_4">
<path id="Vector_12" d="M15.4114 -15.0096L-15.2812 15.6831L15.4114 46.3758L46.1041 15.6831L15.4114 -15.0096Z" fill="url(#paint1_linear_1200_449)"/>
</g>
</g>
</g>
</g>
</g>
</g>
<defs>
<linearGradient id="paint0_linear_1200_449" x1="28.0283" y1="28.1997" x2="2.79256" y2="2.9639" gradientUnits="userSpaceOnUse">
<stop stop-color="#A01E21"/>
<stop offset="1" stop-color="#ED1C24"/>
</linearGradient>
<linearGradient id="paint1_linear_1200_449" x1="30.7568" y1="31.0308" x2="0.0653412" y2="0.336513" gradientUnits="userSpaceOnUse">
<stop stop-color="#A01E21"/>
<stop offset="1" stop-color="#ED1C24"/>
</linearGradient>
</defs>
</svg>
