<svg width="64" height="64" viewBox="0 0 64 64" fill="none" xmlns="http://www.w3.org/2000/svg">
<path d="M32 64C14.3269 64 1.64342e-06 49.6731 2.41593e-06 32C3.18845e-06 14.3269 14.3269 -2.17128e-06 32 -1.39876e-06C49.6731 -6.26248e-07 64 14.3269 64 32C64 49.6731 49.6731 64 32 64Z" fill="#D9D9D9"/>
<path fill-rule="evenodd" clip-rule="evenodd" d="M1.17432 32C1.17431 49.0246 14.9754 62.8257 32 62.8257C49.0246 62.8257 62.8257 49.0246 62.8257 32C62.8257 14.9754 49.0246 1.17431 32 1.17431C14.9754 1.17431 1.17432 14.9754 1.17432 32ZM2.41593e-06 32C1.64342e-06 49.6731 14.3269 64 32 64C49.6731 64 64 49.6731 64 32C64 14.3269 49.6731 -6.26248e-07 32 -1.39876e-06C14.3269 -2.17128e-06 3.18845e-06 14.3269 2.41593e-06 32Z" fill="black"/>
<path fill-rule="evenodd" clip-rule="evenodd" d="M10.7432 30.0656C22.1589 30.0656 31.4132 20.8113 31.4132 9.39557L32.5875 9.39557C32.5875 21.4598 22.8074 31.2399 10.7432 31.2399L10.7432 30.0656Z" fill="black"/>
<path fill-rule="evenodd" clip-rule="evenodd" d="M10.7432 32.8816C22.1589 32.8816 31.4132 42.1359 31.4132 53.5516L32.5875 53.5516C32.5875 41.4873 22.8074 31.7073 10.7432 31.7073L10.7432 32.8816Z" fill="black"/>
<path fill-rule="evenodd" clip-rule="evenodd" d="M10.7436 30.859H53.0293V32.0333H10.7436V30.859Z" fill="black"/>
</svg>
