<svg width="64" height="64" viewBox="0 0 64 64" fill="none" xmlns="http://www.w3.org/2000/svg">
<path d="M6.61223e-06 32C8.15726e-06 14.3269 14.3269 -5.27864e-07 32 1.01717e-06C49.6731 2.5622e-06 64 14.3269 64 32C64 49.6731 49.6731 64 32 64C14.3269 64 5.06719e-06 49.6731 6.61223e-06 32Z" fill="#D9D9D9"/>
<path fill-rule="evenodd" clip-rule="evenodd" d="M32 1.17431C14.9755 1.17431 1.17432 14.9754 1.17432 32C1.17432 49.0246 14.9754 62.8257 32 62.8257C49.0246 62.8257 62.8257 49.0246 62.8257 32C62.8257 14.9754 49.0246 1.17432 32 1.17431ZM32 1.01717e-06C14.3269 -5.27864e-07 8.15726e-06 14.3269 6.61223e-06 32C5.06719e-06 49.6731 14.3269 64 32 64C49.6731 64 64 49.6731 64 32C64 14.3269 49.6731 2.5622e-06 32 1.01717e-06Z" fill="#838383"/>
<path fill-rule="evenodd" clip-rule="evenodd" d="M33.9346 10.7429C33.9346 22.1586 43.1888 31.4129 54.6046 31.4129L54.6046 32.5872C42.5403 32.5872 32.7603 22.8072 32.7603 10.7429L33.9346 10.7429Z" fill="#838383"/>
<path fill-rule="evenodd" clip-rule="evenodd" d="M31.1182 10.7429C31.1182 22.1586 21.8639 31.4129 10.4482 31.4129L10.4482 32.5872C22.5125 32.5872 32.2925 22.8072 32.2925 10.7429L31.1182 10.7429Z" fill="#838383"/>
<path fill-rule="evenodd" clip-rule="evenodd" d="M33.1411 10.7433L33.1411 53.0291L31.9668 53.0291L31.9668 10.7433L33.1411 10.7433Z" fill="#838383"/>
</svg>
