<svg width="64" height="64" viewBox="0 0 64 64" fill="none" xmlns="http://www.w3.org/2000/svg">
<path d="M32 2.41593e-06C49.6731 1.64342e-06 64 14.3269 64 32C64 49.6731 49.6731 64 32 64C14.3269 64 -6.26248e-07 49.6731 -1.39876e-06 32C-2.17128e-06 14.3269 14.3269 3.18845e-06 32 2.41593e-06Z" fill="#D9D9D9"/>
<path fill-rule="evenodd" clip-rule="evenodd" d="M62.8257 32C62.8257 14.9754 49.0246 1.17431 32 1.17432C14.9754 1.17432 1.17431 14.9754 1.17431 32C1.17431 49.0246 14.9754 62.8257 32 62.8257C49.0246 62.8257 62.8257 49.0246 62.8257 32ZM64 32C64 14.3269 49.6731 1.64342e-06 32 2.41593e-06C14.3269 3.18845e-06 -2.17128e-06 14.3269 -1.39876e-06 32C-6.26248e-07 49.6731 14.3269 64 32 64C49.6731 64 64 49.6731 64 32Z" fill="black"/>
<path fill-rule="evenodd" clip-rule="evenodd" d="M53.2568 33.9343C41.8411 33.9343 32.5868 43.1886 32.5868 54.6043L31.4125 54.6043C31.4125 42.54 41.1926 32.76 53.2568 32.76L53.2568 33.9343Z" fill="black"/>
<path fill-rule="evenodd" clip-rule="evenodd" d="M53.2568 31.1184C41.8411 31.1184 32.5868 21.8641 32.5868 10.4484L31.4125 10.4484C31.4125 22.5127 41.1926 32.2927 53.2568 32.2927L53.2568 31.1184Z" fill="black"/>
<path fill-rule="evenodd" clip-rule="evenodd" d="M53.2564 33.141L10.9707 33.141L10.9707 31.9667L53.2564 31.9667L53.2564 33.141Z" fill="black"/>
</svg>
