<svg width="69" height="69" viewBox="0 0 69 69" fill="none" xmlns="http://www.w3.org/2000/svg">
<path d="M69 34.5C69 53.5538 53.5538 69 34.5 69C15.4462 69 0 53.5538 0 34.5C0 15.4462 15.4462 0 34.5 0C53.5538 0 69 15.4462 69 34.5Z" fill="#D9D9D9"/>
<path fill-rule="evenodd" clip-rule="evenodd" d="M34.5 67.7339C52.8546 67.7339 67.7339 52.8546 67.7339 34.5C67.7339 16.1454 52.8546 1.26605 34.5 1.26605C16.1454 1.26605 1.26605 16.1454 1.26605 34.5C1.26605 52.8546 16.1454 67.7339 34.5 67.7339ZM34.5 69C53.5538 69 69 53.5538 69 34.5C69 15.4462 53.5538 0 34.5 0C15.4462 0 0 15.4462 0 34.5C0 53.5538 15.4462 69 34.5 69Z" fill="black"/>
<path fill-rule="evenodd" clip-rule="evenodd" d="M32.4141 57.4185C32.4141 45.1109 22.4369 35.1336 10.1293 35.1336V33.8676C23.1361 33.8676 33.6802 44.4117 33.6802 57.4185H32.4141Z" fill="black"/>
<path fill-rule="evenodd" clip-rule="evenodd" d="M35.4506 57.418C35.4506 45.1104 45.4279 35.1331 57.7355 35.1331V33.8671C44.7287 33.8671 34.1846 44.4112 34.1846 57.418H35.4506Z" fill="black"/>
<path fill-rule="evenodd" clip-rule="evenodd" d="M33.2691 57.4179L33.2691 11.8286L34.5352 11.8286L34.5352 57.4179L33.2691 57.4179Z" fill="black"/>
</svg>
