<svg width="280" height="25" viewBox="0 0 280 25" fill="none" xmlns="http://www.w3.org/2000/svg">
<rect y="0.142365" width="87" height="24" fill="#049ADB"/>
<path d="M26.452 16.2964C25.7707 16.2964 25.1453 16.1517 24.576 15.8624C24.0067 15.573 23.554 15.1577 23.218 14.6164C22.882 14.075 22.714 13.4264 22.714 12.6704C22.714 11.905 22.882 11.2517 23.218 10.7104C23.554 10.1597 24.0067 9.7397 24.576 9.45036C25.1453 9.16103 25.7707 9.01636 26.452 9.01636C27.1333 9.01636 27.754 9.16103 28.314 9.45036C28.874 9.7397 29.322 10.1597 29.658 10.7104C29.994 11.2517 30.162 11.905 30.162 12.6704C30.162 13.4264 29.994 14.075 29.658 14.6164C29.322 15.1577 28.874 15.573 28.314 15.8624C27.754 16.1517 27.1333 16.2964 26.452 16.2964ZM26.452 15.1204C26.8627 15.1204 27.2453 15.027 27.6 14.8404C27.964 14.6444 28.258 14.3644 28.482 14.0004C28.706 13.627 28.818 13.1837 28.818 12.6704C28.818 12.1477 28.706 11.7044 28.482 11.3404C28.258 10.967 27.964 10.6824 27.6 10.4864C27.2453 10.281 26.8627 10.1784 26.452 10.1784C26.0413 10.1784 25.6493 10.2764 25.276 10.4724C24.912 10.6684 24.618 10.953 24.394 11.3264C24.17 11.6904 24.058 12.1384 24.058 12.6704C24.058 13.1837 24.17 13.627 24.394 14.0004C24.618 14.3644 24.912 14.6444 25.276 14.8404C25.64 15.027 26.032 15.1204 26.452 15.1204ZM33.7812 9.19836H38.3592V10.3464H33.7812V9.19836ZM37.6032 6.35636H38.4992V7.58836H37.7432C37.5006 7.57903 37.2812 7.6117 37.0852 7.68636C36.8892 7.7517 36.7352 7.87303 36.6232 8.05036C36.5206 8.2277 36.4692 8.48436 36.4692 8.82036V16.1424H35.1392V8.75036C35.1392 8.19036 35.2372 7.73303 35.4332 7.37836C35.6386 7.0237 35.9279 6.76703 36.3012 6.60836C36.6746 6.44036 37.1086 6.35636 37.6032 6.35636ZM39.4086 6.35636H40.7526V16.1424H39.4086V6.35636ZM45.7669 16.2964C45.0855 16.2964 44.4602 16.1517 43.8909 15.8624C43.3215 15.573 42.8689 15.1577 42.5329 14.6164C42.1969 14.075 42.0289 13.4264 42.0289 12.6704C42.0289 11.905 42.1969 11.2517 42.5329 10.7104C42.8689 10.1597 43.3215 9.7397 43.8909 9.45036C44.4602 9.16103 45.0855 9.01636 45.7669 9.01636C46.4482 9.01636 47.0689 9.16103 47.6289 9.45036C48.1889 9.7397 48.6369 10.1597 48.9729 10.7104C49.3089 11.2517 49.4769 11.905 49.4769 12.6704C49.4769 13.4264 49.3089 14.075 48.9729 14.6164C48.6369 15.1577 48.1889 15.573 47.6289 15.8624C47.0689 16.1517 46.4482 16.2964 45.7669 16.2964ZM45.7669 15.1344C46.1869 15.1344 46.5742 15.041 46.9289 14.8544C47.2929 14.6584 47.5822 14.3784 47.7969 14.0144C48.0209 13.641 48.1329 13.193 48.1329 12.6704C48.1329 12.1384 48.0209 11.6857 47.7969 11.3124C47.5822 10.939 47.2929 10.6544 46.9289 10.4584C46.5742 10.2624 46.1869 10.1644 45.7669 10.1644C45.3469 10.1644 44.9549 10.2624 44.5909 10.4584C44.2269 10.645 43.9329 10.925 43.7089 11.2984C43.4849 11.6717 43.3729 12.129 43.3729 12.6704C43.3729 13.193 43.4802 13.641 43.6949 14.0144C43.9189 14.3784 44.2129 14.6584 44.5769 14.8544C44.9409 15.041 45.3375 15.1344 45.7669 15.1344ZM53.9771 16.2964C53.2958 16.2964 52.6704 16.1517 52.1011 15.8624C51.5318 15.573 51.0791 15.1577 50.7431 14.6164C50.4071 14.075 50.2391 13.4264 50.2391 12.6704C50.2391 11.905 50.4071 11.2517 50.7431 10.7104C51.0791 10.1597 51.5318 9.7397 52.1011 9.45036C52.6704 9.16103 53.2958 9.01636 53.9771 9.01636C54.6584 9.01636 55.2791 9.16103 55.8391 9.45036C56.3991 9.7397 56.8471 10.1597 57.1831 10.7104C57.5191 11.2517 57.6871 11.905 57.6871 12.6704C57.6871 13.4264 57.5191 14.075 57.1831 14.6164C56.8471 15.1577 56.3991 15.573 55.8391 15.8624C55.2791 16.1517 54.6584 16.2964 53.9771 16.2964ZM53.9771 15.1344C54.3971 15.1344 54.7844 15.041 55.1391 14.8544C55.5031 14.6584 55.7924 14.3784 56.0071 14.0144C56.2311 13.641 56.3431 13.193 56.3431 12.6704C56.3431 12.1384 56.2311 11.6857 56.0071 11.3124C55.7924 10.939 55.5031 10.6544 55.1391 10.4584C54.7844 10.2624 54.3971 10.1644 53.9771 10.1644C53.5571 10.1644 53.1651 10.2624 52.8011 10.4584C52.4371 10.645 52.1431 10.925 51.9191 11.2984C51.6951 11.6717 51.5831 12.129 51.5831 12.6704C51.5831 13.193 51.6904 13.641 51.9051 14.0144C52.1291 14.3784 52.4231 14.6584 52.7871 14.8544C53.1511 15.041 53.5478 15.1344 53.9771 15.1344ZM58.8133 9.15636H60.1573V16.1424H58.8133V9.15636ZM62.5233 10.3464C62.038 10.3464 61.6227 10.4584 61.2773 10.6824C60.9413 10.9064 60.6707 11.1817 60.4653 11.5084C60.2693 11.835 60.1387 12.1477 60.0733 12.4464L60.0593 11.6484C60.0687 11.555 60.092 11.4104 60.1293 11.2144C60.176 11.009 60.2553 10.7804 60.3673 10.5284C60.4793 10.2764 60.6287 10.0384 60.8153 9.81436C61.002 9.58103 61.2353 9.3897 61.5153 9.24036C61.7953 9.09103 62.1313 9.01636 62.5233 9.01636V10.3464Z" fill="black"/>
<rect x="97" y="0.142365" width="86" height="24" fill="#FF74BD"/>
<path d="M118.35 10.3604V9.15636H121.43V16.1424H120.086V10.3604H118.35ZM122.929 14.5224H123.809C123.842 14.789 123.962 15.009 124.169 15.1824C124.375 15.349 124.665 15.4324 125.039 15.4324C125.279 15.4324 125.465 15.4057 125.599 15.3524C125.732 15.2924 125.825 15.2124 125.879 15.1124C125.939 15.0124 125.969 14.9024 125.969 14.7824C125.969 14.629 125.929 14.5124 125.849 14.4324C125.769 14.3457 125.655 14.2757 125.509 14.2224C125.362 14.1624 125.189 14.1057 124.989 14.0524C124.769 13.9924 124.549 13.9224 124.329 13.8424C124.109 13.7624 123.905 13.6657 123.719 13.5524C123.539 13.439 123.392 13.299 123.279 13.1324C123.172 12.959 123.119 12.749 123.119 12.5024C123.119 12.2957 123.162 12.1024 123.249 11.9224C123.342 11.7424 123.472 11.589 123.639 11.4624C123.812 11.329 124.012 11.229 124.239 11.1624C124.465 11.089 124.715 11.0524 124.989 11.0524C125.369 11.0524 125.689 11.1224 125.949 11.2624C126.209 11.3957 126.405 11.5857 126.539 11.8324C126.679 12.079 126.752 12.3624 126.759 12.6824H125.919C125.872 12.4024 125.775 12.199 125.629 12.0724C125.482 11.939 125.262 11.8724 124.969 11.8724C124.682 11.8724 124.462 11.929 124.309 12.0424C124.155 12.1557 124.079 12.309 124.079 12.5024C124.079 12.649 124.132 12.769 124.239 12.8624C124.345 12.949 124.489 13.0257 124.669 13.0924C124.849 13.159 125.052 13.229 125.279 13.3024C125.492 13.3757 125.695 13.4524 125.889 13.5324C126.089 13.6057 126.265 13.6957 126.419 13.8024C126.579 13.9024 126.702 14.0357 126.789 14.2024C126.882 14.3624 126.929 14.5624 126.929 14.8024C126.929 15.0957 126.855 15.3524 126.709 15.5724C126.562 15.7857 126.349 15.9524 126.069 16.0724C125.795 16.1924 125.462 16.2524 125.069 16.2524C124.709 16.2524 124.402 16.209 124.149 16.1224C123.902 16.0357 123.692 15.9224 123.519 15.7824C123.352 15.6424 123.222 15.4957 123.129 15.3424C123.042 15.1824 122.982 15.029 122.949 14.8824C122.922 14.7357 122.915 14.6157 122.929 14.5224ZM127.384 11.1524H130.614V11.9824H127.384V11.1524ZM128.524 9.83236H129.474V16.1424H128.524V9.83236ZM133.881 9.19836H138.459V10.3464H133.881V9.19836ZM137.703 6.35636H138.599V7.58836H137.843C137.601 7.57903 137.381 7.6117 137.185 7.68636C136.989 7.7517 136.835 7.87303 136.723 8.05036C136.621 8.2277 136.569 8.48436 136.569 8.82036V16.1424H135.239V8.75036C135.239 8.19036 135.337 7.73303 135.533 7.37836C135.739 7.0237 136.028 6.76703 136.401 6.60836C136.775 6.44036 137.209 6.35636 137.703 6.35636ZM139.509 6.35636H140.853V16.1424H139.509V6.35636ZM145.867 16.2964C145.186 16.2964 144.56 16.1517 143.991 15.8624C143.422 15.573 142.969 15.1577 142.633 14.6164C142.297 14.075 142.129 13.4264 142.129 12.6704C142.129 11.905 142.297 11.2517 142.633 10.7104C142.969 10.1597 143.422 9.7397 143.991 9.45036C144.56 9.16103 145.186 9.01636 145.867 9.01636C146.548 9.01636 147.169 9.16103 147.729 9.45036C148.289 9.7397 148.737 10.1597 149.073 10.7104C149.409 11.2517 149.577 11.905 149.577 12.6704C149.577 13.4264 149.409 14.075 149.073 14.6164C148.737 15.1577 148.289 15.573 147.729 15.8624C147.169 16.1517 146.548 16.2964 145.867 16.2964ZM145.867 15.1344C146.287 15.1344 146.674 15.041 147.029 14.8544C147.393 14.6584 147.682 14.3784 147.897 14.0144C148.121 13.641 148.233 13.193 148.233 12.6704C148.233 12.1384 148.121 11.6857 147.897 11.3124C147.682 10.939 147.393 10.6544 147.029 10.4584C146.674 10.2624 146.287 10.1644 145.867 10.1644C145.447 10.1644 145.055 10.2624 144.691 10.4584C144.327 10.645 144.033 10.925 143.809 11.2984C143.585 11.6717 143.473 12.129 143.473 12.6704C143.473 13.193 143.58 13.641 143.795 14.0144C144.019 14.3784 144.313 14.6584 144.677 14.8544C145.041 15.041 145.438 15.1344 145.867 15.1344ZM154.077 16.2964C153.396 16.2964 152.77 16.1517 152.201 15.8624C151.632 15.573 151.179 15.1577 150.843 14.6164C150.507 14.075 150.339 13.4264 150.339 12.6704C150.339 11.905 150.507 11.2517 150.843 10.7104C151.179 10.1597 151.632 9.7397 152.201 9.45036C152.77 9.16103 153.396 9.01636 154.077 9.01636C154.758 9.01636 155.379 9.16103 155.939 9.45036C156.499 9.7397 156.947 10.1597 157.283 10.7104C157.619 11.2517 157.787 11.905 157.787 12.6704C157.787 13.4264 157.619 14.075 157.283 14.6164C156.947 15.1577 156.499 15.573 155.939 15.8624C155.379 16.1517 154.758 16.2964 154.077 16.2964ZM154.077 15.1344C154.497 15.1344 154.884 15.041 155.239 14.8544C155.603 14.6584 155.892 14.3784 156.107 14.0144C156.331 13.641 156.443 13.193 156.443 12.6704C156.443 12.1384 156.331 11.6857 156.107 11.3124C155.892 10.939 155.603 10.6544 155.239 10.4584C154.884 10.2624 154.497 10.1644 154.077 10.1644C153.657 10.1644 153.265 10.2624 152.901 10.4584C152.537 10.645 152.243 10.925 152.019 11.2984C151.795 11.6717 151.683 12.129 151.683 12.6704C151.683 13.193 151.79 13.641 152.005 14.0144C152.229 14.3784 152.523 14.6584 152.887 14.8544C153.251 15.041 153.648 15.1344 154.077 15.1344ZM158.913 9.15636H160.257V16.1424H158.913V9.15636ZM162.623 10.3464C162.138 10.3464 161.723 10.4584 161.377 10.6824C161.041 10.9064 160.771 11.1817 160.565 11.5084C160.369 11.835 160.239 12.1477 160.173 12.4464L160.159 11.6484C160.169 11.555 160.192 11.4104 160.229 11.2144C160.276 11.009 160.355 10.7804 160.467 10.5284C160.579 10.2764 160.729 10.0384 160.915 9.81436C161.102 9.58103 161.335 9.3897 161.615 9.24036C161.895 9.09103 162.231 9.01636 162.623 9.01636V10.3464Z" fill="black"/>
<rect x="193" y="0.142365" width="87" height="24" fill="#2BBA7E"/>
<path d="M215.158 14.0284L213.156 15.3024L213.072 14.9804H217.524V16.1424H211.644V14.9804C212.325 14.551 212.932 14.187 213.464 13.8884C213.996 13.5804 214.444 13.305 214.808 13.0624C215.181 12.8197 215.466 12.5724 215.662 12.3204C215.858 12.0684 215.956 11.779 215.956 11.4524C215.956 11.2097 215.9 10.995 215.788 10.8084C215.676 10.6124 215.503 10.463 215.27 10.3604C215.037 10.2484 214.738 10.1924 214.374 10.1924C213.907 10.1924 213.515 10.3184 213.198 10.5704C212.881 10.813 212.717 11.1397 212.708 11.5504H211.49C211.453 11.065 211.555 10.631 211.798 10.2484C212.041 9.8657 212.386 9.56236 212.834 9.33836C213.282 9.11436 213.791 9.00236 214.36 9.00236C214.817 9.00236 215.228 9.06303 215.592 9.18436C215.956 9.3057 216.264 9.4737 216.516 9.68836C216.777 9.8937 216.973 10.141 217.104 10.4304C217.244 10.7104 217.314 11.0137 217.314 11.3404C217.314 11.6204 217.267 11.877 217.174 12.1104C217.081 12.3437 216.941 12.5677 216.754 12.7824C216.577 12.9877 216.353 13.193 216.082 13.3984C215.821 13.6037 215.513 13.8137 215.158 14.0284ZM218.432 11.1524H219.392V16.1424H218.432V11.1524ZM221.292 11.0524C221.572 11.0524 221.825 11.0924 222.052 11.1724C222.279 11.2524 222.472 11.3724 222.632 11.5324C222.792 11.6857 222.915 11.879 223.002 12.1124C223.095 12.339 223.142 12.599 223.142 12.8924V16.1424H222.192V13.1024C222.192 12.709 222.095 12.4157 221.902 12.2224C221.715 12.0224 221.429 11.9224 221.042 11.9224C220.742 11.9224 220.469 11.9924 220.222 12.1324C219.975 12.2724 219.772 12.459 219.612 12.6924C219.459 12.919 219.365 13.1757 219.332 13.4624L219.322 12.9124C219.355 12.6457 219.425 12.399 219.532 12.1724C219.645 11.9457 219.785 11.749 219.952 11.5824C220.125 11.409 220.325 11.279 220.552 11.1924C220.779 11.099 221.025 11.0524 221.292 11.0524ZM226.259 16.2424C225.825 16.2424 225.432 16.1324 225.079 15.9124C224.725 15.6924 224.445 15.389 224.239 15.0024C224.039 14.609 223.939 14.159 223.939 13.6524C223.939 13.1457 224.039 12.699 224.239 12.3124C224.439 11.919 224.712 11.6124 225.059 11.3924C225.405 11.1657 225.805 11.0524 226.259 11.0524C226.652 11.0524 226.979 11.119 227.239 11.2524C227.499 11.3857 227.702 11.5724 227.849 11.8124C227.995 12.0524 228.099 12.329 228.159 12.6424C228.225 12.9557 228.259 13.2924 228.259 13.6524C228.259 13.919 228.225 14.2024 228.159 14.5024C228.092 14.8024 227.985 15.0857 227.839 15.3524C227.692 15.619 227.489 15.8357 227.229 16.0024C226.969 16.1624 226.645 16.2424 226.259 16.2424ZM226.529 15.4124C226.882 15.4124 227.179 15.3357 227.419 15.1824C227.665 15.0224 227.849 14.809 227.969 14.5424C228.089 14.2757 228.149 13.979 228.149 13.6524C228.149 13.299 228.085 12.989 227.959 12.7224C227.839 12.4557 227.655 12.249 227.409 12.1024C227.169 11.9557 226.875 11.8824 226.529 11.8824C226.009 11.8824 225.605 12.049 225.319 12.3824C225.039 12.7157 224.899 13.139 224.899 13.6524C224.899 13.999 224.969 14.3057 225.109 14.5724C225.249 14.8324 225.439 15.039 225.679 15.1924C225.925 15.339 226.209 15.4124 226.529 15.4124ZM228.149 9.15236H229.109V16.1424H228.229C228.209 15.9957 228.189 15.8157 228.169 15.6024C228.155 15.389 228.149 15.2057 228.149 15.0524V9.15236ZM232.895 9.19836H237.473V10.3464H232.895V9.19836ZM236.717 6.35636H237.613V7.58836H236.857C236.614 7.57903 236.395 7.6117 236.199 7.68636C236.003 7.7517 235.849 7.87303 235.737 8.05036C235.634 8.2277 235.583 8.48436 235.583 8.82036V16.1424H234.253V8.75036C234.253 8.19036 234.351 7.73303 234.547 7.37836C234.752 7.0237 235.042 6.76703 235.415 6.60836C235.788 6.44036 236.222 6.35636 236.717 6.35636ZM238.522 6.35636H239.866V16.1424H238.522V6.35636ZM244.881 16.2964C244.199 16.2964 243.574 16.1517 243.005 15.8624C242.435 15.573 241.983 15.1577 241.647 14.6164C241.311 14.075 241.143 13.4264 241.143 12.6704C241.143 11.905 241.311 11.2517 241.647 10.7104C241.983 10.1597 242.435 9.7397 243.005 9.45036C243.574 9.16103 244.199 9.01636 244.881 9.01636C245.562 9.01636 246.183 9.16103 246.743 9.45036C247.303 9.7397 247.751 10.1597 248.087 10.7104C248.423 11.2517 248.591 11.905 248.591 12.6704C248.591 13.4264 248.423 14.075 248.087 14.6164C247.751 15.1577 247.303 15.573 246.743 15.8624C246.183 16.1517 245.562 16.2964 244.881 16.2964ZM244.881 15.1344C245.301 15.1344 245.688 15.041 246.043 14.8544C246.407 14.6584 246.696 14.3784 246.911 14.0144C247.135 13.641 247.247 13.193 247.247 12.6704C247.247 12.1384 247.135 11.6857 246.911 11.3124C246.696 10.939 246.407 10.6544 246.043 10.4584C245.688 10.2624 245.301 10.1644 244.881 10.1644C244.461 10.1644 244.069 10.2624 243.705 10.4584C243.341 10.645 243.047 10.925 242.823 11.2984C242.599 11.6717 242.487 12.129 242.487 12.6704C242.487 13.193 242.594 13.641 242.809 14.0144C243.033 14.3784 243.327 14.6584 243.691 14.8544C244.055 15.041 244.451 15.1344 244.881 15.1344ZM253.091 16.2964C252.409 16.2964 251.784 16.1517 251.215 15.8624C250.645 15.573 250.193 15.1577 249.857 14.6164C249.521 14.075 249.353 13.4264 249.353 12.6704C249.353 11.905 249.521 11.2517 249.857 10.7104C250.193 10.1597 250.645 9.7397 251.215 9.45036C251.784 9.16103 252.409 9.01636 253.091 9.01636C253.772 9.01636 254.393 9.16103 254.953 9.45036C255.513 9.7397 255.961 10.1597 256.297 10.7104C256.633 11.2517 256.801 11.905 256.801 12.6704C256.801 13.4264 256.633 14.075 256.297 14.6164C255.961 15.1577 255.513 15.573 254.953 15.8624C254.393 16.1517 253.772 16.2964 253.091 16.2964ZM253.091 15.1344C253.511 15.1344 253.898 15.041 254.253 14.8544C254.617 14.6584 254.906 14.3784 255.121 14.0144C255.345 13.641 255.457 13.193 255.457 12.6704C255.457 12.1384 255.345 11.6857 255.121 11.3124C254.906 10.939 254.617 10.6544 254.253 10.4584C253.898 10.2624 253.511 10.1644 253.091 10.1644C252.671 10.1644 252.279 10.2624 251.915 10.4584C251.551 10.645 251.257 10.925 251.033 11.2984C250.809 11.6717 250.697 12.129 250.697 12.6704C250.697 13.193 250.804 13.641 251.019 14.0144C251.243 14.3784 251.537 14.6584 251.901 14.8544C252.265 15.041 252.661 15.1344 253.091 15.1344ZM257.927 9.15636H259.271V16.1424H257.927V9.15636ZM261.637 10.3464C261.152 10.3464 260.736 10.4584 260.391 10.6824C260.055 10.9064 259.784 11.1817 259.579 11.5084C259.383 11.835 259.252 12.1477 259.187 12.4464L259.173 11.6484C259.182 11.555 259.206 11.4104 259.243 11.2144C259.29 11.009 259.369 10.7804 259.481 10.5284C259.593 10.2764 259.742 10.0384 259.929 9.81436C260.116 9.58103 260.349 9.3897 260.629 9.24036C260.909 9.09103 261.245 9.01636 261.637 9.01636V10.3464Z" fill="black"/>
</svg>
