<svg width="240" height="45" viewBox="0 0 240 45" fill="none" xmlns="http://www.w3.org/2000/svg">
<g id="horizontal-blue 1" clip-path="url(#clip0_1403_1141)">
<g id="Layer 2">
<g id="Layer 1">
<path id="Vector" d="M233.126 9.07639C229.407 9.07639 226.744 12.3624 224.006 16.0166C222.31 8.25829 220.417 0.5 214.403 0.5C208.389 0.5 206.496 8.25829 204.82 16.0166C202.096 12.3624 199.42 9.07639 195.701 9.07639C193.338 9.07639 189.333 10.6921 189.333 16.7256V27.7086C189.333 33.6329 192.493 35.0851 194.387 35.5759C197.656 36.4281 205.529 37.2121 214.389 37.2121C223.25 37.2121 231.123 36.4281 234.386 35.5759C236.286 35.0851 239.446 33.6329 239.446 27.7086V16.7256C239.446 10.6921 235.441 9.07639 233.071 9.07639M214.403 3.90874C218.006 3.90874 219.375 11.0262 221.295 19.5889C219.191 22.1728 216.964 24.2657 214.403 24.2657C211.842 24.2657 209.588 22.1659 207.545 19.5889C209.336 11.5989 210.712 3.90874 214.437 3.90874M192.752 27.7086V16.7256C192.752 12.9146 194.795 12.4988 195.701 12.4988C198.323 12.4988 201.15 16.8824 203.833 20.4002C201.905 28.3835 199.896 33.2239 195.149 32.2422C193.91 31.9013 192.752 31.1173 192.752 27.7086ZM202.096 33.258C204.139 30.9741 205.502 27.4086 206.523 23.6317C208.723 25.936 211.257 27.6745 214.403 27.6745C217.55 27.6745 220.076 25.936 222.276 23.6317C223.298 27.4086 224.64 30.9741 226.737 33.258C223.066 33.5989 218.646 33.7966 214.403 33.7966C210.16 33.7966 205.733 33.5989 202.062 33.258M236.054 27.7086C236.054 31.1173 234.89 31.9013 233.657 32.2422C228.889 33.2512 226.894 28.3835 224.994 20.4002C227.684 16.8824 230.503 12.4988 233.126 12.4988C234.011 12.4988 236.081 12.9146 236.081 16.7256L236.054 27.7086Z" fill="#203053"/>
<path id="Vector_2" d="M1.26985 35.9986C1.16934 35.9973 1.07006 35.9762 0.97772 35.9364C0.885384 35.8966 0.801813 35.839 0.731812 35.7668C0.655961 35.6909 0.596316 35.6005 0.556506 35.5009C0.516697 35.4012 0.497556 35.2945 0.500249 35.1873C0.504228 35.0656 0.529588 34.9456 0.575167 34.8328L10.0352 9.86717C10.1045 9.60268 10.2516 9.36515 10.4574 9.18542C10.6971 8.99111 11.0009 8.8938 11.3088 8.91272H14.7141C15.022 8.8938 15.3257 8.99111 15.5654 9.18542C15.7745 9.37017 15.9338 9.60462 16.0286 9.86717L25.4409 34.8328C25.4668 34.9492 25.4805 35.068 25.4818 35.1873C25.4845 35.2945 25.4653 35.4012 25.4255 35.5009C25.3857 35.6005 25.3261 35.6909 25.2502 35.7668C25.1802 35.839 25.0966 35.8966 25.0043 35.9364C24.912 35.9762 24.8127 35.9973 24.7122 35.9986H22.0424C21.9101 36.0096 21.7769 35.9929 21.6514 35.9495C21.5259 35.906 21.4109 35.8368 21.3137 35.7463C21.1822 35.6068 21.0762 35.4452 21.0004 35.2691L19.0321 30.1696H6.94995L5.01572 35.2691C4.9388 35.44 4.82752 35.5931 4.68881 35.719C4.58693 35.8088 4.46821 35.8773 4.33958 35.9206C4.21095 35.9639 4.07499 35.9812 3.93964 35.9713L1.26985 35.9986ZM8.18268 26.3314H17.7993L12.9706 13.5009L8.18268 26.3314Z" fill="#203053"/>
<path id="Vector_3" d="M29.4597 43.341C29.3415 43.3459 29.2236 43.3261 29.1136 43.2828C29.0035 43.2396 28.9036 43.1739 28.8203 43.0898C28.737 43.0058 28.6721 42.9053 28.6298 42.7948C28.5874 42.6843 28.5685 42.5662 28.5743 42.4479V16.787C28.5684 16.669 28.5873 16.5512 28.6297 16.441C28.6722 16.3308 28.7372 16.2307 28.8206 16.1472C28.904 16.0637 29.004 15.9987 29.114 15.9562C29.2241 15.9137 29.3419 15.8948 29.4597 15.9007H31.8911C32.0092 15.8949 32.1272 15.9138 32.2376 15.9562C32.348 15.9986 32.4484 16.0636 32.5323 16.147C32.6163 16.2303 32.6819 16.3303 32.7251 16.4405C32.7683 16.5507 32.7881 16.6687 32.7833 16.787V18.4095C33.457 17.5665 34.2961 16.8704 35.2487 16.3643C36.4168 15.7577 37.7202 15.4597 39.0355 15.4985C40.2805 15.4608 41.5189 15.6934 42.6656 16.1802C43.6389 16.6204 44.4969 17.2809 45.1719 18.1095C45.8627 18.9701 46.3807 19.9563 46.6975 21.0138C47.055 22.1656 47.2565 23.3602 47.2968 24.5657C47.2968 25.002 47.3377 25.4588 47.3377 25.9292C47.3377 26.3996 47.3377 26.8427 47.2968 27.2927C47.2816 28.4862 47.0935 29.6711 46.7383 30.8105C46.4097 31.8548 45.8926 32.8299 45.2127 33.6875C44.5351 34.5321 43.6699 35.2067 42.686 35.6577C41.5363 36.1615 40.29 36.4059 39.0355 36.3736C37.7724 36.4123 36.519 36.1408 35.385 35.5827C34.4396 35.0885 33.616 34.3899 32.974 33.5375V42.4002C32.978 42.5186 32.9577 42.6366 32.9144 42.7468C32.871 42.857 32.8055 42.9572 32.722 43.0411C32.6308 43.1262 32.5237 43.1924 32.4068 43.2357C32.2898 43.279 32.1655 43.2986 32.0409 43.2933L29.4597 43.341ZM37.9594 32.7467C38.9678 32.8085 39.9678 32.5301 40.7994 31.9558C41.4814 31.432 41.9971 30.7216 42.2842 29.9106C42.6029 29.0016 42.7864 28.0506 42.829 27.0882C42.8767 26.3413 42.8767 25.5921 42.829 24.8452C42.7864 23.8828 42.6029 22.9318 42.2842 22.0228C41.9954 21.2126 41.48 20.5027 40.7994 19.9775C39.9716 19.3917 38.9721 19.099 37.9594 19.1458C37.0106 19.0809 36.0665 19.3264 35.2693 19.8453C34.472 20.3642 33.8649 21.1284 33.5393 22.0228C33.2206 22.8452 33.0322 23.7124 32.9808 24.593C32.9535 25.0475 32.9399 25.5383 32.9399 26.0655C32.9399 26.6041 32.9399 27.1086 32.9808 27.5722C33.0076 28.4208 33.2045 29.2555 33.5597 30.0265C33.9186 30.8082 34.4779 31.4809 35.1806 31.9763C36.002 32.5212 36.975 32.791 37.9594 32.7467Z" fill="#203053"/>
<path id="Vector_4" d="M52.0638 43.341C51.9462 43.3439 51.8292 43.3227 51.7201 43.2787C51.6109 43.2347 51.5119 43.1689 51.429 43.0853C51.3461 43.0017 51.2812 42.9021 51.2381 42.7925C51.195 42.6829 51.1747 42.5657 51.1784 42.4479V16.787C51.1736 16.6693 51.1933 16.5519 51.236 16.4422C51.2788 16.3325 51.3439 16.2329 51.4271 16.1496C51.5103 16.0663 51.6098 16.0012 51.7194 15.9583C51.829 15.9155 51.9463 15.8959 52.0638 15.9007H54.502C54.6186 15.8975 54.7346 15.9175 54.8434 15.9597C54.9521 16.0018 55.0514 16.0652 55.1354 16.1461C55.219 16.23 55.2845 16.3301 55.3278 16.4404C55.3712 16.5506 55.3915 16.6686 55.3874 16.787V18.4095C56.0622 17.5648 56.9038 16.8685 57.8597 16.3643C59.0251 15.7572 60.3265 15.4591 61.6396 15.4985C62.8847 15.4601 64.1232 15.6927 65.2697 16.1802C66.2452 16.6202 67.1054 17.2806 67.7829 18.1095C68.4669 18.9816 68.9778 19.9767 69.288 21.0411C69.6422 22.1937 69.8437 23.3878 69.8873 24.593C69.8873 25.0293 69.8873 25.4861 69.8873 25.9565C69.8873 26.4269 69.8873 26.87 69.8873 27.32C69.8699 28.5138 69.6795 29.6987 69.3221 30.8378C68.9963 31.8832 68.479 32.8589 67.7965 33.7148C67.1189 34.5594 66.2537 35.234 65.2697 35.685C64.1203 36.1894 62.8738 36.4338 61.6192 36.4008C60.3583 36.4399 59.107 36.1683 57.9755 35.61C57.0269 35.1178 56.2007 34.4189 55.5577 33.5648V42.4275C55.5617 42.5459 55.5414 42.6638 55.4981 42.7741C55.4548 42.8843 55.3893 42.9845 55.3057 43.0683C55.2155 43.1548 55.1085 43.2218 54.9913 43.2652C54.8742 43.3086 54.7494 43.3274 54.6246 43.3206L52.0638 43.341ZM60.5635 32.7467C61.5011 32.8314 62.4396 32.5949 63.2253 32.076C64.011 31.557 64.5974 30.7863 64.8883 29.8902C65.2027 28.9873 65.384 28.0434 65.4264 27.0882C65.474 26.3413 65.474 25.5921 65.4264 24.8452C65.386 23.8831 65.2047 22.9322 64.8883 22.0228C64.5974 21.1266 64.011 20.3559 63.2253 19.837C62.4396 19.318 61.5011 19.0815 60.5635 19.1663C59.6137 19.0998 58.668 19.3446 57.8694 19.8636C57.0707 20.3826 56.4625 21.1477 56.1366 22.0432C55.8212 22.8666 55.6329 23.7333 55.5781 24.6134C55.5781 25.0497 55.5441 25.5406 55.5441 26.086C55.5441 26.6314 55.5441 27.1291 55.5781 27.5927C55.605 28.4413 55.8018 29.2759 56.157 30.047C56.516 30.8287 57.0752 31.5014 57.778 31.9967C58.6039 32.5354 59.5791 32.798 60.5635 32.7467Z" fill="#203053"/>
<path id="Vector_5" d="M83.7063 36.3804C81.7118 36.44 79.7267 36.0849 77.8763 35.3373C76.4622 34.7583 75.2246 33.818 74.2871 32.6103C73.4978 31.5776 73.0395 30.3297 72.9727 29.0311C72.9731 28.9304 72.9939 28.8308 73.0337 28.7382C73.0735 28.6457 73.1315 28.5622 73.2042 28.4925C73.2797 28.4163 73.3701 28.3564 73.4696 28.3165C73.5692 28.2766 73.6759 28.2577 73.7831 28.2608H76.5074C76.7526 28.2451 76.995 28.3204 77.1885 28.4721C77.3469 28.621 77.4783 28.7963 77.5767 28.9902C77.763 29.5945 78.0792 30.1506 78.5029 30.6196C79.0397 31.217 79.706 31.6834 80.4508 31.9831C81.4777 32.3767 82.5732 32.5598 83.6722 32.5217C85.7063 32.5217 87.2069 32.174 88.1741 31.4786C88.6353 31.1624 89.0094 30.7349 89.2618 30.2356C89.5142 29.7363 89.6367 29.1813 89.6179 28.6221C89.6322 28.2604 89.5711 27.8996 89.4386 27.5628C89.3061 27.226 89.1051 26.9204 88.8483 26.6655C88.1445 26.0604 87.3305 25.5974 86.451 25.302C85.3749 24.8929 83.9719 24.4498 82.2488 23.9862C80.6046 23.5709 79.0071 22.9884 77.4813 22.2477C76.3269 21.7109 75.3404 20.8695 74.6276 19.8139C73.9578 18.6964 73.6288 17.4073 73.681 16.1052C73.662 14.7253 74.0739 13.3739 74.8592 12.2397C75.7105 11.0524 76.8723 10.123 78.2169 9.55359C79.8711 8.85818 81.6538 8.52128 83.4475 8.56506C84.9173 8.54478 86.3798 8.77533 87.7722 9.24681C88.9097 9.62531 89.9656 10.2151 90.8847 10.9853C91.6559 11.63 92.2964 12.4169 92.7713 13.3032C93.1785 14.0528 93.4113 14.8848 93.4523 15.737C93.4459 15.9327 93.3684 16.1194 93.2344 16.262C93.1609 16.3459 93.0694 16.4121 92.9669 16.4558C92.8643 16.4994 92.7532 16.5194 92.6419 16.5142H89.8222C89.6125 16.5133 89.4063 16.4594 89.2229 16.3574C89.0092 16.2253 88.8516 16.019 88.7802 15.778C88.6832 15.2904 88.4852 14.8286 88.199 14.4223C87.9127 14.016 87.5446 13.6743 87.1184 13.4191C86.0192 12.7359 84.7403 12.3986 83.4475 12.451C82.1622 12.3944 80.8865 12.6966 79.7629 13.3237C79.3017 13.6061 78.9265 14.0096 78.678 14.4903C78.4295 14.971 78.3171 15.5106 78.3531 16.0507C78.3274 16.7693 78.5702 17.4718 79.0341 18.0209C79.6437 18.6336 80.3842 19.0998 81.1999 19.3844C82.4821 19.8835 83.7892 20.3159 85.1161 20.6797C86.9284 21.0888 88.6979 21.6686 90.4012 22.4114C91.6012 22.9175 92.6382 23.7456 93.3978 24.8043C94.0762 25.9137 94.4104 27.1997 94.3582 28.4994C94.398 30.017 93.9306 31.5046 93.0301 32.7262C92.0729 33.9628 90.7897 34.9073 89.3251 35.4532C87.5286 36.119 85.6212 36.4337 83.7063 36.3804Z" fill="#203053"/>
<path id="Vector_6" d="M98.4178 12.3419C98.2931 12.3487 98.1683 12.3299 98.0512 12.2865C97.934 12.2431 97.827 12.1761 97.7368 12.0897C97.6531 12.0073 97.5874 11.9084 97.544 11.7992C97.5006 11.6901 97.4805 11.573 97.4848 11.4556V9.01497C97.4779 8.89012 97.4968 8.76519 97.5401 8.64793C97.5835 8.53066 97.6504 8.42355 97.7368 8.33322C97.8248 8.2424 97.9309 8.17117 98.0482 8.12418C98.1656 8.07719 98.2915 8.0555 98.4178 8.06052H101.353C101.479 8.05834 101.604 8.08133 101.721 8.12816C101.838 8.17499 101.945 8.2447 102.034 8.33322C102.126 8.4205 102.198 8.52661 102.245 8.64428C102.292 8.76194 102.313 8.8884 102.307 9.01497V11.4556C102.31 11.5748 102.288 11.6933 102.241 11.8028C102.194 11.9123 102.123 12.0102 102.034 12.0897C101.849 12.2597 101.604 12.3503 101.353 12.3419H98.4178ZM98.6494 35.9985C98.5248 36.0038 98.4005 35.9842 98.2835 35.9409C98.1666 35.8976 98.0595 35.8315 97.9683 35.7463C97.8848 35.6624 97.8193 35.5623 97.7759 35.452C97.7326 35.3418 97.7123 35.2238 97.7163 35.1055V16.7869C97.7123 16.6685 97.7326 16.5505 97.7759 16.4403C97.8193 16.3301 97.8848 16.2299 97.9683 16.1461C98.0598 16.0618 98.1672 15.9967 98.2841 15.9545C98.4011 15.9124 98.5253 15.8941 98.6494 15.9006H101.163C101.28 15.8958 101.397 15.9154 101.507 15.9583C101.617 16.0011 101.716 16.0662 101.799 16.1495C101.882 16.2328 101.948 16.3324 101.99 16.4421C102.033 16.5518 102.053 16.6692 102.048 16.7869V35.1055C102.052 35.2238 102.032 35.3418 101.988 35.452C101.945 35.5623 101.879 35.6624 101.796 35.7463C101.713 35.8288 101.614 35.8936 101.505 35.937C101.396 35.9803 101.28 36.0012 101.163 35.9985H98.6494Z" fill="#203053"/>
<path id="Vector_7" d="M115.26 44.5C113.734 44.5509 112.213 44.3079 110.778 43.7841C109.767 43.3954 108.841 42.8117 108.054 42.0661C107.451 41.4918 106.967 40.8036 106.631 40.0414C106.401 39.5263 106.252 38.9791 106.188 38.4188C106.168 38.2949 106.179 38.168 106.219 38.0492C106.26 37.9304 106.328 37.8232 106.42 37.737C106.508 37.6467 106.614 37.5763 106.731 37.5305C106.849 37.4846 106.975 37.4644 107.101 37.4712H109.729C109.933 37.4627 110.135 37.5149 110.308 37.6211C110.506 37.8007 110.64 38.0401 110.69 38.3029C110.881 38.7156 111.109 39.1103 111.371 39.4823C111.708 39.9543 112.161 40.3321 112.685 40.5799C113.447 40.9267 114.281 41.0857 115.117 41.0435C116.056 41.0702 116.991 40.9199 117.875 40.6004C118.614 40.3019 119.219 39.7446 119.578 39.0324C120.017 38.0789 120.22 37.0336 120.17 35.985V33.367C119.488 34.1694 118.643 34.8177 117.691 35.2691C116.544 35.7962 115.289 36.0483 114.027 36.0054C112.775 36.0456 111.53 35.813 110.376 35.3237C109.394 34.8863 108.532 34.2173 107.863 33.3739C107.189 32.5006 106.679 31.5119 106.358 30.456C106.003 29.291 105.815 28.0812 105.8 26.8632C105.772 26.1678 105.772 25.4588 105.8 24.7361C105.818 23.544 106.002 22.3601 106.345 21.2183C106.649 20.133 107.16 19.1168 107.85 18.2254C108.526 17.3707 109.391 16.6846 110.376 16.2211C111.523 15.7077 112.771 15.4607 114.027 15.4984C115.333 15.4525 116.628 15.7462 117.787 16.3506C118.751 16.8684 119.599 17.5783 120.279 18.4368V16.8619C120.274 16.7372 120.293 16.6126 120.336 16.4955C120.38 16.3784 120.446 16.2712 120.531 16.1802C120.62 16.0902 120.726 16.02 120.843 15.9742C120.961 15.9284 121.086 15.908 121.212 15.9143H123.644C123.767 15.9123 123.89 15.9357 124.004 15.983C124.119 16.0302 124.222 16.1004 124.308 16.1892C124.394 16.278 124.461 16.3834 124.505 16.4991C124.549 16.6148 124.569 16.7383 124.563 16.8619V35.535C124.6 37.1554 124.279 38.764 123.623 40.2459C122.991 41.5875 121.939 42.6862 120.627 43.3751C118.96 44.1928 117.114 44.5795 115.26 44.5ZM115.144 32.4399C116.141 32.4871 117.126 32.2017 117.943 31.6286C118.641 31.0969 119.188 30.3919 119.53 29.5833C119.875 28.7818 120.075 27.9255 120.123 27.0541C120.123 26.72 120.163 26.2905 120.163 25.7587C120.163 25.227 120.163 24.8111 120.123 24.5043C120.075 23.6264 119.874 22.7635 119.53 21.9546C119.196 21.1417 118.647 20.4349 117.943 19.9093C117.12 19.349 116.138 19.0714 115.144 19.1185C114.137 19.0679 113.14 19.3454 112.304 19.9093C111.606 20.4263 111.075 21.1376 110.778 21.9546C110.462 22.864 110.281 23.8149 110.24 24.777C110.24 25.4588 110.24 26.0655 110.24 26.7132C110.284 27.6682 110.466 28.6118 110.778 29.5152C111.069 30.3465 111.6 31.0726 112.304 31.6013C113.135 32.1821 114.131 32.4765 115.144 32.4399Z" fill="#203053"/>
<path id="Vector_8" d="M129.992 35.9986C129.867 36.0039 129.743 35.9843 129.626 35.941C129.509 35.8977 129.402 35.8315 129.311 35.7463C129.229 35.6615 129.164 35.5612 129.121 35.4512C129.077 35.3412 129.056 35.2237 129.059 35.1055V16.7869C129.056 16.6687 129.077 16.5512 129.121 16.4412C129.164 16.3312 129.229 16.2309 129.311 16.1461C129.402 16.0618 129.51 15.9967 129.627 15.9546C129.744 15.9124 129.868 15.8941 129.992 15.9007H132.464C132.582 15.8949 132.7 15.9138 132.811 15.9562C132.921 15.9986 133.021 16.0636 133.105 16.1469C133.189 16.2303 133.255 16.3303 133.298 16.4405C133.341 16.5507 133.361 16.6687 133.356 16.7869V18.4504C134.069 17.5815 134.949 16.8651 135.944 16.3438C137.152 15.742 138.491 15.4515 139.84 15.4984C141.304 15.4569 142.75 15.8328 144.008 16.5824C145.173 17.3019 146.101 18.3471 146.678 19.5889C147.331 21.0379 147.65 22.6153 147.611 24.2044V35.1123C147.613 35.2323 147.59 35.3514 147.543 35.4619C147.496 35.5723 147.427 35.6716 147.339 35.7532C147.247 35.838 147.14 35.904 147.023 35.9473C146.906 35.9905 146.782 36.0103 146.658 36.0054H143.988C143.871 36.0081 143.754 35.9872 143.645 35.9438C143.537 35.9005 143.438 35.8356 143.354 35.7532C143.271 35.6693 143.205 35.5691 143.162 35.4589C143.119 35.3487 143.098 35.2307 143.102 35.1123V24.4021C143.185 23.0073 142.751 21.6311 141.883 20.5366C141.438 20.0653 140.893 19.6986 140.289 19.4629C139.685 19.2271 139.036 19.1282 138.389 19.1731C137.739 19.1408 137.089 19.2455 136.481 19.4803C135.873 19.7152 135.322 20.075 134.861 20.5366C134.391 21.0593 134.029 21.6698 133.795 22.3332C133.561 22.9966 133.461 23.6997 133.499 24.4021V35.1055C133.503 35.2257 133.48 35.3452 133.433 35.4558C133.386 35.5665 133.316 35.6656 133.227 35.7463C133.136 35.8318 133.029 35.8982 132.912 35.9415C132.795 35.9848 132.67 36.0043 132.546 35.9986H129.992Z" fill="#203053"/>
<path id="Vector_9" d="M157.772 36.3803C156.535 36.3967 155.311 36.126 154.197 35.5895C153.187 35.1089 152.311 34.3851 151.649 33.4829C151.021 32.6153 150.689 31.5682 150.703 30.4969C150.682 29.6607 150.87 28.8325 151.248 28.0865C151.626 27.3405 152.183 26.7 152.868 26.2223C154.567 25.0528 156.532 24.3285 158.583 24.1157L164.031 23.3044V22.35C164.064 21.8567 163.999 21.3619 163.84 20.8939C163.681 20.4259 163.431 19.994 163.105 19.623C162.485 18.9821 161.457 18.6617 160.013 18.6617C159.123 18.6204 158.239 18.8332 157.466 19.2753C156.851 19.6759 156.375 20.2569 156.104 20.9388C156.026 21.097 155.905 21.2291 155.753 21.3188C155.602 21.4084 155.428 21.4517 155.252 21.4432H152.862C152.745 21.4529 152.627 21.4373 152.516 21.3973C152.406 21.3573 152.305 21.2939 152.221 21.2115C152.077 21.0379 152.002 20.8169 152.01 20.5911C152.078 20.0828 152.242 19.5921 152.494 19.1458C152.847 18.4901 153.326 17.9108 153.904 17.4414C154.647 16.8418 155.491 16.3801 156.396 16.0779C157.569 15.6787 158.802 15.4894 160.04 15.5189C161.404 15.4811 162.765 15.6841 164.058 16.1188C165.031 16.4491 165.917 16.997 166.646 17.7209C167.28 18.3809 167.762 19.1722 168.056 20.0388C168.351 20.9176 168.501 21.8387 168.499 22.7658V35.1055C168.502 35.2256 168.48 35.3452 168.433 35.4558C168.386 35.5664 168.315 35.6656 168.227 35.7463C168.136 35.8318 168.028 35.8982 167.911 35.9415C167.795 35.9848 167.67 36.0042 167.545 35.9986H165.073C164.955 36.0034 164.837 35.9836 164.727 35.9404C164.617 35.8971 164.517 35.8314 164.434 35.7474C164.351 35.6633 164.286 35.5629 164.243 35.4524C164.201 35.3418 164.182 35.2237 164.188 35.1055V33.4829C163.806 34.0043 163.346 34.4641 162.826 34.8464C162.208 35.3211 161.518 35.6939 160.782 35.9508C159.809 36.256 158.792 36.4011 157.772 36.3803ZM158.855 33.0943C159.781 33.1062 160.696 32.8884 161.518 32.4603C162.333 32.0128 162.993 31.3282 163.411 30.4969C163.905 29.4597 164.139 28.3178 164.092 27.1699V26.2155L159.917 26.8972C158.592 27.0126 157.308 27.42 156.158 28.0903C155.787 28.3011 155.477 28.6036 155.256 28.9689C155.036 29.3341 154.912 29.7499 154.898 30.1764C154.874 30.778 155.082 31.3658 155.477 31.8194C155.881 32.2581 156.386 32.5906 156.948 32.7875C157.56 33.0027 158.206 33.1066 158.855 33.0943Z" fill="#203053"/>
<path id="Vector_10" d="M173.811 35.9985C173.693 36.0034 173.575 35.9836 173.465 35.9404C173.355 35.8971 173.255 35.8314 173.172 35.7474C173.089 35.6633 173.024 35.5629 172.981 35.4523C172.939 35.3418 172.92 35.2237 172.926 35.1055V9.44447C172.92 9.32624 172.939 9.2081 172.981 9.09758C173.024 8.98707 173.089 8.88659 173.172 8.80257C173.255 8.71855 173.355 8.65282 173.465 8.60957C173.575 8.56632 173.693 8.54651 173.811 8.55138H176.358C176.477 8.54651 176.594 8.56632 176.704 8.60957C176.815 8.65282 176.914 8.71855 176.998 8.80257C177.081 8.88659 177.146 8.98707 177.188 9.09758C177.231 9.2081 177.25 9.32624 177.244 9.44447V35.1055C177.25 35.2237 177.231 35.3418 177.188 35.4523C177.146 35.5629 177.081 35.6633 176.998 35.7474C176.914 35.8314 176.815 35.8971 176.704 35.9404C176.594 35.9836 176.477 36.0034 176.358 35.9985H173.811Z" fill="#203053"/>
</g>
</g>
</g>
<defs>
<clipPath id="clip0_1403_1141">
<rect width="239" height="44" fill="white" transform="translate(0.5 0.5)"/>
</clipPath>
</defs>
</svg>
