<svg width="170" height="21" viewBox="0 0 170 21" fill="none" xmlns="http://www.w3.org/2000/svg">
<g clip-path="url(#clip0_5216_26159)">
<path d="M27.1744 7.46387C29.2755 7.46387 30.9788 5.79303 30.9788 3.73193C30.9788 1.67084 29.2755 0 27.1744 0C25.0734 0 23.3701 1.67084 23.3701 3.73193C23.3701 5.79303 25.0734 7.46387 27.1744 7.46387Z" fill="#EF4523"/>
<path fill-rule="evenodd" clip-rule="evenodd" d="M92.3398 8.74916V15.4481C92.3398 18.8169 94.0619 20.5013 97.5061 20.5013H109.507V10.4239H102.628V13.7734H106.053V17.1229H97.4618C97.2292 17.1555 96.992 17.1346 96.7691 17.062C96.5461 16.9894 96.3436 16.8669 96.1774 16.7044C96.0113 16.5419 95.8861 16.3437 95.8118 16.1257C95.7376 15.9076 95.7162 15.6757 95.7496 15.4481V8.74916C95.7078 8.5202 95.7232 8.28478 95.7945 8.06291C95.8658 7.84105 95.9908 7.63931 96.159 7.47486C96.3271 7.31041 96.5334 7.18813 96.7602 7.11841C96.987 7.04868 97.2277 7.03359 97.4618 7.07441H109.462V3.72492H97.4618C94.0471 3.72492 92.3398 5.39967 92.3398 8.74916ZM110.968 20.4724H114.392V3.72492H110.968V20.4724ZM115.78 7.07441H127.721L115.78 17.1229V20.4724H132.925V17.1229H121.013L132.925 7.07441V3.72492H115.78V7.07441ZM134.297 20.4724H151.442V17.1229H137.729V13.7734H148.01V10.4239H137.729V7.07441H151.442V3.72492H134.297V20.4724ZM169.959 10.4239V8.74916C169.959 5.38042 168.237 3.69604 164.793 3.69604H152.815V20.4435H156.247V15.3904H159.937L165.103 20.4435H169.959L164.793 15.3904C168.232 15.4289 169.955 13.7734 169.959 10.4239ZM166.528 10.4239C166.561 10.6514 166.54 10.8834 166.465 11.1015C166.391 11.3195 166.266 11.5177 166.1 11.6802C165.934 11.8427 165.731 11.9651 165.508 12.0378C165.285 12.1104 165.048 12.1312 164.815 12.0986H156.247V7.04554H164.815C165.049 7.00472 165.29 7.01981 165.517 7.08953C165.744 7.15925 165.95 7.28154 166.118 7.44599C166.286 7.61043 166.411 7.81217 166.483 8.03404C166.554 8.2559 166.569 8.49133 166.528 8.72028V10.4239Z" fill="#EF4523"/>
<path fill-rule="evenodd" clip-rule="evenodd" d="M0.0406189 8.7491V15.4481C0.0406189 18.8168 1.76271 20.5012 5.2069 20.5012H17.1779V17.1228H5.2069C4.97235 17.1589 4.73243 17.1407 4.50636 17.0698C4.28029 16.9988 4.07435 16.8771 3.90504 16.7143C3.73572 16.5515 3.60774 16.3521 3.53135 16.1323C3.45496 15.9124 3.43228 15.6781 3.46512 15.4481V8.7491C3.43228 8.51911 3.45496 8.28479 3.53135 8.06492C3.60774 7.84504 3.73572 7.64572 3.90504 7.48293C4.07435 7.32013 4.28029 7.19838 4.50636 7.12743C4.73243 7.05648 4.97235 7.0383 5.2069 7.07436H17.1779V3.72486H5.2069C1.76271 3.72486 0.0406189 5.39961 0.0406189 8.7491ZM32.2708 8.7491C32.3026 8.97633 32.2802 9.20766 32.2053 9.42501C32.1305 9.64235 32.0053 9.83983 31.8395 10.002C31.6737 10.1642 31.4718 10.2866 31.2496 10.3598C31.0274 10.433 30.7909 10.4549 30.5586 10.4238H23.7022C23.4693 10.4561 23.2319 10.4351 23.0088 10.3625C22.7856 10.2899 22.5827 10.1676 22.416 10.0053C22.2493 9.84296 22.1234 9.64503 22.0482 9.42705C21.973 9.20908 21.9505 8.97701 21.9825 8.7491V3.69599H18.558V8.7491C18.558 12.1178 20.2801 13.8022 23.7243 13.8022H25.4366V20.5012H28.8242V13.7733H30.5438C33.988 13.7733 35.7101 12.089 35.7101 8.72023V3.66711H32.2708V8.7491ZM48.6922 3.69599H36.6917V20.4434H48.6922C52.1364 20.4434 53.8585 18.7591 53.8585 15.3903C53.9642 14.1686 53.5746 12.9551 52.7735 12.012C53.4968 11.3286 53.8585 10.2121 53.8585 8.66248C53.824 5.36592 52.1019 3.72005 48.6922 3.72486V3.69599ZM48.6922 17.094H40.1236V13.7733H48.6922C48.9263 13.7325 49.167 13.7476 49.3938 13.8173C49.6206 13.8871 49.8269 14.0093 49.995 14.1738C50.1632 14.3382 50.2882 14.54 50.3595 14.7618C50.4307 14.9837 50.4462 15.2191 50.4044 15.4481C50.4378 15.6756 50.4165 15.9076 50.3422 16.1256C50.2679 16.3437 50.1427 16.5418 49.9766 16.7044C49.8104 16.8669 49.6079 16.9893 49.3849 17.0619C49.162 17.1346 48.9248 17.1554 48.6922 17.1228V17.094ZM48.6922 10.395H40.1236V7.07436H48.6922C48.9263 7.03354 49.167 7.04863 49.3938 7.11835C49.6206 7.18807 49.8269 7.31036 49.995 7.47481C50.1632 7.63925 50.2882 7.84099 50.3595 8.06286C50.4307 8.28472 50.4462 8.52015 50.4044 8.7491C50.4378 8.97662 50.4165 9.20859 50.3422 9.42665C50.2679 9.64471 50.1427 9.84285 49.9766 10.0054C49.8104 10.1679 49.6079 10.2903 49.3849 10.363C49.162 10.4356 48.9248 10.4564 48.6922 10.4238V10.395ZM55.2091 20.4434H72.3685V17.1228H58.641V13.7733H68.9219V10.4238H58.641V7.07436H72.3685V3.72486H55.2091V20.4434ZM90.8638 10.395V8.7491C90.8638 5.38036 89.1417 3.69599 85.6975 3.69599H73.7265V20.4434H77.1584V15.3903H80.8486L86.0149 20.4434H90.8712L85.7049 15.3903C89.1441 15.4288 90.8638 13.7733 90.8638 10.4238V10.395ZM87.4393 10.395C87.4726 10.6225 87.4513 10.8545 87.377 11.0725C87.3027 11.2906 87.1776 11.4887 87.0114 11.6512C86.8453 11.8138 86.6427 11.9362 86.4197 12.0088C86.1968 12.0815 85.9596 12.1023 85.727 12.0697H77.1584V7.01661H85.727C85.9611 6.97579 86.2018 6.99088 86.4286 7.0606C86.6555 7.13032 86.8617 7.25261 87.0299 7.41706C87.198 7.5815 87.323 7.78324 87.3943 8.00511C87.4656 8.22697 87.481 8.4624 87.4393 8.69135V10.395Z" fill="#131313"/>
</g>
<defs>
<clipPath id="clip0_5216_26159">
<rect width="170" height="20.579" fill="white"/>
</clipPath>
</defs>
</svg>
