<svg width="238" height="70" viewBox="0 0 238 70" fill="none" xmlns="http://www.w3.org/2000/svg">
<g id="Badge" clip-path="url(#clip0_1505_26543)">
<path id="Vector" d="M228.359 0H9.60938C4.77688 0 0.859375 3.91751 0.859375 8.75V61.25C0.859375 66.0825 4.77688 70 9.60938 70H228.359C233.192 70 237.109 66.0825 237.109 61.25V8.75C237.109 3.91751 233.192 0 228.359 0Z" fill="black"/>
<path id="Vector_2" d="M83.8433 17.9201C83.872 18.5619 83.7706 19.2028 83.545 19.8044C83.3194 20.4059 82.9744 20.9555 82.5308 21.4201C82.0337 21.9334 81.4337 22.3359 80.7703 22.6013C80.1068 22.8667 79.3948 22.9889 78.6808 22.9601C77.9627 22.9761 77.249 22.8446 76.5837 22.5737C75.9185 22.3028 75.3159 21.8983 74.8133 21.3851C73.7936 20.3421 73.2227 18.9413 73.2227 17.4826C73.2227 16.0239 73.7936 14.6232 74.8133 13.5801C75.5929 12.8183 76.5803 12.3039 77.6514 12.1015C78.7225 11.8991 79.8295 12.0178 80.8333 12.4426C81.4644 12.702 82.0272 13.1032 82.4783 13.6151L81.5508 14.5426C81.2033 14.124 80.7629 13.7921 80.2647 13.5734C79.7665 13.3547 79.2242 13.2551 78.6808 13.2826C77.9949 13.2874 77.3205 13.4601 76.7167 13.7856C76.1129 14.1111 75.598 14.5796 75.217 15.1501C74.8361 15.7206 74.6007 16.3757 74.5314 17.0581C74.4621 17.7406 74.5609 18.4297 74.8194 19.0651C75.0779 19.7005 75.4881 20.2629 76.0141 20.7032C76.5401 21.1435 77.166 21.4483 77.837 21.5908C78.508 21.7334 79.2037 21.7094 79.8633 21.521C80.5229 21.3326 81.1263 20.9856 81.6208 20.5101C82.1554 19.924 82.4653 19.1678 82.4958 18.3751H78.6808V17.1151H83.7733C83.8132 17.3818 83.8365 17.6506 83.8433 17.9201Z" fill="white" stroke="white" stroke-width="0.346698" stroke-miterlimit="10"/>
<path id="Vector_3" d="M91.8576 13.5445H87.1326V16.8695H91.4376V18.1295H87.1326V21.4545H91.8576V22.7495H85.7676V12.2495H91.8576V13.5445Z" fill="white" stroke="white" stroke-width="0.346698" stroke-miterlimit="10"/>
<path id="Vector_4" d="M97.6 22.7495H96.2525V13.5445H93.3125V12.2495H100.61V13.5445H97.6V22.7495Z" fill="white" stroke="white" stroke-width="0.346698" stroke-miterlimit="10"/>
<path id="Vector_5" d="M105.754 22.7495V12.2495H107.101V22.7495H105.754Z" fill="white" stroke="white" stroke-width="0.346698" stroke-miterlimit="10"/>
<path id="Vector_6" d="M113.088 22.7495H111.741V13.5445H108.801V12.2495H116.011V13.5445H113.088V22.7495Z" fill="white" stroke="white" stroke-width="0.346698" stroke-miterlimit="10"/>
<path id="Vector_7" d="M129.678 21.3852C129.172 21.8911 128.572 22.2924 127.911 22.5662C127.251 22.84 126.543 22.9809 125.828 22.9809C125.113 22.9809 124.404 22.84 123.744 22.5662C123.083 22.2924 122.483 21.8911 121.978 21.3852C120.988 20.3336 120.438 18.9441 120.438 17.5003C120.437 16.0564 120.988 14.6669 121.978 13.6153C122.472 13.0951 123.07 12.6847 123.734 12.4103C124.397 12.136 125.11 12.004 125.828 12.0228C126.544 12.0114 127.255 12.1469 127.917 12.4207C128.58 12.6946 129.179 13.1011 129.678 13.6153C130.181 14.1271 130.576 14.7346 130.841 15.4019C131.105 16.0691 131.233 16.7826 131.218 17.5003C131.241 18.2187 131.116 18.9343 130.851 19.6026C130.586 20.2709 130.187 20.8776 129.678 21.3852ZM122.975 20.5102C123.348 20.888 123.792 21.188 124.282 21.3927C124.771 21.5975 125.297 21.7029 125.828 21.7029C126.358 21.7029 126.884 21.5975 127.374 21.3927C127.863 21.188 128.307 20.888 128.68 20.5102C129.435 19.6897 129.854 18.6154 129.854 17.5003C129.854 16.3851 129.435 15.3108 128.68 14.4903C128.307 14.1125 127.863 13.8125 127.374 13.6078C126.884 13.403 126.358 13.2976 125.828 13.2976C125.297 13.2976 124.771 13.403 124.282 13.6078C123.792 13.8125 123.348 14.1125 122.975 14.4903C122.22 15.3108 121.801 16.3851 121.801 17.5003C121.801 18.6154 122.22 19.6897 122.975 20.5102Z" fill="white" stroke="white" stroke-width="0.346698" stroke-miterlimit="10"/>
<path id="Vector_8" d="M133.125 22.7495V12.2495H134.752L139.862 20.422V18.392V12.2495H141.21V22.7495H139.81L134.472 14.192V16.2045V22.7495H133.125Z" fill="white" stroke="white" stroke-width="0.346698" stroke-miterlimit="10"/>
<path id="Vector_9" d="M120.106 38.0629C118.632 38.0663 117.191 38.5069 115.967 39.329C114.743 40.151 113.79 41.3176 113.229 42.6811C112.668 44.0447 112.524 45.5439 112.815 46.9894C113.106 48.4348 113.819 49.7615 114.864 50.8017C115.909 51.8418 117.24 52.5487 118.686 52.833C120.133 53.1172 121.632 52.9661 122.993 52.3986C124.353 51.8312 125.516 50.8729 126.332 49.6451C127.148 48.4172 127.582 46.9748 127.579 45.5004C127.593 44.5167 127.409 43.5403 127.038 42.6292C126.667 41.7181 126.117 40.8909 125.419 40.197C124.722 39.503 123.893 38.9565 122.98 38.5898C122.067 38.2232 121.09 38.044 120.106 38.0629ZM120.106 50.0154C119.202 50.0786 118.3 49.8684 117.518 49.4123C116.735 48.9561 116.108 48.2751 115.717 47.4576C115.327 46.6402 115.191 45.7241 115.328 44.8286C115.465 43.9331 115.868 43.0995 116.485 42.4362C117.102 41.7729 117.905 41.3105 118.788 41.1092C119.671 40.9079 120.595 40.977 121.438 41.3075C122.282 41.638 123.006 42.2146 123.518 42.9623C124.029 43.7101 124.304 44.5944 124.306 45.5004C124.334 46.0744 124.247 46.6482 124.05 47.1881C123.853 47.7279 123.55 48.2229 123.158 48.6437C122.767 49.0645 122.295 49.4026 121.771 49.6382C121.247 49.8738 120.681 50.002 120.106 50.0154ZM103.796 38.0629C102.322 38.0663 100.881 38.5069 99.6572 39.329C98.4332 40.151 97.4804 41.3176 96.9193 42.6811C96.3583 44.0447 96.2142 45.5439 96.5052 46.9894C96.7963 48.4348 97.5094 49.7615 98.5544 50.8017C99.5995 51.8418 100.93 52.5487 102.376 52.833C103.823 53.1172 105.322 52.9661 106.683 52.3986C108.043 51.8312 109.206 50.8729 110.022 49.6451C110.838 48.4172 111.272 46.9748 111.269 45.5004C111.283 44.5167 111.099 43.5403 110.728 42.6292C110.357 41.7181 109.807 40.8909 109.109 40.197C108.412 39.503 107.583 38.9565 106.67 38.5898C105.757 38.2232 104.78 38.044 103.796 38.0629ZM103.796 50.0154C102.892 50.0786 101.99 49.8684 101.208 49.4123C100.425 48.9561 99.7976 48.2751 99.407 47.4576C99.0165 46.6402 98.881 45.7241 99.0179 44.8286C99.1549 43.9331 99.5582 43.0995 100.175 42.4362C100.792 41.7729 101.595 41.3105 102.478 41.1092C103.361 40.9079 104.285 40.977 105.128 41.3075C105.972 41.638 106.696 42.2146 107.208 42.9623C107.719 43.7101 107.994 44.5944 107.996 45.5004C108.024 46.0744 107.937 46.6482 107.74 47.1881C107.543 47.7279 107.24 48.2229 106.848 48.6437C106.457 49.0645 105.985 49.4026 105.461 49.6382C104.937 49.8738 104.371 50.002 103.796 50.0154ZM84.406 40.3554V43.5054H91.966C91.8475 44.989 91.2307 46.389 90.216 47.4779C89.4577 48.2505 88.5456 48.8553 87.5387 49.2533C86.5319 49.6512 85.4527 49.8333 84.371 49.7879C82.1432 49.7879 80.0066 48.9029 78.4313 47.3276C76.856 45.7522 75.971 43.6157 75.971 41.3879C75.971 39.16 76.856 37.0235 78.4313 35.4482C80.0066 33.8729 82.1432 32.9879 84.371 32.9879C86.5068 32.9561 88.5691 33.7672 90.111 35.2454L92.3335 33.0229C91.2905 31.9912 90.0521 31.1782 88.6908 30.6313C87.3296 30.0843 85.8728 29.8146 84.406 29.8379C82.8503 29.7773 81.2983 30.0315 79.8431 30.5851C78.3879 31.1387 77.0595 31.9803 75.9373 33.0596C74.8152 34.1389 73.9225 35.4336 73.3128 36.8662C72.703 38.2988 72.3887 39.8397 72.3887 41.3966C72.3887 42.9535 72.703 44.4944 73.3128 45.927C73.9225 47.3596 74.8152 48.6543 75.9373 49.7336C77.0595 50.8129 78.3879 51.6546 79.8431 52.2082C81.2983 52.7618 82.8503 53.0159 84.406 52.9553C85.903 53.0151 87.3957 52.7576 88.7861 52.1996C90.1765 51.6417 91.4331 50.7959 92.4735 49.7179C94.3112 47.6991 95.2904 45.0439 95.2035 42.3154C95.2098 41.6586 95.1571 41.0027 95.046 40.3554H84.406ZM163.699 42.8054C163.242 41.4626 162.389 40.2902 161.251 39.4433C160.114 38.5965 158.746 38.115 157.329 38.0629C156.371 38.061 155.424 38.2555 154.545 38.6343C153.666 39.0131 152.874 39.5682 152.217 40.2653C151.561 40.9624 151.055 41.7866 150.73 42.687C150.405 43.5875 150.269 44.545 150.329 45.5004C150.314 47.0978 150.816 48.6573 151.76 49.9458C152.705 51.2343 154.041 52.1827 155.568 52.6494C157.096 53.116 158.734 53.0758 160.237 52.5348C161.741 51.9939 163.028 50.9811 163.909 49.6479L161.371 47.8979C160.993 48.5283 160.456 49.049 159.815 49.4081C159.173 49.7673 158.449 49.9525 157.714 49.9454C156.955 49.9767 156.205 49.7778 155.561 49.3749C154.918 48.972 154.412 48.3839 154.109 47.6879L164.066 43.5754L163.699 42.8054ZM153.549 45.2904C153.513 44.7468 153.586 44.2016 153.764 43.6867C153.942 43.1718 154.221 42.6976 154.584 42.2918C154.948 41.886 155.388 41.5568 155.881 41.3234C156.373 41.0901 156.907 40.9573 157.451 40.9329C158.015 40.8984 158.576 41.0312 159.065 41.3145C159.554 41.5978 159.948 42.019 160.199 42.5254L153.549 45.2904ZM145.464 52.5004H148.736V30.6254H145.464V52.5004ZM140.109 39.7254H139.986C139.497 39.1686 138.894 38.724 138.217 38.422C137.541 38.1199 136.807 37.9676 136.066 37.9754C134.154 38.0681 132.35 38.8931 131.029 40.2794C129.709 41.6657 128.972 43.5069 128.972 45.4216C128.972 47.3363 129.709 49.1776 131.029 50.5638C132.35 51.9501 134.154 52.7751 136.066 52.8678C136.808 52.8827 137.544 52.7336 138.222 52.4311C138.899 52.1286 139.502 51.6801 139.986 51.1178H140.109V52.1854C140.109 55.0379 138.586 56.5604 136.136 56.5604C135.318 56.5424 134.523 56.2816 133.853 55.8111C133.183 55.3406 132.668 54.6816 132.374 53.9179L129.539 55.0904C130.063 56.4068 130.974 57.5332 132.152 58.3206C133.33 59.108 134.719 59.5194 136.136 59.5004C139.969 59.5004 143.136 57.2429 143.136 51.7479V38.5004H140.109V39.7254ZM136.346 50.0154C135.199 49.9439 134.123 49.438 133.337 48.6008C132.55 47.7635 132.112 46.6579 132.112 45.5091C132.112 44.3603 132.55 43.2547 133.337 42.4174C134.123 41.5802 135.199 41.0743 136.346 41.0029C136.906 41.027 137.456 41.1637 137.963 41.4047C138.469 41.6457 138.922 41.9862 139.294 42.4058C139.667 42.8254 139.951 43.3156 140.13 43.8472C140.309 44.3789 140.379 44.941 140.336 45.5004C140.384 46.0616 140.317 46.6266 140.14 47.1614C139.963 47.6961 139.68 48.1894 139.307 48.6115C138.934 49.0335 138.479 49.3755 137.97 49.6168C137.461 49.8581 136.909 49.9937 136.346 50.0154ZM179.029 30.6254H171.189V52.5004H174.461V44.2053H179.029C179.961 44.2724 180.898 44.1465 181.78 43.8356C182.661 43.5248 183.47 43.0355 184.154 42.3985C184.839 41.7614 185.385 40.9902 185.758 40.1328C186.131 39.2755 186.324 38.3504 186.324 37.4154C186.324 36.4803 186.131 35.5552 185.758 34.6979C185.385 33.8406 184.839 33.0693 184.154 32.4322C183.47 31.7952 182.661 31.306 181.78 30.9951C180.898 30.6842 179.961 30.5583 179.029 30.6254ZM179.029 41.1254H174.461V33.6704H179.099C179.59 33.6704 180.077 33.7672 180.532 33.9554C180.986 34.1436 181.399 34.4195 181.747 34.7672C182.094 35.115 182.37 35.5278 182.558 35.9822C182.747 36.4366 182.844 36.9236 182.844 37.4154C182.844 37.9072 182.747 38.3941 182.558 38.8485C182.37 39.3029 182.094 39.7157 181.747 40.0635C181.399 40.4112 180.986 40.6871 180.532 40.8753C180.077 41.0635 179.59 41.1604 179.099 41.1604L179.029 41.1254ZM199.224 37.9929C198.032 37.9194 196.845 38.1968 195.809 38.7909C194.773 39.3849 193.934 40.2696 193.396 41.3354L196.284 42.5429C196.575 42.0168 197.013 41.5865 197.544 41.3039C198.075 41.0213 198.677 40.8985 199.276 40.9504C199.691 40.9018 200.112 40.9365 200.514 41.0524C200.916 41.1683 201.291 41.3631 201.617 41.6253C201.943 41.8876 202.213 42.2121 202.412 42.58C202.611 42.9478 202.735 43.3516 202.776 43.7678V43.9779C201.724 43.4247 200.552 43.1364 199.364 43.1379C196.249 43.1379 193.064 44.8879 193.064 48.0729C193.094 48.7498 193.261 49.4137 193.553 50.0251C193.846 50.6364 194.258 51.1828 194.766 51.6317C195.273 52.0806 195.866 52.4229 196.509 52.6382C197.151 52.8536 197.83 52.9376 198.506 52.8854C199.327 52.9308 200.146 52.757 200.878 52.3818C201.61 52.0066 202.228 51.4436 202.671 50.7504H202.776V52.5004H205.926V44.0828C205.926 40.2503 203.021 38.0279 199.294 38.0279L199.224 37.9929ZM198.821 49.9804C197.754 49.9804 196.266 49.4379 196.266 48.1254C196.266 46.3754 198.121 45.7804 199.766 45.7804C200.806 45.7547 201.833 46.0085 202.741 46.5154C202.631 47.4657 202.181 48.3441 201.473 48.9876C200.765 49.6311 199.848 49.9963 198.891 50.0154L198.821 49.9804ZM217.406 38.5004L213.661 47.9853H213.556L209.671 38.5004H206.171L211.999 51.7654L208.674 59.1329H212.086L221.046 38.5004H217.406ZM188.006 52.5004H191.261V30.6254H188.006V52.5004Z" fill="white"/>
<path id="Vector_10" d="M19.1308 13.1953C18.5541 13.8771 18.2599 14.7536 18.3083 15.6453V54.3553C18.2488 55.2484 18.5444 56.1289 19.1308 56.8052L19.2533 56.9453L40.9358 35.2628V34.7378L19.2533 13.0728L19.1308 13.1953Z" fill="url(#paint0_linear_1505_26543)"/>
<path id="Vector_11" d="M48.1086 42.4898L40.9336 35.2623V34.7373L48.1086 27.5098L48.2661 27.6148L56.8586 32.4798C59.3086 33.8623 59.3086 36.1373 56.8586 37.5373L48.3011 42.4023L48.1086 42.4898Z" fill="url(#paint1_linear_1505_26543)"/>
<path id="Vector_12" d="M48.3189 42.385L40.9339 35L19.1289 56.805C19.6234 57.2452 20.2564 57.4984 20.918 57.5208C21.5797 57.5432 22.2283 57.3333 22.7514 56.9275L48.3189 42.385Z" fill="url(#paint2_linear_1505_26543)"/>
<path id="Vector_13" d="M48.3189 27.6153L22.7514 13.0903C22.2317 12.6789 21.5836 12.4639 20.921 12.4831C20.2585 12.5023 19.6239 12.7545 19.1289 13.1953L40.9339 35.0003L48.3189 27.6153Z" fill="url(#paint3_linear_1505_26543)"/>
<path id="Vector_14" opacity="0.2" d="M48.1089 42.2275L22.7514 56.665C22.2473 57.0455 21.633 57.2513 21.0014 57.2513C20.3699 57.2513 19.7555 57.0455 19.2514 56.665L19.1289 56.7875L19.2514 56.9275C19.7555 57.308 20.3699 57.5138 21.0014 57.5138C21.633 57.5138 22.2473 57.308 22.7514 56.9275L48.3189 42.385L48.1089 42.2275Z" fill="black"/>
<path id="Vector_15" opacity="0.12" d="M19.1297 56.5598C18.5675 55.8657 18.2921 54.9829 18.3596 54.0923V54.3548C18.3001 55.248 18.5957 56.1285 19.1821 56.8048L19.3047 56.6823L19.1297 56.5598Z" fill="black"/>
<path id="Vector_16" opacity="0.12" d="M56.8594 37.275L48.1094 42.2275L48.2669 42.385L56.8594 37.52C57.3666 37.3055 57.8066 36.9583 58.133 36.5148C58.4595 36.0713 58.6603 35.548 58.7144 35C58.605 35.498 58.3801 35.9633 58.0579 36.3585C57.7357 36.7536 57.3251 37.0676 56.8594 37.275Z" fill="black"/>
<path id="Vector_17" opacity="0.25" d="M22.7516 13.3352L56.8591 32.7252C57.3249 32.9326 57.7355 33.2466 58.0577 33.6417C58.3799 34.0369 58.6047 34.5022 58.7142 35.0002C58.6601 34.4522 58.4592 33.9289 58.1328 33.4854C57.8063 33.0419 57.3664 32.6947 56.8591 32.4802L22.7516 13.0902C20.3191 11.6902 18.3066 12.8452 18.3066 15.6452V15.9077C18.3591 13.1077 20.3191 11.9527 22.7516 13.3352Z" fill="white"/>
</g>
<defs>
<linearGradient id="paint0_linear_1505_26543" x1="39.0108" y1="15.2428" x2="9.64581" y2="44.6078" gradientUnits="userSpaceOnUse">
<stop stop-color="#00A0FF"/>
<stop offset="0.01" stop-color="#00A1FF"/>
<stop offset="0.26" stop-color="#00BEFF"/>
<stop offset="0.51" stop-color="#00D2FF"/>
<stop offset="0.76" stop-color="#00DFFF"/>
<stop offset="1" stop-color="#00E3FF"/>
</linearGradient>
<linearGradient id="paint1_linear_1505_26543" x1="60.0611" y1="34.9998" x2="17.7286" y2="34.9998" gradientUnits="userSpaceOnUse">
<stop stop-color="#FFE000"/>
<stop offset="0.41" stop-color="#FFBD00"/>
<stop offset="0.78" stop-color="#FFA500"/>
<stop offset="1" stop-color="#FF9C00"/>
</linearGradient>
<linearGradient id="paint2_linear_1505_26543" x1="44.3114" y1="39.025" x2="4.4814" y2="78.8375" gradientUnits="userSpaceOnUse">
<stop stop-color="#FF3A44"/>
<stop offset="1" stop-color="#C31162"/>
</linearGradient>
<linearGradient id="paint3_linear_1505_26543" x1="13.6339" y1="0.315314" x2="31.4139" y2="18.0953" gradientUnits="userSpaceOnUse">
<stop stop-color="#32A071"/>
<stop offset="0.07" stop-color="#2DA771"/>
<stop offset="0.48" stop-color="#15CF74"/>
<stop offset="0.8" stop-color="#06E775"/>
<stop offset="1" stop-color="#00F076"/>
</linearGradient>
<clipPath id="clip0_1505_26543">
<rect width="236.25" height="70" fill="white" transform="translate(0.859375)"/>
</clipPath>
</defs>
</svg>
