<svg width="124" height="93" viewBox="0 0 124 93" fill="none" xmlns="http://www.w3.org/2000/svg">
<path d="M61.5625 16.4018L58.6633 22.1803C57.4067 24.6849 54.3528 25.699 51.8421 24.4455C49.3314 23.1919 48.3148 20.1453 49.5714 17.6408L57.0165 2.8015C58.8906 -0.933832 64.2344 -0.933832 66.1084 2.8015L73.5535 17.6408C74.8101 20.1453 73.7935 23.1919 71.2829 24.4455C68.7722 25.699 65.7182 24.6849 64.4616 22.1803L61.5625 16.4018Z" fill="#2BD9D9"/>
<path d="M68.2597 24.9037C65.4836 24.4855 63.573 21.9014 63.9923 19.132C64.4115 16.3627 67.0019 14.4567 69.7779 14.8749L86.2258 17.353C90.366 17.9767 92.0173 23.0466 89.0353 25.979L77.1888 37.6282C75.1894 39.5943 71.9707 39.5712 69.9998 37.5766C68.0289 35.582 68.052 32.3711 70.0515 30.4049L74.6646 25.8687L68.2597 24.9037Z" fill="#3DCC3D"/>
<path d="M69.6522 41.2074L68.593 34.8325C68.1339 32.0694 70.007 29.4582 72.7768 29.0002C75.5466 28.5422 78.1641 30.4108 78.6232 33.1739L81.3434 49.5447C82.0281 53.6655 77.705 56.7989 73.9879 54.8758L59.2213 47.2362C56.7289 45.9467 55.7563 42.8859 57.0489 40.3996C58.3414 37.9133 61.4097 36.943 63.902 38.2324L69.6522 41.2074Z" fill="#FFD426"/>
<path d="M53.4132 41.2074L59.1634 38.2324C61.6557 36.943 64.724 37.9133 66.0166 40.3996C67.3091 42.8859 66.3365 45.9467 63.8442 47.2362L49.0775 54.8758C45.3605 56.7989 41.0373 53.6655 41.722 49.5447L44.4422 33.1739C44.9014 30.4108 47.5189 28.5422 50.2887 29.0002C53.0584 29.4582 54.9316 32.0694 54.4725 34.8325L53.4132 41.2074Z" fill="#F7578C"/>
<path d="M53.075 30.4049C55.0744 32.3711 55.0976 35.582 53.1266 37.5766C51.1557 39.5712 47.9371 39.5943 45.9376 37.6282L34.0911 25.979C31.1091 23.0466 32.7604 17.9767 36.9006 17.353L53.3485 14.8749C56.1246 14.4567 58.7149 16.3627 59.1342 19.132C59.5534 21.9014 57.6428 24.4855 54.8667 24.9037L48.4619 25.8687L53.075 30.4049Z" fill="#00AAFF"/>
<path d="M54.3957 24.9752C53.5409 25.0227 52.6625 24.8553 51.8421 24.4456C49.3314 23.1921 48.3148 20.1455 49.5714 17.6409L50.7635 15.2649L53.3517 14.8749C56.1278 14.4567 58.7181 16.3627 59.1374 19.132C59.5566 21.9014 57.646 24.4855 54.8699 24.9037L54.3957 24.9752Z" fill="#0090D9"/>
<path d="M72.3649 15.2647L73.5571 17.6409C74.8137 20.1455 73.7971 23.1921 71.2864 24.4456C70.4666 24.855 69.5888 25.0225 68.7346 24.9753L68.2597 24.9037C65.4836 24.4855 63.573 21.9014 63.9923 19.132C64.4115 16.3627 67.0019 14.4567 69.778 14.8749L72.3649 15.2647Z" fill="#0AAD33"/>
<path d="M79.0558 35.7813L77.1791 37.6268C75.1796 39.593 71.961 39.5699 69.99 37.5752C68.0191 35.5806 68.0423 32.3697 70.0417 30.4036L70.288 30.1614C70.9713 29.5727 71.8204 29.1583 72.7762 29.0002C75.5459 28.5422 78.1635 30.4108 78.6226 33.1739L79.0558 35.7813Z" fill="#3DA909"/>
<path d="M61.5331 48.4332L59.2213 47.2372C56.7289 45.9477 55.7563 42.8869 57.0489 40.4006C57.9481 38.6708 59.7068 37.6749 61.5331 37.6631C63.3594 37.6749 65.1181 38.6708 66.0173 40.4006C67.3099 42.8869 66.3373 45.9477 63.8449 47.2372L61.5331 48.4332Z" fill="#F74814"/>
<path d="M44.0186 35.7401L44.445 33.1739C44.9041 30.4108 47.5216 28.5422 50.2914 29.0002C53.0612 29.4582 54.9343 32.0694 54.4752 34.8325L54.3603 35.5241C54.1271 36.2728 53.7159 36.9785 53.1262 37.5752C51.1553 39.5699 47.9367 39.593 45.9372 37.6268L44.0186 35.7401Z" fill="#003A8C"/>
<path fill-rule="evenodd" clip-rule="evenodd" d="M0.901887 73.6949H5.30659C5.56145 73.6949 5.76805 73.901 5.76805 74.1553V76.1542C6.0147 75.8064 6.26135 75.4586 6.582 75.1109C6.90264 74.7631 7.28494 74.4526 7.72891 74.1793C8.17288 73.9061 8.67851 73.6825 9.24581 73.5086C9.8131 73.3347 10.4297 73.2478 11.0957 73.2478C12.3536 73.2478 13.4697 73.5086 14.4439 74.0303C15.4182 74.5519 16.152 75.3717 16.6453 76.4895C17.2866 75.322 18.0635 74.4898 18.9761 73.993C19.8887 73.4962 21.011 73.2478 22.3429 73.2478C23.5515 73.2478 24.5689 73.4527 25.3952 73.8626C26.2214 74.2725 26.8751 74.8314 27.356 75.5394C27.837 76.2473 28.1823 77.0795 28.3919 78.0359C28.6016 78.9922 28.7064 80.0169 28.7064 81.1099V91.3436C28.7064 91.5978 28.4998 91.8039 28.245 91.8039H23.6183C23.3634 91.8039 23.1568 91.5978 23.1568 91.3436V81.259C23.1568 80.4144 22.978 79.6878 22.6204 79.0792C22.2627 78.4706 21.6276 78.1663 20.715 78.1663C20.0737 78.1663 19.5372 78.2719 19.1056 78.483C18.674 78.6942 18.3287 78.986 18.0697 79.3586C17.8107 79.7313 17.6257 80.166 17.5147 80.6628C17.4037 81.1596 17.3482 81.6813 17.3482 82.2278V91.3436C17.3482 91.5978 17.1416 91.8039 16.8868 91.8039H12.2601C12.0052 91.8039 11.7986 91.5978 11.7986 91.3436V82.2278C11.7986 81.9048 11.7863 81.5074 11.7616 81.0354C11.737 80.5634 11.6506 80.1163 11.5026 79.694C11.3547 79.2717 11.1142 78.9115 10.7812 78.6134C10.4482 78.3153 9.96109 78.1663 9.3198 78.1663C8.60451 78.1663 8.0249 78.2967 7.58092 78.5575C7.13695 78.8184 6.79781 79.1661 6.5635 79.6008C6.32918 80.0356 6.17502 80.5262 6.10103 81.0727C6.02703 81.6192 5.99004 82.1905 5.99004 82.7867V91.3436C5.99004 91.5978 5.78343 91.8039 5.52858 91.8039H0.901887C0.647031 91.8039 0.44043 91.5978 0.44043 91.3436V74.1553C0.44043 73.901 0.647031 73.6949 0.901887 73.6949ZM48.2352 89.053C48.0083 89.313 47.8216 89.5127 47.6752 89.6522C46.96 90.3333 46.1323 90.8891 45.192 91.3195C43.8354 91.9405 42.4296 92.2511 40.9743 92.2511C39.5931 92.2511 38.292 92.0275 37.0711 91.5803C35.8502 91.1332 34.7896 90.4936 33.8893 89.6614C32.9891 88.8292 32.2799 87.8294 31.762 86.6619C31.244 85.4943 30.985 84.1902 30.985 82.7494C30.985 81.3086 31.244 80.0045 31.762 78.837C32.2799 77.6695 32.9891 76.6696 33.8893 75.8375C34.7896 75.0053 35.8502 74.3656 37.0711 73.9185C38.292 73.4714 39.5931 73.2478 40.9743 73.2478C42.2569 73.2478 43.4223 73.4714 44.4706 73.9185C45.5188 74.3656 46.4068 75.0053 47.1344 75.8375C47.862 76.6696 48.4231 77.6695 48.8178 78.837C49.2124 80.0045 49.4097 81.3086 49.4097 82.7494V83.8869C49.4097 84.2259 49.1343 84.5007 48.7944 84.5007H36.5346C36.7566 85.5689 37.2376 86.4197 37.9775 87.0531C38.7175 87.6865 39.6301 88.0033 40.7153 88.0033C41.6279 88.0033 42.3987 87.7983 43.0277 87.3885C43.4159 87.1354 43.7736 86.8375 44.1008 86.4945C44.1811 86.4104 44.2811 86.2951 44.4008 86.1488C44.5565 85.9583 44.8348 85.9236 45.0329 86.0699L48.1618 88.3807C48.3666 88.532 48.4097 88.8203 48.2581 89.0246C48.2508 89.0344 48.2432 89.0438 48.2352 89.053ZM106.993 89.053C106.766 89.313 106.58 89.5127 106.433 89.6522C105.718 90.3333 104.89 90.8891 103.95 91.3195C102.593 91.9405 101.188 92.2511 99.7323 92.2511C98.3511 92.2511 97.05 92.0275 95.8291 91.5803C94.6082 91.1332 93.5476 90.4936 92.6473 89.6614C91.747 88.8292 91.0379 87.8294 90.52 86.6619C90.002 85.4943 89.743 84.1902 89.743 82.7494C89.743 81.3086 90.002 80.0045 90.52 78.837C91.0379 77.6695 91.747 76.6696 92.6473 75.8375C93.5476 75.0053 94.6082 74.3656 95.8291 73.9185C97.05 73.4714 98.3511 73.2478 99.7323 73.2478C101.015 73.2478 102.18 73.4714 103.229 73.9185C104.277 74.3656 105.165 75.0053 105.892 75.8375C106.62 76.6696 107.181 77.6695 107.576 78.837C107.97 80.0045 108.168 81.3086 108.168 82.7494V83.8869C108.168 84.2259 107.892 84.5007 107.552 84.5007H95.2926C95.5146 85.5689 95.9956 86.4197 96.7355 87.0531C97.4755 87.6865 98.3881 88.0033 99.4733 88.0033C100.386 88.0033 101.157 87.7983 101.786 87.3885C102.174 87.1354 102.532 86.8375 102.859 86.4945C102.939 86.4104 103.039 86.2951 103.159 86.1488C103.315 85.9583 103.593 85.9236 103.791 86.0699L106.92 88.3807C107.125 88.532 107.168 88.8203 107.016 89.0246C107.009 89.0344 107.001 89.0438 106.993 89.053ZM43.8601 80.7C43.8848 79.7561 43.5765 78.9488 42.9352 78.2781C42.2939 77.6074 41.4676 77.272 40.4564 77.272C39.8397 77.272 39.2971 77.3714 38.8285 77.5701C38.3598 77.7688 37.959 78.0234 37.6261 78.334C37.2931 78.6445 37.0341 79.0047 36.8491 79.4145C36.6641 79.8244 36.5593 80.2529 36.5346 80.7H43.8601ZM52.2239 73.6949H56.8506C57.1055 73.6949 57.3121 73.901 57.3121 74.1553V91.3436C57.3121 91.5978 57.1055 91.8039 56.8506 91.8039H52.2239C51.9691 91.8039 51.7625 91.5978 51.7625 91.3436V74.1553C51.7625 73.901 51.9691 73.6949 52.2239 73.6949ZM54.5491 72.0258C52.7611 72.0258 51.3117 70.5646 51.3117 68.7622C51.3117 66.9597 52.7611 65.4985 54.5491 65.4985C56.3371 65.4985 57.7865 66.9597 57.7865 68.7622C57.7865 70.5646 56.3371 72.0258 54.5491 72.0258ZM70.3938 79.0233C69.5798 78.0048 68.5069 77.4956 67.175 77.4956C66.7064 77.4956 66.2501 77.6074 65.8061 77.8309C65.3621 78.0545 65.1401 78.4395 65.1401 78.986C65.1401 79.4332 65.3683 79.7623 65.8246 79.9735C66.2809 80.1846 66.8605 80.3709 67.5635 80.5324C68.2664 80.6938 69.0187 80.8677 69.8203 81.054C70.6219 81.2403 71.3742 81.5322 72.0772 81.9297C72.7801 82.3271 73.3597 82.8674 73.816 83.5505C74.2723 84.2337 74.5005 85.1466 74.5005 86.2892C74.5005 87.4568 74.2477 88.4193 73.742 89.177C73.2364 89.9346 72.589 90.5432 71.7997 91.0028C71.0104 91.4624 70.1225 91.7853 69.1359 91.9716C68.1493 92.1579 67.175 92.2511 66.2131 92.2511C64.9551 92.2511 63.6849 92.071 62.4023 91.7108C61.1198 91.3506 60.0345 90.7109 59.1466 89.7918L62.5133 86.0284C63.0313 86.6743 63.6047 87.1649 64.2337 87.5002C64.8627 87.8356 65.5964 88.0033 66.4351 88.0033C67.0763 88.0033 67.656 87.9101 68.1739 87.7238C68.6919 87.5375 68.9509 87.1959 68.9509 86.6991C68.9509 86.2271 68.7227 85.8732 68.2664 85.6372C67.8101 85.4012 67.2305 85.2025 66.5275 85.041C65.8246 84.8795 65.0723 84.7056 64.2707 84.5193C63.4691 84.333 62.7168 84.0536 62.0139 83.681C61.3109 83.3083 60.7313 82.7805 60.275 82.0973C59.8187 81.4142 59.5905 80.5013 59.5905 79.3586C59.5905 78.2905 59.8064 77.3714 60.238 76.6013C60.6696 75.8312 61.2369 75.1978 61.9399 74.701C62.6428 74.2042 63.4506 73.8378 64.3632 73.6018C65.2758 73.3658 66.2007 73.2478 67.138 73.2478C68.3219 73.2478 69.5182 73.4217 70.7267 73.7694C71.9353 74.1172 72.9589 74.7382 73.7975 75.6325L70.3938 79.0233ZM88.0458 78.1663H83.6236V84.2026C83.6236 84.6994 83.6483 85.1528 83.6976 85.5626C83.7469 85.9725 83.8579 86.3265 84.0306 86.6246C84.2032 86.9227 84.4684 87.1525 84.826 87.3139C85.1837 87.4754 85.6585 87.5561 86.2504 87.5561C86.5464 87.5561 86.9349 87.5251 87.4158 87.463C87.5629 87.444 87.7189 87.4037 87.8841 87.342C88.1228 87.253 88.3887 87.3738 88.478 87.6119C88.4973 87.6635 88.5072 87.7181 88.5072 87.7732V91.3463C88.5072 91.5524 88.37 91.7333 88.1712 91.7893C87.4954 91.9798 86.9661 92.0964 86.5834 92.1393C85.9174 92.2138 85.2638 92.2511 84.6225 92.2511C83.6853 92.2511 82.822 92.1517 82.0327 91.953C81.2434 91.7542 80.5528 91.4375 79.9609 91.0028C79.3689 90.5681 78.9064 90.003 78.5735 89.3074C78.2405 88.6119 78.074 87.7673 78.074 86.7736V78.1663H74.9837C74.7288 78.1663 74.5222 77.9602 74.5222 77.7059V74.1553C74.5222 73.901 74.7288 73.6949 74.9837 73.6949H78.074V68.7896C78.074 68.5354 78.2806 68.3293 78.5354 68.3293H83.1621C83.417 68.3293 83.6236 68.5354 83.6236 68.7896V73.6949H88.0458C88.3007 73.6949 88.5072 73.901 88.5072 74.1553V77.7059C88.5072 77.9602 88.3007 78.1663 88.0458 78.1663ZM102.551 80.7C102.576 79.7561 102.267 78.9488 101.626 78.2781C100.985 77.6074 100.159 77.272 99.1473 77.272C98.5306 77.272 97.988 77.3714 97.5194 77.5701C97.0507 77.7688 96.6499 78.0234 96.317 78.334C95.984 78.6445 95.725 79.0047 95.54 79.4145C95.355 79.8244 95.2502 80.2529 95.2255 80.7H102.551ZM110.841 73.6949H115.467C115.722 73.6949 115.929 73.901 115.929 74.1553V76.6013H116.003C116.595 75.4835 117.298 74.6451 118.112 74.0862C118.926 73.5272 119.949 73.2478 121.182 73.2478C121.503 73.2478 121.824 73.2602 122.144 73.2851C122.281 73.2956 122.451 73.3197 122.655 73.3574C122.874 73.3978 123.032 73.5881 123.032 73.81V77.9405C123.032 78.1947 122.826 78.4009 122.571 78.4009C122.533 78.4009 122.496 78.3963 122.459 78.3872C122.215 78.3265 122.018 78.2839 121.867 78.2594C121.485 78.1973 121.084 78.1663 120.665 78.1663C119.604 78.1663 118.765 78.3153 118.149 78.6134C117.532 78.9115 117.057 79.3276 116.724 79.8617C116.391 80.3958 116.175 81.0354 116.077 81.7806C115.978 82.5259 115.929 83.3456 115.929 84.2399V91.3436C115.929 91.5978 115.722 91.8039 115.467 91.8039H110.841C110.586 91.8039 110.379 91.5978 110.379 91.3436V74.1553C110.379 73.901 110.586 73.6949 110.841 73.6949Z" fill="#3D474D"/>
</svg>
