<svg width="293" height="68" viewBox="0 0 293 68" fill="none" xmlns="http://www.w3.org/2000/svg">
<g clip-path="url(#clip0_396_155)">
<path d="M102.385 0C102.385 0 81.9301 0 81.9301 20.4545V47.0455C81.9301 47.0632 81.9295 47.0808 81.9295 47.0986C81.9214 47.6311 81.787 52.1512 79.5996 56.8017C76.8879 61.9981 72.0751 65.4545 66.589 65.4545C65.1519 65.4544 63.7248 65.2156 62.3659 64.7478C71.7005 59.1682 71.7028 47.0455 71.7028 47.0455V20.4545C71.7028 0 92.1573 0 92.1573 0H81.9301C81.9301 0 61.4756 0 61.4756 20.4545V47.0455C61.4756 47.0632 61.4749 47.0808 61.4749 47.0986C61.4668 47.6311 61.3327 52.1512 59.1451 56.8017C58.3756 58.2761 57.4371 59.6106 56.3618 60.7655C55.2868 59.6106 54.3483 58.2763 53.5788 56.8021C51.3911 52.1512 51.257 47.6311 51.2487 47.0986L51.2482 47.0455V20.4545C51.2482 0 30.7935 0 30.7935 0H20.5663C20.5663 0 41.0209 0 41.0209 20.4545V47.0455C41.0209 47.0455 41.0231 59.1682 50.3579 64.7478C48.999 65.2156 47.5718 65.4544 46.1347 65.4545C40.6485 65.4545 35.8362 61.9983 33.1243 56.8021C30.9366 52.1512 30.8023 47.6311 30.7942 47.0986C30.7942 47.0808 30.7935 47.0632 30.7935 47.0455V20.4545C30.7935 0 10.339 0 10.339 0H0.111816C0.111816 0 20.5663 0 20.5663 20.4545V47.0455C20.5663 47.0455 20.5663 67.5 41.0209 67.5H71.7028C92.1573 67.5 92.1573 47.0455 92.1573 47.0455V20.4545C92.1573 0 112.612 0 112.612 0H102.385Z" fill="#F68000"/>
<path d="M114.921 24.3455L119.877 38.4246L125.201 24.8218C125.397 24.3198 126.11 24.3263 126.297 24.8317L131.337 38.4246L136.828 24.3455H139.137L131.821 42.6895C131.621 43.1892 130.91 43.1793 130.725 42.6742L125.734 29.0761L120.387 42.6717C120.189 43.1744 119.475 43.1656 119.29 42.658L112.612 24.3455H114.921ZM148.375 33.7505C148.375 38.0585 151.783 41.4941 156.006 41.4941C160.23 41.4941 163.637 38.0585 163.637 33.7505C163.637 29.4424 160.23 26.0064 156.006 26.0064C151.783 26.0064 148.375 29.4424 148.375 33.7505ZM146.235 33.7505C146.235 28.1466 150.6 24.0356 156.006 24.0356C161.413 24.0356 165.777 28.1468 165.777 33.7505C165.777 39.3257 161.441 43.4651 156.006 43.4651C150.572 43.4651 146.235 39.3257 146.235 33.7505ZM176.961 33.7505C176.961 38.0585 180.368 41.4941 184.592 41.4941C188.816 41.4941 192.223 38.0585 192.223 33.7505C192.223 29.4424 188.816 26.0064 184.592 26.0064C180.368 26.0064 176.961 29.4424 176.961 33.7505ZM174.821 33.7505C174.821 28.1466 179.185 24.0356 184.592 24.0356C189.998 24.0356 194.363 28.1468 194.363 33.7505C194.363 39.3257 190.026 43.4651 184.592 43.4651C179.157 43.4651 174.821 39.3257 174.821 33.7505ZM206.63 24.3455V41.1561H211.811V43.1273H204.546V24.3455H206.63ZM220.517 43.1271L223.338 25.2344C223.429 24.6596 224.211 24.5531 224.452 25.083L230.852 39.1568L237.375 25.0601C237.62 24.5311 238.403 24.644 238.488 25.2207L241.129 43.1271H238.989L237.215 30.0614L231.36 42.7532C231.149 43.209 230.501 43.2072 230.293 42.7505L224.516 30.0614L222.657 43.1271H220.517ZM258.457 28.3439L252.177 43.1273H249.868L257.969 24.6834C258.175 24.2134 258.844 24.2165 259.045 24.6886L266.932 43.1273H264.623L258.457 28.3439ZM275.885 43.1271V25.0218C275.885 24.4924 276.531 24.2336 276.896 24.6166L290.528 38.9032V24.3452H292.611V42.5072C292.611 43.0364 291.966 43.2952 291.6 42.912L277.969 28.6254V43.1271H275.885Z" fill="#221922"/>
</g>
<defs>
<clipPath id="clip0_396_155">
<rect width="292.5" height="67.5" fill="white" transform="translate(0.113281)"/>
</clipPath>
</defs>
</svg>
