<svg width="215" height="40" viewBox="0 0 215 40" fill="none" xmlns="http://www.w3.org/2000/svg">
<path d="M28.4249 8.01146V2.55532H0.130249V36.3544H28.4249V30.8983H6.74521V22.0139H26.8798V17.6201H6.74521V8.01146H28.4249Z" fill="#D9D9D9"/>
<path d="M54.5852 2.55532V25.1524C54.5852 29.836 51.5916 32.8296 46.9563 32.8296C42.2727 32.8296 38.7962 30.5603 38.7962 25.1524V2.55532H31.6019V24.1867C31.6019 30.8017 35.1749 37.0787 46.7149 37.0787C57.9169 37.0787 61.7796 30.4637 61.7796 24.1867V2.55532H54.5852Z" fill="#D9D9D9"/>
<path d="M67.6699 36.3544H74.2849V22.9796H91.4259L86.6457 36.451H100.696V30.9466H95.2403C96.2543 24.7661 97.22 20.6137 92.7295 20.324V18.7306C97.1234 18.0546 100.358 15.5438 100.358 10.812C100.358 4.43841 94.5161 2.6036 87.8528 2.6036H67.6699V36.3544ZM74.2849 7.96318H87.8045C90.9913 7.96318 93.7918 9.55656 93.7918 12.9365C93.7918 16.2198 90.9913 17.958 87.708 17.9098L74.2849 17.8132V7.96318Z" fill="#D9D9D9"/>
<path d="M126.369 2.55532V25.1524C126.369 29.836 123.375 32.8296 118.74 32.8296C114.056 32.8296 110.58 30.5603 110.58 25.1524V2.55532H103.385V24.1867C103.385 30.8017 106.958 37.0787 118.498 37.0787C129.7 37.0787 133.563 30.4637 133.563 24.1867V2.55532H126.369Z" fill="#D9D9D9"/>
<path d="M166.879 20.7103C165.961 19.31 162.823 18.4892 159.298 18.4892C157.608 18.4892 155.822 18.6823 154.132 19.1169C152.732 19.5031 150.752 20.2757 149.593 20.6137L149.641 19.0686C153.456 18.296 158.043 16.9924 160.505 14.0953L172.721 2.55532H164.61L148.434 17.3304H146.068V2.55532H139.453V36.3544H146.068V22.9796H163.209L158.429 36.451H172.48V30.9466H167.024C167.893 25.249 169.1 21.8208 166.879 20.7103Z" fill="#D9D9D9"/>
<path d="M201.841 27.4625C197.301 32.0023 192.38 35.2668 188.11 36.8869C183.793 38.5252 180.346 38.4165 178.512 36.5829C176.678 34.7492 176.57 31.3022 178.208 26.9844C179.828 22.7148 183.092 17.7933 187.632 13.2534C192.172 8.71347 197.094 5.44898 201.363 3.82893C205.681 2.19061 209.128 2.29929 210.962 4.13294C212.795 5.9666 212.904 9.41366 211.266 13.7314C209.646 18.001 206.381 22.9226 201.841 27.4625Z" stroke="#D9D9D9"/>
<mask id="mask0_200_117" style="mask-type:alpha" maskUnits="userSpaceOnUse" x="169" y="-1" width="44" height="40">
<path d="M202.196 27.8157C193.04 36.9718 181.948 40.7247 177.421 36.1981C172.895 31.6715 163.916 14.6875 173.072 5.53142C182.228 -3.62465 206.052 -1.48558 210.578 3.04103C215.105 7.56764 211.352 18.6596 202.196 27.8157Z" fill="#FF6161"/>
</mask>
<g mask="url(#mask0_200_117)">
<path d="M192.776 1.64502C181.381 1.64502 172.4 9.41881 172.4 19.3171C172.4 29.4086 181.14 36.9409 192.776 36.9409C204.461 36.9409 213.201 29.4086 213.201 19.3171C213.152 9.17739 204.461 1.64502 192.776 1.64502ZM192.776 31.8228C185.63 31.8228 179.884 27.3806 179.884 19.5103C179.884 11.7365 185.63 6.90802 193.066 7.00459C200.743 7.10116 205.861 11.6399 205.861 19.5103C205.861 27.284 200.019 31.8228 192.776 31.8228Z" fill="#D9D9D9"/>
</g>
</svg>
