<svg width="280" height="209" viewBox="0 0 280 209" fill="none" xmlns="http://www.w3.org/2000/svg">
<g clip-path="url(#clip0_1501_24102)">
<rect width="280" height="208" transform="translate(0 0.307617)" fill="white"/>
<path d="M290.001 -43.9976H-13.1445V211.392H290.001V-43.9976Z" fill="#D9D9D9"/>
<path d="M30.0471 -44.1011V-31.1815H24.0254L25.6457 -14.987L36.4399 -7.81474L54.8217 -17.2995L69.6429 -12.9057L74.9702 7.55339C74.9702 7.55339 82.3808 15.3174 79.3682 34.5182C76.3556 53.719 70.8003 56.7253 68.717 71.0698C66.6337 85.4143 62.6953 95.3582 62.6953 95.3582L65.2415 97.4395H70.5688C70.5688 97.4395 72.972 86.1659 72.972 82.221C72.972 78.2761 74.5073 63.1528 74.9464 59.6466C75.3855 56.1404 81.3085 52.1955 81.5264 47.1521C81.7442 42.1087 86.3533 29.6313 86.3533 26.6658C86.3533 23.7003 82.8437 12.5219 83.5007 9.23338C84.1577 5.94482 88.3276 1.99992 88.1064 -2.38369C87.8851 -6.7673 80.4269 -19.4284 76.9173 -18.9047C73.4078 -18.381 67.9239 -22.5469 62.8757 -22.5469C57.8275 -22.5469 54.3179 -21.6695 53.4431 -21.6695C52.5682 -21.6695 43.1765 -27.2502 43.3535 -33.7287C43.5305 -40.2072 43.3535 -44.1045 43.3535 -44.1045H30.0437L30.0471 -44.1011Z" fill="#BABABA"/>
<path d="M95.929 99.5993C95.929 99.5993 103.789 95.8176 103.789 94.3655C103.789 92.9134 97.968 92.1856 97.968 92.1856L96.8038 83.5986L99.8607 79.6809L94.4755 75.7564L96.2218 74.4471H100.589L102.189 70.8117L114.124 75.9027L115.141 72.2672L104.807 68.778L99.8573 64.1258L111.356 61.3643L117.905 52.4951L101.457 43.1871L101.164 36.3516H105.532L100.875 29.516L102.332 23.8435H107.864L110.628 18.171L115.723 17.1541L123.73 7.55713L132.189 17.4466L131.151 37.3684L144.542 40.2761L150.363 39.2592L151.381 41.4391L155.309 41.1467V38.6743H157.202C157.202 38.6743 160.112 46.3805 166.226 47.1082C172.339 47.836 175.396 45.9452 175.396 45.9452L179.325 52.9236L185.728 48.1251H188.931V57.2868L194.17 50.3084L203.694 55.5286V60.6399L225.592 61.2521L231.733 65.3398V73.7228L236.029 73.9268L237.666 81.6942L245.853 79.6503L253.015 89.8731L250.561 93.3487L232.349 88.4413L228.258 96.2087L223.141 90.4852V97.0283C223.141 97.0283 225.803 100.33 232.349 99.5993C238.895 98.8681 242.582 99.7047 242.582 99.7047L246.265 103.98L240.536 105.615L256.089 117.882V119.722H250.156L250.768 124.221H268.572V138.123L263.251 134.852L263.047 126.673L261.001 126.469L258.955 131.172C258.955 131.172 248.518 126.673 245.856 126.88C243.194 127.088 238.49 139.147 238.49 139.147H231.124C231.124 139.147 230.511 143.235 231.328 143.439C232.145 143.643 237.673 146.098 237.673 146.098L234.586 149.241L220.244 152.437L216.02 148.727L213.715 154.485L203.983 158.45L202.574 163.952L183.239 172.652H175.172L167.999 177.256L171.328 180.966L166.845 192.352L163.006 193.631H160.187L157.882 197.851L140.212 192.607L142.132 197.851L137.138 203.225V210.645H79.1335L75.1644 205.911L80.2875 203.609L81.6593 203.786C84.3485 204.133 86.5611 201.701 85.9552 199.059L85.7646 198.229C85.3731 196.525 85.7373 194.736 86.7585 193.318L87.4734 192.325C88.8656 190.393 91.2587 189.448 93.5972 189.91L94.8363 190.155C97.9714 190.774 100.93 188.479 101.11 185.292L101.158 184.422L106.921 181.48L109.739 184.037L111.914 179.178L107.431 170.863L101.798 167.408L106.281 157.685L92.4501 150.009L95.5239 141.949L101.158 141.055L107.561 130.822L112.939 126.217L108.841 123.531L112.299 116.365L110.25 114.447L106.536 115.216L105.127 112.145L99.2377 114.318V116.236L101.032 116.491L98.7271 119.178L92.4535 120.072L91.8135 124.806L87.3304 126.469L67.7402 131.329L64.411 139.388L55.1929 143.867L53.4705 141.13V137.589L48.1568 133.461V130.217L39.4492 132.577L38.268 130.659L42.2542 129.036L40.9266 126.53L36.3516 125.496L37.6791 120.776L40.4841 121.66L43.4354 120.334L46.979 120.038L62.1814 110.451L65.4288 112.369L65.2825 115.025H62.7737L66.3173 121.072L74.8785 113.845L80.9308 116.794L77.8297 111.927L80.7811 111.339L88.0146 117.09L89.7847 115.909L85.2097 110.455L86.9798 109.098L89.1924 111.927L92.736 111.339L94.8023 114.879L95.6873 112.223L93.0288 108.39L94.9487 102.935L98.4923 100.871L98.3459 102.789L98.1995 104.558L102.482 103.673C102.482 103.673 103.517 102.198 102.924 100.133C102.332 98.0689 101.597 97.7731 101.597 97.7731L95.9426 99.5993H95.929Z" fill="#BABABA"/>
<path d="M-7.82227 134.828H-4.84373L-3.8872 132.277H-1.54862L-2.50516 140.885H-0.80314L2.6009 134.403L5.15393 134.083V137.378L7.4959 137.589L8.02693 134.294L5.0484 131.743V126.326L-1.65415 124.625L-2.50516 128.132L-7.82227 134.828Z" fill="#BABABA"/>
<path d="M216.805 -25.1215L223.092 -26.7573L230.884 -14.7424L244.687 -10.7838L247.557 -12.0115L253.708 -8.18905L258.491 -1.63574L254.528 1.09509L256.85 8.60402L262.18 11.7463L260.676 16.5244L291.793 41.3652L289.123 54.1198L261.088 26.2201L249.882 17.7521L245.78 12.974L247.172 -2.59136L240.041 -4.5026L237.307 0.139471L234.162 1.91468L230.748 -4.5026L227.466 -5.86631L226.373 -10.7838L216.805 -25.1215Z" fill="#BABABA"/>
<path d="M-13.1602 -14.1507C-13.1602 -14.1507 -4.98706 -17.4426 -2.51573 -14.1507C-0.0444021 -10.8587 3.04306 -9.21614 3.04306 -9.21614V-4.50606L10.2494 -8.6006V-6.33908L5.71863 -3.3702L5.92287 -0.785602L0.101971 0.0373869L2.83541 13.4059H-1.45708L-4.37093 18.7519L3.03966 27.8014L-2.31149 34.7934L-13.1602 36.0279V-14.1507Z" fill="#BABABA"/>
<path d="M15.1504 19.6839C15.1504 19.6839 17.7953 14.763 22.6018 14.882C27.4083 15.001 31.4932 16.2015 31.4932 16.2015V21.0034L15.1504 19.6839Z" fill="#BABABA"/>
<path d="M42.0723 199.075L42.988 195.926L56.5224 192.773L60.4881 208.427L42.0723 199.075Z" fill="#BABABA"/>
<path d="M64.0508 182.245L64.7656 184.438L67.0021 185.047L71.989 195.011L75.1411 195.722L80.128 188.301L72.0911 186.676L70.8691 181.289L64.0508 182.245Z" fill="#BABABA"/>
<path d="M46.8574 187.387L50.013 185.863L52.9609 189.318L51.2827 191.451L46.8574 187.387Z" fill="#BABABA"/>
<path d="M46.2461 157.096V161.364H54.283L62.1157 159.232L65.6797 157.504L56.7237 153.032L52.9589 154.148L52.2474 155.573L48.6868 155.369V157.198L46.2461 157.096Z" fill="#BABABA"/>
<path d="M73.7188 146.829V149.88L77.8887 150.386L82.062 149.88L82.7735 145.102H81.0442L80.1285 148.254L73.7188 146.829Z" fill="#BABABA"/>
<path d="M12.0508 142.435L12.4422 147.234H16.0573V141.503L12.0508 142.435Z" fill="#BABABA"/>
<path d="M221.835 91.3287H221.127C220.8 91.3287 220.535 91.594 220.535 91.9205V93.0529C220.535 93.257 220.429 93.444 220.259 93.5528L214.516 97.1883C214.087 97.4603 214.176 98.1065 214.659 98.2527L220.089 99.9123C220.123 99.9225 220.157 99.9293 220.194 99.9327L226.744 100.688C227.292 100.752 227.622 100.096 227.244 99.6946L226.798 99.2219C226.761 99.1811 226.716 99.1471 226.669 99.1199L223.435 97.1985C223.255 97.0931 223.146 96.8992 223.146 96.6884V91.6756C223.146 91.1859 222.584 90.907 222.196 91.2029C222.094 91.2811 221.968 91.3219 221.838 91.3219L221.835 91.3287Z" fill="#6D6D6D"/>
<path d="M225.767 37.0083L224.627 34.5428L225.767 31.9922C226.884 31.9922 227.885 32.6791 228.283 33.7232L228.766 34.9849L225.767 37.0083Z" fill="#6D6D6D"/>
<path d="M180.17 122.677C180.17 122.773 180.18 122.871 180.204 122.963L180.541 124.395C180.633 124.779 180.898 125.099 181.263 125.259L187.805 128.102C188.632 128.462 189.562 127.853 189.562 126.952V126.633C189.562 126.184 189.323 125.769 188.932 125.544L182.052 121.589C181.215 121.11 180.173 121.712 180.173 122.677H180.17Z" fill="#6D6D6D"/>
<path d="M44.7676 118.627C44.7676 118.627 48.5699 122.31 49.8736 125.173C51.1774 128.037 52.1407 126.476 52.9645 129.343C53.7883 132.21 59.2892 131.819 59.473 134.032C59.6568 136.246 61.2193 141.443 58.7411 143.014C56.263 144.585 50.7859 140.545 49.2235 141.718C47.661 142.892 48.1818 145.755 48.1818 145.755L47.5283 148.751L48.832 151.094C48.832 151.094 52.7432 152.788 55.8715 152.659C58.9999 152.529 59.1326 147.969 62.9111 147.969C66.6896 147.969 73.2117 150.965 73.2117 150.965C73.2117 150.965 77.1229 152.138 80.7755 151.485C84.428 150.832 85.4696 150.703 85.4696 150.703C85.4696 150.703 86.2526 153.193 88.0771 152.665C89.9017 152.138 91.2055 149.792 91.2055 149.792C91.2055 149.792 94.075 153.21 97.2034 152.737C100.332 152.264 105.938 156.825 105.938 156.825L104.372 167.115H105.938C105.938 167.115 106.85 163.208 108.937 163.466C111.024 163.725 108.937 166.071 114.673 166.071C120.409 166.071 120.15 161.643 122.237 161.643C124.323 161.643 126.931 162.296 126.931 161.905C126.931 161.514 129.276 158.78 129.276 158.78L132.187 158.518C132.187 158.518 133.708 152.397 135.403 152.397C137.099 152.397 138.273 155.393 139.577 155.264C140.881 155.134 146.487 150.445 146.487 150.445C146.487 150.445 153.789 150.574 155.355 148.88C156.92 147.187 161.873 139.763 161.873 139.763C161.873 139.763 175.302 143.412 176.347 142.106C177.392 140.8 180.592 135.852 180.167 133.9C179.741 131.948 173.219 130.727 172.307 128.863C171.394 127 166.83 129.601 166.83 125.565C166.83 121.528 169.437 119.834 169.437 119.834C169.437 119.834 163.177 110.455 166.309 110.455C169.44 110.455 175.697 119.834 175.697 119.834C175.697 119.834 179.087 112.931 181.174 113.451C183.261 113.971 185.868 120.225 187.564 118.661C189.259 117.097 184.302 112.669 184.302 111.366C184.302 110.064 185.422 108.241 189.555 108.108C193.687 107.976 201.384 106.677 205.945 106.544C210.507 106.411 212.855 102.759 210.639 100.875C208.423 98.9908 203.988 98.4671 203.988 96.3858C203.988 94.3046 206.466 95.9948 209.332 93.519C212.199 91.0432 215.46 88.7001 218.591 88.9585C221.723 89.217 221.812 94.4134 223.136 97.0286C224.46 99.6438 227.329 101.069 230.458 100.875C233.586 100.681 234.498 99.1201 239.975 99.2493C245.453 99.3785 245.844 100.814 245.973 104.589C246.103 108.363 247.015 110.581 249.102 110.581C251.188 110.581 259.14 107.455 259.14 107.455C259.14 107.455 259.794 114.23 263.443 114.23C267.092 114.23 270.874 110.713 273.744 110.713C276.613 110.713 291.351 117.894 291.351 117.894" stroke="#6D6D6D" stroke-width="0.29662" stroke-miterlimit="10"/>
<path d="M47.3276 -26.8076C47.3276 -26.8076 42.4054 -22.8729 42.208 -19.5299C42.0105 -16.187 39.0558 -13.8234 36.513 -12.7454C33.9702 -11.6673 33.9396 -12.0516 36.1045 -4.77395C38.2695 2.50373 31.1823 1.5209 29.6062 0.932567C28.0301 0.344232 27.8327 -6.34511 27.2438 -6.98106C26.6549 -7.617 26.8489 -10.6743 25.4703 -12.2455C24.0917 -13.8166 15.6258 -11.2626 12.4737 -9.88532C9.32156 -8.50801 11.2925 -3.39323 7.35403 -2.4036C3.41555 -1.41397 -0.325485 -1.42418 -6.23489 -1.22693C-12.1443 -1.02969 -13.1621 -3.58708 -13.1621 -3.58708" stroke="#6D6D6D" stroke-width="0.29662" stroke-miterlimit="10"/>
<path d="M43.5286 -44.1006C43.5286 -44.1006 42.0546 -33.2181 45.0025 -28.0625C47.9504 -22.9069 49.792 -21.0705 54.5815 -21.4378C59.3709 -21.8051 66.002 -22.3594 66.002 -22.3594C66.002 -22.3594 77.2387 -20.2305 81.6606 -12.7352C86.0824 -5.23985 88.6593 -5.05961 85.7148 3.22129C82.7703 11.5022 84.4247 16.1035 84.4247 22.1773C84.4247 28.2511 81.293 37.8209 81.293 42.2385C81.293 46.6561 78.1612 52.7299 78.1612 52.7299C78.1612 52.7299 73.7394 59.9055 73.1879 68.3735C72.6365 76.8414 72.8203 82.1773 71.714 85.8569C70.6077 89.5366 61.2125 103.34 61.2125 103.34C61.2125 103.34 58.0808 105.18 55.6878 107.204C53.2947 109.227 48.1342 117.695 43.1609 117.508C38.1876 117.321 35.9784 116.403 31.7404 112.172C27.5024 107.942 19.3973 110.149 13.3211 107.571C7.24494 104.993 4.66467 99.4736 2.08442 97.8175C-0.495844 96.1613 -3.30417 93.9542 -8.22982 93.7671C-13.1555 93.5801 -15.2285 95.2397 -15.2285 95.2397V98.7357C-15.2285 98.7357 -11.3615 96.8959 -8.046 97.0795C-4.73047 97.2631 -1.23112 98.1848 3.19073 103.153C7.61257 108.122 13.1373 111.251 20.1394 111.618C27.1415 111.985 28.0606 111.985 30.2698 113.825C32.4791 115.665 35.9444 120.099 39.1033 120.099C42.2623 120.099 47.7087 119.882 48.6891 118.141C49.6694 116.399 52.9373 111.393 55.9873 109.326C59.0374 107.258 63.9392 106.061 64.157 104.211C64.3749 102.361 72.3267 89.846 72.3267 89.846C72.3267 89.846 74.7232 84.9489 74.7232 82.3371C74.7232 79.7253 75.0499 70.1487 75.3767 65.9045C75.7035 61.6603 82.0214 49.9072 82.0214 49.9072C82.0214 49.9072 83.3286 41.963 83.6554 38.8071C83.9821 35.6512 87.5768 27.5981 87.5768 25.6393C87.5768 23.6804 84.9625 15.4097 84.9625 12.3626C84.9625 9.3155 88.6661 4.0919 88.9929 0.0653687C89.3197 -3.96116 89.2107 -8.09651 85.9429 -11.5789C82.675 -15.0613 80.3875 -20.1761 74.2874 -21.8085C68.1874 -23.4408 67.0981 -25.6173 66.1177 -25.6173C65.1374 -25.6173 54.898 -23.5497 54.898 -23.5497C54.898 -23.5497 49.5605 -24.2128 48.5802 -26.8178C47.5998 -29.4228 46.0748 -30.1846 45.9659 -32.4699C45.8569 -34.7552 46.4016 -44.876 46.4016 -44.876L43.532 -44.1108L43.5286 -44.1006Z" fill="#6D6D6D"/>
<path d="M217.746 -40.5772C217.746 -40.5772 218.526 -43.995 220.619 -27.9161C222.713 -11.8372 226.413 -10.5517 229.953 -10.3919C233.493 -10.232 244.761 -10.8748 248.301 -8.30038C251.841 -5.72599 253.934 14.8522 257.795 18.8719C261.655 22.8916 295.651 50.1162 295.651 50.1162" stroke="#6D6D6D" stroke-width="0.29662" stroke-miterlimit="10"/>
<path d="M-13.1602 194.447C-13.1602 194.447 6.27009 196.046 12.3565 194.447C18.4429 192.849 27.7291 187.727 31.2523 184.85C34.7755 181.973 44.7017 172.213 58.4744 174.131C72.2471 176.049 101.226 191.247 101.226 191.247" stroke="#898989" stroke-width="0.29662" stroke-miterlimit="10"/>
<path d="M-13.1602 198.1C-13.1602 198.1 2.05929 198.341 8.90821 197.44C15.7571 196.539 23.2392 192.6 28.6618 189.445C32.9067 186.976 41.3657 177.501 41.3657 177.501C41.3657 177.501 36.2801 182.425 32.0795 185.53C26.3641 189.757 17.2141 194.389 11.6587 195.94C6.10329 197.491 -13.1602 196.807 -13.1602 196.807" stroke="#898989" stroke-width="0.29662" stroke-miterlimit="10"/>
<path d="M-13.1602 199.107C-13.1602 199.107 7.48873 199.263 14.1028 197.44C20.7168 195.617 25.1795 193.012 28.4134 190.945C31.6472 188.877 43.0745 176.645 43.0745 176.645" stroke="#898989" stroke-width="0.29662" stroke-miterlimit="10"/>
<path d="M-13.1641 37.3719L15.3141 35.726L25.9653 33.2366L38.8803 28.2544L61.5409 16.2565L85.8321 -9.36841C85.8321 -9.36841 88.9604 -15.6633 95.7583 -17.4759C102.556 -19.2885 107.768 -15.6633 112.527 -17.4759C117.285 -19.2885 123.402 -22.0023 128.614 -27.8891C133.826 -33.7758 143.571 -44.104 143.571 -44.104" stroke="white" stroke-width="0.88986" stroke-miterlimit="10"/>
<path d="M-14.6055 182.245C-14.6055 182.245 6.57104 173.308 13.6174 174.392C20.6638 175.477 32.3192 180.259 39.3655 178.273C46.4119 176.287 77.5827 162.476 77.5827 162.476C77.5827 162.476 86.28 151.372 87.4884 148.938C88.6969 146.503 97.0572 140.646 100.332 137.375C103.607 134.103 118.251 120.245 126.342 117.936C134.433 115.627 142.525 115.464 149.847 109.097C157.169 102.731 157.938 102.347 163.912 102.731C169.887 103.115 177.978 111.009 192.04 110.621C206.102 110.233 216.314 102.714 226.332 102.626C236.35 102.537 251.764 116.395 260.049 116.395C268.335 116.395 269.683 115.817 272.957 112.546C276.22 105.88 288.233 102.172 288.233 102.172" stroke="white" stroke-width="0.88986" stroke-miterlimit="10"/>
<path d="M-14.6055 85.0845C-14.6055 85.0845 -0.291496 86.7883 8.02457 91.5256C16.3406 96.2628 22.3726 100.238 31.492 99.48C40.6114 98.7216 54.5986 95.9806 56.5389 96.069C58.4792 96.1574 60.685 96.1574 60.685 96.1574C60.685 96.1574 68.5245 100.752 69.927 102.622C71.3294 104.493 72.2247 106.918 71.7141 109.852C71.2035 112.787 69.1951 120.058 71.8605 123.377C74.182 126.268 83.7031 134.008 86.6544 138.143C87.0901 138.752 87.3829 139.283 87.4884 139.708C88.3156 143.024 88.3701 147.74 88.3701 147.74" stroke="white" stroke-width="0.29662" stroke-miterlimit="10"/>
<path d="M93.4454 142.024L86.6543 138.147" stroke="white" stroke-width="0.29662" stroke-miterlimit="10"/>
<path d="M17.8691 -43.4038C17.8691 -43.4038 22.7335 -11.11 23.319 -7.64118C23.9045 -4.17238 33.7217 6.49588 34.2255 10.2129C34.7293 13.93 35.2331 34.7938 35.2331 40.3235C35.2331 45.8531 26.5528 86.5809 26.5528 86.5809C26.5528 86.5809 24.6908 93.4539 25.0414 95.3855C25.3921 97.3172 23.7139 101.177 23.3224 103.809C22.9309 106.441 21.7021 121.007 21.7021 121.884C21.7021 122.762 20.1464 133.512 20.8136 136.185C21.4808 138.858 25.8278 142.014 27.6081 142.439C29.3884 142.864 35.1651 146.424 35.2297 148.985C35.2944 151.546 36.0127 153.41 36.8773 153.036C37.7419 152.662 41.7553 152.549 43.6479 151.879C45.5406 151.209 47.2494 150.179 47.2494 150.179" stroke="white" stroke-width="0.29662" stroke-miterlimit="10"/>
<path d="M-13.1641 120.593L5.59218 125.337L16.0528 134.475L17.8671 149.414C17.8671 149.414 22.4013 159.78 24.0216 161.365C25.642 162.95 30.04 166.99 30.04 166.99L31.4458 170.152L26.9185 177.58L29.6315 181.287" stroke="white" stroke-width="0.29662" stroke-miterlimit="10"/>
<path d="M31.4512 170.155H42.0718L52.9579 166.401L53.6012 162.173L63.4661 158.575L84.3125 162.99C84.3125 162.99 85.6094 167.489 87.485 167.625C89.3606 167.761 94.4122 165.853 94.4122 165.853L106.697 169.261L110.52 167.077L122.805 167.485L124.851 168.305L137.953 161.361H154.47L157.608 162.578L160.202 161.361L164.025 162.986L179.993 153.025L192.414 147.166C192.414 147.166 205.653 137.076 214.391 137.076C223.129 137.076 240.599 140.895 240.599 140.895L255.886 146.214L258.344 173.076" stroke="white" stroke-width="0.29662" stroke-miterlimit="10"/>
<path d="M-15.6543 121.966L-9.9253 104.605L-11.3073 74.0256L-5.58175 65.9351L2.31902 39.8919L4.09593 14.8792L-8.34583 -44.1006" stroke="white" stroke-width="0.29662" stroke-miterlimit="10"/>
<path d="M-5.0332 64.1255L9.14461 65.2443L39.6414 69.3865L57.2198 92.2738" stroke="white" stroke-width="0.29662" stroke-miterlimit="10"/>
<path d="M42.2117 -44.1006C42.2117 -44.1006 42.0143 -32.6127 43.9886 -27.6782C45.963 -22.7437 49.9116 -17.418 49.9116 -17.418C49.9116 -17.418 47.5424 -8.14411 49.9116 -1.43776C52.2809 5.26858 54.8475 4.67685 53.268 12.1756C51.6885 19.6743 42.998 57.355 42.998 57.355C42.998 57.355 40.234 64.8537 39.2468 66.2344C38.2596 67.6151 34.3109 74.1276 34.9032 81.2285C35.4955 88.3293 40.234 107.469 40.234 107.469L37.5414 123.725C37.5414 123.725 29.7631 136.529 28.8338 137.086C27.9045 137.644 24.0273 140.089 24.0273 140.089" stroke="white" stroke-width="0.29662" stroke-miterlimit="10"/>
<path d="M23.4375 103.15L39.9641 109.098" stroke="white" stroke-width="0.29662" stroke-miterlimit="10"/>
<path d="M20.9863 97.44V93.9202C20.9863 93.9202 6.81193 84.0444 3.29896 83.5954C-0.214003 83.1465 -3.19254 78.9364 -5.03412 78.1984C-6.87571 77.4604 -10.3887 72.7231 -10.3887 72.7231" stroke="white" stroke-width="0.29662" stroke-miterlimit="10"/>
<path d="M-13.1641 130.798C-13.1641 130.798 -7.93546 124.881 -5.7773 124.623C-3.61914 124.364 -1.33844 120.423 -0.804004 118.845C-0.26957 117.267 5.29944 107.622 5.29944 107.622" stroke="white" stroke-width="0.29662" stroke-miterlimit="10"/>
<path d="M-14.6055 100.926C-14.6055 100.926 -10.0815 96.7735 -5.7754 97.9774C-1.46929 99.1813 3.49039 107.357 7.10888 109.098C10.7274 110.839 18.2435 112.849 20.9905 112.713C23.7376 112.577 27.0906 113.383 28.8334 114.454C30.5763 115.525 37.432 121.528 38.8958 121.963C40.3595 122.398 47.1744 120.722 48.9309 119.208C50.6874 117.695 71.1422 104.949 72.0647 102.623C72.9872 100.297 78.2465 93.6686 78.2465 93.6686C78.2465 93.6686 79.2506 79.9498 80.6361 72.7198C82.0215 65.4897 90.2219 46.0644 90.2219 46.0644C90.2219 46.0644 95.5764 12.7232 98.1567 7.55057C100.737 2.37798 113.89 -12.6637 113.89 -12.6637L122.57 -22.5396" stroke="white" stroke-width="0.29662" stroke-miterlimit="10"/>
<path d="M95.8145 1.88105L107.511 -5.13477" stroke="white" stroke-width="0.29662" stroke-miterlimit="10"/>
<path d="M58.0687 -16.3398C58.0687 -16.3398 57.2993 -14.0239 57.1291 -12.3949C56.9589 -10.766 59.0184 -7.07271 59.0184 -4.49832V1.63329" stroke="white" stroke-width="0.29662" stroke-miterlimit="10"/>
<path d="M65.7766 -14.0513C65.7766 -14.0513 68.9832 -9.13034 68.9832 -6.29749C68.9832 -3.46464 63.5605 4.9591 63.5605 4.9591" stroke="white" stroke-width="0.29662" stroke-miterlimit="10"/>
<path d="M31.4902 4.67979L38.186 3.28207H46.771L51.0634 1.31982" stroke="white" stroke-width="0.29662" stroke-miterlimit="10"/>
<path d="M-1.74829 122.038C-1.74829 122.038 -2.18741 126.207 -3.93027 128.094C-5.67314 129.982 -8.72656 134.195 -8.72656 134.195C-8.72656 134.195 -8.64146 143.058 -5.77526 149.087C-2.90906 155.117 1.4447 184.32 5.30147 190.567C9.15825 196.814 9.14463 211.777 9.14463 211.777" stroke="white" stroke-width="0.29662" stroke-miterlimit="10"/>
<path d="M-13.1641 177.583C-13.1641 177.583 5.37773 164.126 10.4668 162.381C15.5558 160.637 21.1827 156.522 21.1827 156.522L24.0284 155.454L25.8905 154.753L23.3783 147.744L20.1308 148.731L17.8739 149.414C17.8739 149.414 12.6522 148.867 9.1494 147.744C5.64664 146.622 2.18134 143.64 -1.74352 143.058C-5.66837 142.476 -13.1573 147.744 -13.1573 147.744C-13.1573 147.744 -9.63408 156.484 -9.34473 161.364C-9.05539 166.245 -3.92551 188.329 -3.92551 188.329" stroke="white" stroke-width="0.29662" stroke-miterlimit="10"/>
<path d="M-13.1641 191.451L14.0478 182.245L7.40994 147.744L9.88127 134.049L5.29943 131.22L8.7307 109.798" stroke="white" stroke-width="0.29662" stroke-miterlimit="10"/>
<path d="M15.9102 159.419L17.8675 175.29" stroke="white" stroke-width="0.29662" stroke-miterlimit="10"/>
<path d="M-13.1641 161.364L8.82261 155.083" stroke="white" stroke-width="0.29662" stroke-miterlimit="10"/>
<path d="M-13.1641 155.083L2.35154 150.625" stroke="white" stroke-width="0.29662" stroke-miterlimit="10"/>
<path d="M1.35547 144.367L9.14391 183.905L10.4102 191.451" stroke="white" stroke-width="0.29662" stroke-miterlimit="10"/>
<path d="M20.2793 175.29L28.1188 165.21" stroke="white" stroke-width="0.29662" stroke-miterlimit="10"/>
<path d="M14.9478 111.757L11.1387 130.182" stroke="white" stroke-width="0.29662" stroke-miterlimit="10"/>
<path d="M-0.431641 118.004L33.9423 129.547V133.509C33.9423 133.509 39.3173 134.464 42.6601 133.509C46.0028 132.553 46.122 131.373 47.3168 133.934C48.5116 136.494 47.3168 143.888 47.3168 143.888C47.3168 143.888 46.2513 144.007 46.2479 146.513C46.2445 149.02 49.7541 156.151 52.0586 156.522C54.3631 156.892 63.4723 158.576 63.4723 158.576" stroke="white" stroke-width="0.29662" stroke-miterlimit="10"/>
<path d="M39.2441 66.2309C39.2441 66.2309 41.9163 68.4652 46.7671 66.9484C51.6178 65.4317 66.6943 60.7386 68.781 60.7284C70.8676 60.7182 85.2293 64.976 87.4827 64.976C89.7362 64.976 94.1411 67.5504 97.3306 67.4755C100.52 67.4007 118.136 78.3274 121.173 79.9972C124.209 81.667 129.315 84.8671 132.154 85.0882C134.993 85.3092 139.854 81.2113 145.624 81.2113C151.394 81.2113 158.685 81.0583 158.685 81.0583C158.685 81.0583 168.557 75.4436 169.772 71.196C170.987 66.9484 170.228 65.1256 173.115 62.5478C176.001 59.97 177.771 60.0142 178.125 55.719C178.479 51.4239 163.849 31.1382 163.849 31.1382" stroke="white" stroke-width="0.29662" stroke-miterlimit="10"/>
<path d="M71.3457 105.245C71.3457 105.245 79.8694 101.694 80.7817 99.4156C81.694 97.1371 83.362 94.1036 84.2742 94.2566C85.1865 94.4097 85.9933 94.7906 85.9933 94.7906L84.0155 92.1141C84.0155 92.1141 86.1192 87.1456 87.777 87.2748C89.4348 87.4041 89.3701 89.1861 90.2619 87.9108C91.1538 86.6355 92.5563 79.4394 92.5563 79.4394L90.0713 77.7832L95.882 58.9769C95.882 58.9769 99.6026 59.6163 104.334 58.1131C109.066 56.61 112.453 57.8173 115.775 55.3551C119.098 52.8929 120.452 51.4306 123.496 51.3184C126.539 51.2061 139.951 52.1073 142.208 49.5159C144.464 46.9245 145.7 47.1524 145.138 44.6732C144.577 42.1941 145.138 39.1572 148.294 38.7049C151.45 38.2526 156.409 37.3547 160.691 33.4132C164.974 29.4717 170.046 29.5976 171.85 26.6627C173.654 23.7278 178.246 14.8926 185.609 14.8722C192.972 14.8518 194.054 9.00923 199.038 9.00923C204.021 9.00923 205.536 10.9579 209.002 9.00923C212.467 7.06058 212.035 1.38467 215.932 1.62613C219.83 1.86758 226.76 0.969781 228.493 1.30986C230.226 1.64994 241.272 20.997 241.272 20.997L242.596 25.2854C242.596 25.2854 240.172 24.8229 240.172 27.132C240.172 29.4411 241.442 39.2388 242.596 44.7753C243.75 50.3117 247.164 56.4229 247.164 56.4229L248.25 77.6404L257.384 93.8673" stroke="white" stroke-width="0.29662" stroke-miterlimit="10"/>
<path d="M51.0645 -44.1006C51.0645 -44.1006 52.5622 -31.4769 55.3774 -31.1504C58.1925 -30.8239 60.2043 -32.2285 67.2438 -30.2186C74.2834 -28.2087 91.9946 -15.3878 91.9946 -15.3878L97.4649 9.35291" stroke="white" stroke-width="0.29662" stroke-miterlimit="10"/>
<path d="M138.243 -0.870117C138.243 -0.870117 136.235 1.95933 138.243 4.95882C140.252 7.95831 136.66 11.774 137.351 13.3826C138.042 14.9911 142.202 14.3858 141.229 22.2246C140.255 30.0634 137.923 38.8374 137.923 38.8374" stroke="white" stroke-width="0.29662" stroke-miterlimit="10"/>
<path d="M144.877 -5.13477C144.877 -5.13477 150.279 0.520737 153.009 6.34628C155.739 12.1718 158.354 11.7705 161.37 14.1817C164.385 16.5928 164.038 26.6966 171.857 26.666C179.676 26.6353 190.331 26.666 190.331 26.666V38.8306" stroke="white" stroke-width="0.29662" stroke-miterlimit="10"/>
<path d="M169.168 38.8345L178.138 47.8397C178.138 47.8397 183.649 43.3915 185.695 40.8681C187.74 38.3448 189.786 38.5828 194.239 39.4262C198.691 40.2696 201.098 42.0618 201.098 42.0618" stroke="white" stroke-width="0.29662" stroke-miterlimit="10"/>
<path d="M195.838 51.2159C195.838 51.2159 195.923 44.5912 204.345 40.262C212.766 35.9328 222.754 32.9299 222.754 32.9299L225.763 26.1964L220.83 16.0994C220.83 16.0994 213.971 14.1746 213.971 11.1717C213.971 8.16881 215.173 -0.129104 213.13 -2.05055C211.088 -3.97199 212.77 -7.64143 212.77 -7.64143L209.039 -19.3605L211.445 -22.5369L206.622 -34.5654" stroke="white" stroke-width="0.29662" stroke-miterlimit="10"/>
<path d="M199.045 9.01617L197.851 4.56115L200.618 0.595834L197.129 -5.13448C197.129 -5.13448 200.979 -10.103 200.618 -14.6737C200.257 -19.2443 201.098 -21.4072 201.098 -21.4072L209.04 -19.3634" stroke="white" stroke-width="0.29662" stroke-miterlimit="10"/>
<path d="M223.988 30.1791C223.988 30.1791 231.92 29.5295 233.053 29.2064C234.187 28.8834 237.587 23.0578 239.694 22.7347C241.802 22.4117 245.495 22.0648 246.186 19.9903C246.877 17.9158 252.072 12.8419 255.881 12.495C259.69 12.1481 262.92 12.495 262.92 12.495C262.92 12.495 263.267 18.2593 267.536 18.2593C280.374 19.9903 290.608 15.5596 290.608 15.5596" stroke="white" stroke-width="0.29662" stroke-miterlimit="10"/>
<path d="M275.182 -43.9121C277.95 -41.8358 283.784 -35.9924 284.97 -29.2294C286.453 -20.7758 284.97 -17.9579 284.97 -11.2839C284.97 -5.94476 283.19 -0.951657 282.301 0.877499L285.712 19.1196V33.0608L290.902 42.256" stroke="white" stroke-width="0.29662" stroke-linejoin="round"/>
<path d="M254.164 116.365C254.164 116.365 251.376 113.043 253.452 112.352C255.529 111.662 256.798 113.57 256.798 109.098C256.798 104.626 255.297 95.7464 255.297 95.7464C255.297 95.7464 257.952 94.5935 258.875 92.2878C259.797 89.9821 262.337 83.9865 265.223 81.6808C268.11 79.375 288.518 73.6123 288.518 73.6123" stroke="white" stroke-width="0.29662" stroke-miterlimit="10"/>
<path d="M289.704 96.7733C289.704 96.7733 268.579 102.089 265.114 100.936C261.649 99.783 257.149 97.4535 250.569 96.7733C243.989 96.0932 233.371 97.1066 229.91 96.7733C226.448 96.4401 223.677 89.057 219.983 88.5979C216.29 88.1388 203.593 92.0122 199.9 94.9165C196.206 97.8208 179.932 102.626 179.932 102.626L173.352 99.783L167.582 102.089L163.912 102.732" stroke="white" stroke-width="0.29662" stroke-miterlimit="10"/>
<path d="M146.227 111.74C146.227 111.74 149.458 106.557 148.072 105.245C146.687 103.932 141.955 101.973 136.992 101.514C132.029 101.055 126.259 100.936 126.259 100.936L115.642 97.4397L111.717 93.0391L106.638 93.9029C106.638 93.9029 101.444 91.5972 99.0199 94.1342C96.5963 96.6711 95.9052 98.7456 93.9411 98.7456C91.977 98.7456 85.9961 94.7939 85.9961 94.7939" stroke="white" stroke-width="0.29662" stroke-miterlimit="10"/>
<path d="M115.64 97.4399L106.408 122.038" stroke="white" stroke-width="0.29662" stroke-miterlimit="10"/>
<path d="M113.6 95.1509C113.6 95.1509 109.753 99.8202 109.637 102.626C109.522 105.431 109.375 105.207 107.445 109.097C105.515 112.988 99.0202 120.194 99.0202 120.194C99.0202 120.194 90.7109 129.88 90.7109 133.454C90.7109 137.028 91.1024 138.99 93.4444 138.875C95.7864 138.759 100.334 137.378 100.334 137.378" stroke="white" stroke-width="0.29662" stroke-miterlimit="10"/>
<path d="M75.9281 164.136C75.9281 164.136 70.8119 174.056 71.2714 179.576C71.731 185.095 72.3028 186.782 72.0884 194.138C71.8739 201.494 64.8105 211.298 64.8105 211.298" stroke="white" stroke-width="0.29662" stroke-miterlimit="10"/>
<path d="M36.8809 179.575C36.8809 179.575 45.6258 192.199 47.253 195.722C48.8801 199.245 45.5748 211.298 45.5748 211.298" stroke="white" stroke-width="0.29662" stroke-miterlimit="10"/>
<path d="M10.4492 191.159C10.4492 191.159 18.3735 205.249 26.7917 205.099C35.2099 204.949 66.9151 199.392 66.9151 199.392C66.9151 199.392 63.8378 196.842 73.7163 196.689C83.5948 196.536 98.6203 192.485 107.488 194.587C116.355 196.689 150.314 211.295 150.314 211.295" stroke="white" stroke-width="0.29662" stroke-miterlimit="10"/>
<path d="M106.699 169.265C106.699 169.265 110.192 177.773 112.595 178.977C114.998 180.181 113.647 183.851 114.399 187.717C115.151 191.584 121.463 195.723 121.463 195.723V199.44" stroke="white" stroke-width="0.29662" stroke-miterlimit="10"/>
<path d="M115.639 197.242L114.699 211.298" stroke="white" stroke-width="0.29662" stroke-miterlimit="10"/>
<path d="M25.8887 193.984L30.0961 201.946V211.298" stroke="white" stroke-width="0.29662" stroke-miterlimit="10"/>
<path d="M6.37891 192.774L13.0406 191.451L33.8733 178.691" stroke="white" stroke-width="0.29662" stroke-miterlimit="10"/>
<path d="M43.6504 151.876L46.2443 157.096L46.8536 168.506" stroke="white" stroke-width="0.29662" stroke-miterlimit="10"/>
<path d="M52.957 166.401L55.9594 167.353L61.685 178.691L71.7575 196.76" stroke="white" stroke-width="0.29662" stroke-miterlimit="10"/>
<path d="M42.0723 170.155L43.6517 178.691L53.7549 188.659L60.4881 208.428L67.2962 213.032" stroke="white" stroke-width="0.29662" stroke-miterlimit="10"/>
<path d="M56.5381 96.0732C56.5381 96.0732 55.9458 92.9683 57.2189 92.2745C58.492 91.5808 60.7114 93.0397 60.7114 93.0397C60.7114 93.0397 69.1228 77.998 69.8002 74.0667C70.4776 70.1354 71.0223 57.6681 71.0223 57.6681L72.2443 21.0009L63.564 4.95261L58.0018 0.888672L53.5527 6.44555" stroke="white" stroke-width="0.29662" stroke-miterlimit="10"/>
<path d="M60.6836 96.1615C60.6836 96.1615 61.4121 94.8045 61.0614 93.9203L60.7108 93.0361" stroke="white" stroke-width="0.29662" stroke-miterlimit="10"/>
<path d="M144.897 103.15C144.897 103.15 143.989 99.1401 146.909 96.7731C149.83 94.4062 158.694 81.0581 158.694 81.0581" stroke="white" stroke-width="0.29662" stroke-miterlimit="10"/>
<path d="M170.213 69.4307C170.213 69.4307 176.306 65.4313 180.888 66.8257C185.47 68.22 186.266 71.0426 188.659 69.4307C191.052 67.8187 193.238 63.0066 203.702 60.6362C214.166 58.2659 218.149 60.3574 221.934 58.1163C225.719 55.8751 230.699 54.8345 230.699 54.8345C230.699 54.8345 241.997 57.6639 252.686 56.273C263.375 54.8821 289.271 37.5093 289.271 37.5093" stroke="white" stroke-width="0.29662" stroke-miterlimit="10"/>
<path d="M206.986 47.8394H217.944V59.232" stroke="white" stroke-width="0.29662" stroke-miterlimit="10"/>
<path d="M215.762 60.9731C215.762 60.9731 216.732 64.0373 220.725 64.0373C224.718 64.0373 230.1 63.4387 236.475 68.2168C242.851 72.9949 253.114 76.3787 258.343 78.3681C263.571 80.3576 265.226 81.6771 265.226 81.6771" stroke="white" stroke-width="0.29662" stroke-miterlimit="10"/>
<path d="M247.746 67.625L260.385 73.1955V79.1877" stroke="white" stroke-width="0.29662" stroke-miterlimit="10"/>
<path d="M272.714 78.4902L274.529 85.0945L265.113 100.935" stroke="white" stroke-width="0.29662" stroke-miterlimit="10"/>
<path d="M256.576 105.245C256.576 105.245 270.107 102.803 272.16 103.15C274.212 103.497 278.924 109.098 278.924 109.098" stroke="white" stroke-width="0.29662" stroke-miterlimit="10"/>
<path d="M59.4648 145.979C59.4648 145.979 69.5748 145.973 72.2402 145.102C74.9056 144.231 78.102 142.228 80.0865 142.436C82.0711 142.643 88.3685 142.436 88.3685 142.436" stroke="white" stroke-width="0.29662" stroke-miterlimit="10"/>
<path d="M91.1836 145.102C91.1836 145.102 93.7877 148.285 97.3211 149.88C100.854 151.475 107.206 158.28 113.599 158.576C119.992 158.871 149.154 145.979 149.154 145.979H154.281L160.776 138.878H170.116L172.622 136.222" stroke="white" stroke-width="0.29662" stroke-miterlimit="10"/>
<path d="M144.897 209.805C144.897 209.805 144.754 201.324 152.454 201.062C160.154 200.8 170.209 194.539 170.209 194.539L178.307 195.974L187.318 171.706C187.318 171.706 191.532 169.676 196.648 167.397C203.136 164.507 211.071 161.211 213.699 161.137C218.4 161.007 234.596 158.005 248.441 157.484C262.285 156.964 289.419 141.92 289.419 141.92" stroke="white" stroke-width="0.29662" stroke-miterlimit="10"/>
<path d="M196.649 167.394L192.152 187.755L231.333 198.845L244.656 192.842L240.047 158.042" stroke="white" stroke-width="0.29662" stroke-miterlimit="10"/>
<path d="M29.082 178.164L37.259 179.319L72.3615 165.376C76.3101 163.808 79.6702 161.046 81.9728 157.475L85.0703 152.672L86.9721 149.758C88.7077 147.099 90.8515 144.731 93.3248 142.74L120.452 120.902C122.866 118.959 125.717 117.634 128.758 117.042L134.94 115.839C139.539 114.944 143.88 113.037 147.649 110.255L154.775 104.997C157.979 102.632 162.164 102.054 165.889 103.461L176.663 107.528C184.193 110.371 192.381 110.988 200.252 109.304L206.186 108.035L222.297 102.859C225.595 101.799 229.177 102.091 232.26 103.668L251.881 113.711L256.114 106.592" stroke="#049ADB" stroke-width="1.924" stroke-linecap="round" stroke-linejoin="round"/>
<circle cx="27.9984" cy="178.044" r="4.72255" fill="#049ADB" stroke="black" stroke-width="0.555593"/>
<circle cx="257" cy="105.308" r="4.85169" fill="#049ADB" stroke="black" stroke-width="0.29662"/>
<g clip-path="url(#clip1_1501_24102)">
<rect x="178.984" y="63.3076" width="91.443" height="29.0024" rx="11.6043" fill="#049ADB"/>
<path d="M190.181 76.1328H188.905L188.913 75.1904H190.181C190.498 75.1904 190.765 75.1192 190.983 74.9769C191.2 74.832 191.364 74.6212 191.474 74.3446C191.587 74.0681 191.643 73.7338 191.643 73.3418V73.0559C191.643 72.7552 191.611 72.4907 191.547 72.2625C191.485 72.0343 191.392 71.8423 191.269 71.6866C191.145 71.5308 190.993 71.414 190.814 71.3362C190.634 71.2556 190.427 71.2153 190.193 71.2153H188.88V70.2689H190.193C190.585 70.2689 190.944 70.336 191.269 70.4703C191.596 70.6018 191.879 70.7911 192.118 71.0381C192.357 71.2852 192.541 71.5805 192.67 71.9242C192.802 72.2652 192.868 72.6451 192.868 73.0639V73.3418C192.868 73.758 192.802 74.1379 192.67 74.4816C192.541 74.8252 192.357 75.1206 192.118 75.3676C191.882 75.6119 191.599 75.8012 191.269 75.9355C190.941 76.067 190.579 76.1328 190.181 76.1328ZM189.589 70.2689V76.1328H188.381V70.2689H189.589ZM195.962 75.0897V71.7752H197.122V76.1328H196.03L195.962 75.0897ZM196.091 74.1956L196.433 74.1876C196.433 74.4775 196.4 74.7474 196.332 74.9971C196.265 75.2441 196.165 75.4589 196.03 75.6415C195.896 75.8214 195.727 75.9623 195.523 76.0643C195.319 76.1637 195.079 76.2134 194.802 76.2134C194.59 76.2134 194.394 76.1838 194.214 76.1248C194.037 76.063 193.884 75.9677 193.755 75.8388C193.629 75.7072 193.529 75.5394 193.457 75.3354C193.387 75.1286 193.352 74.8803 193.352 74.5903V71.7752H194.512V74.5984C194.512 74.7272 194.527 74.836 194.556 74.9246C194.589 75.0132 194.633 75.0857 194.689 75.1421C194.746 75.1985 194.811 75.2387 194.887 75.2629C194.964 75.2871 195.05 75.2991 195.144 75.2991C195.383 75.2991 195.571 75.2508 195.708 75.1542C195.848 75.0575 195.946 74.9259 196.002 74.7595C196.061 74.5903 196.091 74.4024 196.091 74.1956ZM196.63 70.281V70.9375H193.868V70.281H196.63ZM198.879 72.6773V76.1328H197.715V71.7752H198.806L198.879 72.6773ZM198.718 73.8009H198.396C198.396 73.4975 198.432 73.2183 198.504 72.9632C198.58 72.7055 198.688 72.4826 198.831 72.2947C198.976 72.1041 199.154 71.9564 199.366 71.8517C199.578 71.747 199.824 71.6946 200.103 71.6946C200.297 71.6946 200.474 71.7241 200.635 71.7832C200.796 71.8396 200.934 71.9295 201.05 72.053C201.168 72.1739 201.259 72.3323 201.324 72.5283C201.388 72.7216 201.42 72.9538 201.42 73.225V76.1328H200.26V73.3539C200.26 73.1552 200.234 73.0022 200.18 72.8948C200.126 72.7874 200.05 72.7122 199.95 72.6692C199.854 72.6263 199.737 72.6048 199.6 72.6048C199.45 72.6048 199.318 72.6357 199.205 72.6974C199.095 72.7592 199.004 72.8451 198.931 72.9552C198.859 73.0626 198.805 73.1888 198.77 73.3338C198.735 73.4788 198.718 73.6345 198.718 73.8009ZM201.312 73.668L200.897 73.7204C200.897 73.4358 200.932 73.1713 201.001 72.927C201.074 72.6827 201.18 72.4679 201.32 72.2826C201.462 72.0973 201.638 71.9537 201.847 71.8517C202.057 71.747 202.298 71.6946 202.572 71.6946C202.782 71.6946 202.972 71.7255 203.144 71.7872C203.316 71.8463 203.462 71.9416 203.583 72.0732C203.707 72.2021 203.8 72.3712 203.865 72.5806C203.932 72.7901 203.966 73.0465 203.966 73.3499V76.1328H202.802V73.3499C202.802 73.1485 202.775 72.9955 202.721 72.8907C202.67 72.7834 202.595 72.7095 202.496 72.6692C202.399 72.6263 202.283 72.6048 202.149 72.6048C202.01 72.6048 201.887 72.633 201.783 72.6894C201.678 72.7431 201.591 72.8183 201.521 72.9149C201.451 73.0116 201.399 73.1243 201.364 73.2532C201.329 73.3794 201.312 73.5177 201.312 73.668ZM207.153 75.0897V71.7752H208.312V76.1328H207.221L207.153 75.0897ZM207.281 74.1956L207.624 74.1876C207.624 74.4775 207.59 74.7474 207.523 74.9971C207.456 75.2441 207.355 75.4589 207.221 75.6415C207.087 75.8214 206.918 75.9623 206.714 76.0643C206.51 76.1637 206.269 76.2134 205.993 76.2134C205.781 76.2134 205.585 76.1838 205.405 76.1248C205.227 76.063 205.074 75.9677 204.946 75.8388C204.819 75.7072 204.72 75.5394 204.648 75.3354C204.578 75.1286 204.543 74.8803 204.543 74.5903V71.7752H205.703V74.5984C205.703 74.7272 205.717 74.836 205.747 74.9246C205.779 75.0132 205.824 75.0857 205.88 75.1421C205.936 75.1985 206.002 75.2387 206.077 75.2629C206.155 75.2871 206.241 75.2991 206.335 75.2991C206.574 75.2991 206.762 75.2508 206.899 75.1542C207.038 75.0575 207.136 74.9259 207.193 74.7595C207.252 74.5903 207.281 74.4024 207.281 74.1956ZM207.584 75.8952L208.188 76.1328C208.053 76.2107 207.939 76.2859 207.845 76.3583C207.754 76.4308 207.684 76.5074 207.636 76.5879C207.59 76.6711 207.567 76.7624 207.567 76.8618C207.567 76.937 207.586 76.9987 207.624 77.047C207.664 77.098 207.734 77.1236 207.833 77.1236C207.908 77.1236 207.97 77.1142 208.018 77.0954C208.069 77.0766 208.114 77.0578 208.151 77.039L208.272 77.6552C208.205 77.6954 208.118 77.7344 208.01 77.772C207.906 77.8122 207.773 77.8324 207.612 77.8324C207.359 77.8324 207.145 77.7612 206.967 77.6189C206.79 77.4793 206.702 77.2739 206.702 77.0027C206.702 76.8658 206.728 76.7316 206.782 76.6C206.836 76.4711 206.926 76.3463 207.052 76.2254C207.181 76.1073 207.358 75.9972 207.584 75.8952ZM189.787 83.1328H188.619V78.3885C188.619 78.0583 188.683 77.7804 188.812 77.5549C188.943 77.3266 189.127 77.1548 189.364 77.0393C189.603 76.9212 189.886 76.8621 190.213 76.8621C190.321 76.8621 190.424 76.8702 190.524 76.8863C190.623 76.8997 190.72 76.9172 190.814 76.9387L190.801 77.8126C190.75 77.7992 190.697 77.7898 190.64 77.7844C190.584 77.779 190.518 77.7764 190.443 77.7764C190.303 77.7764 190.184 77.8005 190.085 77.8489C189.988 77.8945 189.914 77.963 189.863 78.0543C189.812 78.1455 189.787 78.257 189.787 78.3885V83.1328ZM190.656 78.7752V79.5967H187.97V78.7752H190.656ZM193.328 82.1501V80.2089C193.328 80.0693 193.305 79.9498 193.259 79.8505C193.214 79.7484 193.143 79.6692 193.046 79.6129C192.952 79.5565 192.83 79.5283 192.68 79.5283C192.551 79.5283 192.439 79.5511 192.345 79.5967C192.251 79.6397 192.179 79.7028 192.128 79.786C192.077 79.8666 192.051 79.9619 192.051 80.072H190.891C190.891 79.8867 190.934 79.7109 191.02 79.5444C191.106 79.3779 191.231 79.2316 191.395 79.1054C191.559 78.9765 191.753 78.8758 191.979 78.8033C192.207 78.7309 192.462 78.6946 192.744 78.6946C193.082 78.6946 193.383 78.751 193.646 78.8638C193.909 78.9765 194.116 79.1457 194.266 79.3712C194.419 79.5967 194.496 79.8787 194.496 80.217V82.0817C194.496 82.3206 194.511 82.5166 194.54 82.6697C194.57 82.82 194.613 82.9516 194.669 83.0643V83.1328H193.497C193.441 83.0147 193.398 82.867 193.368 82.6898C193.341 82.5099 193.328 82.33 193.328 82.1501ZM193.481 80.4788L193.489 81.1352H192.841C192.688 81.1352 192.555 81.1527 192.442 81.1876C192.329 81.2225 192.237 81.2721 192.164 81.3366C192.092 81.3983 192.038 81.4708 192.003 81.5541C191.971 81.6373 191.955 81.7286 191.955 81.8279C191.955 81.9273 191.977 82.0172 192.023 82.0978C192.069 82.1756 192.134 82.2374 192.22 82.283C192.306 82.326 192.407 82.3475 192.522 82.3475C192.697 82.3475 192.849 82.3126 192.978 82.2428C193.106 82.1729 193.206 82.087 193.276 81.985C193.348 81.883 193.386 81.7863 193.388 81.695L193.694 82.1864C193.651 82.2965 193.592 82.4106 193.517 82.5287C193.445 82.6468 193.352 82.7583 193.239 82.863C193.127 82.965 192.991 83.0496 192.833 83.1167C192.674 83.1811 192.486 83.2134 192.269 83.2134C191.992 83.2134 191.741 83.1583 191.516 83.0482C191.293 82.9355 191.116 82.7811 190.984 82.5851C190.855 82.3864 190.791 82.1609 190.791 81.9085C190.791 81.6803 190.834 81.4775 190.92 81.3003C191.005 81.1231 191.132 80.9741 191.298 80.8533C191.467 80.7298 191.678 80.6372 191.93 80.5754C192.183 80.511 192.475 80.4788 192.808 80.4788H193.481ZM195.101 76.9467H196.261V82.134L196.144 83.1328H195.101V76.9467ZM199.02 80.9097V80.9943C199.02 81.3191 198.985 81.6172 198.915 81.8883C198.848 82.1595 198.743 82.3945 198.601 82.5931C198.459 82.7891 198.282 82.9422 198.069 83.0523C197.86 83.1597 197.613 83.2134 197.328 83.2134C197.063 83.2134 196.832 83.1597 196.636 83.0523C196.442 82.9449 196.28 82.7932 196.148 82.5972C196.017 82.4012 195.911 82.1716 195.83 81.9085C195.75 81.6454 195.689 81.3581 195.649 81.0466V80.8614C195.689 80.5499 195.75 80.2626 195.83 79.9995C195.911 79.7364 196.017 79.5068 196.148 79.3108C196.28 79.1148 196.442 78.9631 196.636 78.8557C196.829 78.7483 197.057 78.6946 197.32 78.6946C197.608 78.6946 197.857 78.7496 198.069 78.8597C198.284 78.9671 198.461 79.1202 198.601 79.3189C198.743 79.5149 198.848 79.7484 198.915 80.0196C198.985 80.2881 199.02 80.5848 199.02 80.9097ZM197.86 80.9943V80.9097C197.86 80.7325 197.847 80.566 197.82 80.4103C197.796 80.2519 197.753 80.1136 197.691 79.9955C197.629 79.8746 197.545 79.7793 197.437 79.7095C197.332 79.6397 197.197 79.6048 197.03 79.6048C196.872 79.6048 196.738 79.6317 196.628 79.6854C196.518 79.739 196.426 79.8142 196.354 79.9109C196.284 80.0075 196.232 80.123 196.197 80.2572C196.162 80.3888 196.14 80.5338 196.132 80.6922V81.2198C196.14 81.4319 196.175 81.6198 196.237 81.7836C196.301 81.9447 196.398 82.0723 196.527 82.1662C196.659 82.2575 196.829 82.3032 197.038 82.3032C197.202 82.3032 197.338 82.2709 197.445 82.2065C197.553 82.1421 197.636 82.0508 197.695 81.9326C197.757 81.8145 197.8 81.6762 197.824 81.5178C197.848 81.3567 197.86 81.1822 197.86 80.9943ZM200.612 79.7256V83.1328H199.452V78.7752H200.544L200.612 79.7256ZM201.925 78.747L201.905 79.8223C201.848 79.8142 201.78 79.8075 201.699 79.8021C201.622 79.7941 201.55 79.7901 201.486 79.7901C201.322 79.7901 201.18 79.8115 201.059 79.8545C200.941 79.8948 200.842 79.9552 200.761 80.0357C200.683 80.1163 200.624 80.2143 200.584 80.3297C200.546 80.4452 200.525 80.5768 200.519 80.7244L200.286 80.6519C200.286 80.37 200.314 80.1109 200.37 79.8746C200.427 79.6357 200.509 79.4276 200.616 79.2504C200.726 79.0732 200.86 78.9363 201.019 78.8396C201.177 78.7429 201.358 78.6946 201.563 78.6946C201.627 78.6946 201.693 78.7 201.76 78.7107C201.827 78.7188 201.882 78.7309 201.925 78.747ZM203.408 78.7752V83.1328H202.244V78.7752H203.408ZM202.172 77.6394C202.172 77.4703 202.231 77.3307 202.349 77.2206C202.467 77.1105 202.626 77.0555 202.824 77.0555C203.02 77.0555 203.177 77.1105 203.296 77.2206C203.416 77.3307 203.477 77.4703 203.477 77.6394C203.477 77.8086 203.416 77.9482 203.296 78.0583C203.177 78.1684 203.02 78.2234 202.824 78.2234C202.626 78.2234 202.467 78.1684 202.349 78.0583C202.231 77.9482 202.172 77.8086 202.172 77.6394ZM205.238 76.9427V83.1328H204.078V76.9427H205.238ZM207.985 78.7752L206.092 80.9338L205.077 81.9608L204.654 81.1231L205.46 80.1002L206.591 78.7752H207.985ZM206.781 83.1328L205.492 81.1191L206.293 80.4183L208.118 83.1328H206.781ZM210.548 82.1501V80.2089C210.548 80.0693 210.525 79.9498 210.479 79.8505C210.433 79.7484 210.362 79.6692 210.266 79.6129C210.172 79.5565 210.049 79.5283 209.899 79.5283C209.77 79.5283 209.659 79.5511 209.565 79.5967C209.471 79.6397 209.398 79.7028 209.347 79.786C209.296 79.8666 209.271 79.9619 209.271 80.072H208.111C208.111 79.8867 208.154 79.7109 208.24 79.5444C208.326 79.3779 208.451 79.2316 208.614 79.1054C208.778 78.9765 208.973 78.8758 209.198 78.8033C209.427 78.7309 209.682 78.6946 209.964 78.6946C210.302 78.6946 210.603 78.751 210.866 78.8638C211.129 78.9765 211.336 79.1457 211.486 79.3712C211.639 79.5967 211.715 79.8787 211.715 80.217V82.0817C211.715 82.3206 211.73 82.5166 211.76 82.6697C211.789 82.82 211.832 82.9516 211.889 83.0643V83.1328H210.717C210.66 83.0147 210.617 82.867 210.588 82.6898C210.561 82.5099 210.548 82.33 210.548 82.1501ZM210.701 80.4788L210.709 81.1352H210.06C209.907 81.1352 209.774 81.1527 209.661 81.1876C209.549 81.2225 209.456 81.2721 209.384 81.3366C209.311 81.3983 209.257 81.4708 209.223 81.5541C209.19 81.6373 209.174 81.7286 209.174 81.8279C209.174 81.9273 209.197 82.0172 209.243 82.0978C209.288 82.1756 209.354 82.2374 209.44 82.283C209.526 82.326 209.627 82.3475 209.742 82.3475C209.917 82.3475 210.068 82.3126 210.197 82.2428C210.326 82.1729 210.425 82.087 210.495 81.985C210.568 81.883 210.605 81.7863 210.608 81.695L210.914 82.1864C210.871 82.2965 210.812 82.4106 210.737 82.5287C210.664 82.6468 210.572 82.7583 210.459 82.863C210.346 82.965 210.211 83.0496 210.052 83.1167C209.894 83.1811 209.706 83.2134 209.488 83.2134C209.212 83.2134 208.961 83.1583 208.735 83.0482C208.512 82.9355 208.335 82.7811 208.204 82.5851C208.075 82.3864 208.01 82.1609 208.01 81.9085C208.01 81.6803 208.053 81.4775 208.139 81.3003C208.225 81.1231 208.351 80.9741 208.518 80.8533C208.687 80.7298 208.898 80.6372 209.15 80.5754C209.402 80.511 209.695 80.4788 210.028 80.4788H210.701ZM214.677 81.9286C214.677 81.8454 214.653 81.7702 214.604 81.7031C214.556 81.636 214.466 81.5742 214.335 81.5178C214.206 81.4588 214.019 81.4051 213.775 81.3567C213.555 81.3084 213.349 81.248 213.159 81.1755C212.971 81.1003 212.807 81.0104 212.667 80.9057C212.53 80.8009 212.423 80.6774 212.345 80.5351C212.267 80.3901 212.228 80.225 212.228 80.0398C212.228 79.8572 212.267 79.6854 212.345 79.5243C212.426 79.3632 212.54 79.2209 212.687 79.0973C212.838 78.9712 213.02 78.8732 213.235 78.8033C213.453 78.7309 213.697 78.6946 213.968 78.6946C214.347 78.6946 214.672 78.755 214.943 78.8758C215.217 78.9967 215.426 79.1631 215.571 79.3752C215.719 79.5847 215.792 79.8236 215.792 80.0921H214.633C214.633 79.9794 214.608 79.8787 214.56 79.7901C214.514 79.6988 214.442 79.6276 214.343 79.5766C214.246 79.5229 214.12 79.4961 213.964 79.4961C213.835 79.4961 213.724 79.5189 213.63 79.5645C213.536 79.6075 213.463 79.6666 213.412 79.7417C213.364 79.8142 213.34 79.8948 213.34 79.9834C213.34 80.0505 213.353 80.1109 213.38 80.1646C213.41 80.2156 213.457 80.2626 213.521 80.3056C213.585 80.3485 213.669 80.3888 213.771 80.4264C213.875 80.4613 214.004 80.4935 214.157 80.5231C214.472 80.5875 214.752 80.6721 214.999 80.7768C215.246 80.8788 215.442 81.0184 215.587 81.1956C215.732 81.3702 215.805 81.5997 215.805 81.8843C215.805 82.0776 215.762 82.2548 215.676 82.4159C215.59 82.577 215.466 82.718 215.305 82.8388C215.144 82.9569 214.951 83.0496 214.725 83.1167C214.502 83.1811 214.251 83.2134 213.972 83.2134C213.567 83.2134 213.223 83.1409 212.941 82.9959C212.662 82.8509 212.45 82.667 212.305 82.4441C212.162 82.2186 212.091 81.9877 212.091 81.7514H213.191C213.196 81.9098 213.236 82.0374 213.312 82.134C213.389 82.2307 213.487 82.3005 213.606 82.3434C213.726 82.3864 213.857 82.4079 213.996 82.4079C214.147 82.4079 214.271 82.3877 214.371 82.3475C214.47 82.3045 214.545 82.2481 214.596 82.1783C214.65 82.1058 214.677 82.0226 214.677 81.9286Z" fill="black"/>
<path d="M227.801 76.8149H226.866L226.872 76.3324H227.801C228.12 76.3324 228.387 76.2658 228.6 76.1327C228.813 75.9974 228.973 75.8089 229.079 75.5672C229.188 75.3233 229.242 75.0386 229.242 74.7128V74.4392C229.242 74.1831 229.211 73.9557 229.15 73.757C229.088 73.5562 228.998 73.3871 228.879 73.2499C228.761 73.1105 228.615 73.005 228.443 72.9333C228.273 72.8616 228.077 72.8257 227.856 72.8257H226.848V72.3402H227.856C228.149 72.3402 228.416 72.3893 228.658 72.4877C228.9 72.584 229.108 72.7243 229.282 72.9087C229.458 73.0911 229.593 73.3124 229.688 73.5726C229.782 73.8307 229.829 74.1217 229.829 74.4454V74.7128C229.829 75.0365 229.782 75.3285 229.688 75.5887C229.593 75.8468 229.457 76.0671 229.279 76.2494C229.103 76.4318 228.89 76.5721 228.64 76.6705C228.392 76.7668 228.112 76.8149 227.801 76.8149ZM227.183 72.3402V76.8149H226.59V72.3402H227.183ZM232.448 76.0466V73.4896H233.02V76.8149H232.476L232.448 76.0466ZM232.556 75.3459L232.793 75.3397C232.793 75.561 232.769 75.7659 232.722 75.9544C232.677 76.1409 232.603 76.3027 232.501 76.44C232.398 76.5773 232.264 76.6848 232.098 76.7627C231.932 76.8385 231.73 76.8764 231.493 76.8764C231.331 76.8764 231.182 76.8528 231.047 76.8057C230.914 76.7586 230.799 76.6859 230.703 76.5875C230.607 76.4892 230.532 76.3611 230.478 76.2033C230.427 76.0456 230.402 75.8561 230.402 75.6348V73.4896H230.97V75.6409C230.97 75.7905 230.987 75.9145 231.019 76.0128C231.054 76.1091 231.1 76.1859 231.158 76.2433C231.217 76.2986 231.283 76.3375 231.354 76.3601C231.428 76.3826 231.504 76.3939 231.582 76.3939C231.824 76.3939 232.015 76.3478 232.157 76.2556C232.298 76.1613 232.399 76.0353 232.461 75.8776C232.524 75.7178 232.556 75.5405 232.556 75.3459ZM232.771 72.3494V72.7858H230.709V72.3494H232.771ZM234.232 74.1504V76.8149H233.66V73.4896H234.201L234.232 74.1504ZM234.115 75.0263L233.851 75.017C233.853 74.7896 233.883 74.5796 233.94 74.387C233.997 74.1924 234.082 74.0233 234.195 73.8799C234.308 73.7365 234.448 73.6258 234.616 73.548C234.784 73.4681 234.979 73.4281 235.2 73.4281C235.356 73.4281 235.499 73.4507 235.63 73.4957C235.762 73.5388 235.875 73.6074 235.972 73.7016C236.068 73.7959 236.143 73.9168 236.196 74.0643C236.249 74.2118 236.276 74.3901 236.276 74.5991V76.8149H235.707V74.6267C235.707 74.4526 235.677 74.3132 235.618 74.2087C235.561 74.1043 235.479 74.0284 235.372 73.9813C235.266 73.9321 235.141 73.9076 234.997 73.9076C234.829 73.9076 234.689 73.9373 234.576 73.9967C234.464 74.0561 234.373 74.1381 234.306 74.2426C234.238 74.347 234.189 74.4669 234.158 74.6021C234.13 74.7353 234.115 74.8767 234.115 75.0263ZM236.27 74.7128L235.889 74.8296C235.891 74.6472 235.92 74.472 235.978 74.304C236.037 74.136 236.122 73.9864 236.233 73.8553C236.345 73.7242 236.484 73.6207 236.648 73.5449C236.812 73.467 236.999 73.4281 237.21 73.4281C237.388 73.4281 237.546 73.4517 237.683 73.4988C237.823 73.5459 237.939 73.6187 238.034 73.717C238.13 73.8133 238.203 73.9373 238.252 74.0889C238.301 74.2405 238.326 74.4208 238.326 74.6298V76.8149H237.754V74.6236C237.754 74.4372 237.724 74.2928 237.665 74.1903C237.608 74.0858 237.526 74.0131 237.419 73.9721C237.315 73.9291 237.19 73.9076 237.044 73.9076C236.919 73.9076 236.808 73.9291 236.712 73.9721C236.616 74.0151 236.535 74.0745 236.469 74.1504C236.404 74.2241 236.354 74.3091 236.319 74.4054C236.286 74.5017 236.27 74.6042 236.27 74.7128ZM241 76.0466V73.4896H241.572V76.8149H241.028L241 76.0466ZM241.108 75.3459L241.345 75.3397C241.345 75.561 241.321 75.7659 241.274 75.9544C241.229 76.1409 241.155 76.3027 241.053 76.44C240.95 76.5773 240.816 76.6848 240.65 76.7627C240.484 76.8385 240.282 76.8764 240.045 76.8764C239.883 76.8764 239.734 76.8528 239.599 76.8057C239.466 76.7586 239.351 76.6859 239.255 76.5875C239.159 76.4892 239.084 76.3611 239.03 76.2033C238.979 76.0456 238.954 75.8561 238.954 75.6348V73.4896H239.522V75.6409C239.522 75.7905 239.539 75.9145 239.571 76.0128C239.606 76.1091 239.652 76.1859 239.71 76.2433C239.769 76.2986 239.835 76.3375 239.906 76.3601C239.98 76.3826 240.056 76.3939 240.134 76.3939C240.376 76.3939 240.567 76.3478 240.709 76.2556C240.85 76.1613 240.951 76.0353 241.013 75.8776C241.076 75.7178 241.108 75.5405 241.108 75.3459ZM241.314 76.6398L241.541 76.8149C241.453 76.8805 241.369 76.9481 241.289 77.0178C241.209 77.0895 241.144 77.1643 241.093 77.2421C241.041 77.322 241.016 77.4071 241.016 77.4972C241.016 77.5648 241.033 77.6191 241.068 77.6601C241.105 77.7011 241.167 77.7216 241.256 77.7216C241.323 77.7216 241.384 77.7113 241.437 77.6908C241.49 77.6724 241.532 77.655 241.563 77.6386L241.606 78.0135C241.555 78.0443 241.489 78.074 241.409 78.1027C241.331 78.1334 241.232 78.1488 241.111 78.1488C240.945 78.1488 240.805 78.0986 240.69 77.9982C240.577 77.8998 240.521 77.7544 240.521 77.5618C240.521 77.4511 240.548 77.3415 240.601 77.2329C240.656 77.1243 240.742 77.0198 240.859 76.9194C240.976 76.819 241.128 76.7258 241.314 76.6398ZM245.714 73.4896H246.23V76.7443C246.23 77.0372 246.171 77.2872 246.052 77.4941C245.933 77.7011 245.767 77.8578 245.554 77.9644C245.343 78.073 245.099 78.1273 244.823 78.1273C244.708 78.1273 244.573 78.1088 244.417 78.0719C244.263 78.0371 244.112 77.9767 243.962 77.8906C243.815 77.8066 243.691 77.6929 243.59 77.5495L243.888 77.2114C244.028 77.3794 244.173 77.4962 244.325 77.5618C244.478 77.6273 244.63 77.6601 244.78 77.6601C244.96 77.6601 245.116 77.6263 245.247 77.5587C245.378 77.4911 245.479 77.3907 245.551 77.2575C245.625 77.1264 245.662 76.9645 245.662 76.7719V74.221L245.714 73.4896ZM243.424 75.1891V75.1246C243.424 74.8705 243.454 74.64 243.513 74.4331C243.575 74.2241 243.662 74.0448 243.775 73.8953C243.889 73.7457 244.028 73.631 244.19 73.5511C244.351 73.4691 244.534 73.4281 244.737 73.4281C244.946 73.4281 245.128 73.465 245.284 73.5388C245.441 73.6105 245.575 73.716 245.683 73.8553C245.794 73.9926 245.881 74.1585 245.944 74.3532C246.008 74.5478 246.052 74.7681 246.077 75.014V75.2967C246.054 75.5405 246.01 75.7598 245.944 75.9544C245.881 76.1491 245.794 76.315 245.683 76.4523C245.575 76.5896 245.441 76.6951 245.284 76.7688C245.126 76.8406 244.941 76.8764 244.73 76.8764C244.532 76.8764 244.351 76.8344 244.19 76.7504C244.03 76.6664 243.892 76.5486 243.778 76.397C243.663 76.2453 243.575 76.0671 243.513 75.8622C243.454 75.6553 243.424 75.4309 243.424 75.1891ZM243.993 75.1246V75.1891C243.993 75.3551 244.009 75.5108 244.042 75.6563C244.077 75.8018 244.129 75.9298 244.199 76.0405C244.27 76.1511 244.362 76.2382 244.472 76.3017C244.583 76.3632 244.715 76.3939 244.869 76.3939C245.057 76.3939 245.213 76.3539 245.336 76.274C245.459 76.1941 245.556 76.0886 245.628 75.9575C245.702 75.8263 245.759 75.684 245.8 75.5303V74.7896C245.777 74.6769 245.743 74.5683 245.695 74.4638C245.65 74.3573 245.591 74.263 245.517 74.1811C245.445 74.0971 245.356 74.0305 245.25 73.9813C245.143 73.9321 245.018 73.9076 244.875 73.9076C244.719 73.9076 244.585 73.9403 244.472 74.0059C244.362 74.0694 244.27 74.1575 244.199 74.2702C244.129 74.3809 244.077 74.5099 244.042 74.6575C244.009 74.8029 243.993 74.9586 243.993 75.1246ZM248.834 76.2464V74.5345C248.834 74.4034 248.808 74.2897 248.754 74.1934C248.703 74.095 248.625 74.0192 248.521 73.966C248.416 73.9127 248.287 73.886 248.134 73.886C247.99 73.886 247.864 73.9106 247.756 73.9598C247.649 74.009 247.565 74.0735 247.504 74.1534C247.444 74.2333 247.414 74.3194 247.414 74.4116H246.846C246.846 74.2928 246.877 74.1749 246.938 74.0582C247 73.9414 247.088 73.8358 247.202 73.7416C247.319 73.6453 247.458 73.5695 247.62 73.5142C247.784 73.4568 247.967 73.4281 248.167 73.4281C248.409 73.4281 248.622 73.4691 248.807 73.5511C248.993 73.633 249.139 73.757 249.243 73.9229C249.35 74.0868 249.403 74.2928 249.403 74.5407V76.0896C249.403 76.2003 249.412 76.3181 249.431 76.4431C249.451 76.568 249.481 76.6756 249.52 76.7658V76.8149H248.927C248.898 76.7494 248.875 76.6623 248.859 76.5537C248.843 76.4431 248.834 76.3406 248.834 76.2464ZM248.933 74.7988L248.939 75.1984H248.364C248.202 75.1984 248.058 75.2117 247.931 75.2383C247.804 75.2629 247.697 75.3008 247.611 75.352C247.525 75.4033 247.459 75.4678 247.414 75.5457C247.369 75.6215 247.347 75.7106 247.347 75.813C247.347 75.9175 247.37 76.0128 247.417 76.0989C247.465 76.1849 247.535 76.2535 247.63 76.3048C247.726 76.3539 247.844 76.3785 247.983 76.3785C248.157 76.3785 248.311 76.3416 248.444 76.2679C248.577 76.1941 248.683 76.104 248.761 75.9974C248.84 75.8909 248.883 75.7874 248.89 75.687L249.132 75.9606C249.118 76.0466 249.079 76.1419 249.016 76.2464C248.952 76.3509 248.867 76.4513 248.761 76.5476C248.656 76.6418 248.531 76.7207 248.386 76.7842C248.242 76.8457 248.08 76.8764 247.9 76.8764C247.675 76.8764 247.477 76.8324 247.307 76.7443C247.139 76.6562 247.008 76.5383 246.913 76.3908C246.821 76.2413 246.775 76.0743 246.775 75.8899C246.775 75.7116 246.81 75.5549 246.88 75.4196C246.949 75.2824 247.05 75.1687 247.181 75.0785C247.312 74.9863 247.47 74.9166 247.654 74.8695C247.839 74.8224 248.044 74.7988 248.272 74.7988H248.933ZM251.469 73.4896V73.926H249.671V73.4896H251.469ZM250.28 72.6813H250.848V75.9913C250.848 76.104 250.866 76.189 250.901 76.2464C250.935 76.3037 250.98 76.3416 251.036 76.3601C251.091 76.3785 251.151 76.3877 251.214 76.3877C251.261 76.3877 251.31 76.3836 251.362 76.3755C251.415 76.3652 251.455 76.357 251.481 76.3509L251.485 76.8149C251.439 76.8293 251.38 76.8426 251.306 76.8549C251.235 76.8692 251.147 76.8764 251.045 76.8764C250.906 76.8764 250.778 76.8487 250.661 76.7934C250.544 76.7381 250.451 76.6459 250.381 76.5168C250.314 76.3857 250.28 76.2095 250.28 75.9882V72.6813ZM252.927 76.3017L253.837 73.4896H254.417L253.222 76.8149H252.841L252.927 76.3017ZM252.168 73.4896L253.105 76.3171L253.17 76.8149H252.789L251.584 73.4896H252.168ZM256.081 76.8764C255.85 76.8764 255.64 76.8375 255.451 76.7596C255.265 76.6797 255.104 76.568 254.969 76.4246C254.835 76.2812 254.733 76.1111 254.661 75.9145C254.59 75.7178 254.554 75.5026 254.554 75.2691V75.14C254.554 74.8695 254.594 74.6288 254.674 74.4177C254.753 74.2047 254.862 74.0243 254.999 73.8768C255.137 73.7293 255.292 73.6176 255.466 73.5418C255.641 73.466 255.821 73.4281 256.007 73.4281C256.245 73.4281 256.45 73.4691 256.622 73.5511C256.796 73.633 256.939 73.7477 257.049 73.8953C257.16 74.0407 257.242 74.2128 257.295 74.4116C257.348 74.6083 257.375 74.8234 257.375 75.057V75.3121H254.892V74.848H256.806V74.805C256.798 74.6575 256.768 74.514 256.714 74.3747C256.663 74.2354 256.581 74.1206 256.468 74.0305C256.356 73.9403 256.202 73.8953 256.007 73.8953C255.878 73.8953 255.759 73.9229 255.651 73.9782C255.542 74.0315 255.449 74.1114 255.371 74.218C255.293 74.3245 255.233 74.4546 255.19 74.6083C255.147 74.7619 255.125 74.9392 255.125 75.14V75.2691C255.125 75.4268 255.147 75.5754 255.19 75.7147C255.235 75.852 255.299 75.9728 255.383 76.0773C255.47 76.1818 255.573 76.2638 255.694 76.3232C255.817 76.3826 255.956 76.4123 256.112 76.4123C256.313 76.4123 256.483 76.3714 256.622 76.2894C256.761 76.2074 256.883 76.0978 256.988 75.9606L257.332 76.2341C257.26 76.3427 257.169 76.4461 257.058 76.5445C256.948 76.6428 256.812 76.7227 256.65 76.7842C256.49 76.8457 256.3 76.8764 256.081 76.8764ZM255.669 72.6106C255.669 72.5205 255.697 72.4436 255.752 72.3801C255.81 72.3166 255.894 72.2848 256.004 72.2848C256.113 72.2848 256.196 72.3166 256.253 72.3801C256.313 72.4436 256.342 72.5205 256.342 72.6106C256.342 72.7008 256.313 72.7776 256.253 72.8411C256.196 72.9026 256.113 72.9333 256.004 72.9333C255.894 72.9333 255.81 72.9026 255.752 72.8411C255.697 72.7776 255.669 72.7008 255.669 72.6106ZM259.817 74.6851L259.362 74.5683L259.587 72.3402H261.882V72.8657H260.069L259.934 74.0827C260.016 74.0356 260.119 73.9916 260.244 73.9506C260.371 73.9096 260.517 73.8891 260.681 73.8891C260.888 73.8891 261.073 73.925 261.237 73.9967C261.401 74.0663 261.54 74.1667 261.655 74.2979C261.772 74.429 261.861 74.5868 261.922 74.7712C261.984 74.9556 262.015 75.1615 262.015 75.3889C262.015 75.604 261.985 75.8018 261.926 75.9821C261.868 76.1624 261.781 76.3201 261.664 76.4554C261.547 76.5885 261.4 76.692 261.222 76.7658C261.046 76.8395 260.838 76.8764 260.598 76.8764C260.418 76.8764 260.246 76.8518 260.085 76.8026C259.925 76.7514 259.781 76.6746 259.654 76.5721C259.529 76.4677 259.427 76.3386 259.347 76.1849C259.269 76.0292 259.22 75.8468 259.199 75.6379H259.74C259.765 75.8059 259.814 75.9472 259.888 76.062C259.962 76.1767 260.058 76.2638 260.177 76.3232C260.298 76.3806 260.438 76.4093 260.598 76.4093C260.733 76.4093 260.853 76.3857 260.957 76.3386C261.062 76.2914 261.15 76.2238 261.222 76.1357C261.293 76.0476 261.348 75.9411 261.385 75.8161C261.424 75.6911 261.443 75.5508 261.443 75.3951C261.443 75.2537 261.424 75.1226 261.385 75.0017C261.346 74.8808 261.287 74.7753 261.209 74.6851C261.134 74.595 261.04 74.5253 260.93 74.4761C260.819 74.4249 260.692 74.3993 260.549 74.3993C260.358 74.3993 260.214 74.4249 260.115 74.4761C260.019 74.5274 259.92 74.597 259.817 74.6851ZM262.996 76.1388V76.5967C262.996 76.7832 262.949 76.9799 262.855 77.1868C262.76 77.3958 262.628 77.57 262.458 77.7093L262.135 77.4849C262.201 77.3948 262.256 77.3026 262.301 77.2083C262.347 77.1161 262.38 77.0198 262.403 76.9194C262.427 76.8211 262.44 76.7166 262.44 76.606V76.1388H262.996ZM228.311 80.3156V84.8149H227.742V81.0255L226.596 81.4435V80.9302L228.222 80.3156H228.311ZM231.631 80.3156V84.8149H231.062V81.0255L229.916 81.4435V80.9302L231.542 80.3156H231.631ZM234.951 80.3156V84.8149H234.383V81.0255L233.236 81.4435V80.9302L234.862 80.3156H234.951ZM238.271 80.3156V84.8149H237.703V81.0255L236.556 81.4435V80.9302L238.182 80.3156H238.271ZM240.288 84.3386H240.347C240.675 84.3386 240.941 84.2925 241.146 84.2003C241.351 84.1081 241.509 83.9841 241.619 83.8284C241.73 83.6727 241.806 83.4975 241.847 83.3029C241.888 83.1062 241.908 82.9043 241.908 82.6974V82.0121C241.908 81.8092 241.885 81.6289 241.837 81.4711C241.792 81.3134 241.729 81.1812 241.647 81.0747C241.567 80.9681 241.476 80.8872 241.373 80.8319C241.271 80.7766 241.162 80.7489 241.048 80.7489C240.916 80.7489 240.799 80.7755 240.694 80.8288C240.592 80.88 240.505 80.9528 240.433 81.047C240.363 81.1413 240.31 81.2519 240.273 81.3789C240.236 81.506 240.218 81.6443 240.218 81.7938C240.218 81.927 240.234 82.0561 240.267 82.1811C240.3 82.3061 240.35 82.4188 240.418 82.5192C240.485 82.6196 240.569 82.6995 240.67 82.7589C240.772 82.8162 240.892 82.8449 241.029 82.8449C241.156 82.8449 241.275 82.8203 241.386 82.7712C241.498 82.7199 241.598 82.6513 241.684 82.5653C241.772 82.4772 241.842 82.3778 241.893 82.2671C241.946 82.1565 241.977 82.0407 241.985 81.9199H242.255C242.255 82.0899 242.222 82.2579 242.154 82.4239C242.088 82.5878 241.996 82.7374 241.877 82.8726C241.759 83.0078 241.619 83.1164 241.459 83.1984C241.3 83.2783 241.125 83.3182 240.937 83.3182C240.716 83.3182 240.524 83.2752 240.362 83.1891C240.2 83.1031 240.067 82.9884 239.963 82.8449C239.86 82.7015 239.783 82.5417 239.732 82.3655C239.683 82.1872 239.658 82.0069 239.658 81.8246C239.658 81.6115 239.688 81.4117 239.748 81.2253C239.807 81.0388 239.895 80.8749 240.012 80.7335C240.129 80.5901 240.273 80.4785 240.445 80.3985C240.619 80.3186 240.82 80.2787 241.048 80.2787C241.304 80.2787 241.522 80.3299 241.702 80.4324C241.882 80.5348 242.029 80.6721 242.142 80.8442C242.256 81.0163 242.34 81.2099 242.394 81.425C242.447 81.6402 242.474 81.8615 242.474 82.0889V82.2948C242.474 82.5263 242.458 82.7619 242.427 83.0017C242.399 83.2393 242.342 83.4668 242.258 83.684C242.177 83.9011 242.057 84.0958 241.899 84.2679C241.741 84.4379 241.535 84.5732 241.281 84.6736C241.029 84.7719 240.718 84.8211 240.347 84.8211H240.288V84.3386Z" fill="black"/>
<path d="M223.681 95.5519L220.781 90.2632H228.288L223.681 95.5519Z" fill="#049ADB" stroke="#049ADB" stroke-width="3.41205" stroke-linecap="round" stroke-linejoin="round"/>
<line x1="220.776" y1="69.791" x2="220.776" y2="85.4865" stroke="black" stroke-width="0.341205"/>
</g>
<g clip-path="url(#clip2_1501_24102)">
<rect x="5" y="129.308" width="75.9995" height="22.9892" rx="9.19832" fill="#049ADB"/>
<path d="M10.8506 135.335H12.584C12.9394 135.335 13.2448 135.389 13.5002 135.495C13.7577 135.601 13.9557 135.759 14.094 135.967C14.2323 136.176 14.3015 136.432 14.3015 136.737C14.3015 136.986 14.259 137.2 14.1738 137.378C14.0908 137.555 13.9727 137.703 13.8195 137.822C13.6684 137.939 13.4907 138.033 13.2863 138.103L12.9831 138.263H11.4763L11.4699 137.516H12.5904C12.7585 137.516 12.8979 137.486 13.0086 137.426C13.1193 137.367 13.2023 137.284 13.2576 137.177C13.3151 137.071 13.3438 136.947 13.3438 136.807C13.3438 136.658 13.3161 136.529 13.2608 136.421C13.2055 136.312 13.1214 136.229 13.0086 136.172C12.8958 136.114 12.7543 136.086 12.584 136.086H11.8083V139.983H10.8506V135.335ZM13.4492 139.983L12.3893 137.912L13.4013 137.905L14.4739 139.939V139.983H13.4492ZM16.617 139.204V137.666C16.617 137.555 16.5989 137.46 16.5627 137.382C16.5266 137.301 16.4702 137.238 16.3935 137.193C16.3191 137.149 16.2222 137.126 16.103 137.126C16.0009 137.126 15.9126 137.144 15.8381 137.18C15.7636 137.215 15.7061 137.265 15.6657 137.331C15.6252 137.394 15.605 137.47 15.605 137.557H14.6856C14.6856 137.41 14.7197 137.271 14.7878 137.139C14.8559 137.007 14.9548 136.891 15.0847 136.791C15.2145 136.689 15.3688 136.609 15.5476 136.552C15.7285 136.494 15.9307 136.465 16.1541 136.465C16.4223 136.465 16.6606 136.51 16.8692 136.599C17.0778 136.689 17.2417 136.823 17.3608 137.002C17.4821 137.18 17.5428 137.404 17.5428 137.672V139.15C17.5428 139.34 17.5545 139.495 17.5779 139.616C17.6013 139.735 17.6354 139.84 17.6801 139.929V139.983H16.7511C16.7064 139.89 16.6723 139.773 16.6489 139.632C16.6277 139.49 16.617 139.347 16.617 139.204ZM16.7383 137.88L16.7447 138.4H16.2307C16.1094 138.4 16.0041 138.414 15.9147 138.441C15.8253 138.469 15.7519 138.509 15.6944 138.56C15.637 138.609 15.5944 138.666 15.5667 138.732C15.5412 138.798 15.5284 138.87 15.5284 138.949C15.5284 139.028 15.5465 139.099 15.5827 139.163C15.6189 139.225 15.671 139.274 15.7391 139.31C15.8072 139.344 15.887 139.361 15.9785 139.361C16.1169 139.361 16.2371 139.333 16.3393 139.278C16.4414 139.223 16.5202 139.154 16.5755 139.074C16.633 138.993 16.6628 138.916 16.6649 138.844L16.9075 139.233C16.8735 139.32 16.8266 139.411 16.7671 139.505C16.7096 139.598 16.6362 139.687 16.5468 139.77C16.4574 139.85 16.3499 139.917 16.2243 139.971C16.0988 140.022 15.9498 140.047 15.7774 140.047C15.5582 140.047 15.3592 140.004 15.1804 139.916C15.0038 139.827 14.8633 139.705 14.759 139.549C14.6569 139.392 14.6058 139.213 14.6058 139.013C14.6058 138.832 14.6399 138.671 14.708 138.531C14.7761 138.39 14.8761 138.272 15.0081 138.177C15.1421 138.079 15.3092 138.005 15.5093 137.956C15.7093 137.905 15.9413 137.88 16.2052 137.88H16.7383ZM18.9932 136.529V139.983H18.0706V136.529H18.9932ZM18.0131 135.629C18.0131 135.495 18.0599 135.384 18.1536 135.297C18.2472 135.21 18.3728 135.166 18.5303 135.166C18.6856 135.166 18.8101 135.21 18.9038 135.297C18.9995 135.384 19.0474 135.495 19.0474 135.629C19.0474 135.763 18.9995 135.874 18.9038 135.961C18.8101 136.048 18.6856 136.092 18.5303 136.092C18.3728 136.092 18.2472 136.048 18.1536 135.961C18.0599 135.874 18.0131 135.763 18.0131 135.629ZM20.4946 135.08V139.983H19.572V135.08H20.4946ZM22.012 139.09L22.7303 136.529H23.3145L23.1261 137.535L22.4079 139.983H21.9194L22.012 139.09ZM21.6481 136.529L22.162 139.086L22.2099 139.983H21.6353L20.7606 136.529H21.6481ZM23.9721 139.045L24.4733 136.529H25.364L24.4893 139.983H23.9179L23.9721 139.045ZM23.3943 136.529L24.1094 139.07L24.2084 139.983H23.7167L22.9984 137.538L22.8165 136.529H23.3943ZM27.4624 139.204V137.666C27.4624 137.555 27.4443 137.46 27.4081 137.382C27.372 137.301 27.3156 137.238 27.2389 137.193C27.1645 137.149 27.0676 137.126 26.9484 137.126C26.8463 137.126 26.758 137.144 26.6835 137.18C26.609 137.215 26.5515 137.265 26.5111 137.331C26.4706 137.394 26.4504 137.47 26.4504 137.557H25.531C25.531 137.41 25.5651 137.271 25.6332 137.139C25.7013 137.007 25.8002 136.891 25.9301 136.791C26.0599 136.689 26.2142 136.609 26.393 136.552C26.5739 136.494 26.7761 136.465 26.9995 136.465C27.2677 136.465 27.506 136.51 27.7146 136.599C27.9232 136.689 28.0871 136.823 28.2062 137.002C28.3275 137.18 28.3882 137.404 28.3882 137.672V139.15C28.3882 139.34 28.3999 139.495 28.4233 139.616C28.4467 139.735 28.4808 139.84 28.5255 139.929V139.983H27.5965C27.5518 139.89 27.5177 139.773 27.4943 139.632C27.4731 139.49 27.4624 139.347 27.4624 139.204ZM27.5837 137.88L27.5901 138.4H27.0761C26.9548 138.4 26.8495 138.414 26.7601 138.441C26.6707 138.469 26.5973 138.509 26.5398 138.56C26.4824 138.609 26.4398 138.666 26.4121 138.732C26.3866 138.798 26.3738 138.87 26.3738 138.949C26.3738 139.028 26.3919 139.099 26.4281 139.163C26.4643 139.225 26.5164 139.274 26.5845 139.31C26.6526 139.344 26.7324 139.361 26.8239 139.361C26.9623 139.361 27.0825 139.333 27.1847 139.278C27.2868 139.223 27.3656 139.154 27.4209 139.074C27.4784 138.993 27.5082 138.916 27.5103 138.844L27.7529 139.233C27.7189 139.32 27.672 139.411 27.6125 139.505C27.555 139.598 27.4816 139.687 27.3922 139.77C27.3028 139.85 27.1953 139.917 27.0698 139.971C26.9442 140.022 26.7952 140.047 26.6228 140.047C26.4036 140.047 26.2046 140.004 26.0258 139.916C25.8492 139.827 25.7087 139.705 25.6044 139.549C25.5023 139.392 25.4512 139.213 25.4512 139.013C25.4512 138.832 25.4853 138.671 25.5534 138.531C25.6215 138.39 25.7215 138.272 25.8535 138.177C25.9875 138.079 26.1546 138.005 26.3547 137.956C26.5547 137.905 26.7867 137.88 27.0506 137.88H27.5837ZM29.8418 139.594L30.758 136.529H31.7444L30.3557 140.504C30.3259 140.591 30.2855 140.685 30.2344 140.785C30.1855 140.885 30.1184 140.979 30.0333 141.069C29.9503 141.16 29.8449 141.235 29.7173 141.292C29.5917 141.35 29.4374 141.378 29.2544 141.378C29.1671 141.378 29.0958 141.373 29.0405 141.363C28.9851 141.352 28.9192 141.337 28.8425 141.318V140.644C28.866 140.644 28.8904 140.644 28.916 140.644C28.9415 140.646 28.966 140.647 28.9894 140.647C29.1107 140.647 29.2097 140.634 29.2863 140.606C29.3629 140.578 29.4246 140.536 29.4714 140.478C29.5183 140.423 29.5555 140.351 29.5832 140.261L29.8418 139.594ZM29.4587 136.529L30.2089 139.032L30.3398 140.006L29.7141 140.073L28.4722 136.529H29.4587ZM13.2704 144.767C13.2704 144.684 13.2576 144.61 13.2321 144.544C13.2087 144.476 13.164 144.414 13.098 144.358C13.032 144.301 12.9394 144.245 12.8203 144.189C12.7011 144.134 12.5468 144.076 12.3574 144.017C12.1467 143.949 11.9466 143.872 11.7572 143.787C11.5699 143.702 11.4039 143.603 11.2592 143.49C11.1166 143.375 11.0038 143.242 10.9208 143.091C10.8399 142.94 10.7995 142.764 10.7995 142.564C10.7995 142.371 10.842 142.195 10.9272 142.038C11.0123 141.878 11.1315 141.742 11.2847 141.629C11.438 141.514 11.6189 141.426 11.8274 141.364C12.0381 141.302 12.269 141.271 12.5202 141.271C12.8628 141.271 13.1618 141.333 13.4172 141.457C13.6726 141.58 13.8705 141.749 14.011 141.964C14.1536 142.179 14.2249 142.425 14.2249 142.702H13.2736C13.2736 142.565 13.2448 142.446 13.1874 142.344C13.132 142.24 13.0469 142.158 12.932 142.098C12.8192 142.039 12.6766 142.009 12.5042 142.009C12.3382 142.009 12.1999 142.034 12.0892 142.086C11.9785 142.134 11.8955 142.201 11.8402 142.287C11.7849 142.37 11.7572 142.463 11.7572 142.568C11.7572 142.646 11.7763 142.718 11.8147 142.781C11.8551 142.845 11.9147 142.905 11.9934 142.96C12.0722 143.016 12.169 143.068 12.2839 143.117C12.3989 143.166 12.5319 143.213 12.683 143.26C12.9362 143.337 13.1586 143.423 13.3502 143.519C13.5439 143.615 13.7056 143.722 13.8354 143.841C13.9653 143.96 14.0632 144.096 14.1291 144.247C14.1951 144.398 14.2281 144.569 14.2281 144.761C14.2281 144.963 14.1887 145.144 14.11 145.303C14.0312 145.463 13.9174 145.598 13.7684 145.709C13.6194 145.82 13.4417 145.904 13.2353 145.961C13.0288 146.019 12.7979 146.047 12.5425 146.047C12.3127 146.047 12.086 146.017 11.8625 145.958C11.6391 145.896 11.4358 145.804 11.2528 145.68C11.0719 145.557 10.9272 145.399 10.8186 145.208C10.7101 145.016 10.6558 144.789 10.6558 144.528H11.6167C11.6167 144.672 11.6391 144.795 11.6838 144.895C11.7285 144.995 11.7912 145.076 11.8721 145.137C11.9551 145.199 12.053 145.244 12.1658 145.271C12.2807 145.299 12.4063 145.313 12.5425 145.313C12.7085 145.313 12.8447 145.29 12.9511 145.243C13.0597 145.196 13.1395 145.131 13.1906 145.048C13.2438 144.965 13.2704 144.871 13.2704 144.767ZM16.285 142.529V143.18H14.2738V142.529H16.285ZM14.7718 141.677H15.6912V144.943C15.6912 145.043 15.704 145.119 15.7295 145.173C15.7572 145.226 15.7976 145.263 15.8508 145.284C15.904 145.303 15.9711 145.313 16.052 145.313C16.1094 145.313 16.1605 145.311 16.2052 145.307C16.252 145.3 16.2914 145.294 16.3233 145.287L16.3265 145.964C16.2478 145.99 16.1626 146.01 16.0711 146.025C15.9796 146.04 15.8785 146.047 15.7678 146.047C15.5657 146.047 15.389 146.014 15.2379 145.948C15.0889 145.88 14.974 145.772 14.8931 145.623C14.8123 145.474 14.7718 145.278 14.7718 145.035V141.677ZM18.4441 145.204V143.666C18.4441 143.555 18.426 143.46 18.3898 143.382C18.3536 143.301 18.2972 143.238 18.2206 143.193C18.1461 143.149 18.0493 143.126 17.9301 143.126C17.8279 143.126 17.7396 143.144 17.6651 143.18C17.5906 143.215 17.5332 143.265 17.4927 143.331C17.4523 143.394 17.4321 143.47 17.4321 143.557H16.5127C16.5127 143.41 16.5467 143.271 16.6148 143.139C16.6829 143.007 16.7819 142.891 16.9117 142.791C17.0416 142.689 17.1959 142.609 17.3746 142.552C17.5555 142.494 17.7577 142.465 17.9812 142.465C18.2493 142.465 18.4877 142.51 18.6963 142.599C18.9048 142.689 19.0687 142.823 19.1879 143.002C19.3092 143.18 19.3699 143.404 19.3699 143.672V145.15C19.3699 145.34 19.3816 145.495 19.405 145.616C19.4284 145.735 19.4624 145.84 19.5071 145.929V145.983H18.5782C18.5335 145.89 18.4994 145.773 18.476 145.632C18.4547 145.49 18.4441 145.347 18.4441 145.204ZM18.5654 143.88L18.5718 144.4H18.0578C17.9365 144.4 17.8311 144.414 17.7418 144.441C17.6524 144.469 17.5789 144.509 17.5215 144.56C17.464 144.609 17.4214 144.666 17.3938 144.732C17.3682 144.798 17.3555 144.87 17.3555 144.949C17.3555 145.028 17.3736 145.099 17.4097 145.163C17.4459 145.225 17.4981 145.274 17.5662 145.31C17.6343 145.344 17.7141 145.361 17.8056 145.361C17.9439 145.361 18.0642 145.333 18.1663 145.278C18.2685 145.223 18.3472 145.154 18.4026 145.074C18.46 144.993 18.4898 144.916 18.492 144.844L18.7346 145.233C18.7005 145.32 18.6537 145.411 18.5941 145.505C18.5367 145.598 18.4632 145.687 18.3738 145.77C18.2845 145.85 18.177 145.917 18.0514 145.971C17.9258 146.022 17.7769 146.047 17.6045 146.047C17.3853 146.047 17.1863 146.004 17.0075 145.916C16.8309 145.827 16.6904 145.705 16.5861 145.549C16.484 145.392 16.4329 145.213 16.4329 145.013C16.4329 144.832 16.4669 144.671 16.535 144.531C16.6031 144.39 16.7032 144.272 16.8351 144.177C16.9692 144.079 17.1363 144.005 17.3363 143.956C17.5364 143.905 17.7684 143.88 18.0323 143.88H18.5654ZM21.5417 142.529V143.18H19.5305V142.529H21.5417ZM20.0285 141.677H20.9479V144.943C20.9479 145.043 20.9607 145.119 20.9862 145.173C21.0139 145.226 21.0543 145.263 21.1075 145.284C21.1607 145.303 21.2278 145.313 21.3087 145.313C21.3661 145.313 21.4172 145.311 21.4619 145.307C21.5087 145.3 21.5481 145.294 21.58 145.287L21.5832 145.964C21.5045 145.99 21.4193 146.01 21.3278 146.025C21.2363 146.04 21.1352 146.047 21.0245 146.047C20.8224 146.047 20.6457 146.014 20.4946 145.948C20.3456 145.88 20.2307 145.772 20.1498 145.623C20.069 145.474 20.0285 145.278 20.0285 145.035V141.677ZM22.8069 142.529V145.983H21.8843V142.529H22.8069ZM21.8268 141.629C21.8268 141.495 21.8737 141.384 21.9673 141.297C22.061 141.21 22.1865 141.166 22.344 141.166C22.4994 141.166 22.6239 141.21 22.7175 141.297C22.8133 141.384 22.8612 141.495 22.8612 141.629C22.8612 141.763 22.8133 141.874 22.7175 141.961C22.6239 142.048 22.4994 142.092 22.344 142.092C22.1865 142.092 22.061 142.048 21.9673 141.961C21.8737 141.874 21.8268 141.763 21.8268 141.629ZM23.191 144.291V144.224C23.191 143.971 23.2272 143.738 23.2996 143.525C23.3719 143.31 23.4773 143.124 23.6156 142.967C23.7539 142.809 23.9242 142.687 24.1264 142.599C24.3286 142.51 24.5605 142.465 24.8223 142.465C25.0841 142.465 25.3171 142.51 25.5214 142.599C25.7258 142.687 25.8971 142.809 26.0354 142.967C26.1759 143.124 26.2823 143.31 26.3547 143.525C26.427 143.738 26.4632 143.971 26.4632 144.224V144.291C26.4632 144.543 26.427 144.776 26.3547 144.991C26.2823 145.203 26.1759 145.39 26.0354 145.549C25.8971 145.707 25.7268 145.829 25.5246 145.916C25.3225 146.004 25.0905 146.047 24.8287 146.047C24.5669 146.047 24.3339 146.004 24.1296 145.916C23.9274 145.829 23.7561 145.707 23.6156 145.549C23.4773 145.39 23.3719 145.203 23.2996 144.991C23.2272 144.776 23.191 144.543 23.191 144.291ZM24.1104 144.224V144.291C24.1104 144.436 24.1232 144.571 24.1487 144.697C24.1743 144.822 24.2147 144.933 24.27 145.029C24.3275 145.123 24.402 145.196 24.4935 145.249C24.585 145.302 24.6968 145.329 24.8287 145.329C24.9564 145.329 25.066 145.302 25.1575 145.249C25.249 145.196 25.3225 145.123 25.3778 145.029C25.4331 144.933 25.4736 144.822 25.4991 144.697C25.5268 144.571 25.5406 144.436 25.5406 144.291V144.224C25.5406 144.084 25.5268 143.952 25.4991 143.829C25.4736 143.703 25.4321 143.592 25.3746 143.497C25.3193 143.399 25.2458 143.322 25.1543 143.267C25.0628 143.211 24.9521 143.184 24.8223 143.184C24.6925 143.184 24.5818 143.211 24.4903 143.267C24.4009 143.322 24.3275 143.399 24.27 143.497C24.2147 143.592 24.1743 143.703 24.1487 143.829C24.1232 143.952 24.1104 144.084 24.1104 144.224ZM27.6997 143.267V145.983H26.7803V142.529H27.6422L27.6997 143.267ZM27.5656 144.135H27.3166C27.3166 143.88 27.3496 143.65 27.4156 143.445C27.4815 143.239 27.5741 143.063 27.6933 142.919C27.8125 142.772 27.954 142.66 28.1179 142.584C28.2839 142.505 28.469 142.465 28.6733 142.465C28.8351 142.465 28.983 142.489 29.1171 142.536C29.2512 142.582 29.3661 142.657 29.4619 142.759C29.5598 142.861 29.6343 142.996 29.6853 143.165C29.7385 143.333 29.7651 143.538 29.7651 143.781V145.983H28.8394V143.777C28.8394 143.624 28.8181 143.505 28.7755 143.42C28.7329 143.335 28.6702 143.275 28.5872 143.241C28.5063 143.205 28.4063 143.187 28.2871 143.187C28.1636 143.187 28.0562 143.211 27.9646 143.26C27.8753 143.309 27.8008 143.377 27.7412 143.465C27.6837 143.55 27.6401 143.65 27.6103 143.765C27.5805 143.88 27.5656 144.003 27.5656 144.135Z" fill="black"/>
<path d="M41.0291 138.762V140.06C40.9852 140.125 40.9154 140.198 40.8196 140.279C40.7237 140.359 40.5914 140.429 40.4225 140.489C40.2552 140.547 40.0392 140.577 39.7745 140.577C39.5585 140.577 39.3595 140.539 39.1776 140.464C38.9973 140.388 38.8406 140.278 38.7074 140.133C38.5759 139.987 38.4736 139.81 38.4005 139.602C38.329 139.393 38.2933 139.155 38.2933 138.891V138.615C38.2933 138.351 38.3242 138.114 38.3859 137.907C38.4492 137.699 38.5418 137.522 38.6636 137.378C38.7854 137.232 38.9348 137.121 39.1118 137.047C39.2889 136.97 39.4919 136.932 39.7209 136.932C39.9921 136.932 40.2187 136.979 40.4005 137.073C40.5841 137.166 40.727 137.294 40.8293 137.458C40.9332 137.622 40.9998 137.809 41.0291 138.019H40.5589C40.5378 137.89 40.4956 137.773 40.4322 137.668C40.3705 137.562 40.282 137.478 40.1667 137.414C40.0514 137.35 39.9028 137.317 39.7209 137.317C39.5568 137.317 39.4147 137.347 39.2945 137.407C39.1744 137.467 39.0753 137.553 38.9973 137.665C38.9194 137.777 38.8609 137.913 38.8219 138.072C38.7846 138.231 38.7659 138.411 38.7659 138.611V138.891C38.7659 139.095 38.7895 139.278 38.8366 139.439C38.8853 139.6 38.9543 139.737 39.0436 139.851C39.133 139.963 39.2393 140.048 39.3628 140.106C39.4878 140.165 39.6259 140.194 39.7769 140.194C39.9442 140.194 40.0798 140.18 40.1837 140.153C40.2877 140.123 40.3689 140.089 40.4273 140.05C40.4858 140.01 40.5305 139.972 40.5613 139.936V139.142H39.7404V138.762H41.0291ZM42.6596 140.577C42.4761 140.577 42.3096 140.546 42.1602 140.484C42.0124 140.421 41.8849 140.332 41.7777 140.218C41.6722 140.105 41.591 139.97 41.5341 139.814C41.4773 139.658 41.4489 139.488 41.4489 139.302V139.2C41.4489 138.986 41.4805 138.795 41.5439 138.628C41.6072 138.459 41.6933 138.316 41.8021 138.199C41.9109 138.082 42.0343 137.993 42.1724 137.933C42.3104 137.873 42.4534 137.843 42.6011 137.843C42.7895 137.843 42.952 137.876 43.0884 137.941C43.2264 138.006 43.3393 138.097 43.427 138.214C43.5147 138.329 43.5797 138.465 43.6219 138.623C43.6641 138.779 43.6852 138.949 43.6852 139.134V139.337H41.7168V138.969H43.2345V138.935C43.228 138.818 43.2037 138.704 43.1615 138.594C43.1209 138.483 43.0559 138.392 42.9666 138.321C42.8772 138.249 42.7554 138.214 42.6011 138.214C42.4988 138.214 42.4046 138.235 42.3186 138.279C42.2325 138.322 42.1586 138.385 42.0969 138.469C42.0352 138.554 41.9872 138.657 41.9531 138.779C41.919 138.901 41.902 139.041 41.902 139.2V139.302C41.902 139.428 41.919 139.545 41.9531 139.656C41.9889 139.765 42.04 139.86 42.1066 139.943C42.1748 140.026 42.2568 140.091 42.3527 140.138C42.4501 140.185 42.5605 140.209 42.684 140.209C42.8431 140.209 42.9779 140.176 43.0884 140.111C43.1988 140.046 43.2954 139.959 43.3783 139.851L43.6511 140.067C43.5943 140.153 43.522 140.235 43.4343 140.313C43.3466 140.391 43.2386 140.455 43.1103 140.503C42.9836 140.552 42.8334 140.577 42.6596 140.577ZM44.5265 136.786V140.528H44.0733V136.786H44.5265ZM46.1692 140.577C45.9857 140.577 45.8192 140.546 45.6698 140.484C45.522 140.421 45.3945 140.332 45.2873 140.218C45.1818 140.105 45.1005 139.97 45.0437 139.814C44.9869 139.658 44.9584 139.488 44.9584 139.302V139.2C44.9584 138.986 44.9901 138.795 45.0534 138.628C45.1168 138.459 45.2029 138.316 45.3117 138.199C45.4205 138.082 45.5439 137.993 45.682 137.933C45.82 137.873 45.9629 137.843 46.1107 137.843C46.2991 137.843 46.4615 137.876 46.598 137.941C46.736 138.006 46.8489 138.097 46.9366 138.214C47.0243 138.329 47.0892 138.465 47.1315 138.623C47.1737 138.779 47.1948 138.949 47.1948 139.134V139.337H45.2264V138.969H46.7441V138.935C46.7376 138.818 46.7133 138.704 46.671 138.594C46.6304 138.483 46.5655 138.392 46.4761 138.321C46.3868 138.249 46.265 138.214 46.1107 138.214C46.0084 138.214 45.9142 138.235 45.8281 138.279C45.7421 138.322 45.6682 138.385 45.6064 138.469C45.5447 138.554 45.4968 138.657 45.4627 138.779C45.4286 138.901 45.4116 139.041 45.4116 139.2V139.302C45.4116 139.428 45.4286 139.545 45.4627 139.656C45.4984 139.765 45.5496 139.86 45.6162 139.943C45.6844 140.026 45.7664 140.091 45.8622 140.138C45.9597 140.185 46.0701 140.209 46.1936 140.209C46.3527 140.209 46.4875 140.176 46.598 140.111C46.7084 140.046 46.805 139.959 46.8879 139.851L47.1607 140.067C47.1039 140.153 47.0316 140.235 46.9439 140.313C46.8562 140.391 46.7482 140.455 46.6199 140.503C46.4932 140.552 46.343 140.577 46.1692 140.577ZM49.5099 140.158V140.528H47.5927V140.158H49.5099ZM49.4393 138.211L47.695 140.528H47.4197V140.197L49.1518 137.892H49.4393V138.211ZM49.2395 137.892V138.265H47.4392V137.892H49.2395ZM48.0872 136.788L48.4551 137.203L48.8229 136.788H49.2127V136.813L48.5939 137.48H48.3162L47.7072 136.813V136.788H48.0872ZM50.3365 137.892V140.528H49.8834V137.892H50.3365ZM49.8493 137.193C49.8493 137.12 49.8712 137.058 49.9151 137.008C49.9606 136.957 50.0271 136.932 50.1148 136.932C50.2009 136.932 50.2667 136.957 50.3122 137.008C50.3593 137.058 50.3828 137.12 50.3828 137.193C50.3828 137.263 50.3593 137.323 50.3122 137.373C50.2667 137.422 50.2009 137.446 50.1148 137.446C50.0271 137.446 49.9606 137.422 49.9151 137.373C49.8712 137.323 49.8493 137.263 49.8493 137.193ZM51.3361 138.455V140.528H50.8854V137.892H51.3118L51.3361 138.455ZM51.2289 139.11L51.0413 139.103C51.043 138.922 51.0698 138.756 51.1217 138.603C51.1737 138.449 51.2468 138.315 51.341 138.201C51.4352 138.088 51.5472 138 51.6772 137.938C51.8087 137.875 51.9541 137.843 52.1132 137.843C52.2432 137.843 52.3601 137.861 52.464 137.897C52.568 137.931 52.6565 137.986 52.7296 138.062C52.8043 138.139 52.8611 138.238 52.9001 138.36C52.9391 138.48 52.9586 138.627 52.9586 138.801V140.528H52.5055V138.796C52.5055 138.658 52.4852 138.547 52.4446 138.464C52.404 138.38 52.3447 138.319 52.2667 138.282C52.1888 138.243 52.0929 138.223 51.9793 138.223C51.8672 138.223 51.7649 138.247 51.6723 138.294C51.5814 138.341 51.5026 138.406 51.436 138.489C51.371 138.572 51.3199 138.667 51.2825 138.774C51.2468 138.879 51.2289 138.991 51.2289 139.11ZM53.9216 136.786V140.528H53.4685V136.786H53.9216ZM55.5319 137.892L54.3821 139.122L53.7389 139.79L53.7024 139.31L54.1628 138.759L54.9813 137.892H55.5319ZM55.1202 140.528L54.1799 139.271L54.4137 138.869L55.6513 140.528H55.1202ZM56.8677 140.577C56.6842 140.577 56.5177 140.546 56.3683 140.484C56.2205 140.421 56.093 140.332 55.9858 140.218C55.8802 140.105 55.799 139.97 55.7422 139.814C55.6853 139.658 55.6569 139.488 55.6569 139.302V139.2C55.6569 138.986 55.6886 138.795 55.7519 138.628C55.8153 138.459 55.9013 138.316 56.0102 138.199C56.119 138.082 56.2424 137.993 56.3805 137.933C56.5185 137.873 56.6614 137.843 56.8092 137.843C56.9976 137.843 57.16 137.876 57.2964 137.941C57.4345 138.006 57.5474 138.097 57.6351 138.214C57.7228 138.329 57.7877 138.465 57.8299 138.623C57.8722 138.779 57.8933 138.949 57.8933 139.134V139.337H55.9249V138.969H57.4426V138.935C57.4361 138.818 57.4117 138.704 57.3695 138.594C57.3289 138.483 57.264 138.392 57.1746 138.321C57.0853 138.249 56.9635 138.214 56.8092 138.214C56.7069 138.214 56.6127 138.235 56.5266 138.279C56.4405 138.322 56.3666 138.385 56.3049 138.469C56.2432 138.554 56.1953 138.657 56.1612 138.779C56.1271 138.901 56.11 139.041 56.11 139.2V139.302C56.11 139.428 56.1271 139.545 56.1612 139.656C56.1969 139.765 56.2481 139.86 56.3147 139.943C56.3829 140.026 56.4649 140.091 56.5607 140.138C56.6582 140.185 56.7686 140.209 56.892 140.209C57.0512 140.209 57.186 140.176 57.2964 140.111C57.4069 140.046 57.5035 139.959 57.5863 139.851L57.8592 140.067C57.8023 140.153 57.7301 140.235 57.6424 140.313C57.5547 140.391 57.4467 140.455 57.3184 140.503C57.1917 140.552 57.0415 140.577 56.8677 140.577ZM58.7345 136.786V140.528H58.2814V136.786H58.7345ZM59.7731 137.892V140.528H59.32V137.892H59.7731ZM59.2859 137.193C59.2859 137.12 59.3078 137.058 59.3516 137.008C59.3971 136.957 59.4637 136.932 59.5514 136.932C59.6375 136.932 59.7033 136.957 59.7487 137.008C59.7958 137.058 59.8194 137.12 59.8194 137.193C59.8194 137.263 59.7958 137.323 59.7487 137.373C59.7033 137.422 59.6375 137.446 59.5514 137.446C59.4637 137.446 59.3971 137.422 59.3516 137.373C59.3078 137.323 59.2859 137.263 59.2859 137.193ZM60.2026 139.239V139.183C60.2026 138.993 60.2302 138.817 60.2855 138.654C60.3407 138.49 60.4203 138.348 60.5242 138.228C60.6281 138.106 60.754 138.012 60.9018 137.946C61.0496 137.877 61.2153 137.843 61.3988 137.843C61.5839 137.843 61.7504 137.877 61.8982 137.946C62.0476 138.012 62.1743 138.106 62.2782 138.228C62.3838 138.348 62.4642 138.49 62.5194 138.654C62.5746 138.817 62.6022 138.993 62.6022 139.183V139.239C62.6022 139.429 62.5746 139.605 62.5194 139.768C62.4642 139.93 62.3838 140.072 62.2782 140.194C62.1743 140.314 62.0484 140.408 61.9006 140.477C61.7544 140.543 61.5888 140.577 61.4036 140.577C61.2185 140.577 61.052 140.543 60.9042 140.477C60.7564 140.408 60.6298 140.314 60.5242 140.194C60.4203 140.072 60.3407 139.93 60.2855 139.768C60.2302 139.605 60.2026 139.429 60.2026 139.239ZM60.6533 139.183V139.239C60.6533 139.371 60.6687 139.495 60.6996 139.612C60.7305 139.727 60.7767 139.829 60.8385 139.919C60.9018 140.008 60.9806 140.079 61.0748 140.131C61.169 140.181 61.2786 140.206 61.4036 140.206C61.5271 140.206 61.6351 140.181 61.7276 140.131C61.8218 140.079 61.8998 140.008 61.9615 139.919C62.0232 139.829 62.0695 139.727 62.1004 139.612C62.1329 139.495 62.1491 139.371 62.1491 139.239V139.183C62.1491 139.053 62.1329 138.931 62.1004 138.815C62.0695 138.698 62.0224 138.595 61.9591 138.506C61.8974 138.415 61.8194 138.343 61.7252 138.291C61.6326 138.239 61.5238 138.214 61.3988 138.214C61.2753 138.214 61.1665 138.239 61.0723 138.291C60.9798 138.343 60.9018 138.415 60.8385 138.506C60.7767 138.595 60.7305 138.698 60.6996 138.815C60.6687 138.931 60.6533 139.053 60.6533 139.183ZM65.7634 137.892H66.1727V140.472C66.1727 140.704 66.1256 140.902 66.0314 141.066C65.9372 141.23 65.8057 141.354 65.6368 141.439C65.4695 141.525 65.2762 141.568 65.057 141.568C64.966 141.568 64.8588 141.553 64.7354 141.524C64.6136 141.497 64.4934 141.449 64.3748 141.38C64.2579 141.314 64.1596 141.224 64.0801 141.11L64.3164 140.842C64.4268 140.975 64.5421 141.068 64.6623 141.12C64.7841 141.172 64.9043 141.198 65.0228 141.198C65.1658 141.198 65.2892 141.171 65.3931 141.117C65.4971 141.064 65.5775 140.984 65.6343 140.879C65.6928 140.775 65.722 140.646 65.722 140.494V138.472L65.7634 137.892ZM63.9485 139.239V139.188C63.9485 138.987 63.9721 138.804 64.0192 138.64C64.0679 138.474 64.1369 138.332 64.2262 138.214C64.3172 138.095 64.4268 138.004 64.5551 137.941C64.6834 137.876 64.828 137.843 64.9887 137.843C65.1544 137.843 65.2989 137.872 65.4224 137.931C65.5474 137.988 65.653 138.071 65.7391 138.182C65.8268 138.291 65.8958 138.422 65.9461 138.576C65.9965 138.731 66.0314 138.905 66.0509 139.1V139.324C66.033 139.518 65.9981 139.691 65.9461 139.846C65.8958 140 65.8268 140.132 65.7391 140.24C65.653 140.349 65.5474 140.433 65.4224 140.491C65.2973 140.548 65.1512 140.577 64.9839 140.577C64.8263 140.577 64.6834 140.543 64.5551 140.477C64.4284 140.41 64.3196 140.317 64.2287 140.197C64.1377 140.076 64.0679 139.935 64.0192 139.773C63.9721 139.609 63.9485 139.431 63.9485 139.239ZM64.3992 139.188V139.239C64.3992 139.371 64.4122 139.494 64.4382 139.609C64.4658 139.725 64.5072 139.826 64.5624 139.914C64.6193 140.002 64.6915 140.071 64.7792 140.121C64.8669 140.17 64.9717 140.194 65.0935 140.194C65.2429 140.194 65.3663 140.162 65.4638 140.099C65.5612 140.036 65.6384 139.952 65.6952 139.848C65.7537 139.744 65.7992 139.631 65.8316 139.51V138.922C65.8138 138.833 65.7862 138.747 65.7488 138.664C65.7131 138.58 65.666 138.505 65.6075 138.44C65.5507 138.373 65.48 138.321 65.3956 138.282C65.3111 138.243 65.2121 138.223 65.0984 138.223C64.9749 138.223 64.8686 138.249 64.7792 138.301C64.6915 138.352 64.6193 138.421 64.5624 138.511C64.5072 138.598 64.4658 138.701 64.4382 138.818C64.4122 138.933 64.3992 139.056 64.3992 139.188ZM66.6899 140.289C66.6899 140.213 66.7135 140.149 66.7606 140.097C66.8093 140.043 66.8791 140.016 66.9701 140.016C67.061 140.016 67.1301 140.043 67.1772 140.097C67.2259 140.149 67.2502 140.213 67.2502 140.289C67.2502 140.364 67.2259 140.427 67.1772 140.479C67.1301 140.531 67.061 140.557 66.9701 140.557C66.8791 140.557 66.8093 140.531 66.7606 140.479C66.7135 140.427 66.6899 140.364 66.6899 140.289ZM70.3189 136.961V140.528H69.8682V137.524L68.9595 137.855V137.449L70.2482 136.961H70.3189ZM73.1992 136.976H73.2381V137.358H73.1992C72.9604 137.358 72.7607 137.397 72.5999 137.475C72.4391 137.552 72.3116 137.655 72.2174 137.785C72.1232 137.913 72.055 138.058 72.0128 138.218C71.9722 138.379 71.9519 138.542 71.9519 138.708V139.229C71.9519 139.387 71.9705 139.527 72.0079 139.648C72.0453 139.769 72.0964 139.87 72.1614 139.953C72.2263 140.036 72.2994 140.098 72.3806 140.14C72.4635 140.183 72.5495 140.204 72.6389 140.204C72.7428 140.204 72.8354 140.184 72.9166 140.145C72.9978 140.105 73.066 140.049 73.1212 139.977C73.1781 139.904 73.2211 139.818 73.2503 139.719C73.2796 139.62 73.2942 139.511 73.2942 139.393C73.2942 139.287 73.2812 139.186 73.2552 139.088C73.2292 138.989 73.1894 138.901 73.1358 138.825C73.0822 138.747 73.0148 138.686 72.9336 138.642C72.854 138.597 72.759 138.574 72.6486 138.574C72.5235 138.574 72.4066 138.605 72.2978 138.667C72.1906 138.727 72.1021 138.806 72.0323 138.905C71.964 139.003 71.9251 139.109 71.9153 139.225L71.6766 139.222C71.6993 139.04 71.7415 138.885 71.8033 138.757C71.8666 138.627 71.9446 138.521 72.0371 138.44C72.1313 138.357 72.2361 138.297 72.3514 138.26C72.4683 138.221 72.5918 138.201 72.7217 138.201C72.8987 138.201 73.0514 138.235 73.1797 138.301C73.308 138.368 73.4135 138.457 73.4964 138.569C73.5792 138.68 73.6401 138.805 73.6791 138.944C73.7197 139.082 73.74 139.225 73.74 139.371C73.74 139.538 73.7164 139.695 73.6693 139.841C73.6222 139.987 73.5516 140.115 73.4574 140.226C73.3648 140.336 73.2503 140.422 73.1139 140.484C72.9775 140.546 72.8191 140.577 72.6389 140.577C72.4472 140.577 72.2799 140.538 72.137 140.46C71.9941 140.38 71.8755 140.274 71.7813 140.143C71.6871 140.011 71.6165 139.865 71.5694 139.704C71.5223 139.544 71.4987 139.38 71.4987 139.215V139.003C71.4987 138.753 71.5239 138.507 71.5743 138.267C71.6246 138.027 71.7115 137.809 71.8349 137.614C71.96 137.419 72.133 137.264 72.3538 137.149C72.5747 137.034 72.8565 136.976 73.1992 136.976ZM74.5593 139.992V140.355C74.5593 140.503 74.5219 140.659 74.4472 140.823C74.3725 140.988 74.2678 141.126 74.133 141.237L73.8772 141.059C73.9292 140.987 73.973 140.914 74.0087 140.84C74.0445 140.767 74.0713 140.69 74.0891 140.611C74.1086 140.533 74.1184 140.45 74.1184 140.362V139.992H74.5593ZM40.5175 144.472V145.013C40.5175 145.303 40.4915 145.549 40.4395 145.748C40.3876 145.948 40.3128 146.109 40.2154 146.231C40.118 146.352 40.0002 146.441 39.8622 146.496C39.7257 146.55 39.5715 146.577 39.3993 146.577C39.2629 146.577 39.137 146.56 39.0217 146.525C38.9064 146.491 38.8025 146.437 38.7099 146.362C38.6189 146.286 38.541 146.187 38.476 146.065C38.411 145.943 38.3615 145.795 38.3274 145.622C38.2933 145.448 38.2762 145.245 38.2762 145.013V144.472C38.2762 144.181 38.3022 143.937 38.3542 143.741C38.4078 143.544 38.4833 143.387 38.5808 143.268C38.6782 143.148 38.7951 143.062 38.9316 143.01C39.0696 142.958 39.2239 142.932 39.3944 142.932C39.5325 142.932 39.6592 142.949 39.7745 142.983C39.8914 143.016 39.9953 143.069 40.0863 143.142C40.1772 143.213 40.2544 143.309 40.3177 143.429C40.3827 143.548 40.4322 143.693 40.4663 143.865C40.5004 144.037 40.5175 144.239 40.5175 144.472ZM40.0644 145.086V144.396C40.0644 144.237 40.0546 144.097 40.0351 143.977C40.0173 143.855 39.9905 143.751 39.9547 143.665C39.919 143.579 39.8735 143.509 39.8183 143.456C39.7647 143.402 39.7022 143.363 39.6307 143.339C39.5609 143.313 39.4821 143.3 39.3944 143.3C39.2872 143.3 39.1922 143.32 39.1094 143.361C39.0266 143.4 38.9567 143.462 38.8999 143.548C38.8447 143.635 38.8025 143.747 38.7732 143.887C38.744 144.027 38.7294 144.196 38.7294 144.396V145.086C38.7294 145.245 38.7383 145.385 38.7562 145.507C38.7757 145.629 38.8041 145.734 38.8414 145.824C38.8788 145.911 38.9243 145.984 38.9779 146.041C39.0314 146.097 39.0932 146.14 39.163 146.167C39.2345 146.193 39.3132 146.206 39.3993 146.206C39.5097 146.206 39.6064 146.185 39.6892 146.143C39.772 146.101 39.8411 146.035 39.8963 145.946C39.9531 145.855 39.9953 145.739 40.0229 145.597C40.0506 145.454 40.0644 145.284 40.0644 145.086ZM43.2467 146.158V146.528H40.9251V146.204L42.0871 144.91C42.23 144.751 42.3405 144.616 42.4184 144.506C42.498 144.394 42.5532 144.294 42.5841 144.206C42.6166 144.117 42.6328 144.026 42.6328 143.933C42.6328 143.816 42.6085 143.711 42.5597 143.617C42.5126 143.521 42.4428 143.445 42.3502 143.388C42.2577 143.331 42.1456 143.302 42.014 143.302C41.8565 143.302 41.725 143.333 41.6194 143.395C41.5154 143.455 41.4375 143.54 41.3855 143.648C41.3336 143.757 41.3076 143.882 41.3076 144.023H40.8569C40.8569 143.824 40.9007 143.641 40.9884 143.475C41.0761 143.31 41.2061 143.178 41.3782 143.081C41.5504 142.982 41.7623 142.932 42.014 142.932C42.2382 142.932 42.4298 142.972 42.589 143.051C42.7481 143.129 42.8699 143.24 42.9544 143.383C43.0405 143.524 43.0835 143.69 43.0835 143.88C43.0835 143.984 43.0656 144.089 43.0299 144.196C42.9958 144.302 42.9479 144.408 42.8862 144.513C42.8261 144.619 42.7554 144.723 42.6742 144.825C42.5947 144.927 42.5094 145.028 42.4184 145.127L41.4684 146.158H43.2467ZM45.0356 142.961V146.528H44.5849V143.524L43.6763 143.855V143.449L44.965 142.961H45.0356ZM48.4129 144.472V145.013C48.4129 145.303 48.3869 145.549 48.3349 145.748C48.2829 145.948 48.2082 146.109 48.1108 146.231C48.0133 146.352 47.8956 146.441 47.7575 146.496C47.6211 146.55 47.4668 146.577 47.2947 146.577C47.1583 146.577 47.0324 146.56 46.9171 146.525C46.8018 146.491 46.6978 146.437 46.6053 146.362C46.5143 146.286 46.4364 146.187 46.3714 146.065C46.3064 145.943 46.2569 145.795 46.2228 145.622C46.1887 145.448 46.1716 145.245 46.1716 145.013V144.472C46.1716 144.181 46.1976 143.937 46.2496 143.741C46.3032 143.544 46.3787 143.387 46.4761 143.268C46.5736 143.148 46.6905 143.062 46.8269 143.01C46.965 142.958 47.1193 142.932 47.2898 142.932C47.4279 142.932 47.5545 142.949 47.6698 142.983C47.7868 143.016 47.8907 143.069 47.9817 143.142C48.0726 143.213 48.1498 143.309 48.2131 143.429C48.2781 143.548 48.3276 143.693 48.3617 143.865C48.3958 144.037 48.4129 144.239 48.4129 144.472ZM47.9597 145.086V144.396C47.9597 144.237 47.95 144.097 47.9305 143.977C47.9126 143.855 47.8858 143.751 47.8501 143.665C47.8144 143.579 47.7689 143.509 47.7137 143.456C47.6601 143.402 47.5976 143.363 47.5261 143.339C47.4563 143.313 47.3775 143.3 47.2898 143.3C47.1826 143.3 47.0876 143.32 47.0048 143.361C46.922 143.4 46.8521 143.462 46.7953 143.548C46.7401 143.635 46.6978 143.747 46.6686 143.887C46.6394 144.027 46.6247 144.196 46.6247 144.396V145.086C46.6247 145.245 46.6337 145.385 46.6515 145.507C46.671 145.629 46.6995 145.734 46.7368 145.824C46.7742 145.911 46.8196 145.984 46.8732 146.041C46.9268 146.097 46.9885 146.14 47.0584 146.167C47.1298 146.193 47.2086 146.206 47.2947 146.206C47.4051 146.206 47.5018 146.185 47.5846 146.143C47.6674 146.101 47.7364 146.035 47.7917 145.946C47.8485 145.855 47.8907 145.739 47.9183 145.597C47.9459 145.454 47.9597 145.284 47.9597 145.086ZM51.0447 144.472V145.013C51.0447 145.303 51.0187 145.549 50.9667 145.748C50.9147 145.948 50.84 146.109 50.7426 146.231C50.6451 146.352 50.5274 146.441 50.3893 146.496C50.2529 146.55 50.0986 146.577 49.9265 146.577C49.7901 146.577 49.6642 146.56 49.5489 146.525C49.4336 146.491 49.3296 146.437 49.2371 146.362C49.1461 146.286 49.0681 146.187 49.0032 146.065C48.9382 145.943 48.8887 145.795 48.8546 145.622C48.8205 145.448 48.8034 145.245 48.8034 145.013V144.472C48.8034 144.181 48.8294 143.937 48.8814 143.741C48.935 143.544 49.0105 143.387 49.1079 143.268C49.2054 143.148 49.3223 143.062 49.4587 143.01C49.5968 142.958 49.7511 142.932 49.9216 142.932C50.0597 142.932 50.1863 142.949 50.3016 142.983C50.4186 143.016 50.5225 143.069 50.6135 143.142C50.7044 143.213 50.7816 143.309 50.8449 143.429C50.9099 143.548 50.9594 143.693 50.9935 143.865C51.0276 144.037 51.0447 144.239 51.0447 144.472ZM50.5915 145.086V144.396C50.5915 144.237 50.5818 144.097 50.5623 143.977C50.5444 143.855 50.5176 143.751 50.4819 143.665C50.4462 143.579 50.4007 143.509 50.3455 143.456C50.2919 143.402 50.2294 143.363 50.1579 143.339C50.0881 143.313 50.0093 143.3 49.9216 143.3C49.8144 143.3 49.7194 143.32 49.6366 143.361C49.5538 143.4 49.4839 143.462 49.4271 143.548C49.3719 143.635 49.3296 143.747 49.3004 143.887C49.2712 144.027 49.2565 144.196 49.2565 144.396V145.086C49.2565 145.245 49.2655 145.385 49.2833 145.507C49.3028 145.629 49.3313 145.734 49.3686 145.824C49.406 145.911 49.4514 145.984 49.505 146.041C49.5586 146.097 49.6203 146.14 49.6902 146.167C49.7616 146.193 49.8404 146.206 49.9265 146.206C50.0369 146.206 50.1335 146.185 50.2164 146.143C50.2992 146.101 50.3682 146.035 50.4234 145.946C50.4803 145.855 50.5225 145.739 50.5501 145.597C50.5777 145.454 50.5915 145.284 50.5915 145.086Z" fill="black"/>
<path d="M40.4298 154.865L38.1309 150.673H44.081L40.4298 154.865Z" fill="#049ADB" stroke="#049ADB" stroke-width="2.70461" stroke-linecap="round" stroke-linejoin="round"/>
<line x1="35.1548" y1="134.717" x2="35.1548" y2="147.158" stroke="black" stroke-width="0.270461"/>
</g>
<path d="M257.265 95.5727L253 91.3076H261.53L257.265 95.5727Z" fill="#049ADB"/>
<path d="M28.7562 159.003L20.4414 150.688H37.071L28.7562 159.003Z" fill="#049ADB"/>
</g>
<defs>
<clipPath id="clip0_1501_24102">
<rect width="280" height="208" fill="white" transform="translate(0 0.307617)"/>
</clipPath>
<clipPath id="clip1_1501_24102">
<rect x="178.984" y="63.3076" width="91.443" height="29.0024" rx="11.6043" fill="white"/>
</clipPath>
<clipPath id="clip2_1501_24102">
<rect x="5" y="129.308" width="75.9995" height="22.9892" rx="9.19832" fill="white"/>
</clipPath>
</defs>
</svg>
