<svg width="40" height="40" viewBox="0 0 40 40" fill="none" xmlns="http://www.w3.org/2000/svg">
<path id="Shape" d="M19.8403 39C30.2456 39 38.6807 30.4934 38.6807 20C38.6807 9.50659 30.2456 1 19.8403 1M19.8403 39C9.43511 39 1 30.4934 1 20M19.8403 39C25.1311 39 29.4202 30.4934 29.4202 20C29.4202 9.50659 25.1311 1 19.8403 1M19.8403 39C14.5495 39 10.2605 30.4934 10.2605 20C10.2605 9.50659 14.5495 1 19.8403 1M1 20C1 9.50659 9.43511 1 19.8403 1M1 20H39M8.02521 5.02542C8.02521 5.02542 20.5321 10.822 31.6555 5.02542M31.6555 34.9746C31.6555 34.9746 19.1486 29.178 8.02521 34.9746" stroke="#D9D9D9" stroke-width="2"/>
</svg>
