<svg width="168" height="161" viewBox="0 0 168 161" fill="none" xmlns="http://www.w3.org/2000/svg">
<path d="M74.4894 7.27052C77.483 -1.94259 90.517 -1.94259 93.5106 7.27052L106.451 47.0983C107.79 51.2185 111.63 54.0081 115.962 54.0081H157.839C167.527 54.0081 171.554 66.4043 163.717 72.0983L129.838 96.7132C126.333 99.2597 124.866 103.773 126.205 107.894L139.146 147.721C142.139 156.934 131.595 164.596 123.757 158.902L89.8779 134.287C86.373 131.74 81.627 131.74 78.1221 134.287L44.2426 158.902C36.4055 164.596 25.8607 156.934 28.8542 147.721L41.795 107.894C43.1338 103.773 41.6672 99.2597 38.1623 96.7132L4.28276 72.0983C-3.55437 66.4043 0.473385 54.0081 10.1606 54.0081H52.038C56.3703 54.0081 60.2099 51.2185 61.5486 47.0983L74.4894 7.27052Z" fill="#9A9A9A"/>
</svg>
