<svg width="197" height="50" viewBox="0 0 197 50" fill="none" xmlns="http://www.w3.org/2000/svg">
<path d="M60.382 7.76929H63.6818L67.7549 17.3043L72.2023 7.76929H75.4652L69.1808 20.6214H66.0976L60.382 7.76929Z" fill="black"/>
<path d="M103.57 8.09944C103.57 7.1883 104.144 6.86816 105.146 6.86816C106.149 6.86816 106.725 7.18337 106.725 8.09944C106.725 8.97119 106.208 9.34796 105.146 9.34796C104.028 9.35781 103.57 9.04507 103.57 8.09944ZM103.57 10.2763H106.725V20.6191H103.57V10.2763Z" fill="black"/>
<path d="M162.95 29.7525C162.95 28.8414 163.524 28.5212 164.526 28.5212C165.528 28.5212 166.105 28.8364 166.105 29.7525C166.105 30.6243 165.588 31.001 164.526 31.001C163.408 31.001 162.95 30.6981 162.95 29.7525ZM162.95 31.9294H166.105V42.2722H162.95V31.9294Z" fill="black"/>
<path d="M76.5487 8.09944C76.5487 7.1883 77.1225 6.86816 78.1248 6.86816C79.127 6.86816 79.7008 7.18337 79.7008 8.09944C79.7008 8.97119 79.1861 9.34796 78.1248 9.34796C77.0068 9.35781 76.5487 9.04507 76.5487 8.09944ZM76.5487 10.2763H79.7008V20.6191H76.5487V10.2763Z" fill="black"/>
<path d="M82.4268 6.92212H85.5001V20.6213H82.4268V6.92212Z" fill="black"/>
<path d="M88.2484 20.6216V10.2788H90.9178L91.164 12.5321C91.9939 10.9092 93.5429 9.89958 95.8133 9.89958C96.7774 9.8662 97.7336 10.0834 98.5887 10.53C100.103 11.3599 100.933 12.8916 100.933 14.9626V20.6265H97.8376V15.7014C97.8376 13.591 97.0816 12.3671 94.7914 12.3671C92.3953 12.3671 91.3684 13.6107 91.3684 16.0437V20.6216H88.2484Z" fill="black"/>
<path d="M114.258 20.9639C111.057 20.9639 109.333 19.0357 109.333 15.9354V10.2715H112.431V15.3222C112.431 17.376 113.261 18.457 115.531 18.457C117.513 18.457 118.56 17.1962 118.56 15.1424V10.2764H121.678V20.6192H119.035L118.764 18.2748C118.08 19.9173 116.583 20.9639 114.258 20.9639Z" fill="black"/>
<path d="M123.424 17.196H126.938C127.28 18.2057 128.169 18.6194 130.56 18.6194C132.813 18.6194 133.461 18.1687 133.461 17.4496C133.461 17.1049 133.318 16.9079 132.794 16.7823C132.269 16.6567 131.245 16.5656 129.514 16.5114C125.406 16.3858 123.8 15.5264 123.8 13.4825C123.783 12.8143 124.007 12.1623 124.431 11.6454C125.278 10.5643 126.955 9.89697 129.587 9.89697C133.478 9.89697 135.589 10.9953 136.345 13.5022H133.04C132.749 12.4383 131.488 12.1133 129.56 12.1133C128.981 12.0883 128.401 12.1429 127.837 12.2758C127.044 12.4925 126.775 12.852 126.775 13.2313C126.775 13.5366 126.864 13.7533 127.369 13.9159C127.873 14.0784 128.846 14.1498 130.57 14.2212C132.932 14.3123 134.426 14.5635 135.291 15.0684C136.155 15.5732 136.5 16.2996 136.5 17.3758C136.5 19.4492 134.444 20.9637 130.407 20.9637C126.155 20.9637 123.956 19.7546 123.424 17.196Z" fill="black"/>
<path d="M68.7104 42.2501H65.6101V31.9763H60.9977V29.3979H73.542V31.9763H68.7104V42.2501Z" fill="black"/>
<path d="M79.5432 42.602C77.9031 42.602 76.6054 42.3558 75.6154 41.9347C73.6454 41.0162 72.8746 39.3933 72.8746 37.2854C72.8647 36.2845 73.1269 35.2997 73.6331 34.4362C74.6772 32.6705 76.6768 31.5353 79.7772 31.5353C81.0356 31.5014 82.2875 31.7286 83.4538 32.2026C85.4903 33.1039 86.5911 34.7613 86.5911 37.0859V38.1694H75.778C76.1375 39.5214 77.29 40.2232 79.7969 40.2232C81.6881 40.2232 82.5894 39.8637 83.0942 39.1594H86.4655C85.3475 41.7278 82.9686 42.602 79.5432 42.602ZM75.8494 36.0048H83.5621C83.2198 34.4904 82.0846 33.8797 79.8683 33.8797C77.5781 33.8698 76.2803 34.643 75.8494 35.995V36.0048Z" fill="black"/>
<path d="M101.46 40.2483C100.396 41.7259 98.4138 42.5927 95.3036 42.5927C93.6635 42.5927 92.3485 42.376 91.3389 41.9253C89.3565 41.061 88.5291 39.4012 88.5291 37.1504C88.5056 36.0908 88.8007 35.0485 89.3762 34.1584C90.5213 32.4642 92.6416 31.521 95.4046 31.521C99.5909 31.521 101.982 33.2448 102.361 36.3156H99.0639C98.793 34.7667 97.7292 33.9909 95.4415 33.9909C92.9001 33.9909 91.6565 35.0178 91.6565 37.1455C91.6565 39.1155 92.7746 40.0833 95.4046 40.0833C97.8203 40.0833 98.83 39.2362 99.0639 37.6848H102.361C102.308 38.6071 101.996 39.4957 101.46 40.2483Z" fill="black"/>
<path d="M104.4 42.2503V28.551H107.355V34.013C108.131 32.5059 109.633 31.5209 111.85 31.5209C112.808 31.4865 113.759 31.7039 114.608 32.1513C116.122 32.9812 116.932 34.5129 116.932 36.5839V42.2478H113.844V37.4926C113.848 36.8692 113.756 36.249 113.573 35.6531C113.194 34.5892 112.342 33.976 110.832 33.976C108.436 33.976 107.355 35.2073 107.355 37.6354V42.2503H104.4Z" fill="black"/>
<path d="M122.783 42.2501H119.809V29.3979H131.722V32.0674H122.783V34.951H131.471V37.6352H122.783V42.2501Z" fill="black"/>
<path d="M138.519 42.6024C135.318 42.6024 133.579 40.6742 133.579 37.5738V31.91H136.68V36.9557C136.68 39.0095 137.509 40.093 139.78 40.093C141.762 40.093 142.809 38.8298 142.809 36.776V31.905H145.926V42.2478H143.294L143.023 39.9034C142.339 41.546 140.844 42.6024 138.519 42.6024Z" fill="black"/>
<path d="M147.692 38.8247H151.206C151.548 39.8343 152.437 40.248 154.831 40.248C157.082 40.248 157.732 39.7974 157.732 39.0783C157.732 38.736 157.587 38.5365 157.065 38.411C156.543 38.2854 155.516 38.1943 153.784 38.1401C149.674 38.0145 148.071 37.1674 148.071 35.1136C148.053 34.4444 148.277 33.7911 148.702 33.2741C149.549 32.193 151.226 31.5256 153.856 31.5256C157.749 31.5256 159.857 32.6264 160.616 35.1308H157.299C157.01 34.067 155.75 33.7419 153.821 33.7419C153.242 33.7166 152.662 33.7713 152.098 33.9045C151.305 34.1212 151.034 34.4807 151.034 34.8599C151.034 35.1678 151.125 35.382 151.63 35.5445C152.135 35.7071 153.107 35.7785 154.831 35.8524C157.19 35.941 158.687 36.1946 159.552 36.6995C160.416 37.2043 160.758 37.9308 160.758 39.0044C160.758 41.0779 158.705 42.5924 154.669 42.5924C150.413 42.6022 148.214 41.3857 147.692 38.8247Z" fill="black"/>
<path d="M171.086 41.9251C169.116 41.0608 168.277 39.401 168.277 37.1502C168.253 36.0906 168.548 35.0483 169.124 34.1582C170.259 32.464 172.367 31.5208 175.137 31.5208C176.39 31.4887 177.636 31.7159 178.797 32.1882C180.87 33.0895 182.023 34.7468 182.023 37.1453C182.049 38.1447 181.793 39.1313 181.284 39.992C180.309 41.637 178.314 42.6023 175.054 42.6023C173.414 42.6023 172.096 42.3758 171.086 41.9251ZM178.91 37.1502C178.91 35.0767 177.809 33.9957 175.179 33.9957C172.638 33.9957 171.394 35.0226 171.394 37.1502C171.394 39.1203 172.512 40.0881 175.142 40.0881C177.9 40.0881 178.91 39.0587 178.91 37.1502Z" fill="black"/>
<path d="M184.318 42.2503V31.9075H186.985L187.231 34.1608C188.066 32.5355 189.617 31.5209 191.883 31.5209C192.847 31.489 193.803 31.7061 194.658 32.1513C196.173 32.9812 197 34.5129 197 36.5839V42.2478H193.905V37.3227C193.905 35.2123 193.149 33.9884 190.861 33.9884C188.462 33.9884 187.435 35.2197 187.435 37.665V42.2429L184.318 42.2503Z" fill="black"/>
<path d="M49.9014 19.1809C49.7265 18.4003 49.5172 17.6319 49.2709 16.8809L25.3472 19.5626C25.2891 19.57 25.2304 19.57 25.1723 19.5626L1.25099 16.8809C1.00473 17.6196 0.795417 18.4003 0.620575 19.1809L25.1674 21.934C25.2256 21.939 25.2841 21.939 25.3422 21.934L49.9014 19.1809Z" fill="#DC2323"/>
<path d="M47.5988 12.9409C47.217 12.2103 46.7986 11.4994 46.3454 10.8108L25.4432 15.4897C25.3296 15.5143 25.212 15.5143 25.0984 15.4897L4.18634 10.8108C3.72974 11.4992 3.30811 12.2101 2.92305 12.9409L25.0861 17.9104C25.1997 17.935 25.3173 17.935 25.4309 17.9104L47.5988 12.9409Z" fill="#DC2323"/>
<path d="M43.8829 7.65871C43.2856 7.01094 42.656 6.3937 41.9965 5.80933L25.522 11.3501C25.3619 11.402 25.1896 11.402 25.0295 11.3501L8.55495 5.80933C7.89827 6.39542 7.26867 7.01188 6.66617 7.65871L25.0295 13.8348C25.1896 13.8868 25.3619 13.8868 25.522 13.8348L43.8829 7.65871Z" fill="#DC2323"/>
<path d="M39.1055 3.6077C38.294 3.07589 37.4529 2.5908 36.5863 2.15479L25.5811 7.07991C25.4804 7.12502 25.3713 7.14833 25.2609 7.14833C25.1506 7.14833 25.0415 7.12502 24.9408 7.07991L13.9356 2.15479C13.0686 2.59025 12.2275 3.07536 11.4164 3.6077L24.9408 9.67052C25.0415 9.71563 25.1506 9.73895 25.2609 9.73895C25.3713 9.73895 25.4804 9.71563 25.5811 9.67052L39.1055 3.6077Z" fill="#DC2323"/>
<path d="M33.6657 0.911148C32.6197 0.54008 31.5502 0.238983 30.4643 0.00985024L25.6451 2.70882C25.528 2.7753 25.3956 2.81025 25.2609 2.81025C25.1263 2.81025 24.9939 2.7753 24.8768 2.70882L20.0649 0C18.979 0.229133 17.9096 0.53023 16.8636 0.901297L24.8768 5.41763C24.9943 5.48297 25.1265 5.51726 25.2609 5.51726C25.3954 5.51726 25.5276 5.48297 25.6451 5.41763L33.6657 0.911148Z" fill="#DC2323"/>
<path d="M50.5318 24.7343C50.5318 24.3378 50.5194 23.9462 50.5022 23.5547H0.0295507C0.0123128 23.9462 0 24.3378 0 24.7343C0 25.1307 -2.75213e-08 25.5198 0.0295507 25.9114H50.4924C50.5096 25.5198 50.5318 25.1184 50.5318 24.7343Z" fill="#DC2323"/>
<path d="M49.2709 32.5846C49.5172 31.8458 49.7265 31.0652 49.9014 30.2845L25.3472 27.5339C25.2891 27.5265 25.2304 27.5265 25.1723 27.5339L0.620575 30.2895C0.795417 31.0701 1.00473 31.8384 1.25099 32.5895L25.1674 29.9028C25.2254 29.8955 25.2842 29.8955 25.3422 29.9028L49.2709 32.5846Z" fill="#DC2323"/>
<path d="M46.3454 38.6623C46.8018 37.976 47.2229 37.266 47.6087 36.5322L25.4456 31.5602C25.332 31.5356 25.2145 31.5356 25.1009 31.5602L2.93781 36.5322C3.31047 37.2611 3.72665 37.9711 4.18632 38.6623L25.0885 33.9834C25.2019 33.9562 25.32 33.9562 25.4333 33.9834L46.3454 38.6623Z" fill="#DC2323"/>
<path d="M41.9867 43.6565C42.6467 43.0728 43.2763 42.4555 43.873 41.8071L25.5121 35.631C25.3521 35.5791 25.1797 35.5791 25.0196 35.631L6.64645 41.8071C7.24568 42.4539 7.87527 43.0704 8.53524 43.6565L25.0098 38.1157C25.1698 38.0638 25.3422 38.0638 25.5023 38.1157L41.9867 43.6565Z" fill="#DC2323"/>
<path d="M36.5863 47.3107C37.4529 46.8747 38.294 46.3896 39.1055 45.8578L25.5811 39.795C25.4804 39.7499 25.3713 39.7266 25.2609 39.7266C25.1506 39.7266 25.0415 39.7499 24.9408 39.795L11.4164 45.8578C12.2278 46.3896 13.0689 46.8747 13.9356 47.3107L24.9408 42.3856C25.0415 42.3405 25.1506 42.3172 25.2609 42.3172C25.3713 42.3172 25.4804 42.3405 25.5811 42.3856L36.5863 47.3107Z" fill="#DC2323"/>
<path d="M30.457 49.4556C31.5429 49.2265 32.6124 48.9254 33.6583 48.5544L25.6377 44.0602C25.5206 43.9937 25.3883 43.9587 25.2536 43.9587C25.1189 43.9587 24.9865 43.9937 24.8694 44.0602L16.8562 48.5544C17.9022 48.9254 18.9717 49.2265 20.0576 49.4556L24.8694 46.7468C24.9869 46.6815 25.1191 46.6472 25.2536 46.6472C25.388 46.6472 25.5202 46.6815 25.6377 46.7468L30.457 49.4556Z" fill="#DC2323"/>
</svg>
