<svg width="326" height="80" viewBox="0 0 326 80" fill="none" xmlns="http://www.w3.org/2000/svg">
<g clip-path="url(#clip0_1348_345)">
<path d="M47.533 16.5271H33.9719L24.1428 52.7812H23.8765L13.9195 16.5271H0L16.4996 64.2779H31.1767L47.533 16.5271Z" fill="#020303"/>
<path d="M107.454 57.909C109.231 55.5912 110.122 52.8683 110.122 49.7505V49.7095C110.122 46.2123 109.031 43.4125 106.855 41.3357C104.669 39.264 101.076 37.7 96.0639 36.6591L87.9702 34.9207C85.5744 34.4182 83.9004 33.7516 82.9482 32.9157C81.996 32.0901 81.525 31.0594 81.525 29.8493V29.8082C81.525 28.7673 81.827 27.8802 82.4158 27.1264C83.0045 26.3879 83.8492 25.8085 84.9549 25.388C86.0453 24.9829 87.3405 24.7675 88.82 24.7675C91.2312 24.7675 93.1151 25.347 94.4922 26.4854C95.8745 27.634 96.668 29.0493 96.8676 30.7415L96.9086 31.0953H108.878V30.6441C108.78 27.8545 107.946 25.3162 106.364 23.0292C104.777 20.7473 102.509 18.9218 99.5553 17.5731C96.6116 16.2194 93.023 15.5476 88.8149 15.5476C84.6068 15.5476 81.269 16.1681 78.2589 17.4039C75.2487 18.6346 72.9143 20.3627 71.2761 22.5933C69.6277 24.8137 68.8034 27.4597 68.8034 30.5159V30.5569C68.8034 34.1156 69.9707 37.0642 72.3153 39.382C74.66 41.6998 78.1411 43.3304 82.7639 44.2842L90.8575 46.0226C93.2022 46.5251 94.8301 47.161 95.7516 47.9301C96.6731 48.7045 97.1338 49.73 97.1338 51.0069V51.0479C97.1338 52.0889 96.8113 52.976 96.1816 53.7195C95.5417 54.4579 94.6407 55.0374 93.4837 55.4374C92.3268 55.8322 90.9241 56.0373 89.2654 56.0373C86.6853 56.0373 84.6734 55.5245 83.2144 54.4836C81.7605 53.4426 80.8288 51.9863 80.409 50.1198L80.3219 49.7146H67.6465L67.6874 50.1198C68.0407 53.1093 69.0799 55.7502 70.8051 58.0218C72.5303 60.2935 74.9364 62.0626 78.0336 63.3394C81.1257 64.6163 84.873 65.2572 89.2654 65.2572C93.3557 65.2572 96.9649 64.6163 100.088 63.3138C103.216 62.0267 105.678 60.2268 107.454 57.909Z" fill="#020303"/>
<path d="M178.009 64.2676H184.347C184.347 64.2676 184.357 64.2676 184.362 64.2676H186.886L193.127 58.0064H193.403V64.2829H206.381V31.5415C206.381 28.3211 205.546 25.5213 203.877 23.1061C202.198 20.7063 199.853 18.8397 196.823 17.5167C195.922 17.1321 194.98 16.7886 193.987 16.5168H193.966C191.616 15.8655 189 15.5322 186.103 15.5322C181.925 15.5322 178.321 16.1886 175.281 17.4757C175.224 17.4962 175.173 17.5167 175.132 17.5424C172.168 18.8243 169.834 20.5934 168.165 22.8343C166.465 25.1316 165.477 27.7468 165.211 30.6851L165.17 31.2081H177.088L177.175 30.8133C177.507 29.2698 178.383 28.0032 179.796 27.0084C181.219 26.0136 183.149 25.5162 185.586 25.5162C188.023 25.5162 190.07 26.1264 191.412 27.3417C192.737 28.5622 193.413 30.2287 193.413 32.326V35.254L181.629 35.9822C179.243 36.1412 177.088 36.4642 175.142 36.9565C172.26 37.6898 169.844 38.7974 167.904 40.2742C164.658 42.751 163.035 46.161 163.035 50.4941V50.5813C163.035 52.3658 163.301 54.0169 163.859 55.5399C166.47 60.7191 171.835 64.2573 178.025 64.2573L178.009 64.2676ZM177.881 45.7918C179.187 44.7816 181.081 44.2022 183.579 44.0535L193.408 43.3971V46.8482C193.408 48.4891 192.968 49.971 192.092 51.2889C191.217 52.6068 190.014 53.6477 188.494 54.4118C188.453 54.4323 188.422 54.4477 188.386 54.4631H188.376C186.876 55.181 185.186 55.5348 183.313 55.5348C181.055 55.5348 179.263 55.0425 177.927 54.0426C176.591 53.058 175.926 51.6735 175.926 49.9249V49.8428C175.926 49.7249 175.926 49.607 175.946 49.4993C176.023 47.966 176.663 46.7302 177.886 45.7867L177.881 45.7918Z" fill="#020303"/>
<path d="M226.166 0H213.179V64.2779H226.166V0Z" fill="#020303"/>
<path d="M265.688 4.84595H252.577V24.9985V50.9045V64.278H260.799H265.688V26.3266H274.406V16.5272H265.688V4.84595Z" fill="#020303"/>
<path d="M63.2951 16.5168H50.2715V29.5673H56.5222V29.8339L50.2715 36.0951V64.2676H63.2951V16.5168Z" fill="#020303"/>
<path d="M232.919 29.5673H239.17V29.8339L232.919 36.0951V64.2676H245.948V16.5168H232.919V29.5673Z" fill="#020303"/>
<path d="M114.453 51.3249C115.835 58.6988 122.286 64.2676 130.046 64.2676H138.918L145.164 58.0065H145.435V64.2676H158.418V16.5168H145.435V54.4683H135.918C133.016 54.4683 130.83 53.6068 129.371 51.8838C127.901 50.1711 127.164 47.7456 127.164 44.6227V16.522H114.182V47.3508C114.182 48.7404 114.274 50.0583 114.453 51.3095C114.453 51.3197 114.453 51.3249 114.453 51.3351V51.3249Z" fill="#020303"/>
<path d="M311.598 16.5271L301.564 53.8529H301.201L291.136 16.5271H276.858L293.675 64.2779H298.759L294.541 80H306.254L325.333 16.5271H311.598Z" fill="#020303"/>
</g>
<defs>
<clipPath id="clip0_1348_345">
<rect width="325.333" height="80" fill="white"/>
</clipPath>
</defs>
</svg>
