<svg width="164" height="68" viewBox="0 0 164 68" fill="none" xmlns="http://www.w3.org/2000/svg">
<path fill-rule="evenodd" clip-rule="evenodd" d="M84.3619 32.8958H77.1084V56.6001H84.3619V46.7107C84.3569 45.635 84.4214 44.56 84.5565 43.4928C84.6555 42.604 84.9442 41.747 85.4019 40.9799C85.854 40.2678 86.5002 39.7011 87.2637 39.3469C88.0712 38.9563 89.1646 38.761 90.5438 38.761C91.0699 38.7594 91.5954 38.8 92.1154 38.8828C92.6281 38.9684 93.1342 39.0904 93.6291 39.2479V32.5535C93.2493 32.4525 92.8606 32.3872 92.4685 32.3582C92.0475 32.3278 91.6288 32.31 91.2072 32.31C89.5956 32.31 88.2575 32.676 87.1931 33.408C86.1281 34.14 85.21 35.2389 84.4375 36.7046H84.3391L84.3619 32.8958ZM104.546 19.7275H97.2979V56.6001H103.971V53.4787H104.07C104.402 53.9489 104.782 54.3824 105.205 54.7719C105.704 55.2345 106.256 55.6357 106.85 55.9666C107.501 56.3334 108.19 56.6272 108.904 56.8435C109.673 57.0759 110.472 57.1915 111.275 57.186C112.899 57.2081 114.511 56.9011 116.014 56.283C117.396 55.7076 118.641 54.8434 119.665 53.7475C120.699 52.6275 121.498 51.3086 122.011 49.8703C122.574 48.2898 122.852 46.6216 122.834 44.9433C122.838 43.3277 122.583 41.7222 122.077 40.1887C121.608 38.7324 120.888 37.3703 119.95 36.1645C119.039 35.0006 117.893 34.0446 116.586 33.3599C115.196 32.6435 113.651 32.2829 112.088 32.31C110.648 32.2976 109.216 32.537 107.857 33.0175C106.567 33.4779 105.446 34.3194 104.64 35.4316H104.544L104.546 19.7275ZM105.49 49.0893C104.481 47.9837 103.976 46.5366 103.976 44.748C103.976 42.9595 104.481 41.5124 105.49 40.4068C106.499 39.3012 107.929 38.7484 109.779 38.7484C111.63 38.7484 113.059 39.3012 114.069 40.4068C115.078 41.5124 115.583 42.9595 115.583 44.748C115.583 46.5366 115.078 47.9837 114.069 49.0893C113.059 50.1949 111.63 50.7477 109.779 50.7477C107.929 50.7477 106.501 50.1949 105.495 49.0893H105.49ZM149.608 38.7484H155.992V32.8958H149.608V25.8819H142.357V32.906H137.715V38.7586H142.357V50.025C142.325 51.1658 142.549 52.2992 143.011 53.3418C143.422 54.2221 144.045 54.985 144.825 55.5605C145.637 56.1442 146.555 56.5641 147.527 56.7954C148.636 57.0637 149.772 57.1948 150.913 57.186C151.769 57.1843 152.625 57.1351 153.476 57.0388C154.338 56.9459 155.185 56.7495 155.999 56.4529V50.3673C155.592 50.6945 155.095 50.8899 154.574 50.9277C154.072 50.9989 153.567 51.0396 153.06 51.0494C152.42 51.0759 151.782 50.968 151.186 50.7324C150.751 50.5519 150.387 50.2353 150.146 49.8297C149.908 49.4014 149.759 48.9285 149.71 48.4401C149.642 47.8509 149.61 47.2582 149.613 46.6651L149.608 38.7484ZM127.3 22.4332C126.615 23.1244 126.19 24.0327 126.097 25.0034C126.004 25.9741 126.249 26.9471 126.79 27.7569C127.33 28.5667 128.133 29.1633 129.062 29.4449C129.991 29.7266 130.988 29.676 131.884 29.3017C132.78 28.9275 133.519 28.2527 133.976 27.3923C134.432 26.5319 134.579 25.539 134.388 24.5827C134.199 23.6264 133.685 22.7658 132.935 22.1473C132.185 21.5288 131.245 21.1907 130.274 21.1907C129.72 21.1839 129.171 21.2906 128.66 21.5042C128.148 21.7178 127.685 22.0339 127.3 22.4332ZM133.902 32.8958H126.646V56.6001H133.902V32.8958Z" fill="#3A4045"/>
<path fill-rule="evenodd" clip-rule="evenodd" d="M72.5722 30.1572C71.9878 25.7123 70.3255 21.4797 67.7329 17.8311C65.1402 14.1826 61.6956 11.2296 57.7021 9.23151C53.7082 7.23345 49.2875 6.25144 44.828 6.37167C40.3685 6.49189 36.0065 7.71071 32.1251 9.92106C28.2438 12.1315 24.9618 15.2658 22.5673 19.0488C20.1728 22.8319 18.7392 27.1479 18.3921 31.6179C18.0451 36.0879 18.7954 40.5752 20.5771 44.6858C22.3588 48.7962 25.1174 52.4043 28.6107 55.1929C31.2851 53.996 34.2093 52.5988 37.3152 51.0317C34.1738 49.519 31.5046 47.1706 29.5972 44.2411C27.6898 41.3118 26.6172 37.9132 26.4956 34.4145C26.374 30.9157 27.2081 27.4503 28.9075 24.3943C30.6068 21.3382 33.1065 18.8084 36.1352 17.0791C39.164 15.3498 42.6061 14.4872 46.0881 14.5849C49.5701 14.6826 52.9589 15.7369 55.887 17.6333C58.8149 19.5297 61.1701 22.1959 62.6972 25.3425C64.2243 28.489 64.8649 31.9958 64.5491 35.4823C67.4253 33.649 70.1153 31.8638 72.5722 30.1572ZM72.8019 33.261C70.0497 35.3074 66.9988 37.4272 63.7193 39.5649C62.254 44.1831 59.1024 48.072 54.899 50.4485C50.6955 52.825 45.7522 53.5128 41.0645 52.3731C37.4691 54.1101 34.0579 55.6141 30.9344 56.859C35.0889 59.5142 39.8817 60.9892 44.8033 61.1259C49.725 61.2631 54.5916 60.0569 58.8861 57.6364C63.1805 55.2161 66.7419 51.6716 69.1921 47.3796C71.6424 43.0876 72.8898 38.2085 72.8019 33.261Z" fill="#3A4045"/>
<path fill-rule="evenodd" clip-rule="evenodd" d="M74.1869 10.9861C74.5561 10.9861 74.9165 10.8762 75.2229 10.6703C75.5294 10.4644 75.7685 10.1718 75.9097 9.82933C76.051 9.48691 76.0877 9.11013 76.016 8.74662C75.9437 8.38312 75.7663 8.04921 75.5054 7.78713C75.2446 7.52504 74.9126 7.34661 74.5511 7.27429C74.1891 7.20198 73.8143 7.2391 73.4734 7.38091C73.133 7.52277 72.8416 7.76295 72.637 8.07112C72.4318 8.3793 72.3228 8.74159 72.3228 9.11223C72.3222 9.35838 72.37 9.60221 72.464 9.82972C72.5574 10.0572 72.6948 10.2639 72.8678 10.438C73.0413 10.6121 73.247 10.7502 73.4734 10.8442C73.6997 10.9383 73.9422 10.9865 74.1869 10.9861Z" fill="#6C4DF6"/>
<path fill-rule="evenodd" clip-rule="evenodd" d="M11.4476 42.8255C11.9395 42.8255 12.4203 42.6789 12.8291 42.4041C13.238 42.1293 13.5565 41.7387 13.7444 41.2819C13.9323 40.8251 13.981 40.3225 13.8845 39.8377C13.788 39.353 13.5506 38.9079 13.2022 38.5589C12.8539 38.2099 12.4104 37.9727 11.9278 37.8771C11.4452 37.7816 10.9453 37.8322 10.4913 38.0224C10.0373 38.2126 9.64973 38.5339 9.37756 38.9457C9.10539 39.3574 8.96091 39.8411 8.96241 40.3354C8.96442 40.9966 9.22713 41.6299 9.69299 42.0967C10.1589 42.5635 10.7898 42.8255 11.4476 42.8255Z" fill="#6C4DF6"/>
<path fill-rule="evenodd" clip-rule="evenodd" d="M53.4209 28.1128C56.1057 26.6217 58.7195 25.2067 61.2426 23.9008C61.3361 24.053 61.4367 24.233 61.5429 24.4359C59.0421 25.7494 56.4283 27.1694 53.7439 28.663L53.4209 28.1128ZM88.2897 14.8075C87.0912 12.7206 79.8249 14.9368 69.5405 19.7675C69.6368 19.9272 69.7324 20.0921 69.8236 20.2594C79.6759 15.5454 86.5512 13.276 87.4243 15.1017C88.7968 17.4904 73.043 29.2108 52.2528 41.2785C31.4627 53.3463 13.4834 61.1917 12.1108 58.8032C11.3287 57.3835 15.1965 53.5136 18.6708 50.4352C13.6675 54.4924 11.0435 57.6192 11.9065 59.1202C13.8644 62.5306 32.8151 55.8238 53.9104 43.5911C75.0056 31.3585 90.2578 18.2182 88.2897 14.8075Z" fill="#6C4DF6"/>
<path d="M50.9495 30.097C50.5049 29.3303 50.3388 28.4324 50.4793 27.5564C50.6198 26.6803 51.0584 25.8804 51.7201 25.2929C52.3819 24.7055 53.2259 24.3669 54.1082 24.335C54.9906 24.3031 55.8566 24.5797 56.5587 25.1178C57.2605 25.6558 57.7555 26.422 57.9585 27.2856C58.1615 28.1493 58.0597 29.0568 57.6715 29.8537C57.2828 30.6505 56.631 31.2873 55.8279 31.6553C55.0245 32.0234 54.119 32.1 53.2656 31.872C52.7798 31.7501 52.3237 31.5298 51.9254 31.2246C51.5272 30.9194 51.1951 30.5357 50.9495 30.097Z" fill="#C832BE"/>
</svg>
