<svg width="242" height="41" viewBox="0 0 242 41" fill="none" xmlns="http://www.w3.org/2000/svg">
<g clip-path="url(#clip0_396_158)">
<path d="M44.6683 0.593264C39.026 0.603917 33.6181 2.70545 29.6284 6.43782C25.6387 10.1702 23.3922 15.2293 23.3809 20.5076H30.9004C30.9004 17.9602 31.7079 15.4701 33.2207 13.352C34.7335 11.2339 36.8838 9.58306 39.3995 8.60821C41.9153 7.63337 44.6835 7.37831 47.3542 7.87528C50.025 8.37225 52.4781 9.59894 54.4036 11.4002C56.3291 13.2015 57.6404 15.4965 58.1716 17.9949C58.7028 20.4933 58.4302 23.0831 57.3881 25.4365C56.3461 27.79 54.5814 29.8016 52.3173 31.2168C50.0532 32.6321 47.3913 33.3875 44.6683 33.3875C44.065 33.3875 43.0523 33.3875 43.0523 33.3875C41.4892 35.6572 39.572 37.6954 37.3642 39.4344C39.7236 40.1852 42.1976 40.5732 44.6898 40.5833C47.4966 40.5819 50.2757 40.0634 52.8683 39.0574C55.4609 38.0513 57.8163 36.5774 59.8001 34.7197C61.7838 32.8621 63.357 30.6571 64.4298 28.2307C65.5026 25.8043 66.0541 23.204 66.0526 20.5782C66.0512 17.9524 65.497 15.3526 64.4215 12.9272C63.3461 10.5018 61.7706 8.29831 59.7848 6.44254C57.7991 4.58677 55.4421 3.11506 52.8484 2.11144C50.2547 1.10782 47.4751 0.591941 44.6683 0.593264Z" fill="#BB16A3"/>
<path d="M21.4012 40.4419C27.0435 40.4313 32.4514 38.3297 36.4411 34.5974C40.4308 30.865 42.6772 25.8059 42.6886 20.5276H35.1906C35.1864 23.0732 34.3758 25.5606 32.8613 27.6756C31.3469 29.7906 29.1964 31.4383 26.6815 32.4107C24.1667 33.383 21.4002 33.6364 18.7315 33.1388C16.0628 32.6411 13.6116 31.4149 11.6874 29.6148C9.76325 27.8147 8.45242 25.5216 7.9205 23.0251C7.38858 20.5285 7.65941 17.9405 8.6988 15.5878C9.73818 13.2351 11.4995 11.2234 13.7603 9.8066C16.0211 8.38982 18.68 7.63155 21.4012 7.62756C22.0045 7.62756 23.0172 7.62756 23.0172 7.62756C24.58 5.35766 26.4973 3.31945 28.7053 1.58069C26.3431 0.886686 23.8768 0.553196 21.4012 0.593034C15.7526 0.593034 10.3353 2.69221 6.34112 6.42877C2.34694 10.1653 0.103027 15.2332 0.103027 20.5175C0.103027 25.8018 2.34694 30.8696 6.34112 34.6062C10.3353 38.3428 15.7526 40.4419 21.4012 40.4419Z" fill="#00AF66"/>
<path d="M81.3843 40.0191V0.996582H101.918C109.329 0.996582 114.134 5.20924 114.134 11.7197C114.158 13.505 113.571 15.2507 112.458 16.7014C111.346 18.1521 109.766 19.2316 107.95 19.7822V20.145C110.144 20.593 112.093 21.7592 113.448 23.4334C114.803 25.1076 115.475 27.1796 115.341 29.2758C115.341 34.6172 112.346 39.9989 102.004 39.9989L81.3843 40.0191ZM101.034 33.69C104.848 33.69 107.11 31.6744 107.11 28.53C107.136 27.8285 107.004 27.1296 106.723 26.4789C106.441 25.8283 106.016 25.2404 105.475 24.7537C104.935 24.2669 104.29 23.8921 103.585 23.6537C102.879 23.4153 102.127 23.3186 101.379 23.37H89.3994V33.69H101.034ZM100.409 17.565C101.186 17.6225 101.966 17.5255 102.7 17.2804C103.433 17.0353 104.103 16.6478 104.664 16.1432C105.226 15.6386 105.667 15.0284 105.959 14.3529C106.251 13.6773 106.386 12.9516 106.356 12.2236C106.36 11.5693 106.221 10.9212 105.949 10.3184C105.677 9.71555 105.277 9.17061 104.774 8.71651C104.27 8.26241 103.674 7.90859 103.02 7.67645C102.366 7.44431 101.668 7.33868 100.97 7.36596H89.3994V17.5247L100.409 17.565Z" fill="#222221"/>
<path d="M160.757 40.9063C158.616 40.9351 156.491 40.5558 154.512 39.7915C152.532 39.0272 150.74 37.8939 149.244 36.4606C147.749 35.0273 146.58 33.3241 145.811 31.4548C145.042 29.5855 144.687 27.5891 144.769 25.5875C144.728 23.642 145.097 21.708 145.855 19.8959C146.613 18.0838 147.745 16.4291 149.187 15.0263C150.628 13.6234 152.351 12.5 154.257 11.72C156.162 10.94 158.214 10.5188 160.293 10.4804C162.373 10.442 164.44 10.7872 166.377 11.4963C168.314 12.2053 170.083 13.2644 171.583 14.6129C173.082 15.9615 174.283 17.5731 175.117 19.3559C175.951 21.1386 176.401 23.0575 176.442 25.003V27.4016H152.418V27.7039C152.65 29.6303 153.617 31.414 155.14 32.7281C156.664 34.0423 158.642 34.7989 160.713 34.8594C162.302 34.9812 163.894 34.6641 165.292 33.9475C166.69 33.2309 167.832 32.1463 168.578 30.8282H176.119V31.0096C175.058 33.9981 172.984 36.5814 170.211 38.3675C167.439 40.1535 164.119 41.0449 160.757 40.9063ZM168.556 22.423V22.1005C168.175 20.4681 167.194 19.012 165.786 17.9849C164.377 16.9577 162.628 16.4242 160.843 16.4769C159.028 16.4541 157.256 16.9931 155.802 18.0102C154.349 19.0273 153.295 20.4653 152.806 22.1005V22.423H168.556Z" fill="#222221"/>
<path d="M189.89 1.01758H182.133V40.0401H189.89V1.01758Z" fill="#222221"/>
<path d="M203.355 1.01758H195.598V40.0401H203.355V1.01758Z" fill="#222221"/>
<path d="M223.521 40.9055C214.515 40.9055 208.439 33.5081 208.439 25.5867C208.439 17.6653 214.623 10.2075 223.521 10.2075C231.213 10.2075 233.863 14.1178 233.863 14.1178H234.251V11.0944H242.008V40.0186H234.251V36.9952H233.863C233.863 36.9952 231.213 40.9055 223.521 40.9055ZM224.965 16.4761C219.492 16.4761 215.851 20.2252 215.851 25.5867C215.744 26.7558 215.903 27.9328 216.315 29.0408C216.728 30.1488 217.386 31.163 218.246 32.017C219.106 32.871 220.149 33.5458 221.307 33.9972C222.464 34.4487 223.711 34.6666 224.965 34.6369C226.21 34.6214 227.44 34.3738 228.582 33.9085C229.725 33.4431 230.756 32.7694 231.617 31.9268C232.478 31.0841 233.15 30.0894 233.595 29.0008C234.04 27.9122 234.248 26.7516 234.208 25.5867C234.254 24.4176 234.05 23.2516 233.608 22.1572C233.166 21.0628 232.495 20.0619 231.634 19.2133C230.773 18.3648 229.74 17.6855 228.594 17.2155C227.449 16.7455 226.215 16.4941 224.965 16.4761Z" fill="#222221"/>
<path d="M120.768 40.0189V11.0946H128.525V17.3229H128.912C129.843 15.2766 131.418 13.544 133.427 12.3557C135.436 11.1675 137.784 10.5799 140.159 10.6714H141.668V17.8873H140.159C132.532 17.8873 128.654 22.2209 128.654 30.7873V40.0189H120.768Z" fill="#222221"/>
</g>
<defs>
<clipPath id="clip0_396_158">
<rect width="241.875" height="40.3125" fill="white" transform="translate(0.113281 0.59375)"/>
</clipPath>
</defs>
</svg>
