<svg width="236" height="68" viewBox="0 0 236 68" fill="none" xmlns="http://www.w3.org/2000/svg">
<g clip-path="url(#clip0_396_149)">
<path d="M50.6087 12.8101C50.5616 12.4792 50.2789 12.2901 50.0433 12.2901C49.8076 12.2901 45.1425 12.1956 45.1425 12.1956C45.1425 12.1956 41.2313 8.41404 40.8543 7.98862C40.4774 7.61047 39.7234 7.70501 39.4407 7.79955C39.4407 7.79955 38.6867 8.03589 37.4615 8.41404C37.273 7.75228 36.9432 6.94871 36.5191 6.09787C35.1525 3.45081 33.0791 2.03274 30.6287 2.03274C30.4402 2.03274 30.2989 2.03274 30.1104 2.08001C30.0161 1.98547 29.969 1.89093 29.8748 1.84366C28.791 0.709211 27.4244 0.141984 25.7751 0.189253C22.6179 0.283791 19.4607 2.59997 16.8689 6.66509C15.0783 9.5485 13.7117 13.1409 13.2876 15.9298C9.65916 17.0643 7.11454 17.8678 7.0203 17.8678C5.18251 18.4351 5.13539 18.4823 4.89978 20.2313C4.80553 21.5548 -0.000976562 58.85 -0.000976562 58.85L40.336 65.8458L57.8185 61.497C57.7714 61.497 50.6559 13.1409 50.6087 12.8101ZM35.4352 9.07581C34.4928 9.35942 33.4561 9.6903 32.3251 10.0685C32.3251 8.46131 32.0895 6.1924 31.3827 4.30165C33.786 4.6798 34.964 7.4214 35.4352 9.07581ZM30.2046 10.683C28.0841 11.3447 25.7751 12.0537 23.4661 12.7628C24.1258 10.2575 25.351 7.79955 26.8589 6.14514C27.4244 5.53064 28.2255 4.86887 29.1208 4.49072C30.0633 6.33421 30.2518 8.934 30.2046 10.683ZM25.8693 2.31635C26.6233 2.31635 27.2359 2.45816 27.7543 2.83631C26.906 3.26173 26.0578 3.9235 25.3039 4.77434C23.2776 6.94871 21.7226 10.3048 21.11 13.5664C19.1779 14.1809 17.293 14.7481 15.5966 15.268C16.7276 10.1157 21.0157 2.45816 25.8693 2.31635Z" fill="#95BF47"/>
<path d="M50.0437 12.2898C49.8081 12.2898 45.1429 12.1952 45.1429 12.1952C45.1429 12.1952 41.2318 8.41372 40.8548 7.9883C40.7134 7.84649 40.5249 7.75195 40.3364 7.75195V65.8454L57.8189 61.4967C57.8189 61.4967 50.7034 13.1406 50.6563 12.8097C50.562 12.4788 50.2793 12.2898 50.0437 12.2898Z" fill="#5E8E3E"/>
<path d="M30.6294 21.3196L28.6031 28.9298C28.6031 28.9298 26.3412 27.8899 23.6553 28.079C19.697 28.3154 19.697 30.8206 19.697 31.4351C19.9326 34.8385 28.8387 35.5948 29.3571 43.5832C29.7341 49.87 26.0585 54.1714 20.6865 54.5023C14.2779 54.8332 10.7437 51.0517 10.7437 51.0517L12.1102 45.2376C12.1102 45.2376 15.6915 47.9319 18.5189 47.7429C20.3567 47.6483 21.0635 46.0885 20.9693 45.0485C20.6865 40.6053 13.4296 40.8889 12.9584 33.5622C12.5814 27.4172 16.5869 21.225 25.4459 20.6578C28.8859 20.4214 30.6294 21.3196 30.6294 21.3196Z" fill="white"/>
<path d="M81.4676 37.5314C79.4413 36.4442 78.4047 35.4988 78.4047 34.2226C78.4047 32.6154 79.8655 31.5755 82.1273 31.5755C84.7662 31.5755 87.1223 32.6627 87.1223 32.6627L88.9601 26.9904C88.9601 26.9904 87.2637 25.6669 82.2687 25.6669C75.2946 25.6669 70.4409 29.6847 70.4409 35.3097C70.4409 38.524 72.7028 40.9347 75.7187 42.6837C78.169 44.0545 79.0172 45.0471 79.0172 46.5125C79.0172 48.0251 77.7921 49.2541 75.5302 49.2541C72.1845 49.2541 68.9801 47.5051 68.9801 47.5051L67.001 53.1774C67.001 53.1774 69.9226 55.1627 74.8705 55.1627C82.0331 55.1627 87.2166 51.6175 87.2166 45.2362C87.1695 41.7856 84.5777 39.3276 81.4676 37.5314ZM110.024 25.5723C106.49 25.5723 103.71 27.274 101.589 29.8265L101.495 29.7793L104.558 13.7079H96.594L88.8188 54.6427H96.7825L99.4213 40.6511C100.458 35.357 103.191 32.0955 105.736 32.0955C107.526 32.0955 108.233 33.3244 108.233 35.0734C108.233 36.1606 108.139 37.5314 107.903 38.6186L104.888 54.6427H112.851L115.961 38.0986C116.291 36.3497 116.527 34.2698 116.527 32.8518C116.574 28.3139 114.218 25.5723 110.024 25.5723ZM134.622 25.5723C125.009 25.5723 118.647 34.2698 118.647 43.9599C118.647 50.1522 122.464 55.1627 129.627 55.1627C139.051 55.1627 145.413 46.7015 145.413 36.7751C145.46 31.0555 142.114 25.5723 134.622 25.5723ZM130.711 49.065C127.978 49.065 126.847 46.7488 126.847 43.8181C126.847 39.2331 129.203 31.7646 133.538 31.7646C136.365 31.7646 137.308 34.2226 137.308 36.586C137.308 41.502 134.905 49.065 130.711 49.065ZM165.864 25.5723C160.492 25.5723 157.429 30.3465 157.429 30.3465H157.335L157.806 26.045H150.738C150.408 28.9284 149.748 33.3717 149.136 36.6805L143.575 65.9872H151.539L153.754 54.1228H153.942C153.942 54.1228 155.592 55.1627 158.607 55.1627C167.985 55.1627 174.111 45.5198 174.111 35.7824C174.111 30.3938 171.707 25.5723 165.864 25.5723ZM158.23 49.1595C156.157 49.1595 154.932 47.9778 154.932 47.9778L156.251 40.5093C157.194 35.4988 159.785 32.19 162.566 32.19C165.016 32.19 165.77 34.4589 165.77 36.586C165.77 41.7856 162.707 49.1595 158.23 49.1595ZM185.514 14.086C182.97 14.086 180.943 16.1186 180.943 18.7184C180.943 21.0818 182.451 22.7362 184.713 22.7362H184.808C187.305 22.7362 189.426 21.0345 189.473 18.1039C189.473 15.7877 187.918 14.086 185.514 14.086ZM174.346 54.5954H182.31L187.729 26.2341H179.718L174.346 54.5954ZM208.039 26.1868H202.479L202.761 24.8633C203.232 22.1217 204.835 19.711 207.521 19.711C208.934 19.711 210.065 20.1364 210.065 20.1364L211.62 13.8497C211.62 13.8497 210.254 13.1406 207.285 13.1406C204.458 13.1406 201.63 13.9442 199.463 15.7877C196.73 18.1039 195.457 21.4599 194.845 24.8633L194.609 26.1868H190.886L189.708 32.2373H193.431L189.19 54.6427H197.154L201.395 32.2373H206.908L208.039 26.1868ZM227.265 26.2341C227.265 26.2341 222.27 38.8549 220.055 45.7562H219.961C219.82 43.5345 217.982 26.2341 217.982 26.2341H209.594L214.401 52.2793C214.495 52.8465 214.448 53.2246 214.212 53.6028C213.27 55.399 211.715 57.148 209.877 58.4242C208.369 59.5114 206.672 60.2204 205.353 60.6931L207.568 67.4999C209.17 67.169 212.563 65.7982 215.39 63.1511C219.019 59.7478 222.411 54.4536 225.851 47.2688L235.606 26.2341H227.265Z" fill="black"/>
</g>
<defs>
<clipPath id="clip0_396_149">
<rect width="235.613" height="67.5" fill="white"/>
</clipPath>
</defs>
</svg>
