<svg width="46" height="51" viewBox="0 0 46 51" fill="none" xmlns="http://www.w3.org/2000/svg">
<path d="M9.04851 19.0285L4.69145 20.2865L4.35393 19.3047L8.52689 17.5864C12.2396 16.0522 20.5855 14.3953 20.5855 7.24606C20.5855 3.22652 17.3331 0.0661164 11.0429 0.0661164C4.04709 0.0661164 0.733276 3.16515 0.733276 8.07451H4.9676C4.9676 5.25163 6.90066 3.59472 11.1043 3.59472C14.7863 3.59472 16.3819 5.19026 16.3819 7.39948C16.3819 14.5487 0.487808 13.9964 0.487808 20.5934V22.5571H20.6469V19.0285H9.04851ZM45.4255 11.7259C45.4255 5.6812 41.498 0.465002 33.9499 0.465002C26.4631 0.465002 22.5049 5.6812 22.5049 11.7872C22.5049 17.8319 26.4631 23.0481 33.9499 23.0481C40.332 23.0481 45.4255 18.9672 45.4255 11.7259ZM33.9499 19.5195C29.4087 19.5195 26.7392 16.2056 26.7392 11.7565C26.7392 7.30743 29.4087 3.99361 33.9499 3.99361C38.5217 3.99361 41.1912 7.30743 41.1912 11.7565C41.1912 16.2056 38.5217 19.5195 33.9499 19.5195ZM9.04851 46.0285L4.69145 47.2865L4.35393 46.3047L8.52689 44.5864C12.2396 43.0522 20.5855 41.3953 20.5855 34.2461C20.5855 30.2265 17.3331 27.0661 11.0429 27.0661C4.04709 27.0661 0.733276 30.1652 0.733276 35.0745H4.9676C4.9676 32.2516 6.90066 30.5947 11.1043 30.5947C14.7863 30.5947 16.3819 32.1903 16.3819 34.3995C16.3819 41.5487 0.487808 40.9964 0.487808 47.5934V49.5571H20.6469V46.0285H9.04851ZM39.749 39.2475V38.2042C42.756 38.1429 44.2595 36.3939 44.2595 34.1233C44.2595 29.2753 39.3195 27.4036 34.6556 27.4036C29.286 27.4036 24.3766 29.5822 24.3766 35.412H28.6109C28.5802 32.313 31.8327 30.9322 34.7169 30.9322C37.2944 30.9322 40.0252 31.8221 40.0252 34.3074C40.0252 36.3632 38.7058 37.4985 36.3125 37.4985H31.802V39.9532H36.3125C38.9513 39.9532 40.0252 40.9044 40.0252 43.1136C40.0252 45.6603 37.3864 46.5195 34.7476 46.5195C31.9247 46.5195 28.5802 45.0773 28.6109 42.0704H24.3766C24.3766 47.8389 29.378 50.0481 34.6863 50.0481C39.3501 50.0481 44.2595 48.2071 44.2595 43.2977C44.2595 40.8737 42.9094 39.3088 39.749 39.2475Z" fill="#D9D9D9"/>
</svg>
