<svg width="440" height="153" viewBox="0 0 440 153" fill="none" xmlns="http://www.w3.org/2000/svg">
<mask id="mask0_214_221" style="mask-type:alpha" maskUnits="userSpaceOnUse" x="0" y="0" width="440" height="153">
<rect width="440" height="153" fill="#FF74BD"/>
</mask>
<g mask="url(#mask0_214_221)">
<path d="M68.2445 53.1056V41.8742H10V111.45H68.2445V100.218H23.6169V81.9297H65.0639V72.8849H23.6169V53.1056H68.2445Z" fill="#D9D9D9"/>
<path d="M122.095 41.8742V88.3903C122.095 98.0314 115.933 104.194 106.391 104.194C96.7502 104.194 89.5938 99.5223 89.5938 88.3903V41.8742H74.7842V86.4024C74.7842 100.019 82.1393 112.94 105.894 112.94C128.954 112.94 136.905 99.3235 136.905 86.4024V41.8742H122.095Z" fill="#D9D9D9"/>
<path d="M149.03 111.45H162.647V83.9176H197.932L188.092 111.648H217.015V100.317H205.784C207.871 87.5951 209.859 79.0473 200.615 78.4509V75.171C209.66 73.7794 216.32 68.611 216.32 58.8705C216.32 45.7505 204.293 41.9736 190.577 41.9736H149.03V111.45ZM162.647 53.0063H190.477C197.037 53.0063 202.802 56.2862 202.802 63.2438C202.802 70.0025 197.037 73.5807 190.278 73.4813L162.647 73.2825V53.0063Z" fill="#D9D9D9"/>
<path d="M269.861 41.8742V88.3903C269.861 98.0314 263.699 104.194 254.157 104.194C244.516 104.194 237.36 99.5223 237.36 88.3903V41.8742H222.55V86.4024C222.55 100.019 229.905 112.94 253.66 112.94C276.72 112.94 284.671 99.3235 284.671 86.4024V41.8742H269.861Z" fill="#D9D9D9"/>
<path d="M353.252 79.2461C351.363 76.3637 344.903 74.674 337.647 74.674C334.168 74.674 330.491 75.0716 327.012 75.9661C324.129 76.7612 320.054 78.3515 317.669 79.0473L317.768 75.8667C325.62 74.2764 335.063 71.5928 340.132 65.6292L365.278 41.8742H348.58L315.283 72.2885H310.413V41.8742H296.796V111.45H310.413V83.9176H345.698L335.858 111.648H364.781V100.317H353.55C355.339 88.589 357.824 81.5321 353.252 79.2461Z" fill="#D9D9D9"/>
<path d="M388.295 107.877C369.517 124.886 349.045 136.779 331.144 142.271C313.205 147.774 298.031 146.803 289.616 138.388C281.201 129.974 280.932 115.501 287.594 98.7203C294.241 81.9756 307.733 63.1026 326.511 46.0928C345.289 29.083 365.761 17.19 383.661 11.6986C401.601 6.19543 416.775 7.16645 425.189 15.5812C433.604 23.9959 433.873 38.4681 427.212 55.2491C420.565 71.9938 407.073 90.8669 388.295 107.877Z" stroke="#D9D9D9"/>
<mask id="mask1_214_221" style="mask-type:alpha" maskUnits="userSpaceOnUse" x="282" y="7" width="151" height="140">
<ellipse cx="44.1878" cy="91.9627" rx="44.1878" ry="91.9627" transform="matrix(0.707107 0.707107 -0.74114 0.671351 394.315 -16)" fill="#FF74BD"/>
</mask>
<g mask="url(#mask1_214_221)">
<path d="M405.561 40C382.104 40 363.617 56.0023 363.617 76.3779C363.617 97.1511 381.607 112.656 405.561 112.656C429.614 112.656 447.605 97.1511 447.605 76.3779C447.505 55.5054 429.614 40 405.561 40ZM405.561 102.121C390.851 102.121 379.023 92.9766 379.023 76.7755C379.023 60.7732 390.851 50.8339 406.158 51.0327C421.961 51.2314 432.497 60.5744 432.497 76.7755C432.497 92.7778 420.47 102.121 405.561 102.121Z" fill="#D9D9D9"/>
</g>
<path d="M420.57 100.775L419.057 101.211L418.939 100.87L420.389 100.274C421.678 99.741 424.576 99.1656 424.576 96.6828C424.576 95.2869 423.447 94.1894 421.262 94.1894C418.833 94.1894 417.682 95.2656 417.682 96.9705H419.152C419.152 95.9902 419.824 95.4148 421.284 95.4148C422.562 95.4148 423.116 95.9689 423.116 96.7361C423.116 99.2189 417.597 99.0271 417.597 101.318V102H424.597V100.775H420.57ZM433.203 98.2385C433.203 96.1394 431.839 94.3279 429.217 94.3279C426.617 94.3279 425.243 96.1394 425.243 98.2599C425.243 100.359 426.617 102.17 429.217 102.17C431.434 102.17 433.203 100.753 433.203 98.2385ZM429.217 100.945C427.64 100.945 426.713 99.7943 426.713 98.2492C426.713 96.7041 427.64 95.5533 429.217 95.5533C430.805 95.5533 431.732 96.7041 431.732 98.2492C431.732 99.7943 430.805 100.945 429.217 100.945ZM420.57 109.775L419.057 110.211L418.939 109.87L420.389 109.274C421.678 108.741 424.576 108.166 424.576 105.683C424.576 104.287 423.447 103.189 421.262 103.189C418.833 103.189 417.682 104.266 417.682 105.971H419.152C419.152 104.99 419.824 104.415 421.284 104.415C422.562 104.415 423.116 104.969 423.116 105.736C423.116 108.219 417.597 108.027 417.597 110.318V111H424.597V109.775H420.57ZM431.231 107.42V107.057C432.275 107.036 432.798 106.429 432.798 105.64C432.798 103.957 431.082 103.307 429.462 103.307C427.598 103.307 425.893 104.063 425.893 106.088H427.363C427.353 105.012 428.482 104.532 429.484 104.532C430.379 104.532 431.327 104.841 431.327 105.704C431.327 106.418 430.869 106.812 430.038 106.812H428.471V107.665H430.038C430.954 107.665 431.327 107.995 431.327 108.762C431.327 109.647 430.411 109.945 429.494 109.945C428.514 109.945 427.353 109.444 427.363 108.4H425.893C425.893 110.403 427.63 111.17 429.473 111.17C431.093 111.17 432.798 110.531 432.798 108.826C432.798 107.984 432.329 107.441 431.231 107.42Z" fill="#D9D9D9"/>
</g>
</svg>
