<svg width="1214" height="211" viewBox="0 0 1214 211" fill="none" xmlns="http://www.w3.org/2000/svg">
<path fill-rule="evenodd" clip-rule="evenodd" d="M1213.51 20.8527C1193.31 7.63967 1167.69 0 1139.04 0C1071.5 0 1018.26 46.0794 1018.26 104.752C1018.26 148.327 1045.75 183.852 1087.35 199.932C1089.51 198.033 1091.66 196.11 1093.81 194.164C1100.63 187.989 1107.2 181.729 1113.53 175.406C1083.8 166.837 1062.62 142.685 1062.62 105.897C1062.62 59.8174 1096.68 31.1966 1140.76 31.769C1166.17 32.0886 1186.85 40.6173 1200.16 56.2092C1205.79 44.0691 1210.27 32.2272 1213.51 20.8527ZM167.718 5.39711V37.7386H39.2104V94.6938H158.559V120.739H39.2104V173.401H167.718V205.742H0V5.39711H167.718ZM322.784 139.342V5.39711H365.429V133.618C365.429 170.825 342.532 210.035 276.132 210.035C207.729 210.035 186.549 172.828 186.549 133.618V5.39711H229.194V139.342C229.194 171.397 249.801 184.849 277.563 184.849C305.039 184.849 322.784 167.104 322.784 139.342ZM400.344 205.742H439.554V126.463H541.158L512.823 206.315H596.11V173.687H563.768C564.11 171.606 564.45 169.564 564.784 167.562C570.325 134.33 573.991 112.341 548.886 110.721V101.277C574.93 97.2697 594.106 82.3869 594.106 54.3386C594.106 16.5592 559.475 5.68332 519.979 5.68332H400.344V205.742ZM439.554 37.4524H519.692C538.582 37.4524 555.182 46.8972 555.182 66.9317C555.182 86.3938 538.582 96.6973 519.12 96.4111L439.554 95.8387V37.4524ZM748.283 139.342V5.39711H790.928V133.618C790.928 170.825 768.031 210.035 701.631 210.035C633.227 210.035 612.048 172.828 612.048 133.618V5.39711H654.693V139.342C654.693 171.397 675.3 184.849 703.062 184.849C730.538 184.849 748.283 167.104 748.283 139.342ZM988.409 113.011C982.971 104.711 964.367 99.8456 943.474 99.8456C933.457 99.8456 922.867 100.99 912.85 103.566C908.252 104.835 902.599 106.806 897.304 108.653C893.041 110.139 889.01 111.545 885.946 112.439L886.232 103.28C908.843 98.7008 936.033 90.9732 950.629 73.8007L1023.04 5.39711H974.957L879.077 92.9766H865.053V5.39711H825.843V205.742H865.053V126.463H966.657L938.322 206.315H1021.61V173.687H989.267C990.285 167.017 991.38 160.872 992.382 155.254L992.383 155.246L992.384 155.242C996.453 132.419 998.972 118.293 988.409 113.011Z" fill="#D9D9D9"/>
</svg>
