<svg width="677" height="163" viewBox="0 0 677 163" fill="none" xmlns="http://www.w3.org/2000/svg">
<path d="M87.5671 49.5667V32.6809H0V137.283H87.5671V120.397H20.4722V92.902H82.7853V79.3037H20.4722V49.5667H87.5671Z" fill="black"/>
<path d="M168.529 32.6809V102.615C168.529 117.11 159.264 126.375 144.919 126.375C130.424 126.375 119.665 119.351 119.665 102.615V32.6809H97.3993V99.6264C97.3993 120.099 108.457 139.525 144.171 139.525C178.84 139.525 190.794 119.053 190.794 99.6264V32.6809H168.529Z" fill="black"/>
<path d="M209.024 137.283H229.496V95.8906H282.544L267.751 137.582H311.235V120.547H294.349C297.487 101.42 300.476 88.5685 286.579 87.6719V82.7406C300.177 80.6486 310.189 72.8781 310.189 58.2338C310.189 38.5088 292.108 32.8304 271.486 32.8304H209.024V137.283ZM229.496 49.4173H271.337C281.199 49.4173 289.866 54.3486 289.866 64.8088C289.866 74.9702 281.199 80.3497 271.038 80.2003L229.496 79.9014V49.4173Z" fill="black"/>
<path d="M390.686 32.6809V102.615C390.686 117.11 381.422 126.375 367.076 126.375C352.581 126.375 341.822 119.351 341.822 102.615V32.6809H319.557V99.6264C319.557 120.099 330.615 139.525 366.329 139.525C400.997 139.525 412.952 119.053 412.952 99.6264V32.6809H390.686Z" fill="black"/>
<path d="M516.058 88.8673C513.219 84.5338 503.506 81.9935 492.598 81.9935C487.368 81.9935 481.839 82.5912 476.608 83.9361C472.275 85.1315 466.148 87.5225 462.562 88.5685L462.711 83.7867C474.516 81.3957 488.712 77.3611 496.333 68.3952L534.14 32.6809H509.035L458.976 78.4071H451.653V32.6809H431.181V137.283H451.653V95.8906H504.702L489.908 137.582H533.393V120.547H516.507C519.197 102.914 522.932 92.3043 516.058 88.8673Z" fill="black"/>
<path d="M624.824 110.327C610.713 124.438 595.389 134.613 582.048 139.675C568.634 144.765 557.532 144.587 551.497 138.553C545.463 132.519 545.286 121.416 550.375 108.002C555.437 94.6613 565.613 79.3378 579.724 65.2269C593.834 51.116 609.158 40.9408 622.499 35.8786C635.913 30.789 647.015 30.9665 653.05 37.0008C659.084 43.035 659.262 54.1377 654.172 67.5513C649.11 80.8926 638.934 96.216 624.824 110.327Z" stroke="black" stroke-width="1.50344"/>
<mask id="mask0_222_457" style="mask-type:alpha" maskUnits="userSpaceOnUse" x="522" y="22" width="136" height="121">
<path d="M625.358 110.857C597.022 139.194 562.694 150.808 548.685 136.799C534.676 122.79 506.889 70.2275 535.226 41.891C563.562 13.5546 637.291 20.1747 651.3 34.1837C665.309 48.1928 653.695 82.5207 625.358 110.857Z" fill="#FF6161"/>
</mask>
<g mask="url(#mask0_222_457)">
<path d="M596.207 29.863C560.941 29.863 533.146 53.9216 533.146 84.5551C533.146 115.786 560.193 139.098 596.207 139.098C632.369 139.098 659.416 115.786 659.416 84.5551C659.267 53.1744 632.369 29.863 596.207 29.863ZM596.207 123.258C574.091 123.258 556.308 109.51 556.308 85.1529C556.308 61.0943 574.091 46.1511 597.103 46.45C620.863 46.7488 636.703 60.7955 636.703 85.1529C636.703 109.211 618.621 123.258 596.207 123.258Z" fill="black"/>
</g>
<path d="M639.188 125.941L637.18 126.52L637.025 126.068L638.947 125.276C640.658 124.569 644.502 123.806 644.502 120.513C644.502 118.661 643.004 117.205 640.106 117.205C636.883 117.205 635.357 118.633 635.357 120.894H637.308C637.308 119.594 638.198 118.83 640.135 118.83C641.831 118.83 642.566 119.565 642.566 120.583C642.566 123.877 635.244 123.622 635.244 126.661V127.566H644.531V125.941H639.188ZM655.946 122.576C655.946 119.792 654.137 117.389 650.659 117.389C647.21 117.389 645.387 119.792 645.387 122.605C645.387 125.389 647.21 127.792 650.659 127.792C653.599 127.792 655.946 125.912 655.946 122.576ZM650.659 126.167C648.567 126.167 647.337 124.64 647.337 122.59C647.337 120.541 648.567 119.014 650.659 119.014C652.765 119.014 653.995 120.541 653.995 122.59C653.995 124.64 652.765 126.167 650.659 126.167ZM639.188 137.941L637.18 138.52L637.025 138.068L638.947 137.276C640.658 136.569 644.502 135.806 644.502 132.513C644.502 130.661 643.004 129.205 640.106 129.205C636.883 129.205 635.357 130.633 635.357 132.894H637.308C637.308 131.594 638.198 130.83 640.135 130.83C641.831 130.83 642.566 131.565 642.566 132.583C642.566 135.877 635.244 135.622 635.244 138.661V139.566H644.531V137.941H639.188ZM653.331 134.817V134.336C654.716 134.308 655.409 133.502 655.409 132.456C655.409 130.223 653.133 129.36 650.984 129.36C648.511 129.36 646.249 130.364 646.249 133.05H648.2C648.186 131.622 649.684 130.986 651.013 130.986C652.2 130.986 653.458 131.396 653.458 132.541C653.458 133.488 652.85 134.011 651.748 134.011H649.67V135.142H651.748C652.963 135.142 653.458 135.58 653.458 136.598C653.458 137.771 652.242 138.167 651.027 138.167C649.726 138.167 648.186 137.502 648.2 136.117H646.249C646.249 138.775 648.553 139.792 650.998 139.792C653.147 139.792 655.409 138.944 655.409 136.683C655.409 135.566 654.787 134.845 653.331 134.817Z" fill="black"/>
</svg>
