<svg width="294" height="181" viewBox="0 0 294 181" fill="none" xmlns="http://www.w3.org/2000/svg">
<path d="M274.545 66.1956L273.775 66.4181L273.715 66.2444L274.453 65.9406C275.109 65.6693 276.585 65.3763 276.585 64.1121C276.585 63.4013 276.01 62.8425 274.898 62.8425C273.661 62.8425 273.075 63.3905 273.075 64.2586H273.824C273.824 63.7594 274.165 63.4664 274.909 63.4664C275.56 63.4664 275.842 63.7486 275.842 64.1392C275.842 65.4034 273.031 65.3058 273.031 66.4723V66.8196H276.596V66.1956H274.545ZM280.978 64.9043C280.978 63.8354 280.283 62.913 278.949 62.913C277.625 62.913 276.925 63.8354 276.925 64.9151C276.925 65.984 277.625 66.9064 278.949 66.9064C280.077 66.9064 280.978 66.1848 280.978 64.9043ZM278.949 66.2824C278.145 66.2824 277.673 65.6964 277.673 64.9097C277.673 64.123 278.145 63.537 278.949 63.537C279.757 63.537 280.229 64.123 280.229 64.9097C280.229 65.6964 279.757 66.2824 278.949 66.2824ZM274.545 71.1956L273.775 71.4181L273.715 71.2444L274.453 70.9406C275.109 70.6693 276.585 70.3763 276.585 69.1121C276.585 68.4013 276.01 67.8425 274.898 67.8425C273.661 67.8425 273.075 68.3905 273.075 69.2586H273.824C273.824 68.7594 274.165 68.4664 274.909 68.4664C275.56 68.4664 275.842 68.7486 275.842 69.1392C275.842 70.4034 273.031 70.3058 273.031 71.4723V71.8196H276.596V71.1956H274.545ZM279.974 69.9965V69.812C280.506 69.8012 280.772 69.4919 280.772 69.0904C280.772 68.2331 279.898 67.9022 279.073 67.9022C278.124 67.9022 277.256 68.2874 277.256 69.3183H278.004C277.999 68.7703 278.574 68.5261 279.084 68.5261C279.54 68.5261 280.023 68.6835 280.023 69.123C280.023 69.4865 279.79 69.6872 279.366 69.6872H278.569V70.1213H279.366C279.833 70.1213 280.023 70.2895 280.023 70.6802C280.023 71.1305 279.556 71.2824 279.09 71.2824C278.59 71.2824 277.999 71.0274 278.004 70.4957H277.256C277.256 71.5157 278.14 71.9064 279.079 71.9064C279.903 71.9064 280.772 71.5808 280.772 70.7127C280.772 70.2841 280.533 70.0074 279.974 69.9965Z" fill="black"/>
<path d="M258.941 69.2027C249.4 77.8448 239.008 83.8788 229.936 86.6617C220.826 89.4565 213.23 88.9277 209.05 84.7477C204.87 80.5678 204.69 73.3211 208.073 64.7989C211.442 56.3129 218.288 46.7319 227.828 38.0898C237.369 29.4477 247.761 23.4137 256.833 20.6308C265.943 17.836 273.539 18.3648 277.719 22.5447C281.899 26.7247 282.079 33.9713 278.696 42.4936C275.327 50.9795 268.481 60.5605 258.941 69.2027Z" stroke="black"/>
<mask id="mask0_325_1696" style="mask-type:alpha" maskUnits="userSpaceOnUse" x="10" y="16" width="272" height="73">
<path d="M259.291 69.5564C240.123 86.9187 217.462 93.8706 208.675 85.0837C199.889 76.2969 -10.5771 101.27 12.3225 37.3458C9.49374 11.0864 269.299 13.4225 278.086 22.2094C286.873 30.9962 278.458 52.1942 259.291 69.5564Z" fill="#FF74BD"/>
</mask>
<g mask="url(#mask0_325_1696)">
<path d="M267.288 34.814C255.344 34.814 245.931 42.9622 245.931 53.3374C245.931 63.9149 255.091 71.8101 267.288 71.8101C279.536 71.8101 288.696 63.9149 288.696 53.3374C288.646 42.7092 279.536 34.814 267.288 34.814ZM267.288 66.4454C259.798 66.4454 253.775 61.7893 253.775 53.5398C253.775 45.3915 259.798 40.3305 267.592 40.4317C275.639 40.5329 281.004 45.2903 281.004 53.5398C281.004 61.6881 274.88 66.4454 267.288 66.4454Z" fill="black"/>
<path d="M95.5288 41.4874V35.7684H65.8711V71.1957H95.5288V65.4767H72.8047V56.1644H93.9092V51.5589H72.8047V41.4874H95.5288Z" fill="black"/>
<path d="M122.949 35.7684V59.4541C122.949 64.3633 119.811 67.5011 114.953 67.5011C110.044 67.5011 106.4 65.1224 106.4 59.4541V35.7684H98.8588V58.4419C98.8588 65.3755 102.604 71.9548 114.7 71.9548C126.441 71.9548 130.49 65.0212 130.49 58.4419V35.7684H122.949Z" fill="black"/>
<path d="M136.664 71.1957H143.598V57.1766H161.565L156.554 71.2969H171.282V65.5273H165.563C166.626 59.0492 167.638 54.6967 162.931 54.393V52.7229C167.537 52.0144 170.928 49.3826 170.928 44.4228C170.928 37.7422 164.804 35.819 157.819 35.819H136.664V71.1957ZM143.598 41.4368H157.769C161.109 41.4368 164.045 43.1069 164.045 46.6497C164.045 50.0912 161.109 51.9131 157.668 51.8625L143.598 51.7613V41.4368Z" fill="black"/>
<path d="M198.191 35.7684V59.4541C198.191 64.3633 195.053 67.5011 190.194 67.5011C185.285 67.5011 181.641 65.1224 181.641 59.4541V35.7684H174.1V58.4419C174.1 65.3755 177.845 71.9548 189.941 71.9548C201.683 71.9548 205.732 65.0212 205.732 58.4419V35.7684H198.191Z" fill="black"/>
<path d="M240.652 54.7979C239.691 53.3302 236.401 52.4699 232.707 52.4699C230.935 52.4699 229.063 52.6723 227.291 53.1278C225.824 53.5327 223.749 54.3424 222.534 54.6967L222.584 53.0772C226.583 52.2674 231.391 50.9009 233.972 47.8643L246.776 35.7684H238.274L221.319 51.2552H218.839V35.7684H211.906V71.1957H218.839V57.1766H236.806L231.796 71.2969H246.523V65.5273H240.804C241.715 59.5553 242.98 55.962 240.652 54.7979Z" fill="black"/>
</g>
</svg>
